G75*
%MOIN*%
%OFA0B0*%
%FSLAX25Y25*%
%IPPOS*%
%LPD*%
%AMOC8*
5,1,8,0,0,1.08239X$1,22.5*
%
%ADD10R,0.04724X0.03150*%
%ADD11R,0.03543X0.03150*%
%ADD12R,0.03150X0.04724*%
%ADD13R,0.03150X0.03543*%
%ADD14C,0.07000*%
%ADD15R,0.04724X0.05512*%
%ADD16R,0.07400X0.07400*%
%ADD17C,0.07400*%
%ADD18R,0.07087X0.06299*%
%ADD19R,0.01772X0.01772*%
%ADD20C,0.03562*%
%ADD21C,0.01200*%
%ADD22C,0.01600*%
%ADD23C,0.01000*%
%ADD24C,0.03200*%
%ADD25C,0.02400*%
%ADD26C,0.04000*%
D10*
X0183657Y0120767D03*
X0183657Y0127854D03*
X0173657Y0127067D03*
X0173657Y0134154D03*
X0163657Y0134154D03*
X0163657Y0127067D03*
X0152407Y0127067D03*
X0152407Y0134154D03*
X0142407Y0134154D03*
X0142407Y0127067D03*
X0210591Y0126774D03*
X0210591Y0133861D03*
X0222918Y0130511D03*
X0222918Y0123424D03*
X0296957Y0148267D03*
X0309557Y0148267D03*
X0320557Y0141054D03*
X0320557Y0133967D03*
X0352057Y0140967D03*
X0352057Y0148054D03*
X0390114Y0153907D03*
X0390114Y0160994D03*
X0313550Y0195177D03*
X0313550Y0202264D03*
X0337053Y0227293D03*
X0337053Y0234380D03*
X0212250Y0178514D03*
X0202250Y0178514D03*
X0202250Y0171427D03*
X0212250Y0171427D03*
X0182950Y0171427D03*
X0172250Y0171427D03*
X0162657Y0171367D03*
X0152565Y0171457D03*
X0152565Y0178543D03*
X0162657Y0178454D03*
X0172250Y0178514D03*
X0182950Y0178514D03*
X0296957Y0155354D03*
X0309557Y0155354D03*
D11*
X0269327Y0228287D03*
X0277594Y0232028D03*
X0269327Y0235768D03*
D12*
X0260715Y0234921D03*
X0253628Y0234921D03*
X0268707Y0216220D03*
X0275793Y0216220D03*
X0326324Y0190268D03*
X0333411Y0190268D03*
X0362014Y0179310D03*
X0369101Y0179310D03*
X0387250Y0196841D03*
X0394336Y0196841D03*
X0392358Y0213200D03*
X0385272Y0213200D03*
X0386014Y0133210D03*
X0393101Y0133210D03*
D13*
X0160055Y0218563D03*
X0152575Y0218563D03*
X0156315Y0226831D03*
D14*
X0152565Y0191250D03*
X0162565Y0191250D03*
X0172565Y0191250D03*
X0182565Y0191250D03*
X0192565Y0191250D03*
X0202565Y0191250D03*
X0212565Y0191250D03*
X0222565Y0191250D03*
X0232565Y0191250D03*
X0293815Y0229528D03*
X0303657Y0229528D03*
X0313500Y0229528D03*
X0350902Y0229350D03*
X0360744Y0229350D03*
X0370587Y0229350D03*
X0142565Y0191250D03*
X0132565Y0191250D03*
X0122565Y0191250D03*
X0122565Y0111250D03*
X0132565Y0111250D03*
X0142565Y0111250D03*
X0152565Y0111250D03*
X0162565Y0111250D03*
X0172565Y0111250D03*
X0182565Y0111250D03*
X0192565Y0111250D03*
X0202565Y0111250D03*
X0212565Y0111250D03*
X0222565Y0111250D03*
X0232565Y0111250D03*
X0112565Y0111250D03*
X0102565Y0111250D03*
X0092565Y0111250D03*
X0082565Y0111250D03*
D15*
X0406945Y0150817D03*
X0418756Y0150817D03*
D16*
X0331157Y0080610D03*
X0284907Y0080610D03*
D17*
X0274907Y0080610D03*
X0262957Y0081010D03*
X0237357Y0081010D03*
X0237357Y0098810D03*
X0262957Y0098810D03*
X0321157Y0080610D03*
X0406335Y0107165D03*
X0416335Y0112165D03*
X0406335Y0117165D03*
X0416335Y0122165D03*
X0406335Y0127165D03*
X0416335Y0132165D03*
X0406335Y0170157D03*
X0416335Y0175157D03*
X0406335Y0180157D03*
X0416335Y0185157D03*
X0406335Y0190157D03*
X0416335Y0195157D03*
X0273614Y0167150D03*
X0273614Y0157150D03*
X0273614Y0147150D03*
X0273614Y0137150D03*
D18*
X0141315Y0215738D03*
X0141315Y0226762D03*
D19*
X0320133Y0156535D03*
X0323283Y0156535D03*
X0326432Y0156535D03*
X0329582Y0156535D03*
X0329582Y0147086D03*
X0326432Y0147086D03*
X0323283Y0147086D03*
X0320133Y0147086D03*
D20*
X0343957Y0153410D03*
X0366157Y0153110D03*
X0390015Y0165000D03*
X0416315Y0162500D03*
X0433815Y0172500D03*
X0443815Y0177500D03*
X0446315Y0190000D03*
X0433815Y0195000D03*
X0398057Y0213210D03*
X0378057Y0218210D03*
X0295315Y0197100D03*
X0261315Y0217500D03*
X0212257Y0217210D03*
X0202257Y0213010D03*
X0166315Y0220000D03*
X0128815Y0232500D03*
X0121315Y0227500D03*
X0091315Y0207500D03*
X0076315Y0202500D03*
X0071315Y0197500D03*
X0071315Y0187500D03*
X0066315Y0177500D03*
X0073815Y0167500D03*
X0063815Y0165000D03*
X0081157Y0155610D03*
X0064015Y0137700D03*
X0074015Y0132700D03*
X0068315Y0126800D03*
X0068815Y0112500D03*
X0069015Y0105200D03*
X0099015Y0095200D03*
X0106515Y0087700D03*
X0134015Y0097700D03*
X0147815Y0099600D03*
X0157815Y0099600D03*
X0200315Y0099600D03*
X0207965Y0121900D03*
X0197457Y0127010D03*
X0190715Y0151000D03*
X0212165Y0151100D03*
X0233765Y0151600D03*
X0238765Y0161600D03*
X0253765Y0161600D03*
X0253765Y0151600D03*
X0288657Y0172510D03*
X0256265Y0174100D03*
X0241265Y0176600D03*
X0241265Y0189100D03*
X0161315Y0151400D03*
X0152815Y0164600D03*
X0262815Y0107100D03*
X0297457Y0111610D03*
X0330315Y0104600D03*
X0335315Y0119600D03*
X0366157Y0120610D03*
X0418815Y0097500D03*
X0423815Y0102500D03*
X0436315Y0110000D03*
X0446315Y0127500D03*
X0436315Y0130000D03*
X0394015Y0090200D03*
X0391515Y0080200D03*
X0389015Y0067700D03*
X0369015Y0080200D03*
X0342815Y0169600D03*
X0119015Y0065200D03*
D21*
X0101705Y0064150D02*
X0100588Y0065687D01*
X0100001Y0067495D01*
X0099926Y0068445D01*
X0099926Y0081788D01*
X0098979Y0084703D01*
X0097178Y0087182D01*
X0097178Y0087182D01*
X0097178Y0087182D01*
X0094699Y0088983D01*
X0091784Y0089930D01*
X0066630Y0089930D01*
X0065680Y0090005D01*
X0063872Y0090592D01*
X0062335Y0091709D01*
X0061218Y0093246D01*
X0060631Y0095054D01*
X0060556Y0096004D01*
X0060556Y0206240D01*
X0060631Y0207190D01*
X0061218Y0208998D01*
X0062335Y0210535D01*
X0063872Y0211652D01*
X0065680Y0212239D01*
X0066630Y0212314D01*
X0091784Y0212314D01*
X0094699Y0213261D01*
X0097178Y0215062D01*
X0097178Y0215062D01*
X0097178Y0215062D01*
X0098979Y0217542D01*
X0099926Y0220456D01*
X0099926Y0233799D01*
X0100001Y0234749D01*
X0100588Y0236557D01*
X0101705Y0238094D01*
X0103242Y0239211D01*
X0105050Y0239798D01*
X0106000Y0239873D01*
X0405213Y0239873D01*
X0406163Y0239798D01*
X0407970Y0239211D01*
X0409508Y0238094D01*
X0410625Y0236557D01*
X0411212Y0234749D01*
X0411287Y0233799D01*
X0411287Y0220456D01*
X0412234Y0217542D01*
X0414035Y0215062D01*
X0416514Y0213261D01*
X0419428Y0212314D01*
X0444583Y0212314D01*
X0445533Y0212239D01*
X0447340Y0211652D01*
X0448878Y0210535D01*
X0449995Y0208998D01*
X0450582Y0207190D01*
X0450657Y0206240D01*
X0450657Y0096004D01*
X0450582Y0095054D01*
X0449995Y0093246D01*
X0448878Y0091709D01*
X0447340Y0090592D01*
X0445533Y0090005D01*
X0444583Y0089930D01*
X0419428Y0089930D01*
X0416514Y0088983D01*
X0416514Y0088983D01*
X0414035Y0087182D01*
X0414035Y0087182D01*
X0414035Y0087182D01*
X0412234Y0084703D01*
X0411287Y0081788D01*
X0411287Y0068445D01*
X0411212Y0067495D01*
X0410625Y0065687D01*
X0409508Y0064150D01*
X0407970Y0063033D01*
X0406163Y0062446D01*
X0405213Y0062371D01*
X0106000Y0062371D01*
X0105050Y0062446D01*
X0103242Y0063033D01*
X0101705Y0064150D01*
X0101664Y0064206D02*
X0409548Y0064206D01*
X0410419Y0065404D02*
X0405505Y0065404D01*
X0404698Y0065070D02*
X0407386Y0066183D01*
X0409443Y0068240D01*
X0410556Y0070927D01*
X0410556Y0073836D01*
X0409443Y0076524D01*
X0407386Y0078581D01*
X0404698Y0079694D01*
X0401790Y0079694D01*
X0399102Y0078581D01*
X0397045Y0076524D01*
X0395932Y0073836D01*
X0395932Y0070927D01*
X0397045Y0068240D01*
X0399102Y0066183D01*
X0401790Y0065070D01*
X0404698Y0065070D01*
X0407805Y0066603D02*
X0410922Y0066603D01*
X0411236Y0067801D02*
X0409004Y0067801D01*
X0409757Y0069000D02*
X0411287Y0069000D01*
X0411287Y0070198D02*
X0410254Y0070198D01*
X0410556Y0071397D02*
X0411287Y0071397D01*
X0411287Y0072595D02*
X0410556Y0072595D01*
X0410556Y0073794D02*
X0411287Y0073794D01*
X0411287Y0074992D02*
X0410077Y0074992D01*
X0409581Y0076191D02*
X0411287Y0076191D01*
X0411287Y0077389D02*
X0408577Y0077389D01*
X0407368Y0078588D02*
X0411287Y0078588D01*
X0411287Y0079786D02*
X0383557Y0079786D01*
X0383557Y0078588D02*
X0399120Y0078588D01*
X0397911Y0077389D02*
X0383557Y0077389D01*
X0383557Y0076191D02*
X0396908Y0076191D01*
X0396411Y0074992D02*
X0383557Y0074992D01*
X0383557Y0073794D02*
X0395932Y0073794D01*
X0395932Y0072595D02*
X0383557Y0072595D01*
X0383557Y0071397D02*
X0395932Y0071397D01*
X0396234Y0070198D02*
X0383040Y0070198D01*
X0383192Y0070351D02*
X0382517Y0069676D01*
X0382346Y0069605D01*
X0378192Y0065451D01*
X0377517Y0064776D01*
X0376635Y0064410D01*
X0128180Y0064410D01*
X0127298Y0064776D01*
X0126623Y0065451D01*
X0126623Y0065451D01*
X0121205Y0070868D01*
X0120530Y0071543D01*
X0120165Y0072425D01*
X0120165Y0106507D01*
X0119563Y0106757D01*
X0118072Y0108248D01*
X0117444Y0109763D01*
X0117291Y0109292D01*
X0116927Y0108577D01*
X0116455Y0107928D01*
X0115887Y0107360D01*
X0115238Y0106888D01*
X0114523Y0106524D01*
X0113759Y0106276D01*
X0112966Y0106150D01*
X0112949Y0106150D01*
X0112949Y0110866D01*
X0112181Y0110866D01*
X0112181Y0106150D01*
X0112164Y0106150D01*
X0111371Y0106276D01*
X0110607Y0106524D01*
X0109892Y0106888D01*
X0109243Y0107360D01*
X0108675Y0107928D01*
X0108203Y0108577D01*
X0107839Y0109292D01*
X0107686Y0109763D01*
X0107058Y0108248D01*
X0105567Y0106757D01*
X0103619Y0105950D01*
X0101511Y0105950D01*
X0099563Y0106757D01*
X0098072Y0108248D01*
X0097565Y0109472D01*
X0097058Y0108248D01*
X0095567Y0106757D01*
X0093619Y0105950D01*
X0091511Y0105950D01*
X0089563Y0106757D01*
X0088072Y0108248D01*
X0087565Y0109472D01*
X0087058Y0108248D01*
X0085567Y0106757D01*
X0083619Y0105950D01*
X0081511Y0105950D01*
X0079563Y0106757D01*
X0078072Y0108248D01*
X0077265Y0110196D01*
X0077265Y0112304D01*
X0078072Y0114252D01*
X0079563Y0115743D01*
X0081511Y0116550D01*
X0083619Y0116550D01*
X0085567Y0115743D01*
X0087058Y0114252D01*
X0087565Y0113028D01*
X0088072Y0114252D01*
X0089257Y0115438D01*
X0089257Y0138007D01*
X0089714Y0139110D01*
X0090558Y0139954D01*
X0099349Y0148744D01*
X0100451Y0149201D01*
X0268510Y0149201D01*
X0268952Y0150266D01*
X0270499Y0151813D01*
X0271313Y0152150D01*
X0270499Y0152488D01*
X0268952Y0154035D01*
X0268879Y0154210D01*
X0226780Y0154210D01*
X0225898Y0154576D01*
X0225223Y0155251D01*
X0225223Y0155251D01*
X0221205Y0159268D01*
X0221205Y0159268D01*
X0220530Y0159943D01*
X0220165Y0160825D01*
X0220165Y0186507D01*
X0219563Y0186757D01*
X0218072Y0188248D01*
X0217565Y0189472D01*
X0217058Y0188248D01*
X0215567Y0186757D01*
X0214650Y0186377D01*
X0214650Y0181889D01*
X0215358Y0181889D01*
X0216412Y0180834D01*
X0216412Y0176193D01*
X0215358Y0175139D01*
X0209142Y0175139D01*
X0208088Y0176193D01*
X0208088Y0180834D01*
X0209142Y0181889D01*
X0209850Y0181889D01*
X0209850Y0186638D01*
X0209563Y0186757D01*
X0208072Y0188248D01*
X0207565Y0189472D01*
X0207058Y0188248D01*
X0205567Y0186757D01*
X0204650Y0186377D01*
X0204650Y0181889D01*
X0205358Y0181889D01*
X0206412Y0180834D01*
X0206412Y0176193D01*
X0205358Y0175139D01*
X0199142Y0175139D01*
X0198088Y0176193D01*
X0198088Y0180834D01*
X0199142Y0181889D01*
X0199850Y0181889D01*
X0199850Y0186638D01*
X0199563Y0186757D01*
X0198072Y0188248D01*
X0197565Y0189472D01*
X0197058Y0188248D01*
X0195567Y0186757D01*
X0193619Y0185950D01*
X0191511Y0185950D01*
X0189563Y0186757D01*
X0188072Y0188248D01*
X0187565Y0189472D01*
X0187058Y0188248D01*
X0185567Y0186757D01*
X0185057Y0186546D01*
X0185057Y0182072D01*
X0185131Y0181889D01*
X0186058Y0181889D01*
X0187112Y0180834D01*
X0187112Y0176193D01*
X0186058Y0175139D01*
X0179842Y0175139D01*
X0178788Y0176193D01*
X0178788Y0180834D01*
X0179842Y0181889D01*
X0180257Y0181889D01*
X0180257Y0186469D01*
X0179563Y0186757D01*
X0178072Y0188248D01*
X0177565Y0189472D01*
X0177058Y0188248D01*
X0175567Y0186757D01*
X0174650Y0186377D01*
X0174650Y0181889D01*
X0175358Y0181889D01*
X0176412Y0180834D01*
X0176412Y0176193D01*
X0175358Y0175139D01*
X0169142Y0175139D01*
X0168088Y0176193D01*
X0168088Y0180834D01*
X0169142Y0181889D01*
X0169850Y0181889D01*
X0169850Y0186638D01*
X0169563Y0186757D01*
X0168072Y0188248D01*
X0167565Y0189472D01*
X0167058Y0188248D01*
X0165567Y0186757D01*
X0165057Y0186546D01*
X0165057Y0181828D01*
X0165765Y0181828D01*
X0166820Y0180774D01*
X0166820Y0176133D01*
X0165765Y0175079D01*
X0159550Y0175079D01*
X0158495Y0176133D01*
X0158495Y0180774D01*
X0159550Y0181828D01*
X0160257Y0181828D01*
X0160257Y0186469D01*
X0159563Y0186757D01*
X0158072Y0188248D01*
X0157565Y0189472D01*
X0157058Y0188248D01*
X0155567Y0186757D01*
X0155165Y0186590D01*
X0155165Y0181918D01*
X0155673Y0181918D01*
X0156727Y0180864D01*
X0156727Y0176223D01*
X0155673Y0175169D01*
X0149457Y0175169D01*
X0148403Y0176223D01*
X0148403Y0180864D01*
X0149457Y0181918D01*
X0149965Y0181918D01*
X0149965Y0186590D01*
X0149563Y0186757D01*
X0148072Y0188248D01*
X0147565Y0189472D01*
X0147058Y0188248D01*
X0146057Y0187247D01*
X0146057Y0161434D01*
X0145540Y0160184D01*
X0144583Y0159228D01*
X0144583Y0159228D01*
X0139040Y0153684D01*
X0139040Y0153684D01*
X0138083Y0152728D01*
X0136834Y0152210D01*
X0082307Y0152210D01*
X0081870Y0152029D01*
X0080445Y0152029D01*
X0079129Y0152574D01*
X0078122Y0153582D01*
X0077576Y0154898D01*
X0077576Y0156323D01*
X0078122Y0157639D01*
X0079129Y0158646D01*
X0080445Y0159191D01*
X0081870Y0159191D01*
X0082307Y0159010D01*
X0134749Y0159010D01*
X0139257Y0163519D01*
X0139257Y0187062D01*
X0138072Y0188248D01*
X0137565Y0189472D01*
X0137058Y0188248D01*
X0135567Y0186757D01*
X0133619Y0185950D01*
X0131511Y0185950D01*
X0129563Y0186757D01*
X0128072Y0188248D01*
X0127565Y0189472D01*
X0127058Y0188248D01*
X0125567Y0186757D01*
X0123619Y0185950D01*
X0121511Y0185950D01*
X0119563Y0186757D01*
X0118072Y0188248D01*
X0117265Y0190196D01*
X0117265Y0192304D01*
X0118072Y0194252D01*
X0119563Y0195743D01*
X0121511Y0196550D01*
X0123619Y0196550D01*
X0125567Y0195743D01*
X0127058Y0194252D01*
X0127565Y0193028D01*
X0128072Y0194252D01*
X0129563Y0195743D01*
X0131511Y0196550D01*
X0133619Y0196550D01*
X0135567Y0195743D01*
X0137058Y0194252D01*
X0137565Y0193028D01*
X0138072Y0194252D01*
X0139057Y0195238D01*
X0139057Y0206289D01*
X0138116Y0209291D01*
X0137915Y0209776D01*
X0137915Y0209932D01*
X0137868Y0210080D01*
X0137915Y0210604D01*
X0137915Y0210789D01*
X0137026Y0210789D01*
X0135972Y0211843D01*
X0135972Y0219633D01*
X0137026Y0220688D01*
X0145604Y0220688D01*
X0146658Y0219633D01*
X0146658Y0211843D01*
X0145604Y0210789D01*
X0144773Y0210789D01*
X0145656Y0207972D01*
X0145857Y0207487D01*
X0145857Y0207331D01*
X0145904Y0207183D01*
X0145857Y0206659D01*
X0145857Y0195453D01*
X0147058Y0194252D01*
X0147565Y0193028D01*
X0148072Y0194252D01*
X0149563Y0195743D01*
X0149915Y0195889D01*
X0149915Y0215091D01*
X0149882Y0215194D01*
X0149894Y0215351D01*
X0149200Y0216046D01*
X0149200Y0221080D01*
X0150254Y0222135D01*
X0154895Y0222135D01*
X0155950Y0221080D01*
X0155950Y0216046D01*
X0155115Y0215211D01*
X0155115Y0195930D01*
X0155567Y0195743D01*
X0157058Y0194252D01*
X0157565Y0193028D01*
X0158072Y0194252D01*
X0159563Y0195743D01*
X0159757Y0195824D01*
X0159757Y0205388D01*
X0160123Y0206270D01*
X0160798Y0206945D01*
X0163798Y0209945D01*
X0164680Y0210310D01*
X0199893Y0210310D01*
X0199222Y0210982D01*
X0198676Y0212298D01*
X0198676Y0213723D01*
X0199222Y0215039D01*
X0200229Y0216046D01*
X0201545Y0216591D01*
X0202970Y0216591D01*
X0204286Y0216046D01*
X0204822Y0215510D01*
X0209085Y0215510D01*
X0208676Y0216498D01*
X0208676Y0217923D01*
X0209222Y0219239D01*
X0210229Y0220246D01*
X0211545Y0220791D01*
X0212970Y0220791D01*
X0214286Y0220246D01*
X0215272Y0219260D01*
X0248268Y0219260D01*
X0248705Y0219275D01*
X0248744Y0219260D01*
X0248785Y0219260D01*
X0249189Y0219093D01*
X0249599Y0218939D01*
X0249629Y0218911D01*
X0249667Y0218895D01*
X0249977Y0218585D01*
X0258605Y0210510D01*
X0304135Y0210510D01*
X0305017Y0210145D01*
X0305692Y0209470D01*
X0308192Y0206970D01*
X0308557Y0206088D01*
X0308557Y0199104D01*
X0309776Y0197886D01*
X0310442Y0198552D01*
X0316658Y0198552D01*
X0317712Y0197498D01*
X0317712Y0192857D01*
X0317523Y0192668D01*
X0322950Y0192668D01*
X0322950Y0193376D01*
X0324004Y0194430D01*
X0328645Y0194430D01*
X0329699Y0193376D01*
X0329699Y0188010D01*
X0330036Y0188010D01*
X0330036Y0193376D01*
X0331091Y0194430D01*
X0335731Y0194430D01*
X0336786Y0193376D01*
X0336786Y0192668D01*
X0349081Y0192668D01*
X0351257Y0194814D01*
X0351257Y0208588D01*
X0351623Y0209470D01*
X0354123Y0211970D01*
X0354798Y0212645D01*
X0355680Y0213010D01*
X0367663Y0213010D01*
X0368757Y0214104D01*
X0368757Y0224371D01*
X0367584Y0224857D01*
X0366093Y0226348D01*
X0365554Y0227650D01*
X0365470Y0227393D01*
X0365106Y0226677D01*
X0364634Y0226028D01*
X0364067Y0225460D01*
X0363417Y0224988D01*
X0362702Y0224624D01*
X0361938Y0224376D01*
X0361145Y0224250D01*
X0361030Y0224250D01*
X0361030Y0229064D01*
X0360458Y0229064D01*
X0360458Y0224250D01*
X0360343Y0224250D01*
X0359550Y0224376D01*
X0358786Y0224624D01*
X0358071Y0224988D01*
X0357422Y0225460D01*
X0356854Y0226028D01*
X0356382Y0226677D01*
X0356018Y0227393D01*
X0355934Y0227650D01*
X0355395Y0226348D01*
X0353904Y0224857D01*
X0351956Y0224050D01*
X0349847Y0224050D01*
X0347899Y0224857D01*
X0346408Y0226348D01*
X0345602Y0228296D01*
X0345602Y0230405D01*
X0346349Y0232210D01*
X0341215Y0232210D01*
X0341215Y0232060D01*
X0340161Y0231005D01*
X0333945Y0231005D01*
X0332891Y0232060D01*
X0332891Y0232210D01*
X0318125Y0232210D01*
X0318800Y0230582D01*
X0318800Y0228473D01*
X0317993Y0226525D01*
X0316502Y0225034D01*
X0315900Y0224785D01*
X0315900Y0205639D01*
X0316658Y0205639D01*
X0317712Y0204584D01*
X0317712Y0199943D01*
X0316658Y0198889D01*
X0310442Y0198889D01*
X0309388Y0199943D01*
X0309388Y0204584D01*
X0310442Y0205639D01*
X0311100Y0205639D01*
X0311100Y0224785D01*
X0310498Y0225034D01*
X0309007Y0226525D01*
X0308468Y0227827D01*
X0308384Y0227570D01*
X0308019Y0226855D01*
X0307548Y0226205D01*
X0306980Y0225637D01*
X0306330Y0225166D01*
X0305615Y0224801D01*
X0304852Y0224553D01*
X0304059Y0224428D01*
X0303943Y0224428D01*
X0303943Y0229242D01*
X0303372Y0229242D01*
X0303372Y0224428D01*
X0303256Y0224428D01*
X0302463Y0224553D01*
X0301700Y0224801D01*
X0300984Y0225166D01*
X0300335Y0225637D01*
X0299767Y0226205D01*
X0299296Y0226855D01*
X0298931Y0227570D01*
X0298847Y0227827D01*
X0298308Y0226525D01*
X0296817Y0225034D01*
X0294869Y0224228D01*
X0292761Y0224228D01*
X0290813Y0225034D01*
X0289322Y0226525D01*
X0288515Y0228473D01*
X0288515Y0230582D01*
X0289189Y0232210D01*
X0287566Y0232210D01*
X0284501Y0229145D01*
X0283251Y0228628D01*
X0281057Y0228628D01*
X0281057Y0220133D01*
X0280692Y0219251D01*
X0280017Y0218576D01*
X0279168Y0217727D01*
X0279168Y0213113D01*
X0278114Y0212058D01*
X0273473Y0212058D01*
X0272419Y0213113D01*
X0272419Y0219328D01*
X0273473Y0220383D01*
X0275036Y0220383D01*
X0276257Y0221604D01*
X0276257Y0228653D01*
X0276057Y0228653D01*
X0276057Y0225133D01*
X0275692Y0224251D01*
X0275017Y0223576D01*
X0272517Y0221076D01*
X0271635Y0220710D01*
X0246280Y0220710D01*
X0245398Y0221076D01*
X0242043Y0224431D01*
X0159690Y0224431D01*
X0159690Y0224313D01*
X0158635Y0223259D01*
X0153995Y0223259D01*
X0152940Y0224313D01*
X0152940Y0229348D01*
X0153995Y0230402D01*
X0158635Y0230402D01*
X0159690Y0229348D01*
X0159690Y0229231D01*
X0242395Y0229231D01*
X0240440Y0231012D01*
X0146207Y0231108D01*
X0146658Y0230657D01*
X0146658Y0222867D01*
X0145604Y0221812D01*
X0137026Y0221812D01*
X0135972Y0222867D01*
X0135972Y0230657D01*
X0137026Y0231711D01*
X0137735Y0231711D01*
X0137757Y0232108D01*
X0137757Y0232687D01*
X0137796Y0232780D01*
X0137802Y0232881D01*
X0138054Y0233402D01*
X0138275Y0233936D01*
X0138347Y0234008D01*
X0138391Y0234099D01*
X0138823Y0234484D01*
X0139232Y0234893D01*
X0139325Y0234931D01*
X0141630Y0236985D01*
X0142040Y0237395D01*
X0142132Y0237433D01*
X0142207Y0237499D01*
X0142754Y0237689D01*
X0143291Y0237911D01*
X0143390Y0237911D01*
X0143484Y0237944D01*
X0144063Y0237910D01*
X0241680Y0237810D01*
X0242274Y0237838D01*
X0242353Y0237810D01*
X0242437Y0237810D01*
X0242987Y0237581D01*
X0243547Y0237379D01*
X0243609Y0237323D01*
X0243686Y0237291D01*
X0244107Y0236869D01*
X0249797Y0231687D01*
X0250379Y0231687D01*
X0250253Y0231813D01*
X0250253Y0238029D01*
X0251308Y0239083D01*
X0255948Y0239083D01*
X0257003Y0238029D01*
X0257003Y0231813D01*
X0256877Y0231687D01*
X0257466Y0231687D01*
X0257340Y0231813D01*
X0257340Y0238029D01*
X0258394Y0239083D01*
X0263035Y0239083D01*
X0264089Y0238029D01*
X0264089Y0237321D01*
X0265755Y0237321D01*
X0265755Y0238088D01*
X0266810Y0239143D01*
X0271844Y0239143D01*
X0272898Y0238088D01*
X0272898Y0236863D01*
X0274584Y0236151D01*
X0275017Y0235972D01*
X0275023Y0235965D01*
X0275032Y0235962D01*
X0275360Y0235628D01*
X0275586Y0235402D01*
X0276857Y0235402D01*
X0276918Y0235428D01*
X0281166Y0235428D01*
X0283275Y0237536D01*
X0284232Y0238493D01*
X0285481Y0239010D01*
X0381834Y0239010D01*
X0383083Y0238493D01*
X0385583Y0235993D01*
X0386540Y0235036D01*
X0387057Y0233787D01*
X0387057Y0217362D01*
X0387592Y0217362D01*
X0388646Y0216308D01*
X0388646Y0210092D01*
X0387592Y0209038D01*
X0387538Y0209038D01*
X0387566Y0209010D01*
X0421834Y0209010D01*
X0423083Y0208493D01*
X0424040Y0207536D01*
X0424040Y0207536D01*
X0429040Y0202536D01*
X0429557Y0201287D01*
X0429557Y0149934D01*
X0429157Y0148968D01*
X0429157Y0115013D01*
X0428701Y0113911D01*
X0427857Y0113067D01*
X0427857Y0113067D01*
X0424412Y0109622D01*
X0423309Y0109165D01*
X0421045Y0109165D01*
X0420997Y0109050D01*
X0419450Y0107503D01*
X0417429Y0106665D01*
X0415241Y0106665D01*
X0413219Y0107503D01*
X0411672Y0109050D01*
X0410835Y0111071D01*
X0410835Y0113259D01*
X0411672Y0115281D01*
X0413219Y0116828D01*
X0414034Y0117165D01*
X0413219Y0117503D01*
X0411672Y0119050D01*
X0410835Y0121071D01*
X0410835Y0123259D01*
X0411672Y0125281D01*
X0413219Y0126828D01*
X0414034Y0127165D01*
X0413219Y0127503D01*
X0411672Y0129050D01*
X0411063Y0130519D01*
X0410757Y0130521D01*
X0410997Y0130281D01*
X0411835Y0128259D01*
X0411835Y0126071D01*
X0410997Y0124050D01*
X0409450Y0122503D01*
X0408393Y0122065D01*
X0409112Y0121698D01*
X0409787Y0121208D01*
X0410377Y0120618D01*
X0410868Y0119943D01*
X0411246Y0119200D01*
X0411504Y0118406D01*
X0411635Y0117582D01*
X0411635Y0117565D01*
X0406735Y0117565D01*
X0406735Y0116765D01*
X0411635Y0116765D01*
X0411635Y0116748D01*
X0411504Y0115924D01*
X0411246Y0115131D01*
X0410868Y0114388D01*
X0410377Y0113713D01*
X0409787Y0113123D01*
X0409112Y0112632D01*
X0408393Y0112266D01*
X0409450Y0111828D01*
X0410997Y0110281D01*
X0411835Y0108259D01*
X0411835Y0106071D01*
X0410997Y0104050D01*
X0409450Y0102503D01*
X0407429Y0101665D01*
X0405241Y0101665D01*
X0403219Y0102503D01*
X0401672Y0104050D01*
X0401293Y0104964D01*
X0386219Y0104778D01*
X0383557Y0102116D01*
X0383557Y0071233D01*
X0383192Y0070351D01*
X0381741Y0069000D02*
X0396731Y0069000D01*
X0397484Y0067801D02*
X0380543Y0067801D01*
X0379344Y0066603D02*
X0398683Y0066603D01*
X0400983Y0065404D02*
X0378146Y0065404D01*
X0376157Y0066810D02*
X0128657Y0066810D01*
X0122565Y0072903D01*
X0122565Y0111250D01*
X0127434Y0113345D02*
X0127696Y0113345D01*
X0127565Y0113028D02*
X0127058Y0114252D01*
X0125567Y0115743D01*
X0123619Y0116550D01*
X0121511Y0116550D01*
X0119563Y0115743D01*
X0118072Y0114252D01*
X0117444Y0112737D01*
X0117291Y0113208D01*
X0116927Y0113923D01*
X0116455Y0114572D01*
X0115887Y0115140D01*
X0115238Y0115612D01*
X0114523Y0115976D01*
X0113759Y0116224D01*
X0112966Y0116350D01*
X0112949Y0116350D01*
X0112949Y0111634D01*
X0112181Y0111634D01*
X0112181Y0116350D01*
X0112164Y0116350D01*
X0111371Y0116224D01*
X0110607Y0115976D01*
X0109892Y0115612D01*
X0109243Y0115140D01*
X0108675Y0114572D01*
X0108203Y0113923D01*
X0107839Y0113208D01*
X0107686Y0112737D01*
X0107058Y0114252D01*
X0105567Y0115743D01*
X0103619Y0116550D01*
X0101511Y0116550D01*
X0099563Y0115743D01*
X0098072Y0114252D01*
X0097565Y0113028D01*
X0097058Y0114252D01*
X0095567Y0115743D01*
X0095257Y0115871D01*
X0095257Y0136168D01*
X0102291Y0143201D01*
X0269786Y0143201D01*
X0270499Y0142488D01*
X0271556Y0142050D01*
X0270836Y0141683D01*
X0270161Y0141193D01*
X0269572Y0140603D01*
X0269081Y0139928D01*
X0268702Y0139185D01*
X0268445Y0138391D01*
X0268314Y0137568D01*
X0268314Y0137550D01*
X0273214Y0137550D01*
X0273214Y0136750D01*
X0274014Y0136750D01*
X0274014Y0131850D01*
X0274031Y0131850D01*
X0274855Y0131981D01*
X0275649Y0132239D01*
X0276392Y0132617D01*
X0277067Y0133108D01*
X0277657Y0133698D01*
X0278147Y0134373D01*
X0278526Y0135116D01*
X0278784Y0135909D01*
X0278914Y0136733D01*
X0278914Y0136750D01*
X0274014Y0136750D01*
X0274014Y0137550D01*
X0278914Y0137550D01*
X0278914Y0137568D01*
X0278784Y0138391D01*
X0278526Y0139185D01*
X0278147Y0139928D01*
X0277657Y0140603D01*
X0277067Y0141193D01*
X0276392Y0141683D01*
X0275673Y0142050D01*
X0276730Y0142488D01*
X0278277Y0144035D01*
X0278953Y0145667D01*
X0293075Y0145667D01*
X0293850Y0144892D01*
X0300065Y0144892D01*
X0300840Y0145667D01*
X0305675Y0145667D01*
X0306450Y0144892D01*
X0312665Y0144892D01*
X0313640Y0145867D01*
X0317447Y0145867D01*
X0317447Y0145454D01*
X0317857Y0145044D01*
X0317857Y0144428D01*
X0317450Y0144428D01*
X0316395Y0143374D01*
X0316395Y0138733D01*
X0317450Y0137679D01*
X0323665Y0137679D01*
X0324720Y0138733D01*
X0324720Y0139010D01*
X0325575Y0139010D01*
X0326530Y0139406D01*
X0327262Y0140137D01*
X0328636Y0141512D01*
X0329032Y0142468D01*
X0329032Y0143502D01*
X0328832Y0143985D01*
X0328832Y0144600D01*
X0329582Y0144600D01*
X0330678Y0144600D01*
X0331085Y0144709D01*
X0331450Y0144920D01*
X0331748Y0145218D01*
X0331959Y0145582D01*
X0332068Y0145989D01*
X0332068Y0147086D01*
X0332068Y0148182D01*
X0331959Y0148589D01*
X0331748Y0148954D01*
X0331450Y0149252D01*
X0331085Y0149463D01*
X0330678Y0149572D01*
X0329582Y0149572D01*
X0329582Y0147086D01*
X0329582Y0147086D01*
X0332068Y0147086D01*
X0329582Y0147086D01*
X0329582Y0147086D01*
X0329582Y0149572D01*
X0328485Y0149572D01*
X0328311Y0149525D01*
X0328064Y0149772D01*
X0324801Y0149772D01*
X0324554Y0149525D01*
X0324379Y0149572D01*
X0323283Y0149572D01*
X0323283Y0147086D01*
X0323283Y0147086D01*
X0323283Y0149572D01*
X0322186Y0149572D01*
X0322011Y0149525D01*
X0321764Y0149772D01*
X0320841Y0149772D01*
X0320311Y0150302D01*
X0319429Y0150667D01*
X0317257Y0150667D01*
X0317257Y0160210D01*
X0320883Y0160210D01*
X0320883Y0159020D01*
X0320133Y0159020D01*
X0319037Y0159020D01*
X0318630Y0158911D01*
X0318265Y0158701D01*
X0317967Y0158403D01*
X0317756Y0158038D01*
X0317647Y0157631D01*
X0317647Y0156535D01*
X0320133Y0156535D01*
X0320133Y0159020D01*
X0320133Y0156535D01*
X0320133Y0156535D01*
X0320133Y0156535D01*
X0317647Y0156535D01*
X0317647Y0155438D01*
X0317756Y0155031D01*
X0317967Y0154666D01*
X0318265Y0154369D01*
X0318630Y0154158D01*
X0319037Y0154049D01*
X0320133Y0154049D01*
X0320133Y0156535D01*
X0320133Y0156535D01*
X0320133Y0154049D01*
X0321230Y0154049D01*
X0321404Y0154096D01*
X0321651Y0153849D01*
X0331213Y0153849D01*
X0332268Y0154903D01*
X0332268Y0158166D01*
X0331982Y0158452D01*
X0331982Y0169563D01*
X0331616Y0170445D01*
X0328192Y0173870D01*
X0327517Y0174545D01*
X0326635Y0174910D01*
X0291322Y0174910D01*
X0290686Y0175546D01*
X0289370Y0176091D01*
X0287945Y0176091D01*
X0286629Y0175546D01*
X0285622Y0174539D01*
X0285076Y0173223D01*
X0285076Y0171798D01*
X0285622Y0170482D01*
X0286629Y0169474D01*
X0286784Y0169410D01*
X0278631Y0169410D01*
X0278277Y0170266D01*
X0276730Y0171813D01*
X0274708Y0172650D01*
X0272520Y0172650D01*
X0270499Y0171813D01*
X0268952Y0170266D01*
X0268514Y0169210D01*
X0239052Y0169210D01*
X0234965Y0173297D01*
X0234965Y0186507D01*
X0235567Y0186757D01*
X0237058Y0188248D01*
X0237865Y0190196D01*
X0237865Y0192304D01*
X0237058Y0194252D01*
X0235600Y0195710D01*
X0242563Y0195710D01*
X0261598Y0176676D01*
X0262480Y0176310D01*
X0263353Y0176310D01*
X0346375Y0176212D01*
X0349657Y0172501D01*
X0349657Y0151428D01*
X0348950Y0151428D01*
X0347895Y0150374D01*
X0347895Y0146910D01*
X0339580Y0146910D01*
X0338698Y0146545D01*
X0337051Y0144898D01*
X0336779Y0144679D01*
X0336716Y0144563D01*
X0336623Y0144470D01*
X0336489Y0144147D01*
X0336116Y0143463D01*
X0336023Y0143370D01*
X0335889Y0143047D01*
X0335722Y0142740D01*
X0335708Y0142609D01*
X0335657Y0142488D01*
X0335657Y0142138D01*
X0335620Y0141791D01*
X0335657Y0141665D01*
X0335657Y0129104D01*
X0334563Y0128010D01*
X0252152Y0128010D01*
X0251057Y0129104D01*
X0251057Y0136088D01*
X0250692Y0136970D01*
X0250017Y0137645D01*
X0247517Y0140145D01*
X0246635Y0140510D01*
X0135680Y0140510D01*
X0134798Y0140145D01*
X0134123Y0139470D01*
X0130530Y0135877D01*
X0130165Y0134995D01*
X0130165Y0115993D01*
X0129563Y0115743D01*
X0128072Y0114252D01*
X0127565Y0113028D01*
X0126767Y0114543D02*
X0128363Y0114543D01*
X0129561Y0115742D02*
X0125569Y0115742D01*
X0130165Y0116940D02*
X0095257Y0116940D01*
X0095257Y0118139D02*
X0130165Y0118139D01*
X0130165Y0119337D02*
X0095257Y0119337D01*
X0095257Y0120536D02*
X0130165Y0120536D01*
X0130165Y0121734D02*
X0095257Y0121734D01*
X0095257Y0122933D02*
X0130165Y0122933D01*
X0130165Y0124131D02*
X0095257Y0124131D01*
X0095257Y0125330D02*
X0130165Y0125330D01*
X0130165Y0126528D02*
X0095257Y0126528D01*
X0095257Y0127727D02*
X0130165Y0127727D01*
X0130165Y0128925D02*
X0095257Y0128925D01*
X0095257Y0130124D02*
X0130165Y0130124D01*
X0130165Y0131322D02*
X0095257Y0131322D01*
X0095257Y0132521D02*
X0130165Y0132521D01*
X0130165Y0133719D02*
X0095257Y0133719D01*
X0095257Y0134918D02*
X0130165Y0134918D01*
X0130770Y0136116D02*
X0095257Y0136116D01*
X0096405Y0137315D02*
X0131968Y0137315D01*
X0133167Y0138513D02*
X0097603Y0138513D01*
X0098802Y0139712D02*
X0134365Y0139712D01*
X0136157Y0138110D02*
X0246157Y0138110D01*
X0248657Y0135610D01*
X0248657Y0128110D01*
X0251157Y0125610D01*
X0335557Y0125610D01*
X0338057Y0128110D01*
X0338057Y0142010D01*
X0338657Y0143110D01*
X0340057Y0144510D01*
X0378657Y0144510D01*
X0382407Y0149510D01*
X0382407Y0168110D01*
X0384907Y0170610D01*
X0405882Y0170610D01*
X0406335Y0170157D01*
X0401188Y0168210D02*
X0401672Y0167042D01*
X0403219Y0165495D01*
X0405241Y0164657D01*
X0407429Y0164657D01*
X0409450Y0165495D01*
X0410997Y0167042D01*
X0411835Y0169063D01*
X0411835Y0171252D01*
X0410997Y0173273D01*
X0409450Y0174820D01*
X0408393Y0175258D01*
X0409112Y0175625D01*
X0409787Y0176115D01*
X0410377Y0176705D01*
X0410868Y0177380D01*
X0411246Y0178123D01*
X0411504Y0178916D01*
X0411635Y0179740D01*
X0411635Y0179757D01*
X0406735Y0179757D01*
X0406735Y0180557D01*
X0411635Y0180557D01*
X0411635Y0180575D01*
X0411504Y0181399D01*
X0411246Y0182192D01*
X0410907Y0182857D01*
X0411334Y0182857D01*
X0411672Y0182042D01*
X0413219Y0180495D01*
X0414034Y0180157D01*
X0413219Y0179820D01*
X0411672Y0178273D01*
X0410835Y0176252D01*
X0410835Y0174063D01*
X0411672Y0172042D01*
X0413219Y0170495D01*
X0415241Y0169657D01*
X0417429Y0169657D01*
X0419450Y0170495D01*
X0420713Y0171757D01*
X0422757Y0171757D01*
X0422757Y0154479D01*
X0421864Y0155372D01*
X0415648Y0155372D01*
X0414594Y0154318D01*
X0414594Y0147315D01*
X0415648Y0146261D01*
X0421864Y0146261D01*
X0422918Y0147315D01*
X0422918Y0148417D01*
X0423157Y0148417D01*
X0423157Y0139787D01*
X0422062Y0140883D01*
X0421330Y0141614D01*
X0420375Y0142010D01*
X0356220Y0142010D01*
X0356220Y0142110D01*
X0378355Y0142110D01*
X0378524Y0142067D01*
X0378828Y0142110D01*
X0379135Y0142110D01*
X0379296Y0142177D01*
X0379469Y0142202D01*
X0379733Y0142358D01*
X0380017Y0142476D01*
X0380141Y0142599D01*
X0380291Y0142688D01*
X0380475Y0142934D01*
X0380692Y0143151D01*
X0380759Y0143312D01*
X0384225Y0147934D01*
X0384442Y0148151D01*
X0384509Y0148312D01*
X0384614Y0148452D01*
X0384690Y0148749D01*
X0384807Y0149033D01*
X0384807Y0149208D01*
X0384851Y0149377D01*
X0384807Y0149681D01*
X0384807Y0167116D01*
X0385902Y0168210D01*
X0401188Y0168210D01*
X0401574Y0167278D02*
X0384969Y0167278D01*
X0384807Y0166079D02*
X0402635Y0166079D01*
X0404702Y0164881D02*
X0384807Y0164881D01*
X0384807Y0163682D02*
X0386603Y0163682D01*
X0386472Y0163551D02*
X0386261Y0163186D01*
X0386152Y0162780D01*
X0386152Y0161181D01*
X0389927Y0161181D01*
X0389927Y0160807D01*
X0386152Y0160807D01*
X0386152Y0159209D01*
X0386261Y0158802D01*
X0386472Y0158437D01*
X0386770Y0158139D01*
X0387134Y0157928D01*
X0387541Y0157819D01*
X0389927Y0157819D01*
X0389927Y0160807D01*
X0390302Y0160807D01*
X0390302Y0161181D01*
X0394076Y0161181D01*
X0394076Y0162780D01*
X0393967Y0163186D01*
X0393757Y0163551D01*
X0393459Y0163849D01*
X0393094Y0164060D01*
X0392687Y0164169D01*
X0390302Y0164169D01*
X0390302Y0161182D01*
X0389927Y0161182D01*
X0389927Y0164169D01*
X0387541Y0164169D01*
X0387134Y0164060D01*
X0386770Y0163849D01*
X0386472Y0163551D01*
X0386152Y0162484D02*
X0384807Y0162484D01*
X0384807Y0161285D02*
X0386152Y0161285D01*
X0386152Y0160087D02*
X0384807Y0160087D01*
X0384807Y0158888D02*
X0386238Y0158888D01*
X0387006Y0157282D02*
X0385952Y0156228D01*
X0385952Y0151587D01*
X0387006Y0150533D01*
X0389924Y0150533D01*
X0391852Y0148739D01*
X0392185Y0148406D01*
X0392229Y0148388D01*
X0392265Y0148355D01*
X0392706Y0148190D01*
X0393140Y0148010D01*
X0393189Y0148010D01*
X0393234Y0147993D01*
X0393704Y0148010D01*
X0394175Y0148010D01*
X0394219Y0148029D01*
X0394268Y0148031D01*
X0394675Y0148217D01*
X0402783Y0148217D01*
X0402783Y0147315D01*
X0403837Y0146261D01*
X0410053Y0146261D01*
X0411107Y0147315D01*
X0411107Y0154318D01*
X0410053Y0155372D01*
X0403837Y0155372D01*
X0402783Y0154318D01*
X0402783Y0153417D01*
X0394458Y0153417D01*
X0394276Y0153586D01*
X0394276Y0156228D01*
X0393222Y0157282D01*
X0387006Y0157282D01*
X0386215Y0156491D02*
X0384807Y0156491D01*
X0384807Y0155293D02*
X0385952Y0155293D01*
X0385952Y0154094D02*
X0384807Y0154094D01*
X0384807Y0152896D02*
X0385952Y0152896D01*
X0385952Y0151697D02*
X0384807Y0151697D01*
X0384807Y0150499D02*
X0389961Y0150499D01*
X0391249Y0149300D02*
X0384831Y0149300D01*
X0384393Y0148102D02*
X0392920Y0148102D01*
X0394423Y0148102D02*
X0402783Y0148102D01*
X0403195Y0146903D02*
X0383452Y0146903D01*
X0382553Y0145705D02*
X0423157Y0145705D01*
X0423157Y0146903D02*
X0422507Y0146903D01*
X0422918Y0148102D02*
X0423157Y0148102D01*
X0423157Y0144506D02*
X0381654Y0144506D01*
X0380757Y0143308D02*
X0423157Y0143308D01*
X0423157Y0142109D02*
X0378819Y0142109D01*
X0378360Y0142109D02*
X0356220Y0142109D01*
X0347895Y0142110D02*
X0347895Y0138647D01*
X0348950Y0137592D01*
X0351755Y0137592D01*
X0352141Y0137206D01*
X0353097Y0136810D01*
X0383132Y0136810D01*
X0382639Y0136318D01*
X0382639Y0135601D01*
X0348755Y0135510D01*
X0348280Y0135510D01*
X0348277Y0135509D01*
X0348274Y0135509D01*
X0347837Y0135327D01*
X0347398Y0135145D01*
X0347396Y0135142D01*
X0347393Y0135141D01*
X0347058Y0134805D01*
X0344223Y0131970D01*
X0343857Y0131088D01*
X0343857Y0096604D01*
X0342763Y0095510D01*
X0274027Y0095510D01*
X0273925Y0095543D01*
X0273553Y0095510D01*
X0273180Y0095510D01*
X0273081Y0095469D01*
X0272974Y0095460D01*
X0272643Y0095288D01*
X0272298Y0095145D01*
X0272222Y0095069D01*
X0270571Y0094210D01*
X0266136Y0094210D01*
X0267620Y0095695D01*
X0268457Y0097716D01*
X0268457Y0099904D01*
X0267620Y0101926D01*
X0266073Y0103473D01*
X0264052Y0104310D01*
X0261863Y0104310D01*
X0259842Y0103473D01*
X0258295Y0101926D01*
X0257457Y0099904D01*
X0257457Y0097716D01*
X0258295Y0095695D01*
X0259779Y0094210D01*
X0240536Y0094210D01*
X0242020Y0095695D01*
X0242857Y0097716D01*
X0242857Y0099904D01*
X0242020Y0101926D01*
X0240473Y0103473D01*
X0238452Y0104310D01*
X0236263Y0104310D01*
X0234242Y0103473D01*
X0232695Y0101926D01*
X0232398Y0101210D01*
X0217652Y0101210D01*
X0214657Y0104204D01*
X0214657Y0106380D01*
X0215567Y0106757D01*
X0217058Y0108248D01*
X0217565Y0109472D01*
X0218072Y0108248D01*
X0219563Y0106757D01*
X0221511Y0105950D01*
X0223619Y0105950D01*
X0225567Y0106757D01*
X0227058Y0108248D01*
X0227565Y0109472D01*
X0228072Y0108248D01*
X0229563Y0106757D01*
X0231511Y0105950D01*
X0233619Y0105950D01*
X0235567Y0106757D01*
X0237058Y0108248D01*
X0237865Y0110196D01*
X0237865Y0112304D01*
X0237058Y0114252D01*
X0235567Y0115743D01*
X0233619Y0116550D01*
X0231511Y0116550D01*
X0229563Y0115743D01*
X0228072Y0114252D01*
X0227565Y0113028D01*
X0227058Y0114252D01*
X0225567Y0115743D01*
X0225318Y0115846D01*
X0225318Y0120050D01*
X0226026Y0120050D01*
X0227080Y0121104D01*
X0227080Y0125745D01*
X0226026Y0126799D01*
X0219810Y0126799D01*
X0218756Y0125745D01*
X0218756Y0121104D01*
X0219810Y0120050D01*
X0220518Y0120050D01*
X0220518Y0116139D01*
X0219563Y0115743D01*
X0218072Y0114252D01*
X0217565Y0113028D01*
X0217058Y0114252D01*
X0215567Y0115743D01*
X0213619Y0116550D01*
X0211511Y0116550D01*
X0209563Y0115743D01*
X0208072Y0114252D01*
X0207565Y0113028D01*
X0207058Y0114252D01*
X0205567Y0115743D01*
X0205165Y0115910D01*
X0205165Y0131554D01*
X0206429Y0131554D01*
X0206429Y0131541D01*
X0207483Y0130486D01*
X0213699Y0130486D01*
X0214753Y0131541D01*
X0214753Y0135710D01*
X0245163Y0135710D01*
X0246257Y0134616D01*
X0246257Y0127633D01*
X0246623Y0126751D01*
X0249123Y0124251D01*
X0249798Y0123576D01*
X0250680Y0123210D01*
X0336035Y0123210D01*
X0336917Y0123576D01*
X0339417Y0126076D01*
X0340092Y0126751D01*
X0340457Y0127633D01*
X0340457Y0141398D01*
X0340599Y0141658D01*
X0341052Y0142110D01*
X0347895Y0142110D01*
X0347895Y0142109D02*
X0341050Y0142109D01*
X0340457Y0140910D02*
X0347895Y0140910D01*
X0347895Y0139712D02*
X0340457Y0139712D01*
X0340457Y0138513D02*
X0348028Y0138513D01*
X0352032Y0137315D02*
X0340457Y0137315D01*
X0340457Y0136116D02*
X0382639Y0136116D01*
X0386014Y0133210D02*
X0348757Y0133110D01*
X0346257Y0130610D01*
X0346257Y0095610D01*
X0343757Y0093110D01*
X0273657Y0093110D01*
X0271157Y0091810D01*
X0186157Y0091810D01*
X0182565Y0095403D01*
X0182565Y0111250D01*
X0183657Y0112343D01*
X0186257Y0115053D02*
X0186257Y0117392D01*
X0186765Y0117392D01*
X0187820Y0118447D01*
X0187820Y0123087D01*
X0186765Y0124142D01*
X0180550Y0124142D01*
X0179495Y0123087D01*
X0179495Y0118447D01*
X0180550Y0117392D01*
X0181057Y0117392D01*
X0181057Y0116362D01*
X0179563Y0115743D01*
X0178072Y0114252D01*
X0177565Y0113028D01*
X0177058Y0114252D01*
X0175567Y0115743D01*
X0175165Y0115910D01*
X0175165Y0120173D01*
X0175862Y0120870D01*
X0176257Y0121825D01*
X0176257Y0123692D01*
X0176765Y0123692D01*
X0177820Y0124747D01*
X0177820Y0129387D01*
X0176765Y0130442D01*
X0170550Y0130442D01*
X0169495Y0129387D01*
X0169495Y0124747D01*
X0170550Y0123692D01*
X0171057Y0123692D01*
X0171057Y0123419D01*
X0170361Y0122723D01*
X0169965Y0121767D01*
X0169965Y0115910D01*
X0169563Y0115743D01*
X0168072Y0114252D01*
X0167565Y0113028D01*
X0167058Y0114252D01*
X0165567Y0115743D01*
X0165165Y0115910D01*
X0165165Y0120173D01*
X0165862Y0120870D01*
X0166257Y0121825D01*
X0166257Y0123692D01*
X0166765Y0123692D01*
X0167820Y0124747D01*
X0167820Y0129387D01*
X0166765Y0130442D01*
X0160550Y0130442D01*
X0159495Y0129387D01*
X0159495Y0124747D01*
X0160550Y0123692D01*
X0161057Y0123692D01*
X0161057Y0123419D01*
X0160361Y0122723D01*
X0159965Y0121767D01*
X0159965Y0115910D01*
X0159563Y0115743D01*
X0158072Y0114252D01*
X0157565Y0113028D01*
X0157058Y0114252D01*
X0155567Y0115743D01*
X0155165Y0115910D01*
X0155165Y0121767D01*
X0155007Y0122147D01*
X0155007Y0123692D01*
X0155515Y0123692D01*
X0156570Y0124747D01*
X0156570Y0129387D01*
X0155515Y0130442D01*
X0149300Y0130442D01*
X0148245Y0129387D01*
X0148245Y0124747D01*
X0149300Y0123692D01*
X0149807Y0123692D01*
X0149807Y0120890D01*
X0149965Y0120510D01*
X0149965Y0115910D01*
X0149563Y0115743D01*
X0148072Y0114252D01*
X0147565Y0113028D01*
X0147058Y0114252D01*
X0145567Y0115743D01*
X0145165Y0115910D01*
X0145165Y0121767D01*
X0145007Y0122147D01*
X0145007Y0123692D01*
X0145515Y0123692D01*
X0146570Y0124747D01*
X0146570Y0129387D01*
X0145515Y0130442D01*
X0139300Y0130442D01*
X0138245Y0129387D01*
X0138245Y0124747D01*
X0139300Y0123692D01*
X0139807Y0123692D01*
X0139807Y0120890D01*
X0139965Y0120510D01*
X0139965Y0115910D01*
X0139563Y0115743D01*
X0138072Y0114252D01*
X0137565Y0113028D01*
X0137058Y0114252D01*
X0135567Y0115743D01*
X0134965Y0115993D01*
X0134965Y0133524D01*
X0137152Y0135710D01*
X0138245Y0135710D01*
X0138245Y0131833D01*
X0139300Y0130779D01*
X0145515Y0130779D01*
X0146290Y0131554D01*
X0148525Y0131554D01*
X0149300Y0130779D01*
X0155515Y0130779D01*
X0156290Y0131554D01*
X0159775Y0131554D01*
X0160550Y0130779D01*
X0166765Y0130779D01*
X0167540Y0131554D01*
X0169775Y0131554D01*
X0170550Y0130779D01*
X0176765Y0130779D01*
X0177540Y0131554D01*
X0199965Y0131554D01*
X0199965Y0115910D01*
X0199563Y0115743D01*
X0198072Y0114252D01*
X0197565Y0113028D01*
X0197058Y0114252D01*
X0195567Y0115743D01*
X0193619Y0116550D01*
X0191511Y0116550D01*
X0189563Y0115743D01*
X0188072Y0114252D01*
X0187565Y0113028D01*
X0187058Y0114252D01*
X0186257Y0115053D01*
X0186257Y0115742D02*
X0189561Y0115742D01*
X0188363Y0114543D02*
X0186767Y0114543D01*
X0187434Y0113345D02*
X0187696Y0113345D01*
X0187565Y0109472D02*
X0188072Y0108248D01*
X0189563Y0106757D01*
X0191511Y0105950D01*
X0193619Y0105950D01*
X0195567Y0106757D01*
X0197058Y0108248D01*
X0197565Y0109472D01*
X0198072Y0108248D01*
X0199563Y0106757D01*
X0201511Y0105950D01*
X0203619Y0105950D01*
X0205567Y0106757D01*
X0207058Y0108248D01*
X0207565Y0109472D01*
X0208072Y0108248D01*
X0209563Y0106757D01*
X0209857Y0106635D01*
X0209857Y0102733D01*
X0210223Y0101851D01*
X0210898Y0101176D01*
X0215298Y0096776D01*
X0216180Y0096410D01*
X0232398Y0096410D01*
X0232695Y0095695D01*
X0234179Y0094210D01*
X0187152Y0094210D01*
X0184965Y0096397D01*
X0184965Y0106507D01*
X0185567Y0106757D01*
X0187058Y0108248D01*
X0187565Y0109472D01*
X0187184Y0108551D02*
X0187946Y0108551D01*
X0188967Y0107352D02*
X0186162Y0107352D01*
X0184965Y0106154D02*
X0191019Y0106154D01*
X0194111Y0106154D02*
X0201019Y0106154D01*
X0198967Y0107352D02*
X0196162Y0107352D01*
X0197184Y0108551D02*
X0197946Y0108551D01*
X0197696Y0113345D02*
X0197434Y0113345D01*
X0196767Y0114543D02*
X0198363Y0114543D01*
X0199561Y0115742D02*
X0195569Y0115742D01*
X0199965Y0116940D02*
X0186257Y0116940D01*
X0187512Y0118139D02*
X0199965Y0118139D01*
X0199965Y0119337D02*
X0187820Y0119337D01*
X0187820Y0120536D02*
X0199965Y0120536D01*
X0199965Y0121734D02*
X0187820Y0121734D01*
X0187820Y0122933D02*
X0199965Y0122933D01*
X0199965Y0124131D02*
X0186776Y0124131D01*
X0186637Y0124788D02*
X0187002Y0124998D01*
X0187300Y0125296D01*
X0187511Y0125661D01*
X0187620Y0126068D01*
X0187620Y0127666D01*
X0183845Y0127666D01*
X0183845Y0128041D01*
X0187620Y0128041D01*
X0187620Y0129639D01*
X0187511Y0130046D01*
X0187300Y0130411D01*
X0187002Y0130709D01*
X0186637Y0130919D01*
X0186230Y0131028D01*
X0183845Y0131028D01*
X0183845Y0128041D01*
X0183470Y0128041D01*
X0183470Y0131028D01*
X0181085Y0131028D01*
X0180678Y0130919D01*
X0180313Y0130709D01*
X0180015Y0130411D01*
X0179804Y0130046D01*
X0179695Y0129639D01*
X0179695Y0128041D01*
X0183470Y0128041D01*
X0183470Y0127666D01*
X0183845Y0127666D01*
X0183845Y0124679D01*
X0186230Y0124679D01*
X0186637Y0124788D01*
X0187319Y0125330D02*
X0199965Y0125330D01*
X0199965Y0126528D02*
X0187620Y0126528D01*
X0187620Y0128925D02*
X0199965Y0128925D01*
X0199965Y0127727D02*
X0183845Y0127727D01*
X0183657Y0127854D02*
X0188401Y0130354D01*
X0187466Y0130124D02*
X0199965Y0130124D01*
X0199965Y0131322D02*
X0177309Y0131322D01*
X0177083Y0130124D02*
X0179849Y0130124D01*
X0179695Y0128925D02*
X0177820Y0128925D01*
X0177820Y0127727D02*
X0183470Y0127727D01*
X0183470Y0127666D02*
X0179695Y0127666D01*
X0179695Y0126068D01*
X0179804Y0125661D01*
X0180015Y0125296D01*
X0180313Y0124998D01*
X0180678Y0124788D01*
X0181085Y0124679D01*
X0183470Y0124679D01*
X0183470Y0127666D01*
X0183470Y0126528D02*
X0183845Y0126528D01*
X0183845Y0125330D02*
X0183470Y0125330D01*
X0180539Y0124131D02*
X0177204Y0124131D01*
X0177820Y0125330D02*
X0179996Y0125330D01*
X0179695Y0126528D02*
X0177820Y0126528D01*
X0176257Y0122933D02*
X0179495Y0122933D01*
X0179495Y0121734D02*
X0176220Y0121734D01*
X0175528Y0120536D02*
X0179495Y0120536D01*
X0179495Y0119337D02*
X0175165Y0119337D01*
X0175165Y0118139D02*
X0179803Y0118139D01*
X0181057Y0116940D02*
X0175165Y0116940D01*
X0175569Y0115742D02*
X0179561Y0115742D01*
X0178363Y0114543D02*
X0176767Y0114543D01*
X0177434Y0113345D02*
X0177696Y0113345D01*
X0173657Y0110157D02*
X0172565Y0111250D01*
X0173657Y0110157D02*
X0173657Y0091810D01*
X0178657Y0087410D01*
X0268657Y0087410D01*
X0274857Y0080610D01*
X0279607Y0083636D02*
X0279570Y0083726D01*
X0278023Y0085273D01*
X0276002Y0086110D01*
X0273813Y0086110D01*
X0273289Y0085893D01*
X0270714Y0088717D01*
X0270692Y0088770D01*
X0270394Y0089068D01*
X0270109Y0089380D01*
X0270057Y0089404D01*
X0270052Y0089410D01*
X0270788Y0089410D01*
X0270890Y0089378D01*
X0271262Y0089410D01*
X0271635Y0089410D01*
X0271734Y0089451D01*
X0271841Y0089461D01*
X0272172Y0089633D01*
X0272517Y0089776D01*
X0272593Y0089852D01*
X0274244Y0090710D01*
X0344235Y0090710D01*
X0345117Y0091076D01*
X0347617Y0093576D01*
X0348292Y0094251D01*
X0348657Y0095133D01*
X0348657Y0129616D01*
X0349754Y0130713D01*
X0382639Y0130801D01*
X0382639Y0130510D01*
X0353180Y0130510D01*
X0352298Y0130145D01*
X0349798Y0127645D01*
X0349123Y0126970D01*
X0348757Y0126088D01*
X0348757Y0075763D01*
X0347405Y0074410D01*
X0321209Y0074410D01*
X0321789Y0075110D01*
X0322252Y0075110D01*
X0324273Y0075948D01*
X0325820Y0077495D01*
X0325857Y0077585D01*
X0325857Y0076700D01*
X0325967Y0076293D01*
X0326177Y0075928D01*
X0326475Y0075630D01*
X0326840Y0075419D01*
X0327247Y0075310D01*
X0330757Y0075310D01*
X0330757Y0080210D01*
X0331557Y0080210D01*
X0331557Y0075310D01*
X0335068Y0075310D01*
X0335475Y0075419D01*
X0335840Y0075630D01*
X0336138Y0075928D01*
X0336348Y0076293D01*
X0336457Y0076700D01*
X0336457Y0080210D01*
X0331558Y0080210D01*
X0331558Y0081010D01*
X0336457Y0081010D01*
X0336457Y0084521D01*
X0336348Y0084928D01*
X0336138Y0085293D01*
X0335840Y0085591D01*
X0335475Y0085801D01*
X0335068Y0085910D01*
X0331557Y0085910D01*
X0331557Y0081010D01*
X0330757Y0081010D01*
X0330757Y0085910D01*
X0327247Y0085910D01*
X0326840Y0085801D01*
X0326475Y0085591D01*
X0326177Y0085293D01*
X0325967Y0084928D01*
X0325857Y0084521D01*
X0325857Y0083636D01*
X0325820Y0083726D01*
X0324273Y0085273D01*
X0322252Y0086110D01*
X0320063Y0086110D01*
X0318042Y0085273D01*
X0316495Y0083726D01*
X0315657Y0081704D01*
X0315657Y0079516D01*
X0316495Y0077495D01*
X0316981Y0077009D01*
X0290207Y0076976D01*
X0290207Y0080210D01*
X0285308Y0080210D01*
X0285308Y0081010D01*
X0290207Y0081010D01*
X0290207Y0084521D01*
X0290098Y0084928D01*
X0289888Y0085293D01*
X0289590Y0085591D01*
X0289225Y0085801D01*
X0288818Y0085910D01*
X0285307Y0085910D01*
X0285307Y0081010D01*
X0284507Y0081010D01*
X0284507Y0085910D01*
X0280997Y0085910D01*
X0280590Y0085801D01*
X0280225Y0085591D01*
X0279927Y0085293D01*
X0279717Y0084928D01*
X0279607Y0084521D01*
X0279607Y0083636D01*
X0279623Y0084580D02*
X0278715Y0084580D01*
X0280551Y0085779D02*
X0276801Y0085779D01*
X0272300Y0086977D02*
X0348757Y0086977D01*
X0348757Y0085779D02*
X0335514Y0085779D01*
X0336442Y0084580D02*
X0348757Y0084580D01*
X0348757Y0083382D02*
X0336457Y0083382D01*
X0336457Y0082183D02*
X0348757Y0082183D01*
X0348757Y0080985D02*
X0331558Y0080985D01*
X0331557Y0082183D02*
X0330757Y0082183D01*
X0330757Y0083382D02*
X0331557Y0083382D01*
X0331557Y0084580D02*
X0330757Y0084580D01*
X0330757Y0085779D02*
X0331557Y0085779D01*
X0326801Y0085779D02*
X0323051Y0085779D01*
X0324965Y0084580D02*
X0325873Y0084580D01*
X0319264Y0085779D02*
X0289264Y0085779D01*
X0290192Y0084580D02*
X0317350Y0084580D01*
X0316352Y0083382D02*
X0290207Y0083382D01*
X0290207Y0082183D02*
X0315856Y0082183D01*
X0315657Y0080985D02*
X0285308Y0080985D01*
X0285307Y0082183D02*
X0284507Y0082183D01*
X0284507Y0083382D02*
X0285307Y0083382D01*
X0285307Y0084580D02*
X0284507Y0084580D01*
X0284507Y0085779D02*
X0285307Y0085779D01*
X0290207Y0079786D02*
X0315657Y0079786D01*
X0316042Y0078588D02*
X0290207Y0078588D01*
X0290207Y0077389D02*
X0316600Y0077389D01*
X0318257Y0074610D02*
X0321157Y0078110D01*
X0321691Y0074992D02*
X0347987Y0074992D01*
X0348757Y0076191D02*
X0336290Y0076191D01*
X0336457Y0077389D02*
X0348757Y0077389D01*
X0348757Y0078588D02*
X0336457Y0078588D01*
X0336457Y0079786D02*
X0348757Y0079786D01*
X0353557Y0079786D02*
X0356257Y0079786D01*
X0356257Y0078588D02*
X0353557Y0078588D01*
X0353557Y0077389D02*
X0356257Y0077389D01*
X0356257Y0076191D02*
X0353557Y0076191D01*
X0353557Y0074992D02*
X0356257Y0074992D01*
X0356257Y0073794D02*
X0353294Y0073794D01*
X0353292Y0073792D02*
X0353457Y0073958D01*
X0353457Y0074191D01*
X0353557Y0074433D01*
X0353557Y0124616D01*
X0354652Y0125710D01*
X0400984Y0125710D01*
X0401672Y0124050D01*
X0403219Y0122503D01*
X0404276Y0122065D01*
X0403557Y0121698D01*
X0402882Y0121208D01*
X0402292Y0120618D01*
X0401802Y0119943D01*
X0401423Y0119200D01*
X0401165Y0118406D01*
X0401035Y0117582D01*
X0401035Y0117565D01*
X0405935Y0117565D01*
X0405935Y0116765D01*
X0401035Y0116765D01*
X0401035Y0116748D01*
X0401165Y0115924D01*
X0401423Y0115131D01*
X0401802Y0114388D01*
X0402292Y0113713D01*
X0402882Y0113123D01*
X0403557Y0112632D01*
X0404276Y0112266D01*
X0403219Y0111828D01*
X0401672Y0110281D01*
X0401459Y0109766D01*
X0385198Y0109565D01*
X0384735Y0109565D01*
X0384721Y0109559D01*
X0384706Y0109559D01*
X0384281Y0109377D01*
X0383853Y0109200D01*
X0383842Y0109189D01*
X0383828Y0109183D01*
X0383505Y0108852D01*
X0379798Y0105145D01*
X0379123Y0104470D01*
X0378757Y0103588D01*
X0378757Y0072804D01*
X0375163Y0069210D01*
X0359252Y0069210D01*
X0360692Y0070651D01*
X0361057Y0071533D01*
X0361057Y0117116D01*
X0362152Y0118210D01*
X0363493Y0118210D01*
X0364129Y0117574D01*
X0365445Y0117029D01*
X0366870Y0117029D01*
X0368186Y0117574D01*
X0369193Y0118582D01*
X0369739Y0119898D01*
X0369739Y0121323D01*
X0369193Y0122639D01*
X0368186Y0123646D01*
X0366870Y0124191D01*
X0365445Y0124191D01*
X0364129Y0123646D01*
X0363493Y0123010D01*
X0360680Y0123010D01*
X0359798Y0122645D01*
X0357298Y0120145D01*
X0356623Y0119470D01*
X0356257Y0118588D01*
X0356257Y0073004D01*
X0355263Y0072010D01*
X0351510Y0072010D01*
X0352276Y0072776D01*
X0352517Y0072876D01*
X0353192Y0073551D01*
X0353292Y0073792D01*
X0352095Y0072595D02*
X0355848Y0072595D01*
X0358657Y0072010D02*
X0356257Y0069610D01*
X0144657Y0069610D01*
X0142407Y0071860D01*
X0142407Y0111093D01*
X0142565Y0111250D01*
X0147434Y0113345D02*
X0147696Y0113345D01*
X0148363Y0114543D02*
X0146767Y0114543D01*
X0145569Y0115742D02*
X0149561Y0115742D01*
X0149965Y0116940D02*
X0145165Y0116940D01*
X0145165Y0118139D02*
X0149965Y0118139D01*
X0149965Y0119337D02*
X0145165Y0119337D01*
X0145165Y0120536D02*
X0149954Y0120536D01*
X0149807Y0121734D02*
X0145165Y0121734D01*
X0145007Y0122933D02*
X0149807Y0122933D01*
X0148860Y0124131D02*
X0145954Y0124131D01*
X0146570Y0125330D02*
X0148245Y0125330D01*
X0148245Y0126528D02*
X0146570Y0126528D01*
X0146570Y0127727D02*
X0148245Y0127727D01*
X0148245Y0128925D02*
X0146570Y0128925D01*
X0145833Y0130124D02*
X0148982Y0130124D01*
X0148756Y0131322D02*
X0146059Y0131322D01*
X0155833Y0130124D02*
X0160232Y0130124D01*
X0160006Y0131322D02*
X0156059Y0131322D01*
X0156570Y0128925D02*
X0159495Y0128925D01*
X0159495Y0127727D02*
X0156570Y0127727D01*
X0156570Y0126528D02*
X0159495Y0126528D01*
X0159495Y0125330D02*
X0156570Y0125330D01*
X0155954Y0124131D02*
X0160110Y0124131D01*
X0160571Y0122933D02*
X0155007Y0122933D01*
X0155165Y0121734D02*
X0159965Y0121734D01*
X0159965Y0120536D02*
X0155165Y0120536D01*
X0155165Y0119337D02*
X0159965Y0119337D01*
X0159965Y0118139D02*
X0155165Y0118139D01*
X0155165Y0116940D02*
X0159965Y0116940D01*
X0159561Y0115742D02*
X0155569Y0115742D01*
X0156767Y0114543D02*
X0158363Y0114543D01*
X0157696Y0113345D02*
X0157434Y0113345D01*
X0157565Y0109472D02*
X0158072Y0108248D01*
X0159563Y0106757D01*
X0160165Y0106507D01*
X0160165Y0078725D01*
X0160530Y0077843D01*
X0161205Y0077168D01*
X0161205Y0077168D01*
X0161623Y0076751D01*
X0162298Y0076076D01*
X0163180Y0075710D01*
X0227400Y0075710D01*
X0228049Y0075454D01*
X0227991Y0075410D01*
X0154752Y0075410D01*
X0153557Y0076604D01*
X0153557Y0105950D01*
X0153619Y0105950D01*
X0155567Y0106757D01*
X0157058Y0108248D01*
X0157565Y0109472D01*
X0157184Y0108551D02*
X0157946Y0108551D01*
X0158967Y0107352D02*
X0156162Y0107352D01*
X0154111Y0106154D02*
X0160165Y0106154D01*
X0160165Y0104955D02*
X0153557Y0104955D01*
X0153557Y0103757D02*
X0160165Y0103757D01*
X0160165Y0102558D02*
X0153557Y0102558D01*
X0153557Y0101360D02*
X0160165Y0101360D01*
X0160165Y0100161D02*
X0153557Y0100161D01*
X0153557Y0098963D02*
X0160165Y0098963D01*
X0160165Y0097764D02*
X0153557Y0097764D01*
X0153557Y0096566D02*
X0160165Y0096566D01*
X0160165Y0095367D02*
X0153557Y0095367D01*
X0153557Y0094169D02*
X0160165Y0094169D01*
X0160165Y0092970D02*
X0153557Y0092970D01*
X0153557Y0091772D02*
X0160165Y0091772D01*
X0160165Y0090573D02*
X0153557Y0090573D01*
X0153557Y0089375D02*
X0160165Y0089375D01*
X0160165Y0088176D02*
X0153557Y0088176D01*
X0153557Y0086977D02*
X0160165Y0086977D01*
X0160165Y0085779D02*
X0153557Y0085779D01*
X0153557Y0084580D02*
X0160165Y0084580D01*
X0160165Y0083382D02*
X0153557Y0083382D01*
X0153557Y0082183D02*
X0160165Y0082183D01*
X0160165Y0080985D02*
X0153557Y0080985D01*
X0153557Y0079786D02*
X0160165Y0079786D01*
X0160222Y0078588D02*
X0153557Y0078588D01*
X0153557Y0077389D02*
X0160984Y0077389D01*
X0162183Y0076191D02*
X0153971Y0076191D01*
X0151157Y0075610D02*
X0151157Y0109843D01*
X0152565Y0111250D01*
X0148757Y0107562D02*
X0148072Y0108248D01*
X0147565Y0109472D01*
X0147058Y0108248D01*
X0145567Y0106757D01*
X0144807Y0106442D01*
X0144807Y0072854D01*
X0145652Y0072010D01*
X0151363Y0072010D01*
X0149798Y0073576D01*
X0149123Y0074251D01*
X0148757Y0075133D01*
X0148757Y0107562D01*
X0148757Y0107352D02*
X0146162Y0107352D01*
X0147184Y0108551D02*
X0147946Y0108551D01*
X0148757Y0106154D02*
X0144807Y0106154D01*
X0144807Y0104955D02*
X0148757Y0104955D01*
X0148757Y0103757D02*
X0144807Y0103757D01*
X0144807Y0102558D02*
X0148757Y0102558D01*
X0148757Y0101360D02*
X0144807Y0101360D01*
X0144807Y0100161D02*
X0148757Y0100161D01*
X0148757Y0098963D02*
X0144807Y0098963D01*
X0144807Y0097764D02*
X0148757Y0097764D01*
X0148757Y0096566D02*
X0144807Y0096566D01*
X0144807Y0095367D02*
X0148757Y0095367D01*
X0148757Y0094169D02*
X0144807Y0094169D01*
X0144807Y0092970D02*
X0148757Y0092970D01*
X0148757Y0091772D02*
X0144807Y0091772D01*
X0144807Y0090573D02*
X0148757Y0090573D01*
X0148757Y0089375D02*
X0144807Y0089375D01*
X0144807Y0088176D02*
X0148757Y0088176D01*
X0148757Y0086977D02*
X0144807Y0086977D01*
X0144807Y0085779D02*
X0148757Y0085779D01*
X0148757Y0084580D02*
X0144807Y0084580D01*
X0144807Y0083382D02*
X0148757Y0083382D01*
X0148757Y0082183D02*
X0144807Y0082183D01*
X0144807Y0080985D02*
X0148757Y0080985D01*
X0148757Y0079786D02*
X0144807Y0079786D01*
X0144807Y0078588D02*
X0148757Y0078588D01*
X0148757Y0077389D02*
X0144807Y0077389D01*
X0144807Y0076191D02*
X0148757Y0076191D01*
X0148816Y0074992D02*
X0144807Y0074992D01*
X0144807Y0073794D02*
X0149580Y0073794D01*
X0150778Y0072595D02*
X0145066Y0072595D01*
X0141663Y0069210D02*
X0129652Y0069210D01*
X0124965Y0073897D01*
X0124965Y0106507D01*
X0125567Y0106757D01*
X0127058Y0108248D01*
X0127565Y0109472D01*
X0128072Y0108248D01*
X0129563Y0106757D01*
X0131511Y0105950D01*
X0133619Y0105950D01*
X0135567Y0106757D01*
X0137058Y0108248D01*
X0137565Y0109472D01*
X0138072Y0108248D01*
X0139563Y0106757D01*
X0140007Y0106573D01*
X0140007Y0071383D01*
X0140373Y0070501D01*
X0141048Y0069826D01*
X0141663Y0069210D01*
X0141048Y0069826D02*
X0141048Y0069826D01*
X0140675Y0070198D02*
X0128663Y0070198D01*
X0127465Y0071397D02*
X0140007Y0071397D01*
X0140007Y0072595D02*
X0126266Y0072595D01*
X0125068Y0073794D02*
X0140007Y0073794D01*
X0140007Y0074992D02*
X0124965Y0074992D01*
X0124965Y0076191D02*
X0140007Y0076191D01*
X0140007Y0077389D02*
X0124965Y0077389D01*
X0124965Y0078588D02*
X0140007Y0078588D01*
X0140007Y0079786D02*
X0124965Y0079786D01*
X0124965Y0080985D02*
X0140007Y0080985D01*
X0140007Y0082183D02*
X0124965Y0082183D01*
X0124965Y0083382D02*
X0140007Y0083382D01*
X0140007Y0084580D02*
X0124965Y0084580D01*
X0124965Y0085779D02*
X0140007Y0085779D01*
X0140007Y0086977D02*
X0124965Y0086977D01*
X0124965Y0088176D02*
X0140007Y0088176D01*
X0140007Y0089375D02*
X0124965Y0089375D01*
X0124965Y0090573D02*
X0140007Y0090573D01*
X0140007Y0091772D02*
X0124965Y0091772D01*
X0124965Y0092970D02*
X0140007Y0092970D01*
X0140007Y0094169D02*
X0124965Y0094169D01*
X0124965Y0095367D02*
X0140007Y0095367D01*
X0140007Y0096566D02*
X0124965Y0096566D01*
X0124965Y0097764D02*
X0140007Y0097764D01*
X0140007Y0098963D02*
X0124965Y0098963D01*
X0124965Y0100161D02*
X0140007Y0100161D01*
X0140007Y0101360D02*
X0124965Y0101360D01*
X0124965Y0102558D02*
X0140007Y0102558D01*
X0140007Y0103757D02*
X0124965Y0103757D01*
X0124965Y0104955D02*
X0140007Y0104955D01*
X0140007Y0106154D02*
X0134111Y0106154D01*
X0136162Y0107352D02*
X0138967Y0107352D01*
X0137946Y0108551D02*
X0137184Y0108551D01*
X0137434Y0113345D02*
X0137696Y0113345D01*
X0138363Y0114543D02*
X0136767Y0114543D01*
X0135569Y0115742D02*
X0139561Y0115742D01*
X0139965Y0116940D02*
X0134965Y0116940D01*
X0134965Y0118139D02*
X0139965Y0118139D01*
X0139965Y0119337D02*
X0134965Y0119337D01*
X0134965Y0120536D02*
X0139954Y0120536D01*
X0139807Y0121734D02*
X0134965Y0121734D01*
X0134965Y0122933D02*
X0139807Y0122933D01*
X0138860Y0124131D02*
X0134965Y0124131D01*
X0134965Y0125330D02*
X0138245Y0125330D01*
X0138245Y0126528D02*
X0134965Y0126528D01*
X0134965Y0127727D02*
X0138245Y0127727D01*
X0138245Y0128925D02*
X0134965Y0128925D01*
X0134965Y0130124D02*
X0138982Y0130124D01*
X0138756Y0131322D02*
X0134965Y0131322D01*
X0134965Y0132521D02*
X0138245Y0132521D01*
X0138245Y0133719D02*
X0135161Y0133719D01*
X0136359Y0134918D02*
X0138245Y0134918D01*
X0136157Y0138110D02*
X0132565Y0134518D01*
X0132565Y0111250D01*
X0127946Y0108551D02*
X0127184Y0108551D01*
X0126162Y0107352D02*
X0128967Y0107352D01*
X0131019Y0106154D02*
X0124965Y0106154D01*
X0120165Y0106154D02*
X0112989Y0106154D01*
X0112949Y0106154D02*
X0112181Y0106154D01*
X0112140Y0106154D02*
X0104111Y0106154D01*
X0106162Y0107352D02*
X0109253Y0107352D01*
X0108222Y0108551D02*
X0107184Y0108551D01*
X0107680Y0109749D02*
X0107690Y0109749D01*
X0107908Y0113345D02*
X0107434Y0113345D01*
X0106767Y0114543D02*
X0108654Y0114543D01*
X0110147Y0115742D02*
X0105569Y0115742D01*
X0099561Y0115742D02*
X0095569Y0115742D01*
X0096767Y0114543D02*
X0098363Y0114543D01*
X0097696Y0113345D02*
X0097434Y0113345D01*
X0097184Y0108551D02*
X0097946Y0108551D01*
X0098967Y0107352D02*
X0096162Y0107352D01*
X0094111Y0106154D02*
X0101019Y0106154D01*
X0091019Y0106154D02*
X0084111Y0106154D01*
X0086162Y0107352D02*
X0088967Y0107352D01*
X0087946Y0108551D02*
X0087184Y0108551D01*
X0087434Y0113345D02*
X0087696Y0113345D01*
X0088363Y0114543D02*
X0086767Y0114543D01*
X0085569Y0115742D02*
X0089257Y0115742D01*
X0089257Y0116940D02*
X0060556Y0116940D01*
X0060556Y0115742D02*
X0079561Y0115742D01*
X0078363Y0114543D02*
X0060556Y0114543D01*
X0060556Y0113345D02*
X0077696Y0113345D01*
X0077265Y0112146D02*
X0060556Y0112146D01*
X0060556Y0110948D02*
X0077265Y0110948D01*
X0077450Y0109749D02*
X0060556Y0109749D01*
X0060556Y0108551D02*
X0077946Y0108551D01*
X0078967Y0107352D02*
X0060556Y0107352D01*
X0060556Y0106154D02*
X0081019Y0106154D01*
X0089257Y0118139D02*
X0060556Y0118139D01*
X0060556Y0119337D02*
X0089257Y0119337D01*
X0089257Y0120536D02*
X0060556Y0120536D01*
X0060556Y0121734D02*
X0089257Y0121734D01*
X0089257Y0122933D02*
X0060556Y0122933D01*
X0060556Y0124131D02*
X0089257Y0124131D01*
X0089257Y0125330D02*
X0060556Y0125330D01*
X0060556Y0126528D02*
X0089257Y0126528D01*
X0089257Y0127727D02*
X0060556Y0127727D01*
X0060556Y0128925D02*
X0089257Y0128925D01*
X0089257Y0130124D02*
X0060556Y0130124D01*
X0060556Y0131322D02*
X0089257Y0131322D01*
X0089257Y0132521D02*
X0060556Y0132521D01*
X0060556Y0133719D02*
X0089257Y0133719D01*
X0089257Y0134918D02*
X0060556Y0134918D01*
X0060556Y0136116D02*
X0089257Y0136116D01*
X0089257Y0137315D02*
X0060556Y0137315D01*
X0060556Y0138513D02*
X0089467Y0138513D01*
X0090317Y0139712D02*
X0060556Y0139712D01*
X0060556Y0140910D02*
X0091515Y0140910D01*
X0092714Y0142109D02*
X0060556Y0142109D01*
X0060556Y0143308D02*
X0093912Y0143308D01*
X0095111Y0144506D02*
X0060556Y0144506D01*
X0060556Y0145705D02*
X0096309Y0145705D01*
X0097508Y0146903D02*
X0060556Y0146903D01*
X0060556Y0148102D02*
X0098706Y0148102D01*
X0101199Y0142109D02*
X0271413Y0142109D01*
X0269879Y0140910D02*
X0100000Y0140910D01*
X0078808Y0152896D02*
X0060556Y0152896D01*
X0060556Y0154094D02*
X0077909Y0154094D01*
X0077576Y0155293D02*
X0060556Y0155293D01*
X0060556Y0156491D02*
X0077646Y0156491D01*
X0078172Y0157690D02*
X0060556Y0157690D01*
X0060556Y0158888D02*
X0079713Y0158888D01*
X0060556Y0160087D02*
X0135826Y0160087D01*
X0137024Y0161285D02*
X0060556Y0161285D01*
X0060556Y0162484D02*
X0138223Y0162484D01*
X0139257Y0163682D02*
X0060556Y0163682D01*
X0060556Y0164881D02*
X0139257Y0164881D01*
X0139257Y0166079D02*
X0060556Y0166079D01*
X0060556Y0167278D02*
X0139257Y0167278D01*
X0139257Y0168476D02*
X0060556Y0168476D01*
X0060556Y0169675D02*
X0139257Y0169675D01*
X0139257Y0170873D02*
X0060556Y0170873D01*
X0060556Y0172072D02*
X0139257Y0172072D01*
X0139257Y0173270D02*
X0060556Y0173270D01*
X0060556Y0174469D02*
X0139257Y0174469D01*
X0139257Y0175667D02*
X0060556Y0175667D01*
X0060556Y0176866D02*
X0139257Y0176866D01*
X0139257Y0178064D02*
X0060556Y0178064D01*
X0060556Y0179263D02*
X0139257Y0179263D01*
X0139257Y0180461D02*
X0060556Y0180461D01*
X0060556Y0181660D02*
X0139257Y0181660D01*
X0139257Y0182858D02*
X0060556Y0182858D01*
X0060556Y0184057D02*
X0139257Y0184057D01*
X0139257Y0185255D02*
X0060556Y0185255D01*
X0060556Y0186454D02*
X0120294Y0186454D01*
X0118667Y0187652D02*
X0060556Y0187652D01*
X0060556Y0188851D02*
X0117822Y0188851D01*
X0117326Y0190049D02*
X0060556Y0190049D01*
X0060556Y0191248D02*
X0117265Y0191248D01*
X0117324Y0192446D02*
X0060556Y0192446D01*
X0060556Y0193645D02*
X0117820Y0193645D01*
X0118663Y0194844D02*
X0060556Y0194844D01*
X0060556Y0196042D02*
X0120284Y0196042D01*
X0124846Y0196042D02*
X0130284Y0196042D01*
X0128663Y0194844D02*
X0126467Y0194844D01*
X0127310Y0193645D02*
X0127820Y0193645D01*
X0127822Y0188851D02*
X0127308Y0188851D01*
X0126463Y0187652D02*
X0128667Y0187652D01*
X0130294Y0186454D02*
X0124836Y0186454D01*
X0134836Y0186454D02*
X0139257Y0186454D01*
X0138667Y0187652D02*
X0136463Y0187652D01*
X0137308Y0188851D02*
X0137822Y0188851D01*
X0137820Y0193645D02*
X0137310Y0193645D01*
X0136467Y0194844D02*
X0138663Y0194844D01*
X0139057Y0196042D02*
X0134846Y0196042D01*
X0139057Y0197241D02*
X0060556Y0197241D01*
X0060556Y0198439D02*
X0139057Y0198439D01*
X0139057Y0199638D02*
X0060556Y0199638D01*
X0060556Y0200836D02*
X0139057Y0200836D01*
X0139057Y0202035D02*
X0060556Y0202035D01*
X0060556Y0203233D02*
X0139057Y0203233D01*
X0139057Y0204432D02*
X0060556Y0204432D01*
X0060556Y0205630D02*
X0139057Y0205630D01*
X0138888Y0206829D02*
X0060602Y0206829D01*
X0060903Y0208027D02*
X0138512Y0208027D01*
X0138137Y0209226D02*
X0061384Y0209226D01*
X0062254Y0210424D02*
X0137899Y0210424D01*
X0136192Y0211623D02*
X0063832Y0211623D01*
X0093345Y0212821D02*
X0135972Y0212821D01*
X0135972Y0214020D02*
X0095743Y0214020D01*
X0094699Y0213261D02*
X0094699Y0213261D01*
X0097291Y0215218D02*
X0135972Y0215218D01*
X0135972Y0216417D02*
X0098162Y0216417D01*
X0098979Y0217542D02*
X0098979Y0217542D01*
X0099003Y0217615D02*
X0135972Y0217615D01*
X0135972Y0218814D02*
X0099392Y0218814D01*
X0099782Y0220012D02*
X0136351Y0220012D01*
X0136429Y0222409D02*
X0099926Y0222409D01*
X0099926Y0221211D02*
X0149331Y0221211D01*
X0149200Y0220012D02*
X0146279Y0220012D01*
X0146658Y0218814D02*
X0149200Y0218814D01*
X0149200Y0217615D02*
X0146658Y0217615D01*
X0146658Y0216417D02*
X0149200Y0216417D01*
X0149884Y0215218D02*
X0146658Y0215218D01*
X0146658Y0214020D02*
X0149915Y0214020D01*
X0149915Y0212821D02*
X0146658Y0212821D01*
X0146438Y0211623D02*
X0149915Y0211623D01*
X0149915Y0210424D02*
X0144887Y0210424D01*
X0145263Y0209226D02*
X0149915Y0209226D01*
X0149915Y0208027D02*
X0145639Y0208027D01*
X0145873Y0206829D02*
X0149915Y0206829D01*
X0149915Y0205630D02*
X0145857Y0205630D01*
X0145857Y0204432D02*
X0149915Y0204432D01*
X0149915Y0203233D02*
X0145857Y0203233D01*
X0145857Y0202035D02*
X0149915Y0202035D01*
X0149915Y0200836D02*
X0145857Y0200836D01*
X0145857Y0199638D02*
X0149915Y0199638D01*
X0149915Y0198439D02*
X0145857Y0198439D01*
X0145857Y0197241D02*
X0149915Y0197241D01*
X0149915Y0196042D02*
X0145857Y0196042D01*
X0146467Y0194844D02*
X0148663Y0194844D01*
X0147820Y0193645D02*
X0147310Y0193645D01*
X0155115Y0196042D02*
X0159757Y0196042D01*
X0159757Y0197241D02*
X0155115Y0197241D01*
X0155115Y0198439D02*
X0159757Y0198439D01*
X0159757Y0199638D02*
X0155115Y0199638D01*
X0155115Y0200836D02*
X0159757Y0200836D01*
X0159757Y0202035D02*
X0155115Y0202035D01*
X0155115Y0203233D02*
X0159757Y0203233D01*
X0159757Y0204432D02*
X0155115Y0204432D01*
X0155115Y0205630D02*
X0159858Y0205630D01*
X0160682Y0206829D02*
X0155115Y0206829D01*
X0155115Y0208027D02*
X0161880Y0208027D01*
X0163079Y0209226D02*
X0155115Y0209226D01*
X0155115Y0210424D02*
X0199779Y0210424D01*
X0198956Y0211623D02*
X0155115Y0211623D01*
X0155115Y0212821D02*
X0198676Y0212821D01*
X0198799Y0214020D02*
X0155115Y0214020D01*
X0155122Y0215218D02*
X0158169Y0215218D01*
X0158270Y0215191D02*
X0159868Y0215191D01*
X0159868Y0218376D01*
X0156880Y0218376D01*
X0156880Y0216581D01*
X0156989Y0216174D01*
X0157200Y0215809D01*
X0157498Y0215511D01*
X0157863Y0215300D01*
X0158270Y0215191D01*
X0159868Y0215218D02*
X0160243Y0215218D01*
X0160243Y0215191D02*
X0161841Y0215191D01*
X0162247Y0215300D01*
X0162612Y0215511D01*
X0162910Y0215809D01*
X0163121Y0216174D01*
X0163230Y0216581D01*
X0163230Y0218376D01*
X0160243Y0218376D01*
X0160243Y0218750D01*
X0163230Y0218750D01*
X0163230Y0220545D01*
X0163121Y0220952D01*
X0162910Y0221317D01*
X0162612Y0221615D01*
X0162247Y0221826D01*
X0161841Y0221935D01*
X0160243Y0221935D01*
X0160243Y0218750D01*
X0159868Y0218750D01*
X0159868Y0218376D01*
X0160243Y0218376D01*
X0160243Y0215191D01*
X0160243Y0216417D02*
X0159868Y0216417D01*
X0159868Y0217615D02*
X0160243Y0217615D01*
X0160055Y0218563D02*
X0162157Y0216461D01*
X0163186Y0216417D02*
X0201124Y0216417D01*
X0199401Y0215218D02*
X0161941Y0215218D01*
X0163230Y0217615D02*
X0208676Y0217615D01*
X0208710Y0216417D02*
X0203391Y0216417D01*
X0209046Y0218814D02*
X0163230Y0218814D01*
X0163230Y0220012D02*
X0209995Y0220012D01*
X0212257Y0217210D02*
X0213107Y0216860D01*
X0248307Y0216860D01*
X0257657Y0208110D01*
X0303657Y0208110D01*
X0306157Y0205610D01*
X0306157Y0198110D01*
X0309091Y0195177D01*
X0313550Y0195177D01*
X0317712Y0194844D02*
X0351257Y0194844D01*
X0351257Y0196042D02*
X0317712Y0196042D01*
X0317712Y0197241D02*
X0351257Y0197241D01*
X0351257Y0198439D02*
X0316771Y0198439D01*
X0317406Y0199638D02*
X0351257Y0199638D01*
X0351257Y0200836D02*
X0317712Y0200836D01*
X0317712Y0202035D02*
X0351257Y0202035D01*
X0351257Y0203233D02*
X0317712Y0203233D01*
X0317712Y0204432D02*
X0351257Y0204432D01*
X0351257Y0205630D02*
X0316666Y0205630D01*
X0315900Y0206829D02*
X0351257Y0206829D01*
X0351257Y0208027D02*
X0315900Y0208027D01*
X0315900Y0209226D02*
X0351522Y0209226D01*
X0352577Y0210424D02*
X0315900Y0210424D01*
X0315900Y0211623D02*
X0353776Y0211623D01*
X0355224Y0212821D02*
X0315900Y0212821D01*
X0315900Y0214020D02*
X0368673Y0214020D01*
X0368757Y0215218D02*
X0315900Y0215218D01*
X0315900Y0216417D02*
X0368757Y0216417D01*
X0368757Y0217615D02*
X0315900Y0217615D01*
X0315900Y0218814D02*
X0368757Y0218814D01*
X0368757Y0220012D02*
X0315900Y0220012D01*
X0315900Y0221211D02*
X0368757Y0221211D01*
X0368757Y0222409D02*
X0315900Y0222409D01*
X0315900Y0223608D02*
X0368757Y0223608D01*
X0367707Y0224806D02*
X0363059Y0224806D01*
X0364611Y0226005D02*
X0366437Y0226005D01*
X0365739Y0227203D02*
X0365374Y0227203D01*
X0361030Y0227203D02*
X0360458Y0227203D01*
X0360458Y0226005D02*
X0361030Y0226005D01*
X0361030Y0224806D02*
X0360458Y0224806D01*
X0358429Y0224806D02*
X0353781Y0224806D01*
X0355051Y0226005D02*
X0356877Y0226005D01*
X0356114Y0227203D02*
X0355749Y0227203D01*
X0360458Y0228402D02*
X0361030Y0228402D01*
X0361157Y0228937D02*
X0360744Y0229350D01*
X0370587Y0229350D02*
X0371157Y0228780D01*
X0371157Y0213110D01*
X0368657Y0210610D01*
X0356157Y0210610D01*
X0353657Y0208110D01*
X0353657Y0193810D01*
X0350065Y0190268D01*
X0333411Y0190268D01*
X0330036Y0190049D02*
X0329699Y0190049D01*
X0329699Y0188851D02*
X0330036Y0188851D01*
X0330036Y0191248D02*
X0329699Y0191248D01*
X0329699Y0192446D02*
X0330036Y0192446D01*
X0330306Y0193645D02*
X0329430Y0193645D01*
X0326324Y0190268D02*
X0268400Y0190268D01*
X0245557Y0213110D01*
X0202957Y0213110D01*
X0202257Y0213010D01*
X0214520Y0220012D02*
X0266408Y0220012D01*
X0266514Y0220074D02*
X0266149Y0219863D01*
X0265852Y0219565D01*
X0265641Y0219200D01*
X0265532Y0218793D01*
X0265532Y0216408D01*
X0268519Y0216408D01*
X0268519Y0216033D01*
X0265532Y0216033D01*
X0265532Y0213648D01*
X0265641Y0213241D01*
X0265852Y0212876D01*
X0266149Y0212578D01*
X0266514Y0212367D01*
X0266921Y0212258D01*
X0268519Y0212258D01*
X0268519Y0216033D01*
X0268894Y0216033D01*
X0268894Y0212258D01*
X0270492Y0212258D01*
X0270899Y0212367D01*
X0271264Y0212578D01*
X0271562Y0212876D01*
X0271772Y0213241D01*
X0271881Y0213648D01*
X0271881Y0216033D01*
X0268894Y0216033D01*
X0268894Y0216408D01*
X0268519Y0216408D01*
X0268519Y0220183D01*
X0266921Y0220183D01*
X0266514Y0220074D01*
X0265537Y0218814D02*
X0249748Y0218814D01*
X0251013Y0217615D02*
X0265532Y0217615D01*
X0265532Y0216417D02*
X0252294Y0216417D01*
X0253574Y0215218D02*
X0265532Y0215218D01*
X0265532Y0214020D02*
X0254855Y0214020D01*
X0256136Y0212821D02*
X0265906Y0212821D01*
X0268519Y0212821D02*
X0268894Y0212821D01*
X0268894Y0214020D02*
X0268519Y0214020D01*
X0268519Y0215218D02*
X0268894Y0215218D01*
X0268894Y0216408D02*
X0271881Y0216408D01*
X0271881Y0218793D01*
X0271772Y0219200D01*
X0271562Y0219565D01*
X0271264Y0219863D01*
X0270899Y0220074D01*
X0270492Y0220183D01*
X0268894Y0220183D01*
X0268894Y0216408D01*
X0268894Y0216417D02*
X0268519Y0216417D01*
X0268519Y0217615D02*
X0268894Y0217615D01*
X0268894Y0218814D02*
X0268519Y0218814D01*
X0268519Y0220012D02*
X0268894Y0220012D01*
X0271005Y0220012D02*
X0273102Y0220012D01*
X0272652Y0221211D02*
X0275864Y0221211D01*
X0276257Y0222409D02*
X0273851Y0222409D01*
X0275049Y0223608D02*
X0276257Y0223608D01*
X0276257Y0224806D02*
X0275922Y0224806D01*
X0276057Y0226005D02*
X0276257Y0226005D01*
X0276257Y0227203D02*
X0276057Y0227203D01*
X0276057Y0228402D02*
X0276257Y0228402D01*
X0278657Y0230965D02*
X0278657Y0220610D01*
X0275793Y0217746D01*
X0275793Y0216220D01*
X0272419Y0216417D02*
X0271881Y0216417D01*
X0271881Y0217615D02*
X0272419Y0217615D01*
X0272419Y0218814D02*
X0271876Y0218814D01*
X0271881Y0215218D02*
X0272419Y0215218D01*
X0272419Y0214020D02*
X0271881Y0214020D01*
X0271507Y0212821D02*
X0272710Y0212821D01*
X0278877Y0212821D02*
X0311100Y0212821D01*
X0311100Y0211623D02*
X0257417Y0211623D01*
X0252953Y0209226D02*
X0252836Y0209226D01*
X0251672Y0210424D02*
X0251638Y0210424D01*
X0251129Y0210932D02*
X0255988Y0206385D01*
X0256298Y0206076D01*
X0256336Y0206060D01*
X0256366Y0206032D01*
X0256776Y0205878D01*
X0257180Y0205710D01*
X0257221Y0205710D01*
X0257260Y0205696D01*
X0257697Y0205710D01*
X0302663Y0205710D01*
X0303757Y0204616D01*
X0303757Y0197633D01*
X0304123Y0196751D01*
X0304798Y0196076D01*
X0307731Y0193143D01*
X0308613Y0192777D01*
X0309467Y0192777D01*
X0309577Y0192668D01*
X0278690Y0192668D01*
X0279055Y0192819D01*
X0280780Y0194544D01*
X0281713Y0196797D01*
X0281713Y0199236D01*
X0280780Y0201489D01*
X0279055Y0203214D01*
X0276802Y0204147D01*
X0274363Y0204147D01*
X0272110Y0203214D01*
X0270385Y0201489D01*
X0269452Y0199236D01*
X0269452Y0196797D01*
X0270385Y0194544D01*
X0272110Y0192819D01*
X0272476Y0192668D01*
X0269394Y0192668D01*
X0251129Y0210932D01*
X0254035Y0208027D02*
X0254234Y0208027D01*
X0255233Y0206829D02*
X0255515Y0206829D01*
X0256432Y0205630D02*
X0302743Y0205630D01*
X0303757Y0204432D02*
X0257630Y0204432D01*
X0258829Y0203233D02*
X0272156Y0203233D01*
X0270931Y0202035D02*
X0260027Y0202035D01*
X0261226Y0200836D02*
X0270115Y0200836D01*
X0269618Y0199638D02*
X0262424Y0199638D01*
X0263623Y0198439D02*
X0269452Y0198439D01*
X0269452Y0197241D02*
X0264821Y0197241D01*
X0266020Y0196042D02*
X0269765Y0196042D01*
X0270261Y0194844D02*
X0267218Y0194844D01*
X0268417Y0193645D02*
X0271284Y0193645D01*
X0279881Y0193645D02*
X0307229Y0193645D01*
X0306030Y0194844D02*
X0280904Y0194844D01*
X0281401Y0196042D02*
X0304832Y0196042D01*
X0303920Y0197241D02*
X0281713Y0197241D01*
X0281713Y0198439D02*
X0303757Y0198439D01*
X0303757Y0199638D02*
X0281547Y0199638D01*
X0281051Y0200836D02*
X0303757Y0200836D01*
X0303757Y0202035D02*
X0280235Y0202035D01*
X0279009Y0203233D02*
X0303757Y0203233D01*
X0308557Y0203233D02*
X0309388Y0203233D01*
X0309388Y0202035D02*
X0308557Y0202035D01*
X0308557Y0200836D02*
X0309388Y0200836D01*
X0309694Y0199638D02*
X0308557Y0199638D01*
X0309223Y0198439D02*
X0310329Y0198439D01*
X0313550Y0202264D02*
X0313500Y0202314D01*
X0313500Y0229528D01*
X0318800Y0229600D02*
X0333266Y0229600D01*
X0333200Y0229486D02*
X0333091Y0229079D01*
X0333091Y0227481D01*
X0336866Y0227481D01*
X0336866Y0230468D01*
X0334480Y0230468D01*
X0334073Y0230359D01*
X0333709Y0230148D01*
X0333411Y0229851D01*
X0333200Y0229486D01*
X0333091Y0228402D02*
X0318770Y0228402D01*
X0318274Y0227203D02*
X0336866Y0227203D01*
X0336866Y0227106D02*
X0333091Y0227106D01*
X0333091Y0225508D01*
X0333200Y0225101D01*
X0333411Y0224736D01*
X0333709Y0224438D01*
X0334073Y0224228D01*
X0334480Y0224119D01*
X0336866Y0224118D01*
X0336866Y0227106D01*
X0337241Y0227106D01*
X0337241Y0227481D01*
X0341015Y0227481D01*
X0341015Y0229079D01*
X0340906Y0229486D01*
X0340696Y0229851D01*
X0340398Y0230148D01*
X0340033Y0230359D01*
X0339626Y0230468D01*
X0337241Y0230468D01*
X0337241Y0227481D01*
X0336866Y0227481D01*
X0336866Y0227106D01*
X0337053Y0227293D02*
X0337053Y0224715D01*
X0336866Y0224806D02*
X0337241Y0224806D01*
X0337241Y0224119D02*
X0339626Y0224119D01*
X0340033Y0224228D01*
X0340398Y0224438D01*
X0340696Y0224736D01*
X0340906Y0225101D01*
X0341015Y0225508D01*
X0341015Y0227106D01*
X0337241Y0227106D01*
X0337241Y0224119D01*
X0337241Y0226005D02*
X0336866Y0226005D01*
X0337241Y0227203D02*
X0346054Y0227203D01*
X0345602Y0228402D02*
X0341015Y0228402D01*
X0340840Y0229600D02*
X0345602Y0229600D01*
X0345765Y0230799D02*
X0318710Y0230799D01*
X0318214Y0231997D02*
X0332953Y0231997D01*
X0336866Y0229600D02*
X0337241Y0229600D01*
X0337241Y0228402D02*
X0336866Y0228402D01*
X0333091Y0226005D02*
X0317473Y0226005D01*
X0315951Y0224806D02*
X0333370Y0224806D01*
X0340736Y0224806D02*
X0348022Y0224806D01*
X0346752Y0226005D02*
X0341015Y0226005D01*
X0341153Y0231997D02*
X0346261Y0231997D01*
X0337053Y0234380D02*
X0337053Y0234715D01*
X0336157Y0235610D01*
X0311049Y0224806D02*
X0305625Y0224806D01*
X0303943Y0224806D02*
X0303372Y0224806D01*
X0303372Y0226005D02*
X0303943Y0226005D01*
X0303943Y0227203D02*
X0303372Y0227203D01*
X0303372Y0228402D02*
X0303943Y0228402D01*
X0307347Y0226005D02*
X0309527Y0226005D01*
X0308726Y0227203D02*
X0308197Y0227203D01*
X0301690Y0224806D02*
X0296266Y0224806D01*
X0297788Y0226005D02*
X0299968Y0226005D01*
X0299118Y0227203D02*
X0298589Y0227203D01*
X0291364Y0224806D02*
X0281057Y0224806D01*
X0281057Y0223608D02*
X0311100Y0223608D01*
X0311100Y0222409D02*
X0281057Y0222409D01*
X0281057Y0221211D02*
X0311100Y0221211D01*
X0311100Y0220012D02*
X0281008Y0220012D01*
X0280255Y0218814D02*
X0311100Y0218814D01*
X0311100Y0217615D02*
X0279168Y0217615D01*
X0279168Y0216417D02*
X0311100Y0216417D01*
X0311100Y0215218D02*
X0279168Y0215218D01*
X0279168Y0214020D02*
X0311100Y0214020D01*
X0311100Y0210424D02*
X0304343Y0210424D01*
X0305936Y0209226D02*
X0311100Y0209226D01*
X0311100Y0208027D02*
X0307135Y0208027D01*
X0308251Y0206829D02*
X0311100Y0206829D01*
X0310434Y0205630D02*
X0308557Y0205630D01*
X0308557Y0204432D02*
X0309388Y0204432D01*
X0317712Y0193645D02*
X0323219Y0193645D01*
X0336516Y0193645D02*
X0350072Y0193645D01*
X0353262Y0190049D02*
X0365572Y0190049D01*
X0366700Y0190652D02*
X0361756Y0188010D01*
X0350886Y0188010D01*
X0350976Y0188047D01*
X0351410Y0188224D01*
X0351416Y0188230D01*
X0351424Y0188233D01*
X0351757Y0188565D01*
X0355009Y0191772D01*
X0355017Y0191776D01*
X0355348Y0192107D01*
X0355683Y0192437D01*
X0355686Y0192445D01*
X0355692Y0192451D01*
X0355872Y0192884D01*
X0356054Y0193316D01*
X0356054Y0193325D01*
X0356057Y0193333D01*
X0356057Y0193802D01*
X0356061Y0194271D01*
X0356057Y0194279D01*
X0356057Y0207116D01*
X0357152Y0208210D01*
X0369135Y0208210D01*
X0370017Y0208576D01*
X0372517Y0211076D01*
X0373192Y0211751D01*
X0373557Y0212633D01*
X0373557Y0224844D01*
X0373589Y0224857D01*
X0375080Y0226348D01*
X0375887Y0228296D01*
X0375887Y0230405D01*
X0375139Y0232210D01*
X0379749Y0232210D01*
X0380257Y0231702D01*
X0380257Y0207434D01*
X0380775Y0206184D01*
X0384232Y0202728D01*
X0385481Y0202210D01*
X0419749Y0202210D01*
X0422757Y0199202D01*
X0422757Y0178557D01*
X0420713Y0178557D01*
X0419450Y0179820D01*
X0418636Y0180157D01*
X0419450Y0180495D01*
X0420997Y0182042D01*
X0421835Y0184063D01*
X0421835Y0186252D01*
X0420997Y0188273D01*
X0419450Y0189820D01*
X0418636Y0190157D01*
X0419450Y0190495D01*
X0420997Y0192042D01*
X0421835Y0194063D01*
X0421835Y0196252D01*
X0420997Y0198273D01*
X0419450Y0199820D01*
X0417429Y0200657D01*
X0415241Y0200657D01*
X0413219Y0199820D01*
X0412640Y0199241D01*
X0397711Y0199241D01*
X0397711Y0199948D01*
X0396657Y0201003D01*
X0392016Y0201003D01*
X0390961Y0199948D01*
X0390961Y0193733D01*
X0392016Y0192678D01*
X0396657Y0192678D01*
X0397711Y0193733D01*
X0397711Y0194441D01*
X0402840Y0194441D01*
X0401672Y0193273D01*
X0401315Y0192410D01*
X0385080Y0192410D01*
X0384198Y0192045D01*
X0379711Y0187557D01*
X0378941Y0187557D01*
X0378955Y0187592D01*
X0383875Y0193782D01*
X0383875Y0193733D01*
X0384929Y0192678D01*
X0389570Y0192678D01*
X0390624Y0193733D01*
X0390624Y0199948D01*
X0389570Y0201003D01*
X0384929Y0201003D01*
X0383875Y0199948D01*
X0383875Y0198764D01*
X0383245Y0198780D01*
X0383082Y0198826D01*
X0382772Y0198791D01*
X0382461Y0198799D01*
X0382302Y0198737D01*
X0382133Y0198718D01*
X0381861Y0198567D01*
X0381570Y0198455D01*
X0381447Y0198337D01*
X0381298Y0198255D01*
X0381104Y0198011D01*
X0380879Y0197796D01*
X0380810Y0197641D01*
X0375689Y0191197D01*
X0368500Y0191114D01*
X0368397Y0191145D01*
X0368026Y0191109D01*
X0367653Y0191105D01*
X0367554Y0191062D01*
X0367447Y0191052D01*
X0367118Y0190876D01*
X0366775Y0190729D01*
X0366700Y0190652D01*
X0366710Y0192446D02*
X0355688Y0192446D01*
X0356057Y0193645D02*
X0364985Y0193645D01*
X0365811Y0192819D02*
X0368064Y0191886D01*
X0370503Y0191886D01*
X0372756Y0192819D01*
X0374481Y0194544D01*
X0375414Y0196797D01*
X0375414Y0199236D01*
X0374481Y0201489D01*
X0372756Y0203214D01*
X0370503Y0204147D01*
X0368064Y0204147D01*
X0365811Y0203214D01*
X0364086Y0201489D01*
X0363153Y0199236D01*
X0363153Y0196797D01*
X0364086Y0194544D01*
X0365811Y0192819D01*
X0363962Y0194844D02*
X0356057Y0194844D01*
X0356057Y0196042D02*
X0363465Y0196042D01*
X0363153Y0197241D02*
X0356057Y0197241D01*
X0356057Y0198439D02*
X0363153Y0198439D01*
X0363319Y0199638D02*
X0356057Y0199638D01*
X0356057Y0200836D02*
X0363816Y0200836D01*
X0364631Y0202035D02*
X0356057Y0202035D01*
X0356057Y0203233D02*
X0365857Y0203233D01*
X0372710Y0203233D02*
X0383726Y0203233D01*
X0382528Y0204432D02*
X0356057Y0204432D01*
X0356057Y0205630D02*
X0381329Y0205630D01*
X0380508Y0206829D02*
X0356057Y0206829D01*
X0356968Y0208027D02*
X0380257Y0208027D01*
X0380257Y0209226D02*
X0370667Y0209226D01*
X0371866Y0210424D02*
X0380257Y0210424D01*
X0380257Y0211623D02*
X0373064Y0211623D01*
X0373557Y0212821D02*
X0380257Y0212821D01*
X0380257Y0214020D02*
X0373557Y0214020D01*
X0373557Y0215218D02*
X0380257Y0215218D01*
X0380257Y0216417D02*
X0373557Y0216417D01*
X0373557Y0217615D02*
X0380257Y0217615D01*
X0380257Y0218814D02*
X0373557Y0218814D01*
X0373557Y0220012D02*
X0380257Y0220012D01*
X0380257Y0221211D02*
X0373557Y0221211D01*
X0373557Y0222409D02*
X0380257Y0222409D01*
X0380257Y0223608D02*
X0373557Y0223608D01*
X0373557Y0224806D02*
X0380257Y0224806D01*
X0380257Y0226005D02*
X0374736Y0226005D01*
X0375434Y0227203D02*
X0380257Y0227203D01*
X0380257Y0228402D02*
X0375887Y0228402D01*
X0375887Y0229600D02*
X0380257Y0229600D01*
X0380257Y0230799D02*
X0375723Y0230799D01*
X0375227Y0231997D02*
X0379962Y0231997D01*
X0387057Y0231997D02*
X0396214Y0231997D01*
X0395932Y0231317D02*
X0395932Y0228408D01*
X0397045Y0225720D01*
X0399102Y0223664D01*
X0401790Y0222550D01*
X0404698Y0222550D01*
X0407386Y0223664D01*
X0409443Y0225720D01*
X0410556Y0228408D01*
X0410556Y0231317D01*
X0409443Y0234004D01*
X0407386Y0236061D01*
X0404698Y0237174D01*
X0401790Y0237174D01*
X0399102Y0236061D01*
X0397045Y0234004D01*
X0395932Y0231317D01*
X0395932Y0230799D02*
X0387057Y0230799D01*
X0387057Y0229600D02*
X0395932Y0229600D01*
X0395935Y0228402D02*
X0387057Y0228402D01*
X0387057Y0227203D02*
X0396431Y0227203D01*
X0396928Y0226005D02*
X0387057Y0226005D01*
X0387057Y0224806D02*
X0397960Y0224806D01*
X0399237Y0223608D02*
X0387057Y0223608D01*
X0387057Y0222409D02*
X0411287Y0222409D01*
X0411287Y0221211D02*
X0387057Y0221211D01*
X0387057Y0220012D02*
X0411431Y0220012D01*
X0411820Y0218814D02*
X0387057Y0218814D01*
X0387057Y0217615D02*
X0412210Y0217615D01*
X0413051Y0216417D02*
X0395287Y0216417D01*
X0395213Y0216545D02*
X0395424Y0216180D01*
X0395533Y0215773D01*
X0395533Y0213387D01*
X0392546Y0213387D01*
X0392546Y0213013D01*
X0395533Y0213013D01*
X0395533Y0210627D01*
X0395424Y0210220D01*
X0395213Y0209855D01*
X0394915Y0209557D01*
X0394551Y0209347D01*
X0394144Y0209238D01*
X0392546Y0209238D01*
X0392546Y0213013D01*
X0392171Y0213013D01*
X0389183Y0213013D01*
X0389183Y0210627D01*
X0389292Y0210220D01*
X0389503Y0209855D01*
X0389801Y0209557D01*
X0390166Y0209347D01*
X0390573Y0209238D01*
X0392171Y0209238D01*
X0392171Y0213013D01*
X0392171Y0213387D01*
X0389183Y0213387D01*
X0389183Y0215773D01*
X0389292Y0216180D01*
X0389503Y0216545D01*
X0389801Y0216843D01*
X0390166Y0217053D01*
X0390573Y0217162D01*
X0392171Y0217162D01*
X0392171Y0213387D01*
X0392546Y0213387D01*
X0392546Y0217162D01*
X0394144Y0217162D01*
X0394551Y0217053D01*
X0394915Y0216843D01*
X0395213Y0216545D01*
X0395533Y0215218D02*
X0413922Y0215218D01*
X0414035Y0215062D02*
X0414035Y0215062D01*
X0415470Y0214020D02*
X0395533Y0214020D01*
X0396168Y0213220D02*
X0392358Y0213200D01*
X0392171Y0212821D02*
X0392546Y0212821D01*
X0392546Y0211623D02*
X0392171Y0211623D01*
X0392171Y0210424D02*
X0392546Y0210424D01*
X0395479Y0210424D02*
X0438657Y0210424D01*
X0439704Y0210857D02*
X0436690Y0209609D01*
X0434383Y0207302D01*
X0433135Y0204289D01*
X0433135Y0201026D01*
X0434383Y0198013D01*
X0436690Y0195706D01*
X0439704Y0194457D01*
X0442966Y0194457D01*
X0445980Y0195706D01*
X0448286Y0198013D01*
X0449535Y0201026D01*
X0449535Y0204289D01*
X0448286Y0207302D01*
X0445980Y0209609D01*
X0442966Y0210857D01*
X0439704Y0210857D01*
X0436306Y0209226D02*
X0387780Y0209226D01*
X0388646Y0210424D02*
X0389238Y0210424D01*
X0389183Y0211623D02*
X0388646Y0211623D01*
X0388646Y0212821D02*
X0389183Y0212821D01*
X0389183Y0214020D02*
X0388646Y0214020D01*
X0388646Y0215218D02*
X0389183Y0215218D01*
X0389429Y0216417D02*
X0388538Y0216417D01*
X0392171Y0216417D02*
X0392546Y0216417D01*
X0392546Y0215218D02*
X0392171Y0215218D01*
X0392171Y0214020D02*
X0392546Y0214020D01*
X0395533Y0212821D02*
X0417868Y0212821D01*
X0416514Y0213261D02*
X0416514Y0213261D01*
X0423549Y0208027D02*
X0435108Y0208027D01*
X0434187Y0206829D02*
X0424747Y0206829D01*
X0425946Y0205630D02*
X0433690Y0205630D01*
X0433194Y0204432D02*
X0427144Y0204432D01*
X0428343Y0203233D02*
X0433135Y0203233D01*
X0433135Y0202035D02*
X0429248Y0202035D01*
X0429557Y0200836D02*
X0433213Y0200836D01*
X0433710Y0199638D02*
X0429557Y0199638D01*
X0429557Y0198439D02*
X0434206Y0198439D01*
X0435155Y0197241D02*
X0429557Y0197241D01*
X0429557Y0196042D02*
X0436354Y0196042D01*
X0438772Y0194844D02*
X0429557Y0194844D01*
X0429557Y0193645D02*
X0450657Y0193645D01*
X0450657Y0194844D02*
X0443898Y0194844D01*
X0446316Y0196042D02*
X0450657Y0196042D01*
X0450657Y0197241D02*
X0447514Y0197241D01*
X0448463Y0198439D02*
X0450657Y0198439D01*
X0450657Y0199638D02*
X0448959Y0199638D01*
X0449456Y0200836D02*
X0450657Y0200836D01*
X0450657Y0202035D02*
X0449535Y0202035D01*
X0449535Y0203233D02*
X0450657Y0203233D01*
X0450657Y0204432D02*
X0449475Y0204432D01*
X0448979Y0205630D02*
X0450657Y0205630D01*
X0450610Y0206829D02*
X0448483Y0206829D01*
X0447562Y0208027D02*
X0450310Y0208027D01*
X0449829Y0209226D02*
X0446363Y0209226D01*
X0447381Y0211623D02*
X0395533Y0211623D01*
X0396168Y0213220D02*
X0398057Y0213210D01*
X0385272Y0213200D02*
X0384268Y0215000D01*
X0383657Y0215610D01*
X0384763Y0200836D02*
X0374751Y0200836D01*
X0375248Y0199638D02*
X0383875Y0199638D01*
X0381554Y0198439D02*
X0375414Y0198439D01*
X0375414Y0197241D02*
X0380492Y0197241D01*
X0379539Y0196042D02*
X0375101Y0196042D01*
X0374605Y0194844D02*
X0378587Y0194844D01*
X0377634Y0193645D02*
X0373582Y0193645D01*
X0371856Y0192446D02*
X0376682Y0192446D01*
X0375729Y0191248D02*
X0354477Y0191248D01*
X0352046Y0188851D02*
X0363329Y0188851D01*
X0362357Y0185610D02*
X0268357Y0185610D01*
X0244757Y0207910D01*
X0165157Y0207910D01*
X0162157Y0204910D01*
X0162157Y0191657D01*
X0162565Y0191250D01*
X0162657Y0191157D01*
X0162657Y0178454D01*
X0158495Y0178064D02*
X0156727Y0178064D01*
X0156727Y0176866D02*
X0158495Y0176866D01*
X0158961Y0175667D02*
X0156172Y0175667D01*
X0155545Y0174522D02*
X0155138Y0174631D01*
X0152752Y0174631D01*
X0152752Y0171644D01*
X0152378Y0171644D01*
X0152378Y0174631D01*
X0149992Y0174631D01*
X0149585Y0174522D01*
X0149220Y0174312D01*
X0148922Y0174014D01*
X0148712Y0173649D01*
X0148603Y0173242D01*
X0148603Y0171644D01*
X0152377Y0171644D01*
X0152377Y0171269D01*
X0148603Y0171269D01*
X0148603Y0169671D01*
X0148712Y0169264D01*
X0148922Y0168899D01*
X0149220Y0168602D01*
X0149585Y0168391D01*
X0149992Y0168282D01*
X0152378Y0168282D01*
X0152378Y0171269D01*
X0152752Y0171269D01*
X0152752Y0168282D01*
X0155138Y0168282D01*
X0155545Y0168391D01*
X0155910Y0168602D01*
X0156207Y0168899D01*
X0156418Y0169264D01*
X0156527Y0169671D01*
X0156527Y0171269D01*
X0152752Y0171269D01*
X0152752Y0171644D01*
X0156527Y0171644D01*
X0156527Y0173242D01*
X0156418Y0173649D01*
X0156207Y0174014D01*
X0155910Y0174312D01*
X0155545Y0174522D01*
X0155638Y0174469D02*
X0159813Y0174469D01*
X0159678Y0174433D02*
X0159313Y0174222D01*
X0159015Y0173924D01*
X0158804Y0173559D01*
X0158695Y0173152D01*
X0158695Y0171554D01*
X0162470Y0171554D01*
X0162470Y0171180D01*
X0158695Y0171180D01*
X0158695Y0169581D01*
X0158804Y0169175D01*
X0159015Y0168810D01*
X0159313Y0168512D01*
X0159678Y0168301D01*
X0160085Y0168192D01*
X0162470Y0168192D01*
X0162470Y0171179D01*
X0162845Y0171179D01*
X0162845Y0168192D01*
X0165230Y0168192D01*
X0165637Y0168301D01*
X0166002Y0168512D01*
X0166300Y0168810D01*
X0166511Y0169175D01*
X0166620Y0169581D01*
X0166620Y0171180D01*
X0162845Y0171180D01*
X0162845Y0171554D01*
X0166620Y0171554D01*
X0166620Y0173152D01*
X0166511Y0173559D01*
X0166300Y0173924D01*
X0166002Y0174222D01*
X0165637Y0174433D01*
X0165230Y0174542D01*
X0162845Y0174542D01*
X0162845Y0171554D01*
X0162470Y0171554D01*
X0162470Y0174542D01*
X0160085Y0174542D01*
X0159678Y0174433D01*
X0158727Y0173270D02*
X0156520Y0173270D01*
X0156527Y0172072D02*
X0158695Y0172072D01*
X0158695Y0170873D02*
X0156527Y0170873D01*
X0156527Y0169675D02*
X0158695Y0169675D01*
X0159374Y0168476D02*
X0155693Y0168476D01*
X0152752Y0168476D02*
X0152378Y0168476D01*
X0152378Y0169675D02*
X0152752Y0169675D01*
X0152752Y0170873D02*
X0152378Y0170873D01*
X0152378Y0172072D02*
X0152752Y0172072D01*
X0152752Y0173270D02*
X0152378Y0173270D01*
X0152378Y0174469D02*
X0152752Y0174469D01*
X0149492Y0174469D02*
X0146057Y0174469D01*
X0146057Y0175667D02*
X0148958Y0175667D01*
X0148403Y0176866D02*
X0146057Y0176866D01*
X0146057Y0178064D02*
X0148403Y0178064D01*
X0148403Y0179263D02*
X0146057Y0179263D01*
X0146057Y0180461D02*
X0148403Y0180461D01*
X0149199Y0181660D02*
X0146057Y0181660D01*
X0146057Y0182858D02*
X0149965Y0182858D01*
X0149965Y0184057D02*
X0146057Y0184057D01*
X0146057Y0185255D02*
X0149965Y0185255D01*
X0149965Y0186454D02*
X0146057Y0186454D01*
X0146463Y0187652D02*
X0148667Y0187652D01*
X0147822Y0188851D02*
X0147308Y0188851D01*
X0155165Y0186454D02*
X0160257Y0186454D01*
X0160257Y0185255D02*
X0155165Y0185255D01*
X0155165Y0184057D02*
X0160257Y0184057D01*
X0160257Y0182858D02*
X0155165Y0182858D01*
X0155931Y0181660D02*
X0159381Y0181660D01*
X0158495Y0180461D02*
X0156727Y0180461D01*
X0156727Y0179263D02*
X0158495Y0179263D01*
X0165057Y0182858D02*
X0169850Y0182858D01*
X0169850Y0184057D02*
X0165057Y0184057D01*
X0165057Y0185255D02*
X0169850Y0185255D01*
X0169850Y0186454D02*
X0165057Y0186454D01*
X0166463Y0187652D02*
X0168667Y0187652D01*
X0167822Y0188851D02*
X0167308Y0188851D01*
X0172250Y0190935D02*
X0172565Y0191250D01*
X0172657Y0191343D01*
X0172657Y0201010D01*
X0174757Y0203110D01*
X0244257Y0203110D01*
X0266757Y0181810D01*
X0352657Y0181810D01*
X0355157Y0179310D01*
X0362014Y0179310D01*
X0358639Y0176910D02*
X0358639Y0176202D01*
X0359694Y0175148D01*
X0363857Y0175148D01*
X0363857Y0155875D01*
X0363122Y0155139D01*
X0362576Y0153823D01*
X0362576Y0152398D01*
X0363122Y0151082D01*
X0364129Y0150074D01*
X0365445Y0149529D01*
X0366870Y0149529D01*
X0368186Y0150074D01*
X0369193Y0151082D01*
X0369739Y0152398D01*
X0369739Y0153823D01*
X0369193Y0155139D01*
X0368457Y0155875D01*
X0368457Y0175148D01*
X0371421Y0175148D01*
X0372476Y0176202D01*
X0372476Y0176710D01*
X0380981Y0176710D01*
X0381319Y0176664D01*
X0381494Y0176710D01*
X0381675Y0176710D01*
X0381989Y0176841D01*
X0382319Y0176927D01*
X0382463Y0177037D01*
X0382630Y0177106D01*
X0382871Y0177347D01*
X0387033Y0180510D01*
X0396123Y0180510D01*
X0397079Y0180906D01*
X0399030Y0182857D01*
X0401762Y0182857D01*
X0401423Y0182192D01*
X0401165Y0181399D01*
X0401035Y0180575D01*
X0401035Y0180557D01*
X0405935Y0180557D01*
X0405935Y0179757D01*
X0401035Y0179757D01*
X0401035Y0179740D01*
X0401165Y0178916D01*
X0401423Y0178123D01*
X0401802Y0177380D01*
X0402292Y0176705D01*
X0402882Y0176115D01*
X0403557Y0175625D01*
X0404276Y0175258D01*
X0403219Y0174820D01*
X0401672Y0173273D01*
X0401563Y0173010D01*
X0384430Y0173010D01*
X0383548Y0172645D01*
X0382873Y0171970D01*
X0380373Y0169470D01*
X0380007Y0168588D01*
X0380007Y0150310D01*
X0377457Y0146910D01*
X0356220Y0146910D01*
X0356220Y0150374D01*
X0355165Y0151428D01*
X0354457Y0151428D01*
X0354457Y0173337D01*
X0354482Y0173740D01*
X0354457Y0173812D01*
X0354457Y0173888D01*
X0354303Y0174261D01*
X0354171Y0174643D01*
X0354121Y0174700D01*
X0354092Y0174770D01*
X0353806Y0175055D01*
X0349954Y0179410D01*
X0351663Y0179410D01*
X0353798Y0177276D01*
X0354680Y0176910D01*
X0358639Y0176910D01*
X0358639Y0176866D02*
X0352205Y0176866D01*
X0353009Y0178064D02*
X0351145Y0178064D01*
X0351811Y0179263D02*
X0350084Y0179263D01*
X0347457Y0178610D02*
X0263357Y0178710D01*
X0262957Y0178710D01*
X0243557Y0198110D01*
X0184557Y0198110D01*
X0182657Y0196210D01*
X0182657Y0191343D01*
X0182657Y0181610D01*
X0183057Y0180610D01*
X0183657Y0179606D01*
X0182950Y0178514D01*
X0187112Y0178064D02*
X0198088Y0178064D01*
X0198088Y0176866D02*
X0187112Y0176866D01*
X0186586Y0175667D02*
X0198614Y0175667D01*
X0199270Y0174493D02*
X0198905Y0174282D01*
X0198607Y0173984D01*
X0198397Y0173620D01*
X0198288Y0173213D01*
X0198288Y0171615D01*
X0202063Y0171615D01*
X0202063Y0174602D01*
X0199677Y0174602D01*
X0199270Y0174493D01*
X0199228Y0174469D02*
X0185972Y0174469D01*
X0185930Y0174493D02*
X0185523Y0174602D01*
X0183137Y0174602D01*
X0183137Y0171615D01*
X0182763Y0171615D01*
X0182763Y0174602D01*
X0180377Y0174602D01*
X0179970Y0174493D01*
X0179605Y0174282D01*
X0179307Y0173984D01*
X0179097Y0173620D01*
X0178988Y0173213D01*
X0178988Y0171615D01*
X0182763Y0171615D01*
X0182763Y0171240D01*
X0183137Y0171240D01*
X0183137Y0168252D01*
X0185523Y0168252D01*
X0185930Y0168361D01*
X0186295Y0168572D01*
X0186593Y0168870D01*
X0186803Y0169235D01*
X0186912Y0169642D01*
X0186912Y0171240D01*
X0183137Y0171240D01*
X0183137Y0171615D01*
X0186912Y0171615D01*
X0186912Y0173213D01*
X0186803Y0173620D01*
X0186593Y0173984D01*
X0186295Y0174282D01*
X0185930Y0174493D01*
X0186897Y0173270D02*
X0198303Y0173270D01*
X0198288Y0172072D02*
X0186912Y0172072D01*
X0186912Y0170873D02*
X0198288Y0170873D01*
X0198288Y0171240D02*
X0198288Y0169642D01*
X0198397Y0169235D01*
X0198607Y0168870D01*
X0198905Y0168572D01*
X0199270Y0168361D01*
X0199677Y0168252D01*
X0202063Y0168252D01*
X0202063Y0171240D01*
X0202437Y0171240D01*
X0202437Y0168252D01*
X0204823Y0168252D01*
X0205230Y0168361D01*
X0205595Y0168572D01*
X0205893Y0168870D01*
X0206103Y0169235D01*
X0206212Y0169642D01*
X0206212Y0171240D01*
X0202437Y0171240D01*
X0202437Y0171615D01*
X0202063Y0171615D01*
X0202063Y0171240D01*
X0198288Y0171240D01*
X0198288Y0169675D02*
X0186912Y0169675D01*
X0186129Y0168476D02*
X0199071Y0168476D01*
X0202063Y0168476D02*
X0202437Y0168476D01*
X0202437Y0169675D02*
X0202063Y0169675D01*
X0202063Y0170873D02*
X0202437Y0170873D01*
X0202437Y0171615D02*
X0206212Y0171615D01*
X0206212Y0173213D01*
X0206103Y0173620D01*
X0205893Y0173984D01*
X0205595Y0174282D01*
X0205230Y0174493D01*
X0204823Y0174602D01*
X0202437Y0174602D01*
X0202437Y0171615D01*
X0202437Y0172072D02*
X0202063Y0172072D01*
X0202063Y0173270D02*
X0202437Y0173270D01*
X0202437Y0174469D02*
X0202063Y0174469D01*
X0205272Y0174469D02*
X0209228Y0174469D01*
X0209270Y0174493D02*
X0208905Y0174282D01*
X0208607Y0173984D01*
X0208397Y0173620D01*
X0208288Y0173213D01*
X0208288Y0171615D01*
X0212063Y0171615D01*
X0212063Y0174602D01*
X0209677Y0174602D01*
X0209270Y0174493D01*
X0208614Y0175667D02*
X0205886Y0175667D01*
X0206412Y0176866D02*
X0208088Y0176866D01*
X0208088Y0178064D02*
X0206412Y0178064D01*
X0206412Y0179263D02*
X0208088Y0179263D01*
X0208088Y0180461D02*
X0206412Y0180461D01*
X0205586Y0181660D02*
X0208914Y0181660D01*
X0209850Y0182858D02*
X0204650Y0182858D01*
X0204650Y0184057D02*
X0209850Y0184057D01*
X0209850Y0185255D02*
X0204650Y0185255D01*
X0204836Y0186454D02*
X0209850Y0186454D01*
X0208667Y0187652D02*
X0206463Y0187652D01*
X0207308Y0188851D02*
X0207822Y0188851D01*
X0212250Y0190935D02*
X0212565Y0191250D01*
X0212250Y0190935D02*
X0212250Y0178514D01*
X0216412Y0178064D02*
X0220165Y0178064D01*
X0220165Y0176866D02*
X0216412Y0176866D01*
X0215886Y0175667D02*
X0220165Y0175667D01*
X0220165Y0174469D02*
X0215272Y0174469D01*
X0215230Y0174493D02*
X0214823Y0174602D01*
X0212437Y0174602D01*
X0212437Y0171615D01*
X0212063Y0171615D01*
X0212063Y0171240D01*
X0212437Y0171240D01*
X0212437Y0168252D01*
X0214823Y0168252D01*
X0215230Y0168361D01*
X0215595Y0168572D01*
X0215893Y0168870D01*
X0216103Y0169235D01*
X0216212Y0169642D01*
X0216212Y0171240D01*
X0212437Y0171240D01*
X0212437Y0171615D01*
X0216212Y0171615D01*
X0216212Y0173213D01*
X0216103Y0173620D01*
X0215893Y0173984D01*
X0215595Y0174282D01*
X0215230Y0174493D01*
X0216197Y0173270D02*
X0220165Y0173270D01*
X0220165Y0172072D02*
X0216212Y0172072D01*
X0216212Y0170873D02*
X0220165Y0170873D01*
X0220165Y0169675D02*
X0216212Y0169675D01*
X0215429Y0168476D02*
X0220165Y0168476D01*
X0220165Y0167278D02*
X0146057Y0167278D01*
X0146057Y0168476D02*
X0149437Y0168476D01*
X0148603Y0169675D02*
X0146057Y0169675D01*
X0146057Y0170873D02*
X0148603Y0170873D01*
X0148603Y0172072D02*
X0146057Y0172072D01*
X0146057Y0173270D02*
X0148610Y0173270D01*
X0146057Y0166079D02*
X0220165Y0166079D01*
X0220165Y0164881D02*
X0146057Y0164881D01*
X0146057Y0163682D02*
X0220165Y0163682D01*
X0220165Y0162484D02*
X0146057Y0162484D01*
X0145996Y0161285D02*
X0220165Y0161285D01*
X0220471Y0160087D02*
X0145442Y0160087D01*
X0144244Y0158888D02*
X0221585Y0158888D01*
X0222784Y0157690D02*
X0143045Y0157690D01*
X0141847Y0156491D02*
X0223982Y0156491D01*
X0225181Y0155293D02*
X0140648Y0155293D01*
X0139450Y0154094D02*
X0268927Y0154094D01*
X0270091Y0152896D02*
X0138251Y0152896D01*
X0162470Y0168476D02*
X0162845Y0168476D01*
X0162845Y0169675D02*
X0162470Y0169675D01*
X0162470Y0170873D02*
X0162845Y0170873D01*
X0162845Y0172072D02*
X0162470Y0172072D01*
X0162470Y0173270D02*
X0162845Y0173270D01*
X0162845Y0174469D02*
X0162470Y0174469D01*
X0165502Y0174469D02*
X0169228Y0174469D01*
X0169270Y0174493D02*
X0168905Y0174282D01*
X0168607Y0173984D01*
X0168397Y0173620D01*
X0168288Y0173213D01*
X0168288Y0171615D01*
X0172063Y0171615D01*
X0172063Y0174602D01*
X0169677Y0174602D01*
X0169270Y0174493D01*
X0168614Y0175667D02*
X0166354Y0175667D01*
X0166820Y0176866D02*
X0168088Y0176866D01*
X0168088Y0178064D02*
X0166820Y0178064D01*
X0166820Y0179263D02*
X0168088Y0179263D01*
X0168088Y0180461D02*
X0166820Y0180461D01*
X0165934Y0181660D02*
X0168914Y0181660D01*
X0172250Y0178514D02*
X0172250Y0190935D01*
X0176463Y0187652D02*
X0178667Y0187652D01*
X0177822Y0188851D02*
X0177308Y0188851D01*
X0174836Y0186454D02*
X0180257Y0186454D01*
X0180257Y0185255D02*
X0174650Y0185255D01*
X0174650Y0184057D02*
X0180257Y0184057D01*
X0180257Y0182858D02*
X0174650Y0182858D01*
X0175586Y0181660D02*
X0179614Y0181660D01*
X0178788Y0180461D02*
X0176412Y0180461D01*
X0176412Y0179263D02*
X0178788Y0179263D01*
X0178788Y0178064D02*
X0176412Y0178064D01*
X0176412Y0176866D02*
X0178788Y0176866D01*
X0179314Y0175667D02*
X0175886Y0175667D01*
X0175230Y0174493D02*
X0174823Y0174602D01*
X0172437Y0174602D01*
X0172437Y0171615D01*
X0172063Y0171615D01*
X0172063Y0171240D01*
X0172437Y0171240D01*
X0172437Y0168252D01*
X0174823Y0168252D01*
X0175230Y0168361D01*
X0175595Y0168572D01*
X0175893Y0168870D01*
X0176103Y0169235D01*
X0176212Y0169642D01*
X0176212Y0171240D01*
X0172437Y0171240D01*
X0172437Y0171615D01*
X0176212Y0171615D01*
X0176212Y0173213D01*
X0176103Y0173620D01*
X0175893Y0173984D01*
X0175595Y0174282D01*
X0175230Y0174493D01*
X0175272Y0174469D02*
X0179928Y0174469D01*
X0179003Y0173270D02*
X0176197Y0173270D01*
X0176212Y0172072D02*
X0178988Y0172072D01*
X0178988Y0171240D02*
X0178988Y0169642D01*
X0179097Y0169235D01*
X0179307Y0168870D01*
X0179605Y0168572D01*
X0179970Y0168361D01*
X0180377Y0168252D01*
X0182763Y0168252D01*
X0182763Y0171240D01*
X0178988Y0171240D01*
X0178988Y0170873D02*
X0176212Y0170873D01*
X0176212Y0169675D02*
X0178988Y0169675D01*
X0179771Y0168476D02*
X0175429Y0168476D01*
X0172437Y0168476D02*
X0172063Y0168476D01*
X0172063Y0168252D02*
X0172063Y0171240D01*
X0168288Y0171240D01*
X0168288Y0169642D01*
X0168397Y0169235D01*
X0168607Y0168870D01*
X0168905Y0168572D01*
X0169270Y0168361D01*
X0169677Y0168252D01*
X0172063Y0168252D01*
X0172063Y0169675D02*
X0172437Y0169675D01*
X0172437Y0170873D02*
X0172063Y0170873D01*
X0172063Y0172072D02*
X0172437Y0172072D01*
X0172437Y0173270D02*
X0172063Y0173270D01*
X0172063Y0174469D02*
X0172437Y0174469D01*
X0168303Y0173270D02*
X0166588Y0173270D01*
X0166620Y0172072D02*
X0168288Y0172072D01*
X0168288Y0170873D02*
X0166620Y0170873D01*
X0166620Y0169675D02*
X0168288Y0169675D01*
X0169071Y0168476D02*
X0165941Y0168476D01*
X0182763Y0168476D02*
X0183137Y0168476D01*
X0183137Y0169675D02*
X0182763Y0169675D01*
X0182763Y0170873D02*
X0183137Y0170873D01*
X0183137Y0172072D02*
X0182763Y0172072D01*
X0182763Y0173270D02*
X0183137Y0173270D01*
X0183137Y0174469D02*
X0182763Y0174469D01*
X0187112Y0179263D02*
X0198088Y0179263D01*
X0198088Y0180461D02*
X0187112Y0180461D01*
X0186286Y0181660D02*
X0198914Y0181660D01*
X0199850Y0182858D02*
X0185057Y0182858D01*
X0185057Y0184057D02*
X0199850Y0184057D01*
X0199850Y0185255D02*
X0185057Y0185255D01*
X0185057Y0186454D02*
X0190294Y0186454D01*
X0188667Y0187652D02*
X0186463Y0187652D01*
X0187308Y0188851D02*
X0187822Y0188851D01*
X0182657Y0191343D02*
X0182565Y0191250D01*
X0194836Y0186454D02*
X0199850Y0186454D01*
X0198667Y0187652D02*
X0196463Y0187652D01*
X0197308Y0188851D02*
X0197822Y0188851D01*
X0202250Y0190935D02*
X0202565Y0191250D01*
X0202250Y0190935D02*
X0202250Y0178514D01*
X0206197Y0173270D02*
X0208303Y0173270D01*
X0208288Y0172072D02*
X0206212Y0172072D01*
X0206212Y0170873D02*
X0208288Y0170873D01*
X0208288Y0171240D02*
X0208288Y0169642D01*
X0208397Y0169235D01*
X0208607Y0168870D01*
X0208905Y0168572D01*
X0209270Y0168361D01*
X0209677Y0168252D01*
X0212063Y0168252D01*
X0212063Y0171240D01*
X0208288Y0171240D01*
X0208288Y0169675D02*
X0206212Y0169675D01*
X0205429Y0168476D02*
X0209071Y0168476D01*
X0212063Y0168476D02*
X0212437Y0168476D01*
X0212437Y0169675D02*
X0212063Y0169675D01*
X0212063Y0170873D02*
X0212437Y0170873D01*
X0212437Y0172072D02*
X0212063Y0172072D01*
X0212063Y0173270D02*
X0212437Y0173270D01*
X0212437Y0174469D02*
X0212063Y0174469D01*
X0216412Y0179263D02*
X0220165Y0179263D01*
X0220165Y0180461D02*
X0216412Y0180461D01*
X0215586Y0181660D02*
X0220165Y0181660D01*
X0220165Y0182858D02*
X0214650Y0182858D01*
X0214650Y0184057D02*
X0220165Y0184057D01*
X0220165Y0185255D02*
X0214650Y0185255D01*
X0214836Y0186454D02*
X0220165Y0186454D01*
X0218667Y0187652D02*
X0216463Y0187652D01*
X0217308Y0188851D02*
X0217822Y0188851D01*
X0222565Y0191250D02*
X0222565Y0161303D01*
X0227257Y0156610D01*
X0275296Y0156610D01*
X0273614Y0157150D02*
X0276553Y0155354D01*
X0296957Y0155354D01*
X0309557Y0148267D02*
X0314257Y0148267D01*
X0318952Y0148267D01*
X0320133Y0147086D01*
X0320257Y0146961D02*
X0320257Y0142210D01*
X0320857Y0141610D02*
X0320857Y0141354D01*
X0320557Y0141054D01*
X0322657Y0144428D02*
X0322657Y0144600D01*
X0323283Y0144600D01*
X0324032Y0144600D01*
X0324032Y0144262D01*
X0323981Y0144210D01*
X0323883Y0144210D01*
X0323665Y0144428D01*
X0322657Y0144428D01*
X0322657Y0144506D02*
X0324032Y0144506D01*
X0323283Y0144600D02*
X0323283Y0147086D01*
X0323283Y0147086D01*
X0323283Y0147086D01*
X0322819Y0147086D01*
X0322819Y0147086D01*
X0323283Y0147086D01*
X0323283Y0144600D01*
X0323283Y0145705D02*
X0323283Y0145705D01*
X0323283Y0146903D02*
X0323283Y0146903D01*
X0323283Y0148102D02*
X0323283Y0148102D01*
X0323283Y0149300D02*
X0323283Y0149300D01*
X0319836Y0150499D02*
X0348020Y0150499D01*
X0347895Y0149300D02*
X0331367Y0149300D01*
X0332068Y0148102D02*
X0347895Y0148102D01*
X0352057Y0148054D02*
X0352057Y0173410D01*
X0347457Y0178610D01*
X0346857Y0175667D02*
X0290393Y0175667D01*
X0286922Y0175667D02*
X0234965Y0175667D01*
X0234965Y0174469D02*
X0285593Y0174469D01*
X0285096Y0173270D02*
X0234992Y0173270D01*
X0236190Y0172072D02*
X0271123Y0172072D01*
X0269559Y0170873D02*
X0237389Y0170873D01*
X0238587Y0169675D02*
X0268707Y0169675D01*
X0272596Y0166810D02*
X0238057Y0166810D01*
X0232565Y0172303D01*
X0232565Y0191250D01*
X0237865Y0191248D02*
X0247026Y0191248D01*
X0248224Y0190049D02*
X0237804Y0190049D01*
X0237308Y0188851D02*
X0249423Y0188851D01*
X0250621Y0187652D02*
X0236463Y0187652D01*
X0234965Y0186454D02*
X0251820Y0186454D01*
X0253018Y0185255D02*
X0234965Y0185255D01*
X0234965Y0184057D02*
X0254217Y0184057D01*
X0255415Y0182858D02*
X0234965Y0182858D01*
X0234965Y0181660D02*
X0256614Y0181660D01*
X0257812Y0180461D02*
X0234965Y0180461D01*
X0234965Y0179263D02*
X0259011Y0179263D01*
X0260209Y0178064D02*
X0234965Y0178064D01*
X0234965Y0176866D02*
X0261408Y0176866D01*
X0276105Y0172072D02*
X0285076Y0172072D01*
X0285459Y0170873D02*
X0277669Y0170873D01*
X0278522Y0169675D02*
X0286429Y0169675D01*
X0288657Y0172510D02*
X0326157Y0172510D01*
X0329582Y0169086D01*
X0329582Y0156535D01*
X0332268Y0156491D02*
X0349657Y0156491D01*
X0349657Y0155293D02*
X0332268Y0155293D01*
X0331459Y0154094D02*
X0349657Y0154094D01*
X0349657Y0152896D02*
X0317257Y0152896D01*
X0317257Y0154094D02*
X0318868Y0154094D01*
X0320133Y0154094D02*
X0320133Y0154094D01*
X0320133Y0155293D02*
X0320133Y0155293D01*
X0320133Y0156491D02*
X0320133Y0156491D01*
X0320133Y0157690D02*
X0320133Y0157690D01*
X0320133Y0158888D02*
X0320133Y0158888D01*
X0320883Y0160087D02*
X0317257Y0160087D01*
X0317257Y0158888D02*
X0318589Y0158888D01*
X0317663Y0157690D02*
X0317257Y0157690D01*
X0317257Y0156491D02*
X0317647Y0156491D01*
X0317686Y0155293D02*
X0317257Y0155293D01*
X0317257Y0151697D02*
X0349657Y0151697D01*
X0354457Y0151697D02*
X0362867Y0151697D01*
X0362576Y0152896D02*
X0354457Y0152896D01*
X0354457Y0154094D02*
X0362689Y0154094D01*
X0363275Y0155293D02*
X0354457Y0155293D01*
X0354457Y0156491D02*
X0363857Y0156491D01*
X0363857Y0157690D02*
X0354457Y0157690D01*
X0354457Y0158888D02*
X0363857Y0158888D01*
X0363857Y0160087D02*
X0354457Y0160087D01*
X0354457Y0161285D02*
X0363857Y0161285D01*
X0363857Y0162484D02*
X0354457Y0162484D01*
X0354457Y0163682D02*
X0363857Y0163682D01*
X0363857Y0164881D02*
X0354457Y0164881D01*
X0354457Y0166079D02*
X0363857Y0166079D01*
X0363857Y0167278D02*
X0354457Y0167278D01*
X0354457Y0168476D02*
X0363857Y0168476D01*
X0363857Y0169675D02*
X0354457Y0169675D01*
X0354457Y0170873D02*
X0363857Y0170873D01*
X0363857Y0172072D02*
X0354457Y0172072D01*
X0354457Y0173270D02*
X0363857Y0173270D01*
X0363857Y0174469D02*
X0354231Y0174469D01*
X0353265Y0175667D02*
X0359174Y0175667D01*
X0368457Y0174469D02*
X0402868Y0174469D01*
X0403498Y0175667D02*
X0371940Y0175667D01*
X0368457Y0173270D02*
X0401671Y0173270D01*
X0402175Y0176866D02*
X0382085Y0176866D01*
X0383815Y0178064D02*
X0401453Y0178064D01*
X0401110Y0179263D02*
X0385392Y0179263D01*
X0386969Y0180461D02*
X0405935Y0180461D01*
X0406735Y0180461D02*
X0413300Y0180461D01*
X0412662Y0179263D02*
X0411559Y0179263D01*
X0411586Y0178064D02*
X0411216Y0178064D01*
X0411089Y0176866D02*
X0410494Y0176866D01*
X0410835Y0175667D02*
X0409171Y0175667D01*
X0409801Y0174469D02*
X0410835Y0174469D01*
X0410998Y0173270D02*
X0411163Y0173270D01*
X0411495Y0172072D02*
X0411660Y0172072D01*
X0411835Y0170873D02*
X0412841Y0170873D01*
X0411835Y0169675D02*
X0415199Y0169675D01*
X0417470Y0169675D02*
X0422757Y0169675D01*
X0422757Y0170873D02*
X0419829Y0170873D01*
X0422757Y0168476D02*
X0411591Y0168476D01*
X0411095Y0167278D02*
X0422757Y0167278D01*
X0422757Y0166079D02*
X0410035Y0166079D01*
X0407968Y0164881D02*
X0422757Y0164881D01*
X0422757Y0163682D02*
X0393626Y0163682D01*
X0394076Y0162484D02*
X0422757Y0162484D01*
X0422757Y0161285D02*
X0394076Y0161285D01*
X0394076Y0160807D02*
X0394076Y0159209D01*
X0393967Y0158802D01*
X0393757Y0158437D01*
X0393459Y0158139D01*
X0393094Y0157928D01*
X0392687Y0157819D01*
X0390302Y0157819D01*
X0390302Y0160807D01*
X0394076Y0160807D01*
X0394076Y0160087D02*
X0422757Y0160087D01*
X0422757Y0158888D02*
X0393990Y0158888D01*
X0394013Y0156491D02*
X0422757Y0156491D01*
X0422757Y0155293D02*
X0421944Y0155293D01*
X0422757Y0157690D02*
X0384807Y0157690D01*
X0380007Y0157690D02*
X0368457Y0157690D01*
X0368457Y0158888D02*
X0380007Y0158888D01*
X0380007Y0160087D02*
X0368457Y0160087D01*
X0368457Y0161285D02*
X0380007Y0161285D01*
X0380007Y0162484D02*
X0368457Y0162484D01*
X0368457Y0163682D02*
X0380007Y0163682D01*
X0380007Y0164881D02*
X0368457Y0164881D01*
X0368457Y0166079D02*
X0380007Y0166079D01*
X0380007Y0167278D02*
X0368457Y0167278D01*
X0368457Y0168476D02*
X0380007Y0168476D01*
X0380578Y0169675D02*
X0368457Y0169675D01*
X0368457Y0170873D02*
X0381776Y0170873D01*
X0382975Y0172072D02*
X0368457Y0172072D01*
X0349657Y0172072D02*
X0329990Y0172072D01*
X0328792Y0173270D02*
X0348977Y0173270D01*
X0347917Y0174469D02*
X0327593Y0174469D01*
X0331189Y0170873D02*
X0349657Y0170873D01*
X0349657Y0169675D02*
X0331936Y0169675D01*
X0331982Y0168476D02*
X0349657Y0168476D01*
X0349657Y0167278D02*
X0331982Y0167278D01*
X0331982Y0166079D02*
X0349657Y0166079D01*
X0349657Y0164881D02*
X0331982Y0164881D01*
X0331982Y0163682D02*
X0349657Y0163682D01*
X0349657Y0162484D02*
X0331982Y0162484D01*
X0331982Y0161285D02*
X0349657Y0161285D01*
X0349657Y0160087D02*
X0331982Y0160087D01*
X0331982Y0158888D02*
X0349657Y0158888D01*
X0349657Y0157690D02*
X0332268Y0157690D01*
X0326432Y0156535D02*
X0326432Y0165435D01*
X0325057Y0166810D01*
X0309557Y0166810D01*
X0314857Y0161410D02*
X0316057Y0162610D01*
X0322057Y0162610D01*
X0323283Y0161385D01*
X0323283Y0156535D01*
X0321406Y0154094D02*
X0321399Y0154094D01*
X0314857Y0148867D02*
X0314857Y0161410D01*
X0329582Y0149300D02*
X0329582Y0149300D01*
X0329582Y0148102D02*
X0329582Y0148102D01*
X0329582Y0147086D02*
X0329582Y0144600D01*
X0329582Y0147086D01*
X0329582Y0147086D01*
X0329582Y0146903D02*
X0329582Y0146903D01*
X0329582Y0145705D02*
X0329582Y0145705D01*
X0328832Y0144506D02*
X0336659Y0144506D01*
X0335997Y0143308D02*
X0329032Y0143308D01*
X0328884Y0142109D02*
X0335654Y0142109D01*
X0335657Y0140910D02*
X0328035Y0140910D01*
X0326836Y0139712D02*
X0335657Y0139712D01*
X0335657Y0138513D02*
X0324500Y0138513D01*
X0323537Y0137033D02*
X0323130Y0137142D01*
X0320745Y0137142D01*
X0320745Y0134154D01*
X0324520Y0134154D01*
X0324520Y0135752D01*
X0324411Y0136159D01*
X0324200Y0136524D01*
X0323902Y0136822D01*
X0323537Y0137033D01*
X0324422Y0136116D02*
X0335657Y0136116D01*
X0335657Y0134918D02*
X0324520Y0134918D01*
X0324520Y0133780D02*
X0320745Y0133780D01*
X0320745Y0134154D01*
X0320370Y0134154D01*
X0320370Y0133780D01*
X0316595Y0133780D01*
X0316595Y0132181D01*
X0316704Y0131775D01*
X0316915Y0131410D01*
X0317213Y0131112D01*
X0317578Y0130901D01*
X0317985Y0130792D01*
X0320370Y0130792D01*
X0320370Y0133779D01*
X0320745Y0133779D01*
X0320745Y0130792D01*
X0323130Y0130792D01*
X0323537Y0130901D01*
X0323902Y0131112D01*
X0324200Y0131410D01*
X0324411Y0131775D01*
X0324520Y0132181D01*
X0324520Y0133780D01*
X0324520Y0133719D02*
X0335657Y0133719D01*
X0335657Y0132521D02*
X0324520Y0132521D01*
X0324113Y0131322D02*
X0335657Y0131322D01*
X0335657Y0130124D02*
X0251057Y0130124D01*
X0251057Y0131322D02*
X0317002Y0131322D01*
X0316595Y0132521D02*
X0276203Y0132521D01*
X0277673Y0133719D02*
X0316595Y0133719D01*
X0316595Y0134154D02*
X0316595Y0135752D01*
X0316704Y0136159D01*
X0316915Y0136524D01*
X0317213Y0136822D01*
X0317578Y0137033D01*
X0317985Y0137142D01*
X0320370Y0137142D01*
X0320370Y0134154D01*
X0316595Y0134154D01*
X0316595Y0134918D02*
X0278425Y0134918D01*
X0278816Y0136116D02*
X0316693Y0136116D01*
X0316615Y0138513D02*
X0278744Y0138513D01*
X0278257Y0139712D02*
X0316395Y0139712D01*
X0316395Y0140910D02*
X0277349Y0140910D01*
X0275815Y0142109D02*
X0316395Y0142109D01*
X0316395Y0143308D02*
X0277549Y0143308D01*
X0278472Y0144506D02*
X0317857Y0144506D01*
X0317447Y0145705D02*
X0313478Y0145705D01*
X0326432Y0147086D02*
X0326432Y0142985D01*
X0331991Y0145705D02*
X0337858Y0145705D01*
X0339563Y0146903D02*
X0332068Y0146903D01*
X0335657Y0137315D02*
X0274014Y0137315D01*
X0273214Y0137315D02*
X0250347Y0137315D01*
X0251046Y0136116D02*
X0268412Y0136116D01*
X0268445Y0135909D02*
X0268702Y0135116D01*
X0269081Y0134373D01*
X0269572Y0133698D01*
X0270161Y0133108D01*
X0270836Y0132617D01*
X0271580Y0132239D01*
X0272373Y0131981D01*
X0273197Y0131850D01*
X0273214Y0131850D01*
X0273214Y0136750D01*
X0268314Y0136750D01*
X0268314Y0136733D01*
X0268445Y0135909D01*
X0268803Y0134918D02*
X0251057Y0134918D01*
X0251057Y0133719D02*
X0269556Y0133719D01*
X0271026Y0132521D02*
X0251057Y0132521D01*
X0246257Y0132521D02*
X0240141Y0132521D01*
X0240116Y0132546D02*
X0239234Y0132911D01*
X0227000Y0132911D01*
X0226026Y0133886D01*
X0219810Y0133886D01*
X0218756Y0132831D01*
X0218756Y0128191D01*
X0219810Y0127136D01*
X0226026Y0127136D01*
X0227000Y0128111D01*
X0237763Y0128111D01*
X0238757Y0127116D01*
X0238757Y0120133D01*
X0239123Y0119251D01*
X0242298Y0116076D01*
X0243180Y0115710D01*
X0285163Y0115710D01*
X0291298Y0109576D01*
X0292180Y0109210D01*
X0294793Y0109210D01*
X0295429Y0108574D01*
X0296745Y0108029D01*
X0298170Y0108029D01*
X0299486Y0108574D01*
X0300493Y0109582D01*
X0301039Y0110898D01*
X0301039Y0112323D01*
X0300493Y0113639D01*
X0299486Y0114646D01*
X0298170Y0115191D01*
X0296745Y0115191D01*
X0295429Y0114646D01*
X0294793Y0114010D01*
X0293652Y0114010D01*
X0288192Y0119470D01*
X0287517Y0120145D01*
X0286635Y0120510D01*
X0244652Y0120510D01*
X0243557Y0121604D01*
X0243557Y0128588D01*
X0243192Y0129470D01*
X0242517Y0130145D01*
X0240791Y0131870D01*
X0240791Y0131871D01*
X0240116Y0132546D01*
X0241339Y0131322D02*
X0246257Y0131322D01*
X0246257Y0130124D02*
X0242538Y0130124D01*
X0242517Y0130145D02*
X0242517Y0130145D01*
X0243418Y0128925D02*
X0246257Y0128925D01*
X0246257Y0127727D02*
X0243557Y0127727D01*
X0243557Y0126528D02*
X0246845Y0126528D01*
X0248044Y0125330D02*
X0243557Y0125330D01*
X0243557Y0124131D02*
X0249242Y0124131D01*
X0243557Y0122933D02*
X0343857Y0122933D01*
X0343857Y0124131D02*
X0337473Y0124131D01*
X0338671Y0125330D02*
X0343857Y0125330D01*
X0343857Y0126528D02*
X0339870Y0126528D01*
X0340457Y0127727D02*
X0343857Y0127727D01*
X0343857Y0128925D02*
X0340457Y0128925D01*
X0340457Y0130124D02*
X0343857Y0130124D01*
X0343955Y0131322D02*
X0340457Y0131322D01*
X0340457Y0132521D02*
X0344774Y0132521D01*
X0345973Y0133719D02*
X0340457Y0133719D01*
X0340457Y0134918D02*
X0347170Y0134918D01*
X0349165Y0130124D02*
X0352277Y0130124D01*
X0351079Y0128925D02*
X0348657Y0128925D01*
X0348657Y0127727D02*
X0349880Y0127727D01*
X0348940Y0126528D02*
X0348657Y0126528D01*
X0348657Y0125330D02*
X0348757Y0125330D01*
X0348757Y0124131D02*
X0348657Y0124131D01*
X0348657Y0122933D02*
X0348757Y0122933D01*
X0348757Y0121734D02*
X0348657Y0121734D01*
X0348657Y0120536D02*
X0348757Y0120536D01*
X0348757Y0119337D02*
X0348657Y0119337D01*
X0348657Y0118139D02*
X0348757Y0118139D01*
X0348757Y0116940D02*
X0348657Y0116940D01*
X0348657Y0115742D02*
X0348757Y0115742D01*
X0348757Y0114543D02*
X0348657Y0114543D01*
X0348657Y0113345D02*
X0348757Y0113345D01*
X0348757Y0112146D02*
X0348657Y0112146D01*
X0348657Y0110948D02*
X0348757Y0110948D01*
X0348757Y0109749D02*
X0348657Y0109749D01*
X0348657Y0108551D02*
X0348757Y0108551D01*
X0348757Y0107352D02*
X0348657Y0107352D01*
X0348657Y0106154D02*
X0348757Y0106154D01*
X0348757Y0104955D02*
X0348657Y0104955D01*
X0348657Y0103757D02*
X0348757Y0103757D01*
X0348757Y0102558D02*
X0348657Y0102558D01*
X0348657Y0101360D02*
X0348757Y0101360D01*
X0348757Y0100161D02*
X0348657Y0100161D01*
X0348657Y0098963D02*
X0348757Y0098963D01*
X0348757Y0097764D02*
X0348657Y0097764D01*
X0348657Y0096566D02*
X0348757Y0096566D01*
X0348757Y0095367D02*
X0348657Y0095367D01*
X0348757Y0094169D02*
X0348210Y0094169D01*
X0348757Y0092970D02*
X0347011Y0092970D01*
X0345813Y0091772D02*
X0348757Y0091772D01*
X0348757Y0090573D02*
X0273980Y0090573D01*
X0271207Y0088176D02*
X0348757Y0088176D01*
X0348757Y0089375D02*
X0270114Y0089375D01*
X0272795Y0095367D02*
X0267292Y0095367D01*
X0267981Y0096566D02*
X0343819Y0096566D01*
X0343857Y0097764D02*
X0268457Y0097764D01*
X0268457Y0098963D02*
X0343857Y0098963D01*
X0343857Y0100161D02*
X0276820Y0100161D01*
X0276802Y0100154D02*
X0279055Y0101087D01*
X0280780Y0102811D01*
X0281713Y0105065D01*
X0281713Y0107504D01*
X0280780Y0109757D01*
X0279055Y0111482D01*
X0276802Y0112415D01*
X0274363Y0112415D01*
X0272110Y0111482D01*
X0270385Y0109757D01*
X0269452Y0107504D01*
X0269452Y0105065D01*
X0270385Y0102811D01*
X0272110Y0101087D01*
X0274363Y0100154D01*
X0276802Y0100154D01*
X0274345Y0100161D02*
X0268351Y0100161D01*
X0267855Y0101360D02*
X0271837Y0101360D01*
X0270639Y0102558D02*
X0266988Y0102558D01*
X0265388Y0103757D02*
X0269994Y0103757D01*
X0269497Y0104955D02*
X0214657Y0104955D01*
X0214657Y0106154D02*
X0221019Y0106154D01*
X0218967Y0107352D02*
X0216162Y0107352D01*
X0217184Y0108551D02*
X0217946Y0108551D01*
X0217696Y0113345D02*
X0217434Y0113345D01*
X0216767Y0114543D02*
X0218363Y0114543D01*
X0219561Y0115742D02*
X0215569Y0115742D01*
X0220518Y0116940D02*
X0205165Y0116940D01*
X0205165Y0118139D02*
X0220518Y0118139D01*
X0220518Y0119337D02*
X0205165Y0119337D01*
X0205165Y0120536D02*
X0219324Y0120536D01*
X0218756Y0121734D02*
X0205165Y0121734D01*
X0205165Y0122933D02*
X0218756Y0122933D01*
X0218756Y0124131D02*
X0214148Y0124131D01*
X0214233Y0124217D02*
X0214444Y0124582D01*
X0214553Y0124989D01*
X0214553Y0126587D01*
X0210778Y0126587D01*
X0210778Y0123600D01*
X0213164Y0123600D01*
X0213571Y0123709D01*
X0213936Y0123919D01*
X0214233Y0124217D01*
X0214553Y0125330D02*
X0218756Y0125330D01*
X0219539Y0126528D02*
X0214553Y0126528D01*
X0214553Y0126962D02*
X0214553Y0128560D01*
X0214444Y0128967D01*
X0214233Y0129332D01*
X0213936Y0129630D01*
X0213571Y0129840D01*
X0213164Y0129949D01*
X0210778Y0129949D01*
X0210778Y0126962D01*
X0210404Y0126962D01*
X0210404Y0129949D01*
X0208018Y0129949D01*
X0207611Y0129840D01*
X0207246Y0129630D01*
X0206948Y0129332D01*
X0206738Y0128967D01*
X0206629Y0128560D01*
X0206629Y0126962D01*
X0210403Y0126962D01*
X0210403Y0126587D01*
X0206629Y0126587D01*
X0206629Y0124989D01*
X0206738Y0124582D01*
X0206948Y0124217D01*
X0207246Y0123919D01*
X0207611Y0123709D01*
X0208018Y0123600D01*
X0210404Y0123600D01*
X0210404Y0126587D01*
X0210778Y0126587D01*
X0210778Y0126962D01*
X0214553Y0126962D01*
X0214553Y0127727D02*
X0219219Y0127727D01*
X0218756Y0128925D02*
X0214455Y0128925D01*
X0214535Y0131322D02*
X0218756Y0131322D01*
X0218756Y0130124D02*
X0205165Y0130124D01*
X0205165Y0131322D02*
X0206647Y0131322D01*
X0206727Y0128925D02*
X0205165Y0128925D01*
X0205165Y0127727D02*
X0206629Y0127727D01*
X0206629Y0126528D02*
X0205165Y0126528D01*
X0205165Y0125330D02*
X0206629Y0125330D01*
X0207034Y0124131D02*
X0205165Y0124131D01*
X0210404Y0124131D02*
X0210778Y0124131D01*
X0210778Y0125330D02*
X0210404Y0125330D01*
X0210404Y0126528D02*
X0210778Y0126528D01*
X0210778Y0127727D02*
X0210404Y0127727D01*
X0210404Y0128925D02*
X0210778Y0128925D01*
X0214753Y0132521D02*
X0218756Y0132521D01*
X0219644Y0133719D02*
X0214753Y0133719D01*
X0214753Y0134918D02*
X0245956Y0134918D01*
X0246257Y0133719D02*
X0226192Y0133719D01*
X0222918Y0130511D02*
X0238757Y0130511D01*
X0241157Y0128110D01*
X0241157Y0120610D01*
X0243657Y0118110D01*
X0286157Y0118110D01*
X0292657Y0111610D01*
X0297457Y0111610D01*
X0300615Y0113345D02*
X0305628Y0113345D01*
X0305322Y0112607D02*
X0305322Y0110090D01*
X0306285Y0107764D01*
X0308065Y0105984D01*
X0310391Y0105021D01*
X0312908Y0105021D01*
X0315234Y0105984D01*
X0317014Y0107764D01*
X0317977Y0110090D01*
X0317977Y0112607D01*
X0317014Y0114933D01*
X0315234Y0116713D01*
X0312908Y0117676D01*
X0310391Y0117676D01*
X0308065Y0116713D01*
X0306285Y0114933D01*
X0305322Y0112607D01*
X0305322Y0112146D02*
X0301039Y0112146D01*
X0301039Y0110948D02*
X0305322Y0110948D01*
X0305463Y0109749D02*
X0300563Y0109749D01*
X0299429Y0108551D02*
X0305960Y0108551D01*
X0306697Y0107352D02*
X0281713Y0107352D01*
X0281713Y0106154D02*
X0307896Y0106154D01*
X0315403Y0106154D02*
X0343857Y0106154D01*
X0343857Y0107352D02*
X0316602Y0107352D01*
X0317340Y0108551D02*
X0343857Y0108551D01*
X0343857Y0109749D02*
X0317836Y0109749D01*
X0317977Y0110948D02*
X0343857Y0110948D01*
X0343857Y0112146D02*
X0317977Y0112146D01*
X0317672Y0113345D02*
X0343857Y0113345D01*
X0343857Y0114543D02*
X0317175Y0114543D01*
X0316205Y0115742D02*
X0343857Y0115742D01*
X0343857Y0116940D02*
X0314684Y0116940D01*
X0308615Y0116940D02*
X0290722Y0116940D01*
X0291920Y0115742D02*
X0307094Y0115742D01*
X0306124Y0114543D02*
X0299589Y0114543D01*
X0295326Y0114543D02*
X0293119Y0114543D01*
X0289926Y0110948D02*
X0279589Y0110948D01*
X0280783Y0109749D02*
X0291124Y0109749D01*
X0288727Y0112146D02*
X0277451Y0112146D01*
X0273714Y0112146D02*
X0237865Y0112146D01*
X0237865Y0110948D02*
X0271576Y0110948D01*
X0270382Y0109749D02*
X0237680Y0109749D01*
X0237184Y0108551D02*
X0269886Y0108551D01*
X0269452Y0107352D02*
X0236162Y0107352D01*
X0234111Y0106154D02*
X0269452Y0106154D01*
X0260527Y0103757D02*
X0239788Y0103757D01*
X0241388Y0102558D02*
X0258927Y0102558D01*
X0258060Y0101360D02*
X0242255Y0101360D01*
X0242751Y0100161D02*
X0257564Y0100161D01*
X0257457Y0098963D02*
X0242857Y0098963D01*
X0242857Y0097764D02*
X0257457Y0097764D01*
X0257934Y0096566D02*
X0242381Y0096566D01*
X0241692Y0095367D02*
X0258622Y0095367D01*
X0259179Y0085010D02*
X0240853Y0085010D01*
X0241400Y0084463D01*
X0241890Y0083788D01*
X0242269Y0083045D01*
X0242527Y0082251D01*
X0242657Y0081427D01*
X0242657Y0081410D01*
X0237758Y0081410D01*
X0237758Y0080610D01*
X0242657Y0080610D01*
X0242657Y0080593D01*
X0242527Y0079769D01*
X0242269Y0078976D01*
X0241890Y0078232D01*
X0241400Y0077558D01*
X0240810Y0076968D01*
X0240738Y0076915D01*
X0259252Y0076938D01*
X0258295Y0077895D01*
X0257457Y0079916D01*
X0257457Y0082104D01*
X0258295Y0084126D01*
X0259179Y0085010D01*
X0258750Y0084580D02*
X0241283Y0084580D01*
X0242097Y0083382D02*
X0257987Y0083382D01*
X0257490Y0082183D02*
X0242538Y0082183D01*
X0242530Y0079786D02*
X0257511Y0079786D01*
X0257457Y0080985D02*
X0237758Y0080985D01*
X0236957Y0080985D02*
X0164965Y0080985D01*
X0164965Y0080510D02*
X0164965Y0106507D01*
X0165567Y0106757D01*
X0167058Y0108248D01*
X0167565Y0109472D01*
X0168072Y0108248D01*
X0169563Y0106757D01*
X0171257Y0106055D01*
X0171257Y0092209D01*
X0171232Y0092134D01*
X0171257Y0091734D01*
X0171257Y0091333D01*
X0171288Y0091260D01*
X0171293Y0091181D01*
X0171469Y0090821D01*
X0171623Y0090451D01*
X0171679Y0090395D01*
X0171714Y0090324D01*
X0172015Y0090059D01*
X0172298Y0089776D01*
X0172371Y0089745D01*
X0177015Y0085659D01*
X0177298Y0085376D01*
X0177371Y0085345D01*
X0177430Y0085293D01*
X0177810Y0085164D01*
X0178180Y0085010D01*
X0178259Y0085010D01*
X0178334Y0084985D01*
X0178734Y0085010D01*
X0233862Y0085010D01*
X0233315Y0084463D01*
X0232825Y0083788D01*
X0232446Y0083045D01*
X0232188Y0082251D01*
X0232057Y0081427D01*
X0232057Y0081410D01*
X0236957Y0081410D01*
X0236957Y0080610D01*
X0232057Y0080610D01*
X0232057Y0080593D01*
X0232188Y0079769D01*
X0232446Y0078976D01*
X0232509Y0078851D01*
X0228758Y0080335D01*
X0228335Y0080510D01*
X0228315Y0080510D01*
X0228296Y0080518D01*
X0227838Y0080510D01*
X0164965Y0080510D01*
X0164965Y0082183D02*
X0232177Y0082183D01*
X0232618Y0083382D02*
X0164965Y0083382D01*
X0164965Y0084580D02*
X0233432Y0084580D01*
X0232185Y0079786D02*
X0230145Y0079786D01*
X0227857Y0078110D02*
X0236957Y0074510D01*
X0318257Y0074610D01*
X0324516Y0076191D02*
X0326025Y0076191D01*
X0325857Y0077389D02*
X0325715Y0077389D01*
X0330757Y0077389D02*
X0331557Y0077389D01*
X0331557Y0076191D02*
X0330757Y0076191D01*
X0330757Y0078588D02*
X0331557Y0078588D01*
X0331557Y0079786D02*
X0330757Y0079786D01*
X0351157Y0074910D02*
X0351157Y0125610D01*
X0353657Y0128110D01*
X0403657Y0128110D01*
X0401142Y0125330D02*
X0354271Y0125330D01*
X0353557Y0124131D02*
X0365300Y0124131D01*
X0367015Y0124131D02*
X0401638Y0124131D01*
X0402789Y0122933D02*
X0368899Y0122933D01*
X0369568Y0121734D02*
X0403627Y0121734D01*
X0402232Y0120536D02*
X0369739Y0120536D01*
X0369506Y0119337D02*
X0401493Y0119337D01*
X0401123Y0118139D02*
X0368750Y0118139D01*
X0366157Y0120610D02*
X0361157Y0120610D01*
X0358657Y0118110D01*
X0358657Y0072010D01*
X0360240Y0070198D02*
X0376151Y0070198D01*
X0377350Y0071397D02*
X0361001Y0071397D01*
X0361057Y0072595D02*
X0378548Y0072595D01*
X0378757Y0073794D02*
X0361057Y0073794D01*
X0361057Y0074992D02*
X0378757Y0074992D01*
X0378757Y0076191D02*
X0361057Y0076191D01*
X0361057Y0077389D02*
X0378757Y0077389D01*
X0378757Y0078588D02*
X0361057Y0078588D01*
X0361057Y0079786D02*
X0378757Y0079786D01*
X0378757Y0080985D02*
X0361057Y0080985D01*
X0361057Y0082183D02*
X0378757Y0082183D01*
X0378757Y0083382D02*
X0361057Y0083382D01*
X0361057Y0084580D02*
X0378757Y0084580D01*
X0378757Y0085779D02*
X0361057Y0085779D01*
X0361057Y0086977D02*
X0378757Y0086977D01*
X0378757Y0088176D02*
X0361057Y0088176D01*
X0361057Y0089375D02*
X0378757Y0089375D01*
X0378757Y0090573D02*
X0361057Y0090573D01*
X0361057Y0091772D02*
X0378757Y0091772D01*
X0378757Y0092970D02*
X0361057Y0092970D01*
X0361057Y0094169D02*
X0378757Y0094169D01*
X0378757Y0095367D02*
X0361057Y0095367D01*
X0361057Y0096566D02*
X0378757Y0096566D01*
X0378757Y0097764D02*
X0361057Y0097764D01*
X0361057Y0098963D02*
X0378757Y0098963D01*
X0378757Y0100161D02*
X0370521Y0100161D01*
X0370503Y0100154D02*
X0372756Y0101087D01*
X0374481Y0102811D01*
X0375414Y0105065D01*
X0375414Y0107504D01*
X0374481Y0109757D01*
X0372756Y0111482D01*
X0370503Y0112415D01*
X0368064Y0112415D01*
X0365811Y0111482D01*
X0364086Y0109757D01*
X0363153Y0107504D01*
X0363153Y0105065D01*
X0364086Y0102811D01*
X0365811Y0101087D01*
X0368064Y0100154D01*
X0370503Y0100154D01*
X0368046Y0100161D02*
X0361057Y0100161D01*
X0361057Y0101360D02*
X0365538Y0101360D01*
X0364339Y0102558D02*
X0361057Y0102558D01*
X0361057Y0103757D02*
X0363695Y0103757D01*
X0363198Y0104955D02*
X0361057Y0104955D01*
X0361057Y0106154D02*
X0363153Y0106154D01*
X0363153Y0107352D02*
X0361057Y0107352D01*
X0361057Y0108551D02*
X0363586Y0108551D01*
X0364083Y0109749D02*
X0361057Y0109749D01*
X0361057Y0110948D02*
X0365277Y0110948D01*
X0367415Y0112146D02*
X0361057Y0112146D01*
X0361057Y0113345D02*
X0402660Y0113345D01*
X0401722Y0114543D02*
X0361057Y0114543D01*
X0361057Y0115742D02*
X0401224Y0115742D01*
X0403987Y0112146D02*
X0371152Y0112146D01*
X0373290Y0110948D02*
X0402339Y0110948D01*
X0400098Y0109749D02*
X0374484Y0109749D01*
X0374980Y0108551D02*
X0383204Y0108551D01*
X0382005Y0107352D02*
X0375414Y0107352D01*
X0375414Y0106154D02*
X0380807Y0106154D01*
X0379608Y0104955D02*
X0375369Y0104955D01*
X0374872Y0103757D02*
X0378827Y0103757D01*
X0378757Y0102558D02*
X0374227Y0102558D01*
X0373029Y0101360D02*
X0378757Y0101360D01*
X0381157Y0103110D02*
X0381157Y0071710D01*
X0381057Y0071710D01*
X0376157Y0066810D01*
X0383557Y0080985D02*
X0411287Y0080985D01*
X0411415Y0082183D02*
X0383557Y0082183D01*
X0383557Y0083382D02*
X0411804Y0083382D01*
X0412194Y0084580D02*
X0383557Y0084580D01*
X0383557Y0085779D02*
X0413016Y0085779D01*
X0412234Y0084703D02*
X0412234Y0084703D01*
X0413886Y0086977D02*
X0383557Y0086977D01*
X0383557Y0088176D02*
X0415403Y0088176D01*
X0417719Y0089375D02*
X0383557Y0089375D01*
X0383557Y0090573D02*
X0447282Y0090573D01*
X0448923Y0091772D02*
X0443705Y0091772D01*
X0442966Y0091465D02*
X0445980Y0092714D01*
X0448286Y0095020D01*
X0449535Y0098034D01*
X0449535Y0101296D01*
X0448286Y0104310D01*
X0445980Y0106617D01*
X0442966Y0107865D01*
X0439704Y0107865D01*
X0436690Y0106617D01*
X0434383Y0104310D01*
X0433135Y0101296D01*
X0433135Y0098034D01*
X0434383Y0095020D01*
X0436690Y0092714D01*
X0439704Y0091465D01*
X0442966Y0091465D01*
X0446236Y0092970D02*
X0449794Y0092970D01*
X0450294Y0094169D02*
X0447434Y0094169D01*
X0448430Y0095367D02*
X0450607Y0095367D01*
X0450657Y0096566D02*
X0448926Y0096566D01*
X0449423Y0097764D02*
X0450657Y0097764D01*
X0450657Y0098963D02*
X0449535Y0098963D01*
X0449535Y0100161D02*
X0450657Y0100161D01*
X0450657Y0101360D02*
X0449508Y0101360D01*
X0449012Y0102558D02*
X0450657Y0102558D01*
X0450657Y0103757D02*
X0448516Y0103757D01*
X0447641Y0104955D02*
X0450657Y0104955D01*
X0450657Y0106154D02*
X0446443Y0106154D01*
X0444205Y0107352D02*
X0450657Y0107352D01*
X0450657Y0108551D02*
X0420498Y0108551D01*
X0419087Y0107352D02*
X0438465Y0107352D01*
X0436226Y0106154D02*
X0411835Y0106154D01*
X0411835Y0107352D02*
X0413582Y0107352D01*
X0412171Y0108551D02*
X0411714Y0108551D01*
X0411382Y0109749D02*
X0411218Y0109749D01*
X0410886Y0110948D02*
X0410330Y0110948D01*
X0410835Y0112146D02*
X0408682Y0112146D01*
X0410009Y0113345D02*
X0410870Y0113345D01*
X0410947Y0114543D02*
X0411366Y0114543D01*
X0411445Y0115742D02*
X0412133Y0115742D01*
X0413490Y0116940D02*
X0406735Y0116940D01*
X0405935Y0116940D02*
X0361057Y0116940D01*
X0362080Y0118139D02*
X0363564Y0118139D01*
X0357689Y0120536D02*
X0353557Y0120536D01*
X0353557Y0121734D02*
X0358887Y0121734D01*
X0360493Y0122933D02*
X0353557Y0122933D01*
X0353557Y0119337D02*
X0356568Y0119337D01*
X0357298Y0120145D02*
X0357298Y0120145D01*
X0356257Y0118139D02*
X0353557Y0118139D01*
X0353557Y0116940D02*
X0356257Y0116940D01*
X0356257Y0115742D02*
X0353557Y0115742D01*
X0353557Y0114543D02*
X0356257Y0114543D01*
X0356257Y0113345D02*
X0353557Y0113345D01*
X0353557Y0112146D02*
X0356257Y0112146D01*
X0356257Y0110948D02*
X0353557Y0110948D01*
X0353557Y0109749D02*
X0356257Y0109749D01*
X0356257Y0108551D02*
X0353557Y0108551D01*
X0353557Y0107352D02*
X0356257Y0107352D01*
X0356257Y0106154D02*
X0353557Y0106154D01*
X0353557Y0104955D02*
X0356257Y0104955D01*
X0356257Y0103757D02*
X0353557Y0103757D01*
X0353557Y0102558D02*
X0356257Y0102558D01*
X0356257Y0101360D02*
X0353557Y0101360D01*
X0353557Y0100161D02*
X0356257Y0100161D01*
X0356257Y0098963D02*
X0353557Y0098963D01*
X0353557Y0097764D02*
X0356257Y0097764D01*
X0356257Y0096566D02*
X0353557Y0096566D01*
X0353557Y0095367D02*
X0356257Y0095367D01*
X0356257Y0094169D02*
X0353557Y0094169D01*
X0353557Y0092970D02*
X0356257Y0092970D01*
X0356257Y0091772D02*
X0353557Y0091772D01*
X0353557Y0090573D02*
X0356257Y0090573D01*
X0356257Y0089375D02*
X0353557Y0089375D01*
X0353557Y0088176D02*
X0356257Y0088176D01*
X0356257Y0086977D02*
X0353557Y0086977D01*
X0353557Y0085779D02*
X0356257Y0085779D01*
X0356257Y0084580D02*
X0353557Y0084580D01*
X0353557Y0083382D02*
X0356257Y0083382D01*
X0356257Y0082183D02*
X0353557Y0082183D01*
X0353557Y0080985D02*
X0356257Y0080985D01*
X0383557Y0091772D02*
X0438964Y0091772D01*
X0436433Y0092970D02*
X0383557Y0092970D01*
X0383557Y0094169D02*
X0435235Y0094169D01*
X0434239Y0095367D02*
X0383557Y0095367D01*
X0383557Y0096566D02*
X0433743Y0096566D01*
X0433247Y0097764D02*
X0383557Y0097764D01*
X0383557Y0098963D02*
X0433135Y0098963D01*
X0433135Y0100161D02*
X0383557Y0100161D01*
X0383557Y0101360D02*
X0433161Y0101360D01*
X0433657Y0102558D02*
X0409506Y0102558D01*
X0410704Y0103757D02*
X0434154Y0103757D01*
X0435028Y0104955D02*
X0411372Y0104955D01*
X0406335Y0106187D02*
X0405057Y0107410D01*
X0385213Y0107165D01*
X0381157Y0103110D01*
X0383999Y0102558D02*
X0403164Y0102558D01*
X0401965Y0103757D02*
X0385198Y0103757D01*
X0400608Y0104955D02*
X0401297Y0104955D01*
X0406335Y0106187D02*
X0406335Y0107165D01*
X0411547Y0118139D02*
X0412583Y0118139D01*
X0411553Y0119337D02*
X0411176Y0119337D01*
X0411056Y0120536D02*
X0410437Y0120536D01*
X0410835Y0121734D02*
X0409042Y0121734D01*
X0409880Y0122933D02*
X0410835Y0122933D01*
X0411031Y0124131D02*
X0411196Y0124131D01*
X0411527Y0125330D02*
X0411721Y0125330D01*
X0411835Y0126528D02*
X0412919Y0126528D01*
X0412995Y0127727D02*
X0411835Y0127727D01*
X0411796Y0128925D02*
X0411559Y0128925D01*
X0411227Y0130124D02*
X0411062Y0130124D01*
X0422034Y0140910D02*
X0423157Y0140910D01*
X0429157Y0140910D02*
X0433135Y0140910D01*
X0433135Y0141296D02*
X0433135Y0138034D01*
X0434383Y0135020D01*
X0436690Y0132714D01*
X0439704Y0131465D01*
X0442966Y0131465D01*
X0445980Y0132714D01*
X0448286Y0135020D01*
X0449535Y0138034D01*
X0449535Y0141296D01*
X0448286Y0144310D01*
X0445980Y0146617D01*
X0442966Y0147865D01*
X0439704Y0147865D01*
X0436690Y0146617D01*
X0434383Y0144310D01*
X0433135Y0141296D01*
X0433471Y0142109D02*
X0429157Y0142109D01*
X0429157Y0143308D02*
X0433968Y0143308D01*
X0434579Y0144506D02*
X0429157Y0144506D01*
X0429157Y0145705D02*
X0435777Y0145705D01*
X0437380Y0146903D02*
X0429157Y0146903D01*
X0429157Y0148102D02*
X0450657Y0148102D01*
X0450657Y0149300D02*
X0429295Y0149300D01*
X0429557Y0150499D02*
X0450657Y0150499D01*
X0450657Y0151697D02*
X0429557Y0151697D01*
X0429557Y0152896D02*
X0450657Y0152896D01*
X0450657Y0154094D02*
X0429557Y0154094D01*
X0429557Y0155293D02*
X0437687Y0155293D01*
X0436690Y0155706D02*
X0439704Y0154457D01*
X0442966Y0154457D01*
X0445980Y0155706D01*
X0448286Y0158013D01*
X0449535Y0161026D01*
X0449535Y0164289D01*
X0448286Y0167302D01*
X0445980Y0169609D01*
X0442966Y0170857D01*
X0439704Y0170857D01*
X0436690Y0169609D01*
X0434383Y0167302D01*
X0433135Y0164289D01*
X0433135Y0161026D01*
X0434383Y0158013D01*
X0436690Y0155706D01*
X0435904Y0156491D02*
X0429557Y0156491D01*
X0429557Y0157690D02*
X0434706Y0157690D01*
X0434020Y0158888D02*
X0429557Y0158888D01*
X0429557Y0160087D02*
X0433524Y0160087D01*
X0433135Y0161285D02*
X0429557Y0161285D01*
X0429557Y0162484D02*
X0433135Y0162484D01*
X0433135Y0163682D02*
X0429557Y0163682D01*
X0429557Y0164881D02*
X0433380Y0164881D01*
X0433876Y0166079D02*
X0429557Y0166079D01*
X0429557Y0167278D02*
X0434373Y0167278D01*
X0435557Y0168476D02*
X0429557Y0168476D01*
X0429557Y0169675D02*
X0436848Y0169675D01*
X0429557Y0170873D02*
X0450657Y0170873D01*
X0450657Y0169675D02*
X0445821Y0169675D01*
X0447112Y0168476D02*
X0450657Y0168476D01*
X0450657Y0167278D02*
X0448296Y0167278D01*
X0448793Y0166079D02*
X0450657Y0166079D01*
X0450657Y0164881D02*
X0449289Y0164881D01*
X0449535Y0163682D02*
X0450657Y0163682D01*
X0450657Y0162484D02*
X0449535Y0162484D01*
X0449535Y0161285D02*
X0450657Y0161285D01*
X0450657Y0160087D02*
X0449145Y0160087D01*
X0448649Y0158888D02*
X0450657Y0158888D01*
X0450657Y0157690D02*
X0447963Y0157690D01*
X0446765Y0156491D02*
X0450657Y0156491D01*
X0450657Y0155293D02*
X0444982Y0155293D01*
X0445289Y0146903D02*
X0450657Y0146903D01*
X0450657Y0145705D02*
X0446892Y0145705D01*
X0448091Y0144506D02*
X0450657Y0144506D01*
X0450657Y0143308D02*
X0448702Y0143308D01*
X0449198Y0142109D02*
X0450657Y0142109D01*
X0450657Y0140910D02*
X0449535Y0140910D01*
X0449535Y0139712D02*
X0450657Y0139712D01*
X0450657Y0138513D02*
X0449535Y0138513D01*
X0449237Y0137315D02*
X0450657Y0137315D01*
X0450657Y0136116D02*
X0448740Y0136116D01*
X0448184Y0134918D02*
X0450657Y0134918D01*
X0450657Y0133719D02*
X0446985Y0133719D01*
X0445514Y0132521D02*
X0450657Y0132521D01*
X0450657Y0131322D02*
X0429157Y0131322D01*
X0429157Y0130124D02*
X0450657Y0130124D01*
X0450657Y0128925D02*
X0429157Y0128925D01*
X0429157Y0127727D02*
X0450657Y0127727D01*
X0450657Y0126528D02*
X0429157Y0126528D01*
X0429157Y0125330D02*
X0450657Y0125330D01*
X0450657Y0124131D02*
X0429157Y0124131D01*
X0429157Y0122933D02*
X0450657Y0122933D01*
X0450657Y0121734D02*
X0429157Y0121734D01*
X0429157Y0120536D02*
X0450657Y0120536D01*
X0450657Y0119337D02*
X0429157Y0119337D01*
X0429157Y0118139D02*
X0450657Y0118139D01*
X0450657Y0116940D02*
X0429157Y0116940D01*
X0429157Y0115742D02*
X0450657Y0115742D01*
X0450657Y0114543D02*
X0428963Y0114543D01*
X0428135Y0113345D02*
X0450657Y0113345D01*
X0450657Y0112146D02*
X0426936Y0112146D01*
X0425738Y0110948D02*
X0450657Y0110948D01*
X0450657Y0109749D02*
X0424539Y0109749D01*
X0429157Y0132521D02*
X0437155Y0132521D01*
X0435684Y0133719D02*
X0429157Y0133719D01*
X0429157Y0134918D02*
X0434486Y0134918D01*
X0433929Y0136116D02*
X0429157Y0136116D01*
X0429157Y0137315D02*
X0433433Y0137315D01*
X0433135Y0138513D02*
X0429157Y0138513D01*
X0429157Y0139712D02*
X0433135Y0139712D01*
X0415006Y0146903D02*
X0410695Y0146903D01*
X0411107Y0148102D02*
X0414594Y0148102D01*
X0414594Y0149300D02*
X0411107Y0149300D01*
X0411107Y0150499D02*
X0414594Y0150499D01*
X0414594Y0151697D02*
X0411107Y0151697D01*
X0411107Y0152896D02*
X0414594Y0152896D01*
X0414594Y0154094D02*
X0411107Y0154094D01*
X0410133Y0155293D02*
X0415569Y0155293D01*
X0418756Y0150817D02*
X0425951Y0150817D01*
X0426157Y0150610D01*
X0403758Y0155293D02*
X0394276Y0155293D01*
X0394276Y0154094D02*
X0402783Y0154094D01*
X0390302Y0158888D02*
X0389927Y0158888D01*
X0389927Y0160087D02*
X0390302Y0160087D01*
X0390114Y0160994D02*
X0390114Y0163199D01*
X0390015Y0165000D01*
X0389927Y0163682D02*
X0390302Y0163682D01*
X0390302Y0162484D02*
X0389927Y0162484D01*
X0389927Y0161285D02*
X0390302Y0161285D01*
X0380007Y0156491D02*
X0368457Y0156491D01*
X0369040Y0155293D02*
X0380007Y0155293D01*
X0380007Y0154094D02*
X0369626Y0154094D01*
X0369739Y0152896D02*
X0380007Y0152896D01*
X0380007Y0151697D02*
X0369448Y0151697D01*
X0368610Y0150499D02*
X0380007Y0150499D01*
X0379250Y0149300D02*
X0356220Y0149300D01*
X0356220Y0148102D02*
X0378351Y0148102D01*
X0363705Y0150499D02*
X0356095Y0150499D01*
X0320745Y0136116D02*
X0320370Y0136116D01*
X0320370Y0134918D02*
X0320745Y0134918D01*
X0320745Y0133719D02*
X0320370Y0133719D01*
X0320370Y0132521D02*
X0320745Y0132521D01*
X0320745Y0131322D02*
X0320370Y0131322D01*
X0335479Y0128925D02*
X0251236Y0128925D01*
X0243557Y0121734D02*
X0343857Y0121734D01*
X0343857Y0120536D02*
X0244626Y0120536D01*
X0241433Y0116940D02*
X0225318Y0116940D01*
X0225318Y0118139D02*
X0240235Y0118139D01*
X0239087Y0119337D02*
X0225318Y0119337D01*
X0226512Y0120536D02*
X0238757Y0120536D01*
X0238757Y0121734D02*
X0227080Y0121734D01*
X0227080Y0122933D02*
X0238757Y0122933D01*
X0238757Y0124131D02*
X0227080Y0124131D01*
X0227080Y0125330D02*
X0238757Y0125330D01*
X0238757Y0126528D02*
X0226296Y0126528D01*
X0226616Y0127727D02*
X0238147Y0127727D01*
X0222918Y0123424D02*
X0222918Y0111603D01*
X0222565Y0111250D01*
X0227434Y0113345D02*
X0227696Y0113345D01*
X0228363Y0114543D02*
X0226767Y0114543D01*
X0225569Y0115742D02*
X0229561Y0115742D01*
X0235569Y0115742D02*
X0243104Y0115742D01*
X0237434Y0113345D02*
X0287529Y0113345D01*
X0286330Y0114543D02*
X0236767Y0114543D01*
X0227946Y0108551D02*
X0227184Y0108551D01*
X0226162Y0107352D02*
X0228967Y0107352D01*
X0231019Y0106154D02*
X0224111Y0106154D01*
X0217502Y0101360D02*
X0232460Y0101360D01*
X0233327Y0102558D02*
X0216304Y0102558D01*
X0215105Y0103757D02*
X0234927Y0103757D01*
X0237357Y0098810D02*
X0216657Y0098810D01*
X0212257Y0103210D01*
X0212257Y0110943D01*
X0212565Y0111250D01*
X0207696Y0113345D02*
X0207434Y0113345D01*
X0206767Y0114543D02*
X0208363Y0114543D01*
X0209561Y0115742D02*
X0205569Y0115742D01*
X0207184Y0108551D02*
X0207946Y0108551D01*
X0208967Y0107352D02*
X0206162Y0107352D01*
X0204111Y0106154D02*
X0209857Y0106154D01*
X0209857Y0104955D02*
X0184965Y0104955D01*
X0184965Y0103757D02*
X0209857Y0103757D01*
X0209930Y0102558D02*
X0184965Y0102558D01*
X0184965Y0101360D02*
X0210714Y0101360D01*
X0211912Y0100161D02*
X0184965Y0100161D01*
X0184965Y0098963D02*
X0213111Y0098963D01*
X0214310Y0097764D02*
X0184965Y0097764D01*
X0184965Y0096566D02*
X0215805Y0096566D01*
X0233022Y0095367D02*
X0185995Y0095367D01*
X0172792Y0089375D02*
X0164965Y0089375D01*
X0164965Y0090573D02*
X0171572Y0090573D01*
X0171255Y0091772D02*
X0164965Y0091772D01*
X0164965Y0092970D02*
X0171257Y0092970D01*
X0171257Y0094169D02*
X0164965Y0094169D01*
X0164965Y0095367D02*
X0171257Y0095367D01*
X0171257Y0096566D02*
X0164965Y0096566D01*
X0164965Y0097764D02*
X0171257Y0097764D01*
X0171257Y0098963D02*
X0164965Y0098963D01*
X0164965Y0100161D02*
X0171257Y0100161D01*
X0171257Y0101360D02*
X0164965Y0101360D01*
X0164965Y0102558D02*
X0171257Y0102558D01*
X0171257Y0103757D02*
X0164965Y0103757D01*
X0164965Y0104955D02*
X0171257Y0104955D01*
X0171019Y0106154D02*
X0164965Y0106154D01*
X0166162Y0107352D02*
X0168967Y0107352D01*
X0167946Y0108551D02*
X0167184Y0108551D01*
X0167434Y0113345D02*
X0167696Y0113345D01*
X0168363Y0114543D02*
X0166767Y0114543D01*
X0165569Y0115742D02*
X0169561Y0115742D01*
X0169965Y0116940D02*
X0165165Y0116940D01*
X0165165Y0118139D02*
X0169965Y0118139D01*
X0169965Y0119337D02*
X0165165Y0119337D01*
X0165528Y0120536D02*
X0169965Y0120536D01*
X0169965Y0121734D02*
X0166220Y0121734D01*
X0166257Y0122933D02*
X0170571Y0122933D01*
X0170110Y0124131D02*
X0167204Y0124131D01*
X0167820Y0125330D02*
X0169495Y0125330D01*
X0169495Y0126528D02*
X0167820Y0126528D01*
X0167820Y0127727D02*
X0169495Y0127727D01*
X0169495Y0128925D02*
X0167820Y0128925D01*
X0167083Y0130124D02*
X0170232Y0130124D01*
X0170006Y0131322D02*
X0167309Y0131322D01*
X0183470Y0130124D02*
X0183845Y0130124D01*
X0183845Y0128925D02*
X0183470Y0128925D01*
X0152565Y0121250D02*
X0152407Y0121407D01*
X0142565Y0121250D02*
X0142407Y0121407D01*
X0162565Y0111250D02*
X0162565Y0079203D01*
X0163657Y0078110D01*
X0227857Y0078110D01*
X0241232Y0077389D02*
X0258800Y0077389D01*
X0258008Y0078588D02*
X0242072Y0078588D01*
X0279328Y0101360D02*
X0343857Y0101360D01*
X0343857Y0102558D02*
X0280527Y0102558D01*
X0281172Y0103757D02*
X0343857Y0103757D01*
X0343857Y0104955D02*
X0281668Y0104955D01*
X0281280Y0108551D02*
X0295486Y0108551D01*
X0289523Y0118139D02*
X0343857Y0118139D01*
X0343857Y0119337D02*
X0288325Y0119337D01*
X0274014Y0132521D02*
X0273214Y0132521D01*
X0273214Y0133719D02*
X0274014Y0133719D01*
X0274014Y0134918D02*
X0273214Y0134918D01*
X0273214Y0136116D02*
X0274014Y0136116D01*
X0268484Y0138513D02*
X0249148Y0138513D01*
X0247950Y0139712D02*
X0268971Y0139712D01*
X0268551Y0149300D02*
X0060556Y0149300D01*
X0060556Y0150499D02*
X0269184Y0150499D01*
X0270383Y0151697D02*
X0060556Y0151697D01*
X0112181Y0115742D02*
X0112949Y0115742D01*
X0112949Y0114543D02*
X0112181Y0114543D01*
X0112181Y0113345D02*
X0112949Y0113345D01*
X0112949Y0112146D02*
X0112181Y0112146D01*
X0112181Y0109749D02*
X0112949Y0109749D01*
X0112949Y0108551D02*
X0112181Y0108551D01*
X0112181Y0107352D02*
X0112949Y0107352D01*
X0115877Y0107352D02*
X0118967Y0107352D01*
X0117946Y0108551D02*
X0116908Y0108551D01*
X0117440Y0109749D02*
X0117450Y0109749D01*
X0117221Y0113345D02*
X0117696Y0113345D01*
X0118363Y0114543D02*
X0116476Y0114543D01*
X0114983Y0115742D02*
X0119561Y0115742D01*
X0120165Y0104955D02*
X0060556Y0104955D01*
X0060556Y0103757D02*
X0120165Y0103757D01*
X0120165Y0102558D02*
X0060556Y0102558D01*
X0060556Y0101360D02*
X0120165Y0101360D01*
X0120165Y0100161D02*
X0060556Y0100161D01*
X0060556Y0098963D02*
X0120165Y0098963D01*
X0120165Y0097764D02*
X0060556Y0097764D01*
X0060556Y0096566D02*
X0120165Y0096566D01*
X0120165Y0095367D02*
X0060606Y0095367D01*
X0060918Y0094169D02*
X0120165Y0094169D01*
X0120165Y0092970D02*
X0061419Y0092970D01*
X0062289Y0091772D02*
X0120165Y0091772D01*
X0120165Y0090573D02*
X0063931Y0090573D01*
X0093494Y0089375D02*
X0120165Y0089375D01*
X0120165Y0088176D02*
X0095809Y0088176D01*
X0097326Y0086977D02*
X0120165Y0086977D01*
X0120165Y0085779D02*
X0098197Y0085779D01*
X0098979Y0084703D02*
X0098979Y0084703D01*
X0099019Y0084580D02*
X0120165Y0084580D01*
X0120165Y0083382D02*
X0099408Y0083382D01*
X0099798Y0082183D02*
X0120165Y0082183D01*
X0120165Y0080985D02*
X0099926Y0080985D01*
X0099926Y0079786D02*
X0120165Y0079786D01*
X0120165Y0078588D02*
X0112093Y0078588D01*
X0112110Y0078581D02*
X0109423Y0079694D01*
X0106514Y0079694D01*
X0103827Y0078581D01*
X0101770Y0076524D01*
X0100657Y0073836D01*
X0100657Y0070927D01*
X0101770Y0068240D01*
X0103827Y0066183D01*
X0106514Y0065070D01*
X0109423Y0065070D01*
X0112110Y0066183D01*
X0114167Y0068240D01*
X0115280Y0070927D01*
X0115280Y0073836D01*
X0114167Y0076524D01*
X0112110Y0078581D01*
X0113301Y0077389D02*
X0120165Y0077389D01*
X0120165Y0076191D02*
X0114305Y0076191D01*
X0114801Y0074992D02*
X0120165Y0074992D01*
X0120165Y0073794D02*
X0115280Y0073794D01*
X0115280Y0072595D02*
X0120165Y0072595D01*
X0120677Y0071397D02*
X0115280Y0071397D01*
X0114978Y0070198D02*
X0121875Y0070198D01*
X0123074Y0069000D02*
X0114482Y0069000D01*
X0113728Y0067801D02*
X0124272Y0067801D01*
X0125471Y0066603D02*
X0112530Y0066603D01*
X0110230Y0065404D02*
X0126669Y0065404D01*
X0105707Y0065404D02*
X0100794Y0065404D01*
X0100291Y0066603D02*
X0103407Y0066603D01*
X0102209Y0067801D02*
X0099977Y0067801D01*
X0099926Y0069000D02*
X0101455Y0069000D01*
X0100959Y0070198D02*
X0099926Y0070198D01*
X0099926Y0071397D02*
X0100657Y0071397D01*
X0100657Y0072595D02*
X0099926Y0072595D01*
X0099926Y0073794D02*
X0100657Y0073794D01*
X0101136Y0074992D02*
X0099926Y0074992D01*
X0099926Y0076191D02*
X0101632Y0076191D01*
X0102636Y0077389D02*
X0099926Y0077389D01*
X0099926Y0078588D02*
X0103844Y0078588D01*
X0103321Y0063007D02*
X0407891Y0063007D01*
X0273074Y0156610D02*
X0265057Y0156610D01*
X0268431Y0159010D02*
X0228252Y0159010D01*
X0224965Y0162297D01*
X0224965Y0186507D01*
X0225567Y0186757D01*
X0227058Y0188248D01*
X0227565Y0189472D01*
X0228072Y0188248D01*
X0229563Y0186757D01*
X0230165Y0186507D01*
X0230165Y0171825D01*
X0230530Y0170943D01*
X0236023Y0165451D01*
X0236698Y0164776D01*
X0237580Y0164410D01*
X0268796Y0164410D01*
X0268952Y0164035D01*
X0270499Y0162488D01*
X0271313Y0162150D01*
X0270499Y0161813D01*
X0268952Y0160266D01*
X0268431Y0159010D01*
X0268877Y0160087D02*
X0227175Y0160087D01*
X0225977Y0161285D02*
X0269971Y0161285D01*
X0270508Y0162484D02*
X0224965Y0162484D01*
X0224965Y0163682D02*
X0269304Y0163682D01*
X0236593Y0164881D02*
X0224965Y0164881D01*
X0224965Y0166079D02*
X0235394Y0166079D01*
X0234196Y0167278D02*
X0224965Y0167278D01*
X0224965Y0168476D02*
X0232997Y0168476D01*
X0231799Y0169675D02*
X0224965Y0169675D01*
X0224965Y0170873D02*
X0230600Y0170873D01*
X0230165Y0172072D02*
X0224965Y0172072D01*
X0224965Y0173270D02*
X0230165Y0173270D01*
X0230165Y0174469D02*
X0224965Y0174469D01*
X0224965Y0175667D02*
X0230165Y0175667D01*
X0230165Y0176866D02*
X0224965Y0176866D01*
X0224965Y0178064D02*
X0230165Y0178064D01*
X0230165Y0179263D02*
X0224965Y0179263D01*
X0224965Y0180461D02*
X0230165Y0180461D01*
X0230165Y0181660D02*
X0224965Y0181660D01*
X0224965Y0182858D02*
X0230165Y0182858D01*
X0230165Y0184057D02*
X0224965Y0184057D01*
X0224965Y0185255D02*
X0230165Y0185255D01*
X0230165Y0186454D02*
X0224965Y0186454D01*
X0226463Y0187652D02*
X0228667Y0187652D01*
X0227822Y0188851D02*
X0227308Y0188851D01*
X0237310Y0193645D02*
X0244629Y0193645D01*
X0245827Y0192446D02*
X0237806Y0192446D01*
X0236467Y0194844D02*
X0243430Y0194844D01*
X0245263Y0221211D02*
X0162972Y0221211D01*
X0160243Y0221211D02*
X0159868Y0221211D01*
X0159868Y0221935D02*
X0159868Y0218750D01*
X0156880Y0218750D01*
X0156880Y0220545D01*
X0156989Y0220952D01*
X0157200Y0221317D01*
X0157498Y0221615D01*
X0157863Y0221826D01*
X0158270Y0221935D01*
X0159868Y0221935D01*
X0158984Y0223608D02*
X0242866Y0223608D01*
X0244064Y0222409D02*
X0146201Y0222409D01*
X0146658Y0223608D02*
X0153646Y0223608D01*
X0152940Y0224806D02*
X0146658Y0224806D01*
X0146658Y0226005D02*
X0152940Y0226005D01*
X0152940Y0227203D02*
X0146658Y0227203D01*
X0146658Y0228402D02*
X0152940Y0228402D01*
X0153193Y0229600D02*
X0146658Y0229600D01*
X0146516Y0230799D02*
X0240673Y0230799D01*
X0241989Y0229600D02*
X0159437Y0229600D01*
X0156315Y0226831D02*
X0243037Y0226831D01*
X0246757Y0223110D01*
X0271157Y0223110D01*
X0273657Y0225610D01*
X0273657Y0233937D01*
X0269327Y0235768D01*
X0268480Y0234921D01*
X0260715Y0234921D01*
X0257340Y0234394D02*
X0257003Y0234394D01*
X0257003Y0233196D02*
X0257340Y0233196D01*
X0257340Y0231997D02*
X0257003Y0231997D01*
X0253628Y0234921D02*
X0253628Y0228317D01*
X0253657Y0228287D01*
X0250253Y0231997D02*
X0249456Y0231997D01*
X0250253Y0233196D02*
X0248140Y0233196D01*
X0246824Y0234394D02*
X0250253Y0234394D01*
X0250253Y0235593D02*
X0245508Y0235593D01*
X0244192Y0236791D02*
X0250253Y0236791D01*
X0250253Y0237990D02*
X0101629Y0237990D01*
X0100758Y0236791D02*
X0105590Y0236791D01*
X0106514Y0237174D02*
X0103827Y0236061D01*
X0101770Y0234004D01*
X0100657Y0231317D01*
X0100657Y0228408D01*
X0101770Y0225720D01*
X0103827Y0223664D01*
X0106514Y0222550D01*
X0109423Y0222550D01*
X0112110Y0223664D01*
X0114167Y0225720D01*
X0115280Y0228408D01*
X0115280Y0231317D01*
X0114167Y0234004D01*
X0112110Y0236061D01*
X0109423Y0237174D01*
X0106514Y0237174D01*
X0103359Y0235593D02*
X0100275Y0235593D01*
X0099973Y0234394D02*
X0102160Y0234394D01*
X0101435Y0233196D02*
X0099926Y0233196D01*
X0099926Y0231997D02*
X0100939Y0231997D01*
X0100657Y0230799D02*
X0099926Y0230799D01*
X0099926Y0229600D02*
X0100657Y0229600D01*
X0100659Y0228402D02*
X0099926Y0228402D01*
X0099926Y0227203D02*
X0101156Y0227203D01*
X0101652Y0226005D02*
X0099926Y0226005D01*
X0099926Y0224806D02*
X0102684Y0224806D01*
X0103961Y0223608D02*
X0099926Y0223608D01*
X0111976Y0223608D02*
X0135972Y0223608D01*
X0135972Y0224806D02*
X0113253Y0224806D01*
X0114285Y0226005D02*
X0135972Y0226005D01*
X0135972Y0227203D02*
X0114781Y0227203D01*
X0115278Y0228402D02*
X0135972Y0228402D01*
X0135972Y0229600D02*
X0115280Y0229600D01*
X0115280Y0230799D02*
X0136113Y0230799D01*
X0137751Y0231997D02*
X0114998Y0231997D01*
X0114502Y0233196D02*
X0137954Y0233196D01*
X0138722Y0234394D02*
X0113777Y0234394D01*
X0112578Y0235593D02*
X0140068Y0235593D01*
X0141413Y0236791D02*
X0110347Y0236791D01*
X0103211Y0239188D02*
X0408001Y0239188D01*
X0409583Y0237990D02*
X0383586Y0237990D01*
X0384785Y0236791D02*
X0400866Y0236791D01*
X0398634Y0235593D02*
X0385983Y0235593D01*
X0386806Y0234394D02*
X0397436Y0234394D01*
X0396711Y0233196D02*
X0387057Y0233196D01*
X0405622Y0236791D02*
X0410454Y0236791D01*
X0410938Y0235593D02*
X0407854Y0235593D01*
X0409052Y0234394D02*
X0411240Y0234394D01*
X0411287Y0233196D02*
X0409777Y0233196D01*
X0410274Y0231997D02*
X0411287Y0231997D01*
X0411287Y0230799D02*
X0410556Y0230799D01*
X0410556Y0229600D02*
X0411287Y0229600D01*
X0411287Y0228402D02*
X0410553Y0228402D01*
X0410057Y0227203D02*
X0411287Y0227203D01*
X0411287Y0226005D02*
X0409561Y0226005D01*
X0408529Y0224806D02*
X0411287Y0224806D01*
X0411287Y0223608D02*
X0407251Y0223608D01*
X0444012Y0210424D02*
X0448958Y0210424D01*
X0422322Y0199638D02*
X0419633Y0199638D01*
X0420831Y0198439D02*
X0422757Y0198439D01*
X0422757Y0197241D02*
X0421425Y0197241D01*
X0421835Y0196042D02*
X0422757Y0196042D01*
X0422757Y0194844D02*
X0421835Y0194844D01*
X0421661Y0193645D02*
X0422757Y0193645D01*
X0422757Y0192446D02*
X0421165Y0192446D01*
X0420203Y0191248D02*
X0422757Y0191248D01*
X0422757Y0190049D02*
X0418897Y0190049D01*
X0420419Y0188851D02*
X0422757Y0188851D01*
X0422757Y0187652D02*
X0421254Y0187652D01*
X0421751Y0186454D02*
X0422757Y0186454D01*
X0422757Y0185255D02*
X0421835Y0185255D01*
X0421832Y0184057D02*
X0422757Y0184057D01*
X0422757Y0182858D02*
X0421335Y0182858D01*
X0420615Y0181660D02*
X0422757Y0181660D01*
X0422757Y0180461D02*
X0419369Y0180461D01*
X0420007Y0179263D02*
X0422757Y0179263D01*
X0412054Y0181660D02*
X0411419Y0181660D01*
X0401250Y0181660D02*
X0397833Y0181660D01*
X0403057Y0190010D02*
X0385557Y0190010D01*
X0380705Y0185157D01*
X0368905Y0185157D01*
X0368157Y0188710D02*
X0376857Y0188810D01*
X0382880Y0196388D01*
X0386080Y0196310D01*
X0387250Y0196841D01*
X0390624Y0197241D02*
X0390961Y0197241D01*
X0390961Y0198439D02*
X0390624Y0198439D01*
X0390624Y0199638D02*
X0390961Y0199638D01*
X0391849Y0200836D02*
X0389737Y0200836D01*
X0396823Y0200836D02*
X0421123Y0200836D01*
X0419925Y0202035D02*
X0373936Y0202035D01*
X0383766Y0193645D02*
X0383963Y0193645D01*
X0382813Y0192446D02*
X0401330Y0192446D01*
X0402044Y0193645D02*
X0397623Y0193645D01*
X0394336Y0196841D02*
X0414652Y0196841D01*
X0413037Y0199638D02*
X0397711Y0199638D01*
X0390961Y0196042D02*
X0390624Y0196042D01*
X0390624Y0194844D02*
X0390961Y0194844D01*
X0391049Y0193645D02*
X0390537Y0193645D01*
X0383401Y0191248D02*
X0381861Y0191248D01*
X0382203Y0190049D02*
X0380908Y0190049D01*
X0381004Y0188851D02*
X0379955Y0188851D01*
X0379806Y0187652D02*
X0379003Y0187652D01*
X0368157Y0188710D02*
X0362357Y0185610D01*
X0429557Y0185255D02*
X0450657Y0185255D01*
X0450657Y0184057D02*
X0429557Y0184057D01*
X0429557Y0182858D02*
X0450657Y0182858D01*
X0450657Y0181660D02*
X0429557Y0181660D01*
X0429557Y0180461D02*
X0450657Y0180461D01*
X0450657Y0179263D02*
X0429557Y0179263D01*
X0429557Y0178064D02*
X0450657Y0178064D01*
X0450657Y0176866D02*
X0429557Y0176866D01*
X0429557Y0175667D02*
X0450657Y0175667D01*
X0450657Y0174469D02*
X0429557Y0174469D01*
X0429557Y0173270D02*
X0450657Y0173270D01*
X0450657Y0172072D02*
X0429557Y0172072D01*
X0429557Y0186454D02*
X0450657Y0186454D01*
X0450657Y0187652D02*
X0429557Y0187652D01*
X0429557Y0188851D02*
X0450657Y0188851D01*
X0450657Y0190049D02*
X0429557Y0190049D01*
X0429557Y0191248D02*
X0450657Y0191248D01*
X0450657Y0192446D02*
X0429557Y0192446D01*
X0289842Y0226005D02*
X0281057Y0226005D01*
X0281057Y0227203D02*
X0289041Y0227203D01*
X0288545Y0228402D02*
X0281057Y0228402D01*
X0284956Y0229600D02*
X0288515Y0229600D01*
X0288605Y0230799D02*
X0286154Y0230799D01*
X0287353Y0231997D02*
X0289101Y0231997D01*
X0282530Y0236791D02*
X0273069Y0236791D01*
X0272898Y0237990D02*
X0283729Y0237990D01*
X0281332Y0235593D02*
X0275396Y0235593D01*
X0265755Y0237990D02*
X0264089Y0237990D01*
X0257340Y0237990D02*
X0257003Y0237990D01*
X0257003Y0236791D02*
X0257340Y0236791D01*
X0257340Y0235593D02*
X0257003Y0235593D01*
X0171108Y0219793D02*
X0166315Y0220000D01*
X0164878Y0218563D01*
X0160055Y0218563D01*
X0159868Y0218814D02*
X0160243Y0218814D01*
X0160243Y0220012D02*
X0159868Y0220012D01*
X0157139Y0221211D02*
X0155819Y0221211D01*
X0155950Y0220012D02*
X0156880Y0220012D01*
X0156880Y0218814D02*
X0155950Y0218814D01*
X0155950Y0217615D02*
X0156880Y0217615D01*
X0156924Y0216417D02*
X0155950Y0216417D01*
X0156128Y0226831D02*
X0156315Y0226831D01*
X0156467Y0194844D02*
X0158663Y0194844D01*
X0157820Y0193645D02*
X0157310Y0193645D01*
X0157308Y0188851D02*
X0157822Y0188851D01*
X0158667Y0187652D02*
X0156463Y0187652D01*
X0164965Y0088176D02*
X0174154Y0088176D01*
X0175516Y0086977D02*
X0164965Y0086977D01*
X0164965Y0085779D02*
X0176878Y0085779D01*
X0153657Y0073110D02*
X0151157Y0075610D01*
D22*
X0152565Y0111250D02*
X0152565Y0121250D01*
X0152407Y0121407D02*
X0152407Y0127067D01*
X0152407Y0134154D02*
X0142407Y0134154D01*
X0142407Y0127067D02*
X0142407Y0121407D01*
X0142565Y0121250D02*
X0142565Y0111250D01*
X0162565Y0111250D02*
X0162565Y0121250D01*
X0163657Y0122343D02*
X0163657Y0127067D01*
X0163657Y0134154D02*
X0152407Y0134154D01*
X0163657Y0134154D02*
X0173657Y0134154D01*
X0201457Y0134154D01*
X0202565Y0133046D01*
X0202565Y0111250D01*
X0183657Y0112343D02*
X0183657Y0120767D01*
X0173657Y0122343D02*
X0173657Y0127067D01*
X0172565Y0121250D02*
X0172565Y0111250D01*
X0201457Y0134154D02*
X0210298Y0134154D01*
X0210591Y0133861D01*
X0273614Y0147150D02*
X0277211Y0148267D01*
X0296957Y0148267D01*
X0309557Y0148267D01*
X0320257Y0153010D02*
X0320257Y0156410D01*
X0320257Y0153010D02*
X0322057Y0151210D01*
X0323257Y0151210D01*
X0329257Y0151210D01*
X0329582Y0150886D02*
X0335625Y0150886D01*
X0329582Y0150886D02*
X0329582Y0147086D01*
X0323257Y0147086D02*
X0323257Y0151210D01*
X0326432Y0142985D02*
X0325057Y0141610D01*
X0320857Y0141610D01*
X0320257Y0142210D01*
X0309557Y0155354D02*
X0309557Y0166810D01*
X0273954Y0166810D01*
X0273614Y0167150D01*
X0272596Y0166810D01*
X0273614Y0157150D02*
X0273074Y0156610D01*
X0352057Y0140967D02*
X0353614Y0139410D01*
X0419857Y0139410D01*
X0422357Y0136910D01*
X0422357Y0123110D01*
X0421413Y0122165D01*
X0416335Y0122165D01*
X0406335Y0127165D02*
X0405213Y0127165D01*
X0403657Y0128110D01*
X0412890Y0133110D02*
X0393101Y0133210D01*
X0412890Y0133110D02*
X0416335Y0132165D01*
X0406945Y0150817D02*
X0393864Y0150817D01*
X0393657Y0150610D01*
X0390114Y0153907D01*
X0381157Y0179310D02*
X0369101Y0179310D01*
X0381157Y0179310D02*
X0386157Y0183110D01*
X0395606Y0183110D01*
X0397654Y0185157D01*
X0403057Y0190010D02*
X0404110Y0190157D01*
X0406335Y0190157D01*
X0414652Y0196841D02*
X0416335Y0195157D01*
X0361157Y0225610D02*
X0358657Y0223110D01*
X0338657Y0223110D01*
X0337053Y0224715D01*
X0361157Y0225610D02*
X0361157Y0228937D01*
X0152575Y0218563D02*
X0152575Y0216240D01*
X0152515Y0215500D01*
X0152515Y0192300D01*
X0152565Y0191050D01*
X0152565Y0178543D01*
X0152565Y0191050D02*
X0152565Y0191250D01*
X0274857Y0080610D02*
X0274907Y0080610D01*
X0321157Y0080610D02*
X0321157Y0078110D01*
D23*
X0348357Y0072110D02*
X0235757Y0072110D01*
X0228757Y0073110D01*
X0153657Y0073110D01*
X0162565Y0121250D02*
X0163657Y0122343D01*
X0172565Y0121250D02*
X0173657Y0122343D01*
X0152565Y0167350D02*
X0152565Y0171457D01*
X0273614Y0157150D02*
X0275296Y0156610D01*
X0314257Y0148267D02*
X0314857Y0148867D01*
X0320133Y0147086D02*
X0320257Y0146961D01*
X0323257Y0147086D02*
X0323283Y0147086D01*
X0329257Y0151210D02*
X0329582Y0150886D01*
X0320257Y0156410D02*
X0320133Y0156535D01*
X0366157Y0153110D02*
X0366157Y0182410D01*
X0368905Y0185157D01*
X0397654Y0185157D02*
X0416335Y0185157D01*
X0278657Y0230965D02*
X0277594Y0232028D01*
X0351157Y0074910D02*
X0348357Y0072110D01*
D24*
X0426157Y0150610D02*
X0426157Y0175610D01*
X0425705Y0175157D01*
X0416335Y0175157D01*
X0426157Y0175610D02*
X0426157Y0200610D01*
X0421157Y0205610D01*
X0386157Y0205610D01*
X0383657Y0208110D01*
X0383657Y0215610D01*
X0383657Y0233110D01*
X0381157Y0235610D01*
X0351157Y0235610D01*
X0350902Y0235354D01*
X0350902Y0229350D01*
X0351157Y0235610D02*
X0336157Y0235610D01*
X0293657Y0235610D01*
X0293815Y0235453D01*
X0293815Y0229528D01*
X0286157Y0235610D02*
X0282575Y0232028D01*
X0277594Y0232028D01*
X0269327Y0228287D02*
X0253657Y0228287D01*
X0248480Y0228287D01*
X0241757Y0234410D01*
X0143963Y0234510D01*
X0141157Y0232010D01*
X0141157Y0226919D01*
X0141315Y0226762D01*
X0141315Y0215738D02*
X0141315Y0210453D01*
X0142457Y0206810D01*
X0142457Y0193543D01*
X0142565Y0191250D01*
X0142657Y0191157D02*
X0142657Y0162110D01*
X0136157Y0155610D01*
X0081157Y0155610D01*
X0286157Y0235610D02*
X0293657Y0235610D01*
D25*
X0426157Y0150610D02*
X0426157Y0115610D01*
X0422713Y0112165D01*
X0416335Y0112165D01*
X0273614Y0147150D02*
X0272665Y0146201D01*
X0101048Y0146201D01*
X0092257Y0137410D01*
X0092257Y0111557D01*
D26*
X0092565Y0111250D01*
X0142657Y0191157D02*
X0142565Y0191250D01*
M02*
