G75*
%MOIN*%
%OFA0B0*%
%FSLAX25Y25*%
%IPPOS*%
%LPD*%
%AMOC8*
5,1,8,0,0,1.08239X$1,22.5*
%
%ADD10C,0.00600*%
%ADD11C,0.01700*%
%ADD12C,0.04000*%
%ADD13C,0.00800*%
%ADD14C,0.01100*%
%ADD15C,0.01400*%
%ADD16C,0.00000*%
%ADD17C,0.00500*%
%ADD18C,0.00400*%
D10*
X0279972Y0135877D02*
X0279972Y0138146D01*
X0280539Y0138713D01*
X0282241Y0138713D01*
X0282241Y0135310D01*
X0280539Y0135310D01*
X0279972Y0135877D01*
X0283655Y0135310D02*
X0283655Y0138713D01*
X0285924Y0138713D02*
X0283655Y0135310D01*
X0285924Y0135310D02*
X0285924Y0138713D01*
X0287338Y0138146D02*
X0287905Y0138713D01*
X0289040Y0138713D01*
X0289607Y0138146D01*
X0289607Y0135877D01*
X0289040Y0135310D01*
X0287905Y0135310D01*
X0287338Y0135877D01*
X0287338Y0137012D01*
X0288473Y0137012D01*
X0289040Y0145310D02*
X0289607Y0145877D01*
X0289040Y0145310D02*
X0287905Y0145310D01*
X0287338Y0145877D01*
X0287338Y0146445D01*
X0287905Y0147012D01*
X0288473Y0147012D01*
X0287905Y0147012D02*
X0287338Y0147579D01*
X0287338Y0148146D01*
X0287905Y0148713D01*
X0289040Y0148713D01*
X0289607Y0148146D01*
X0285924Y0147579D02*
X0284789Y0145310D01*
X0283655Y0147579D01*
X0282241Y0148146D02*
X0281673Y0148713D01*
X0280539Y0148713D01*
X0279972Y0148146D01*
X0279972Y0147579D01*
X0280539Y0147012D01*
X0279972Y0146445D01*
X0279972Y0145877D01*
X0280539Y0145310D01*
X0281673Y0145310D01*
X0282241Y0145877D01*
X0281106Y0147012D02*
X0280539Y0147012D01*
X0279972Y0155310D02*
X0282241Y0155310D01*
X0282241Y0158713D01*
X0283655Y0158146D02*
X0284222Y0158713D01*
X0285357Y0158713D01*
X0285924Y0158146D01*
X0285924Y0155877D01*
X0285357Y0155310D01*
X0284222Y0155310D01*
X0283655Y0155877D01*
X0287338Y0155877D02*
X0287905Y0155310D01*
X0289040Y0155310D01*
X0289607Y0155877D01*
X0289040Y0157012D02*
X0287905Y0157012D01*
X0287338Y0156445D01*
X0287338Y0155877D01*
X0289040Y0157012D02*
X0289607Y0157579D01*
X0289607Y0158146D01*
X0289040Y0158713D01*
X0287905Y0158713D01*
X0287338Y0158146D01*
X0287905Y0165310D02*
X0289040Y0165310D01*
X0289607Y0165877D01*
X0289040Y0167012D02*
X0289607Y0167579D01*
X0289607Y0168146D01*
X0289040Y0168713D01*
X0287905Y0168713D01*
X0287338Y0168146D01*
X0287905Y0167012D02*
X0287338Y0166445D01*
X0287338Y0165877D01*
X0287905Y0165310D01*
X0287905Y0167012D02*
X0289040Y0167012D01*
X0285924Y0168713D02*
X0285924Y0165310D01*
X0284222Y0165310D01*
X0283655Y0165877D01*
X0283655Y0168146D01*
X0284222Y0168713D01*
X0285924Y0168713D01*
X0282241Y0167579D02*
X0282241Y0165310D01*
X0282241Y0167012D02*
X0279972Y0167012D01*
X0279972Y0167579D02*
X0279972Y0165310D01*
X0279972Y0167579D02*
X0281106Y0168713D01*
X0282241Y0167579D01*
X0312357Y0204522D02*
X0315760Y0204522D01*
X0315760Y0206224D01*
X0315193Y0206791D01*
X0314059Y0206791D01*
X0313492Y0206224D01*
X0313492Y0204522D01*
X0312925Y0208205D02*
X0312357Y0208773D01*
X0312357Y0210474D01*
X0314626Y0210474D01*
X0315760Y0211889D02*
X0315760Y0212456D01*
X0312357Y0212456D01*
X0312357Y0211889D02*
X0312357Y0213023D01*
X0312357Y0214344D02*
X0312357Y0216045D01*
X0312925Y0216613D01*
X0313492Y0216045D01*
X0313492Y0214911D01*
X0314059Y0214344D01*
X0314626Y0214911D01*
X0314626Y0216613D01*
X0314059Y0218027D02*
X0314626Y0218594D01*
X0314626Y0219729D01*
X0314059Y0220296D01*
X0313492Y0220296D01*
X0313492Y0218027D01*
X0312925Y0218027D02*
X0314059Y0218027D01*
X0312925Y0218027D02*
X0312357Y0218594D01*
X0312357Y0219729D01*
X0304360Y0219729D02*
X0304360Y0218027D01*
X0300957Y0218027D01*
X0300957Y0219729D01*
X0301525Y0220296D01*
X0303793Y0220296D01*
X0304360Y0219729D01*
X0304360Y0216613D02*
X0300957Y0216613D01*
X0304360Y0214344D01*
X0300957Y0214344D01*
X0301525Y0212929D02*
X0302659Y0212929D01*
X0302659Y0211795D01*
X0303793Y0210661D02*
X0304360Y0211228D01*
X0304360Y0212362D01*
X0303793Y0212929D01*
X0303793Y0210661D02*
X0301525Y0210661D01*
X0300957Y0211228D01*
X0300957Y0212362D01*
X0301525Y0212929D01*
X0294760Y0214344D02*
X0294760Y0216613D01*
X0293626Y0216045D02*
X0293059Y0216613D01*
X0291925Y0216613D01*
X0291357Y0216045D01*
X0291357Y0214911D01*
X0291925Y0214344D01*
X0293059Y0214344D02*
X0293626Y0215478D01*
X0293626Y0216045D01*
X0293059Y0214344D02*
X0294760Y0214344D01*
X0294760Y0218027D02*
X0292492Y0218027D01*
X0291357Y0219161D01*
X0292492Y0220296D01*
X0294760Y0220296D01*
X0312925Y0208205D02*
X0314626Y0208205D01*
X0349457Y0214911D02*
X0350025Y0214344D01*
X0349457Y0214911D02*
X0349457Y0216045D01*
X0350025Y0216613D01*
X0351159Y0216613D01*
X0351726Y0216045D01*
X0351726Y0215478D01*
X0351159Y0214344D01*
X0352860Y0214344D01*
X0352860Y0216613D01*
X0352860Y0218027D02*
X0350592Y0218027D01*
X0349457Y0219161D01*
X0350592Y0220296D01*
X0352860Y0220296D01*
X0359057Y0219729D02*
X0359057Y0218027D01*
X0362460Y0218027D01*
X0362460Y0219729D01*
X0361893Y0220296D01*
X0359625Y0220296D01*
X0359057Y0219729D01*
X0359057Y0216613D02*
X0362460Y0216613D01*
X0362460Y0214344D02*
X0359057Y0214344D01*
X0359625Y0212929D02*
X0360759Y0212929D01*
X0360759Y0211795D01*
X0361893Y0210661D02*
X0359625Y0210661D01*
X0359057Y0211228D01*
X0359057Y0212362D01*
X0359625Y0212929D01*
X0361893Y0212929D02*
X0362460Y0212362D01*
X0362460Y0211228D01*
X0361893Y0210661D01*
X0369957Y0210474D02*
X0372226Y0210474D01*
X0373360Y0211889D02*
X0373360Y0212456D01*
X0369957Y0212456D01*
X0369957Y0211889D02*
X0369957Y0213023D01*
X0369957Y0214344D02*
X0369957Y0216045D01*
X0370525Y0216613D01*
X0371092Y0216045D01*
X0371092Y0214911D01*
X0371659Y0214344D01*
X0372226Y0214911D01*
X0372226Y0216613D01*
X0371659Y0218027D02*
X0372226Y0218594D01*
X0372226Y0219729D01*
X0371659Y0220296D01*
X0371092Y0220296D01*
X0371092Y0218027D01*
X0370525Y0218027D02*
X0371659Y0218027D01*
X0370525Y0218027D02*
X0369957Y0218594D01*
X0369957Y0219729D01*
X0362460Y0214344D02*
X0359057Y0216613D01*
X0369957Y0210474D02*
X0369957Y0208773D01*
X0370525Y0208205D01*
X0372226Y0208205D01*
X0371659Y0206791D02*
X0371092Y0206224D01*
X0371092Y0204522D01*
X0369957Y0204522D02*
X0373360Y0204522D01*
X0373360Y0206224D01*
X0372793Y0206791D01*
X0371659Y0206791D01*
D11*
X0214076Y0089607D02*
X0214076Y0088456D01*
X0214076Y0086154D02*
X0214076Y0081550D01*
X0215227Y0081550D02*
X0212925Y0081550D01*
X0209948Y0081550D02*
X0209948Y0086154D01*
X0206495Y0086154D01*
X0205344Y0085003D01*
X0205344Y0081550D01*
X0202030Y0082701D02*
X0200879Y0081550D01*
X0197426Y0081550D01*
X0197426Y0080399D02*
X0197426Y0086154D01*
X0200879Y0086154D01*
X0202030Y0085003D01*
X0202030Y0082701D01*
X0199728Y0079248D02*
X0198577Y0079248D01*
X0197426Y0080399D01*
X0194111Y0082701D02*
X0192960Y0081550D01*
X0189507Y0081550D01*
X0189507Y0080399D02*
X0190658Y0079248D01*
X0191809Y0079248D01*
X0189507Y0080399D02*
X0189507Y0086154D01*
X0186192Y0086154D02*
X0186192Y0087305D01*
X0185041Y0088456D01*
X0182739Y0088456D01*
X0181588Y0087305D01*
X0182739Y0085003D02*
X0181588Y0083852D01*
X0181588Y0082701D01*
X0182739Y0081550D01*
X0185041Y0081550D01*
X0186192Y0082701D01*
X0185041Y0085003D02*
X0182739Y0085003D01*
X0185041Y0085003D02*
X0186192Y0086154D01*
X0194111Y0086154D02*
X0194111Y0082701D01*
X0178273Y0086154D02*
X0175971Y0086154D01*
X0177122Y0087305D02*
X0177122Y0082701D01*
X0175971Y0081550D01*
X0172994Y0081550D02*
X0170692Y0081550D01*
X0171843Y0081550D02*
X0171843Y0086154D01*
X0172994Y0086154D01*
X0171843Y0088456D02*
X0171843Y0089607D01*
X0167715Y0085003D02*
X0166564Y0086154D01*
X0163111Y0086154D01*
X0159796Y0088456D02*
X0159796Y0081550D01*
X0159796Y0083852D02*
X0156343Y0081550D01*
X0153197Y0081550D02*
X0149744Y0081550D01*
X0148593Y0082701D01*
X0149744Y0083852D01*
X0152046Y0083852D01*
X0153197Y0085003D01*
X0152046Y0086154D01*
X0148593Y0086154D01*
X0145278Y0082701D02*
X0144127Y0082701D01*
X0144127Y0081550D01*
X0145278Y0081550D01*
X0145278Y0082701D01*
X0141319Y0082701D02*
X0141319Y0085003D01*
X0140168Y0086154D01*
X0136715Y0086154D01*
X0133400Y0085003D02*
X0133400Y0082701D01*
X0132249Y0081550D01*
X0129947Y0081550D01*
X0128796Y0082701D01*
X0128796Y0085003D01*
X0129947Y0086154D01*
X0132249Y0086154D01*
X0133400Y0085003D01*
X0136715Y0081550D02*
X0140168Y0081550D01*
X0141319Y0082701D01*
X0156343Y0086154D02*
X0159796Y0083852D01*
X0163111Y0081550D02*
X0166564Y0081550D01*
X0167715Y0082701D01*
X0167715Y0085003D01*
X0125481Y0086154D02*
X0125481Y0081550D01*
X0123180Y0081550D02*
X0123180Y0085003D01*
X0122029Y0086154D01*
X0120878Y0085003D01*
X0120878Y0081550D01*
X0123180Y0085003D02*
X0124331Y0086154D01*
X0125481Y0086154D01*
X0214076Y0086154D02*
X0215227Y0086154D01*
X0218542Y0085003D02*
X0218542Y0081550D01*
X0218542Y0085003D02*
X0219693Y0086154D01*
X0221995Y0086154D01*
X0223146Y0085003D01*
X0223146Y0088456D02*
X0223146Y0081550D01*
X0228763Y0081550D02*
X0228763Y0088456D01*
X0231065Y0088456D02*
X0226461Y0088456D01*
D12*
X0428315Y0117169D02*
X0430984Y0114500D01*
X0428315Y0117169D02*
X0428315Y0122507D01*
X0430984Y0125176D01*
X0433653Y0125176D01*
X0436322Y0122507D01*
X0436322Y0119838D01*
X0436322Y0122507D02*
X0438991Y0125176D01*
X0441660Y0125176D01*
X0444329Y0122507D01*
X0444329Y0117169D01*
X0441660Y0114500D01*
X0436322Y0177000D02*
X0436322Y0187676D01*
X0444329Y0185007D02*
X0436322Y0177000D01*
X0428315Y0185007D02*
X0444329Y0185007D01*
D13*
X0398257Y0184578D02*
X0396656Y0184578D01*
X0396122Y0185112D01*
X0396122Y0186179D01*
X0396656Y0186713D01*
X0398257Y0186713D01*
X0398257Y0183510D01*
X0397724Y0181713D02*
X0398257Y0181179D01*
X0398257Y0179044D01*
X0397724Y0178510D01*
X0396656Y0178510D01*
X0396122Y0179044D01*
X0396122Y0180112D01*
X0397190Y0180112D01*
X0396122Y0181179D02*
X0396656Y0181713D01*
X0397724Y0181713D01*
X0394574Y0181713D02*
X0392439Y0178510D01*
X0392439Y0181713D01*
X0390891Y0181713D02*
X0389290Y0181713D01*
X0388756Y0181179D01*
X0388756Y0179044D01*
X0389290Y0178510D01*
X0390891Y0178510D01*
X0390891Y0181713D01*
X0390891Y0183510D02*
X0389824Y0183510D01*
X0390357Y0183510D02*
X0390357Y0186713D01*
X0390891Y0186713D01*
X0390891Y0188510D02*
X0390891Y0190645D01*
X0390357Y0190645D01*
X0389824Y0190112D01*
X0389290Y0190645D01*
X0388756Y0190112D01*
X0388756Y0188510D01*
X0389824Y0188510D02*
X0389824Y0190112D01*
X0392439Y0190112D02*
X0392439Y0189578D01*
X0394574Y0189578D01*
X0394574Y0190112D02*
X0394041Y0190645D01*
X0392973Y0190645D01*
X0392439Y0190112D01*
X0392973Y0188510D02*
X0394041Y0188510D01*
X0394574Y0189044D01*
X0394574Y0190112D01*
X0396122Y0191713D02*
X0398257Y0191713D01*
X0397190Y0191713D02*
X0397190Y0188510D01*
X0394574Y0185645D02*
X0394574Y0184044D01*
X0394041Y0183510D01*
X0392439Y0183510D01*
X0392439Y0185645D01*
X0388436Y0185112D02*
X0387902Y0185645D01*
X0386301Y0185645D01*
X0386834Y0184578D02*
X0387902Y0184578D01*
X0388436Y0185112D01*
X0388436Y0183510D02*
X0386834Y0183510D01*
X0386301Y0184044D01*
X0386834Y0184578D01*
X0384753Y0184578D02*
X0382617Y0184578D01*
X0382617Y0185112D01*
X0383151Y0185645D01*
X0384219Y0185645D01*
X0384753Y0185112D01*
X0384753Y0184044D01*
X0384219Y0183510D01*
X0383151Y0183510D01*
X0382991Y0188510D02*
X0383525Y0189044D01*
X0383525Y0190112D01*
X0382991Y0190645D01*
X0381924Y0190645D01*
X0381390Y0190112D01*
X0381390Y0189578D01*
X0383525Y0189578D01*
X0382991Y0188510D02*
X0381924Y0188510D01*
X0379842Y0188510D02*
X0379842Y0190645D01*
X0379842Y0189578D02*
X0378774Y0190645D01*
X0378240Y0190645D01*
X0376239Y0190645D02*
X0375171Y0190645D01*
X0374637Y0190112D01*
X0374637Y0188510D01*
X0376239Y0188510D01*
X0376772Y0189044D01*
X0376239Y0189578D01*
X0374637Y0189578D01*
X0373089Y0190645D02*
X0372022Y0190645D01*
X0372556Y0191179D02*
X0372556Y0189044D01*
X0372022Y0188510D01*
X0370634Y0189044D02*
X0370100Y0188510D01*
X0368499Y0188510D01*
X0368499Y0190645D01*
X0366951Y0190645D02*
X0366951Y0188510D01*
X0366951Y0189578D02*
X0365883Y0190645D01*
X0365349Y0190645D01*
X0363881Y0190112D02*
X0363348Y0190645D01*
X0362280Y0190645D01*
X0361746Y0190112D01*
X0361746Y0189578D01*
X0363881Y0189578D01*
X0363881Y0189044D02*
X0363881Y0190112D01*
X0363881Y0189044D02*
X0363348Y0188510D01*
X0362280Y0188510D01*
X0370634Y0189044D02*
X0370634Y0190645D01*
X0385073Y0190112D02*
X0385073Y0189044D01*
X0385607Y0188510D01*
X0387208Y0188510D01*
X0387208Y0187443D02*
X0387208Y0190645D01*
X0385607Y0190645D01*
X0385073Y0190112D01*
X0388756Y0194044D02*
X0388756Y0196179D01*
X0389290Y0196713D01*
X0390891Y0196713D01*
X0390891Y0193510D01*
X0389290Y0193510D01*
X0388756Y0194044D01*
X0392439Y0193510D02*
X0394574Y0193510D01*
X0394574Y0196713D01*
X0392439Y0196713D01*
X0393507Y0195112D02*
X0394574Y0195112D01*
X0396122Y0193510D02*
X0398257Y0193510D01*
X0398257Y0196713D01*
X0394574Y0181713D02*
X0394574Y0178510D01*
X0394574Y0176713D02*
X0394574Y0175112D01*
X0393507Y0175645D01*
X0392973Y0175645D01*
X0392439Y0175112D01*
X0392439Y0174044D01*
X0392973Y0173510D01*
X0394041Y0173510D01*
X0394574Y0174044D01*
X0396122Y0175112D02*
X0398257Y0175112D01*
X0397190Y0176179D02*
X0397190Y0174044D01*
X0398257Y0171713D02*
X0398257Y0168510D01*
X0396122Y0168510D01*
X0394574Y0169044D02*
X0394574Y0170112D01*
X0394041Y0170645D01*
X0392973Y0170645D01*
X0392439Y0170112D01*
X0392439Y0169578D01*
X0394574Y0169578D01*
X0394574Y0169044D02*
X0394041Y0168510D01*
X0392973Y0168510D01*
X0390891Y0169044D02*
X0390357Y0169578D01*
X0388756Y0169578D01*
X0388756Y0170112D02*
X0388756Y0168510D01*
X0390357Y0168510D01*
X0390891Y0169044D01*
X0390357Y0170645D02*
X0389290Y0170645D01*
X0388756Y0170112D01*
X0387208Y0169578D02*
X0385607Y0170645D01*
X0387208Y0169578D02*
X0385607Y0168510D01*
X0387208Y0168510D02*
X0387208Y0171713D01*
X0389824Y0173510D02*
X0388756Y0174578D01*
X0388756Y0176713D01*
X0390891Y0176713D02*
X0390891Y0174578D01*
X0389824Y0173510D01*
X0392439Y0176713D02*
X0394574Y0176713D01*
X0394574Y0134213D02*
X0394574Y0131010D01*
X0392439Y0131010D01*
X0390891Y0131010D02*
X0389290Y0131010D01*
X0388756Y0131544D01*
X0388756Y0133679D01*
X0389290Y0134213D01*
X0390891Y0134213D01*
X0390891Y0131010D01*
X0390891Y0128145D02*
X0390357Y0128145D01*
X0389824Y0127612D01*
X0389290Y0128145D01*
X0388756Y0127612D01*
X0388756Y0126010D01*
X0389824Y0126010D02*
X0389824Y0127612D01*
X0390891Y0128145D02*
X0390891Y0126010D01*
X0390891Y0124213D02*
X0390357Y0124213D01*
X0390357Y0121010D01*
X0389824Y0121010D02*
X0390891Y0121010D01*
X0392439Y0121010D02*
X0392439Y0123145D01*
X0392439Y0121010D02*
X0394041Y0121010D01*
X0394574Y0121544D01*
X0394574Y0123145D01*
X0396122Y0122612D02*
X0396656Y0122078D01*
X0398257Y0122078D01*
X0398257Y0121010D02*
X0398257Y0124213D01*
X0396656Y0124213D01*
X0396122Y0123679D01*
X0396122Y0122612D01*
X0396656Y0119213D02*
X0397724Y0119213D01*
X0398257Y0118679D01*
X0398257Y0116544D01*
X0397724Y0116010D01*
X0396656Y0116010D01*
X0396122Y0116544D01*
X0396122Y0117612D01*
X0397190Y0117612D01*
X0396122Y0118679D02*
X0396656Y0119213D01*
X0394574Y0119213D02*
X0392439Y0116010D01*
X0392439Y0119213D01*
X0390891Y0119213D02*
X0389290Y0119213D01*
X0388756Y0118679D01*
X0388756Y0116544D01*
X0389290Y0116010D01*
X0390891Y0116010D01*
X0390891Y0119213D01*
X0388436Y0121010D02*
X0386834Y0121010D01*
X0386301Y0121544D01*
X0386834Y0122078D01*
X0387902Y0122078D01*
X0388436Y0122612D01*
X0387902Y0123145D01*
X0386301Y0123145D01*
X0384753Y0122612D02*
X0384219Y0123145D01*
X0383151Y0123145D01*
X0382617Y0122612D01*
X0382617Y0122078D01*
X0384753Y0122078D01*
X0384753Y0121544D02*
X0384753Y0122612D01*
X0384753Y0121544D02*
X0384219Y0121010D01*
X0383151Y0121010D01*
X0382991Y0126010D02*
X0383525Y0126544D01*
X0383525Y0127612D01*
X0382991Y0128145D01*
X0381924Y0128145D01*
X0381390Y0127612D01*
X0381390Y0127078D01*
X0383525Y0127078D01*
X0382991Y0126010D02*
X0381924Y0126010D01*
X0379842Y0126010D02*
X0379842Y0128145D01*
X0379842Y0127078D02*
X0378774Y0128145D01*
X0378240Y0128145D01*
X0376239Y0128145D02*
X0375171Y0128145D01*
X0374637Y0127612D01*
X0374637Y0126010D01*
X0376239Y0126010D01*
X0376772Y0126544D01*
X0376239Y0127078D01*
X0374637Y0127078D01*
X0373089Y0128145D02*
X0372022Y0128145D01*
X0372556Y0128679D02*
X0372556Y0126544D01*
X0372022Y0126010D01*
X0370634Y0126544D02*
X0370100Y0126010D01*
X0368499Y0126010D01*
X0368499Y0128145D01*
X0366951Y0128145D02*
X0366951Y0126010D01*
X0366951Y0127078D02*
X0365883Y0128145D01*
X0365349Y0128145D01*
X0363881Y0127612D02*
X0363348Y0128145D01*
X0362280Y0128145D01*
X0361746Y0127612D01*
X0361746Y0127078D01*
X0363881Y0127078D01*
X0363881Y0126544D02*
X0363881Y0127612D01*
X0363881Y0126544D02*
X0363348Y0126010D01*
X0362280Y0126010D01*
X0370634Y0126544D02*
X0370634Y0128145D01*
X0385073Y0127612D02*
X0385073Y0126544D01*
X0385607Y0126010D01*
X0387208Y0126010D01*
X0387208Y0124943D02*
X0387208Y0128145D01*
X0385607Y0128145D01*
X0385073Y0127612D01*
X0392439Y0127612D02*
X0392439Y0127078D01*
X0394574Y0127078D01*
X0394574Y0127612D02*
X0394041Y0128145D01*
X0392973Y0128145D01*
X0392439Y0127612D01*
X0392973Y0126010D02*
X0394041Y0126010D01*
X0394574Y0126544D01*
X0394574Y0127612D01*
X0396122Y0129213D02*
X0398257Y0129213D01*
X0397190Y0129213D02*
X0397190Y0126010D01*
X0398257Y0131010D02*
X0396122Y0131010D01*
X0398257Y0131010D02*
X0398257Y0134213D01*
X0394574Y0134213D02*
X0392439Y0134213D01*
X0393507Y0132612D02*
X0394574Y0132612D01*
X0394574Y0119213D02*
X0394574Y0116010D01*
X0394574Y0114213D02*
X0394574Y0112612D01*
X0393507Y0113145D01*
X0392973Y0113145D01*
X0392439Y0112612D01*
X0392439Y0111544D01*
X0392973Y0111010D01*
X0394041Y0111010D01*
X0394574Y0111544D01*
X0396122Y0112612D02*
X0398257Y0112612D01*
X0397190Y0113679D02*
X0397190Y0111544D01*
X0398257Y0109213D02*
X0398257Y0106010D01*
X0396122Y0106010D01*
X0394574Y0106544D02*
X0394574Y0107612D01*
X0394041Y0108145D01*
X0392973Y0108145D01*
X0392439Y0107612D01*
X0392439Y0107078D01*
X0394574Y0107078D01*
X0394574Y0106544D02*
X0394041Y0106010D01*
X0392973Y0106010D01*
X0390891Y0106544D02*
X0390357Y0107078D01*
X0388756Y0107078D01*
X0388756Y0107612D02*
X0388756Y0106010D01*
X0390357Y0106010D01*
X0390891Y0106544D01*
X0390357Y0108145D02*
X0389290Y0108145D01*
X0388756Y0107612D01*
X0387208Y0107078D02*
X0385607Y0108145D01*
X0387208Y0107078D02*
X0385607Y0106010D01*
X0387208Y0106010D02*
X0387208Y0109213D01*
X0389824Y0111010D02*
X0388756Y0112078D01*
X0388756Y0114213D01*
X0390891Y0114213D02*
X0390891Y0112078D01*
X0389824Y0111010D01*
X0392439Y0114213D02*
X0394574Y0114213D01*
X0115757Y0144211D02*
X0115057Y0143510D01*
X0113656Y0143510D01*
X0112955Y0144211D01*
X0112955Y0145612D01*
X0114356Y0145612D01*
X0112955Y0147013D02*
X0113656Y0147714D01*
X0115057Y0147714D01*
X0115757Y0147013D01*
X0115757Y0144211D01*
X0111154Y0143510D02*
X0111154Y0147714D01*
X0108351Y0143510D01*
X0108351Y0147714D01*
X0106550Y0147714D02*
X0104448Y0147714D01*
X0103747Y0147013D01*
X0103747Y0144211D01*
X0104448Y0143510D01*
X0106550Y0143510D01*
X0106550Y0147714D01*
X0105148Y0153510D02*
X0103747Y0154911D01*
X0103747Y0157714D01*
X0106550Y0157714D02*
X0106550Y0154911D01*
X0105148Y0153510D01*
X0108351Y0154211D02*
X0109052Y0153510D01*
X0110453Y0153510D01*
X0111154Y0154211D01*
X0111154Y0155612D02*
X0109752Y0156313D01*
X0109052Y0156313D01*
X0108351Y0155612D01*
X0108351Y0154211D01*
X0111154Y0155612D02*
X0111154Y0157714D01*
X0108351Y0157714D01*
X0112955Y0155612D02*
X0115757Y0155612D01*
X0114356Y0157013D02*
X0114356Y0154211D01*
X0100469Y0158484D02*
X0100469Y0142736D01*
X0084720Y0134862D02*
X0070941Y0134862D01*
X0070941Y0138012D01*
X0080783Y0138012D01*
X0080783Y0142736D01*
X0080783Y0158484D02*
X0080783Y0163209D01*
X0070941Y0163209D01*
X0070941Y0166358D01*
X0084720Y0166358D01*
D14*
X0136464Y0077149D02*
X0136464Y0076165D01*
X0136464Y0074197D02*
X0136464Y0070260D01*
X0137448Y0070260D02*
X0135479Y0070260D01*
X0132167Y0071244D02*
X0131182Y0070260D01*
X0132167Y0071244D02*
X0132167Y0075181D01*
X0133151Y0074197D02*
X0131182Y0074197D01*
X0128854Y0073213D02*
X0128854Y0071244D01*
X0127870Y0070260D01*
X0125901Y0070260D01*
X0124917Y0071244D01*
X0124917Y0073213D01*
X0125901Y0074197D01*
X0127870Y0074197D01*
X0128854Y0073213D01*
X0136464Y0074197D02*
X0137448Y0074197D01*
X0139957Y0073213D02*
X0139957Y0070260D01*
X0143893Y0070260D02*
X0143893Y0074197D01*
X0140941Y0074197D01*
X0139957Y0073213D01*
X0146402Y0073213D02*
X0146402Y0071244D01*
X0147386Y0070260D01*
X0149355Y0070260D01*
X0150339Y0071244D01*
X0150339Y0073213D01*
X0149355Y0074197D01*
X0147386Y0074197D01*
X0146402Y0073213D01*
X0152848Y0076165D02*
X0152848Y0070260D01*
X0156784Y0070260D02*
X0156784Y0076165D01*
X0154816Y0074197D01*
X0152848Y0076165D01*
X0165739Y0073213D02*
X0165739Y0072229D01*
X0169675Y0072229D01*
X0169675Y0073213D02*
X0169675Y0071244D01*
X0168691Y0070260D01*
X0166723Y0070260D01*
X0172184Y0070260D02*
X0175137Y0070260D01*
X0176121Y0071244D01*
X0176121Y0073213D01*
X0175137Y0074197D01*
X0172184Y0074197D01*
X0172184Y0069276D01*
X0173168Y0068292D01*
X0174152Y0068292D01*
X0178630Y0070260D02*
X0181582Y0070260D01*
X0182566Y0071244D01*
X0181582Y0072229D01*
X0178630Y0072229D01*
X0178630Y0073213D02*
X0178630Y0070260D01*
X0185075Y0071244D02*
X0186059Y0072229D01*
X0188028Y0072229D01*
X0189012Y0073213D01*
X0188028Y0074197D01*
X0185075Y0074197D01*
X0185075Y0071244D02*
X0186059Y0070260D01*
X0189012Y0070260D01*
X0191521Y0071244D02*
X0191521Y0076165D01*
X0195457Y0076165D02*
X0195457Y0071244D01*
X0194473Y0070260D01*
X0192505Y0070260D01*
X0191521Y0071244D01*
X0181582Y0074197D02*
X0179614Y0074197D01*
X0178630Y0073213D01*
X0169675Y0073213D02*
X0168691Y0074197D01*
X0166723Y0074197D01*
X0165739Y0073213D01*
X0204321Y0074197D02*
X0205306Y0074197D01*
X0207274Y0072229D01*
X0207274Y0074197D02*
X0207274Y0070260D01*
X0209783Y0072229D02*
X0213719Y0072229D01*
X0213719Y0073213D02*
X0213719Y0071244D01*
X0212735Y0070260D01*
X0210767Y0070260D01*
X0209783Y0072229D02*
X0209783Y0073213D01*
X0210767Y0074197D01*
X0212735Y0074197D01*
X0213719Y0073213D01*
X0216048Y0074197D02*
X0218016Y0074197D01*
X0217032Y0075181D02*
X0217032Y0071244D01*
X0216048Y0070260D01*
X0220525Y0070260D02*
X0223478Y0070260D01*
X0224462Y0071244D01*
X0223478Y0072229D01*
X0220525Y0072229D01*
X0220525Y0073213D02*
X0220525Y0070260D01*
X0226971Y0070260D02*
X0226971Y0076165D01*
X0230907Y0076165D02*
X0230907Y0070260D01*
X0228939Y0072229D01*
X0226971Y0070260D01*
X0223478Y0074197D02*
X0221509Y0074197D01*
X0220525Y0073213D01*
X0122408Y0074197D02*
X0122408Y0070260D01*
X0122408Y0072229D02*
X0120440Y0074197D01*
X0119456Y0074197D01*
D15*
X0404357Y0096310D02*
X0404357Y0100047D01*
X0404357Y0098178D02*
X0409962Y0098178D01*
X0408094Y0096310D01*
X0415292Y0138810D02*
X0414357Y0139744D01*
X0414357Y0141613D01*
X0415292Y0142547D01*
X0416226Y0142547D01*
X0417160Y0141613D01*
X0417160Y0138810D01*
X0415292Y0138810D01*
X0417160Y0138810D02*
X0419028Y0140678D01*
X0419962Y0142547D01*
X0408094Y0158810D02*
X0409962Y0160678D01*
X0404357Y0160678D01*
X0404357Y0158810D02*
X0404357Y0162547D01*
X0415292Y0201310D02*
X0414357Y0202244D01*
X0414357Y0204113D01*
X0415292Y0205047D01*
X0416226Y0205047D01*
X0417160Y0204113D01*
X0417160Y0201310D01*
X0415292Y0201310D01*
X0417160Y0201310D02*
X0419028Y0203178D01*
X0419962Y0205047D01*
D16*
X0405213Y0060571D02*
X0106000Y0060571D01*
X0105810Y0060573D01*
X0105620Y0060580D01*
X0105430Y0060592D01*
X0105240Y0060608D01*
X0105051Y0060628D01*
X0104862Y0060654D01*
X0104674Y0060683D01*
X0104487Y0060718D01*
X0104301Y0060757D01*
X0104116Y0060800D01*
X0103931Y0060848D01*
X0103748Y0060900D01*
X0103567Y0060956D01*
X0103387Y0061017D01*
X0103208Y0061083D01*
X0103031Y0061152D01*
X0102855Y0061226D01*
X0102682Y0061304D01*
X0102510Y0061387D01*
X0102341Y0061473D01*
X0102173Y0061563D01*
X0102008Y0061658D01*
X0101845Y0061756D01*
X0101685Y0061859D01*
X0101527Y0061965D01*
X0101372Y0062075D01*
X0101219Y0062188D01*
X0101069Y0062306D01*
X0100923Y0062427D01*
X0100779Y0062551D01*
X0100638Y0062679D01*
X0100500Y0062810D01*
X0100365Y0062945D01*
X0100234Y0063083D01*
X0100106Y0063224D01*
X0099982Y0063368D01*
X0099861Y0063514D01*
X0099743Y0063664D01*
X0099630Y0063817D01*
X0099520Y0063972D01*
X0099414Y0064130D01*
X0099311Y0064290D01*
X0099213Y0064453D01*
X0099118Y0064618D01*
X0099028Y0064786D01*
X0098942Y0064955D01*
X0098859Y0065127D01*
X0098781Y0065300D01*
X0098707Y0065476D01*
X0098638Y0065653D01*
X0098572Y0065832D01*
X0098511Y0066012D01*
X0098455Y0066193D01*
X0098403Y0066376D01*
X0098355Y0066561D01*
X0098312Y0066746D01*
X0098273Y0066932D01*
X0098238Y0067119D01*
X0098209Y0067307D01*
X0098183Y0067496D01*
X0098163Y0067685D01*
X0098147Y0067875D01*
X0098135Y0068065D01*
X0098128Y0068255D01*
X0098126Y0068445D01*
X0098126Y0080256D01*
X0098124Y0080446D01*
X0098117Y0080636D01*
X0098105Y0080826D01*
X0098089Y0081016D01*
X0098069Y0081205D01*
X0098043Y0081394D01*
X0098014Y0081582D01*
X0097979Y0081769D01*
X0097940Y0081955D01*
X0097897Y0082140D01*
X0097849Y0082325D01*
X0097797Y0082508D01*
X0097741Y0082689D01*
X0097680Y0082869D01*
X0097614Y0083048D01*
X0097545Y0083225D01*
X0097471Y0083401D01*
X0097393Y0083574D01*
X0097310Y0083746D01*
X0097224Y0083915D01*
X0097134Y0084083D01*
X0097039Y0084248D01*
X0096941Y0084411D01*
X0096838Y0084571D01*
X0096732Y0084729D01*
X0096622Y0084884D01*
X0096509Y0085037D01*
X0096391Y0085187D01*
X0096270Y0085333D01*
X0096146Y0085477D01*
X0096018Y0085618D01*
X0095887Y0085756D01*
X0095752Y0085891D01*
X0095614Y0086022D01*
X0095473Y0086150D01*
X0095329Y0086274D01*
X0095183Y0086395D01*
X0095033Y0086513D01*
X0094880Y0086626D01*
X0094725Y0086736D01*
X0094567Y0086842D01*
X0094407Y0086945D01*
X0094244Y0087043D01*
X0094079Y0087138D01*
X0093911Y0087228D01*
X0093742Y0087314D01*
X0093570Y0087397D01*
X0093397Y0087475D01*
X0093221Y0087549D01*
X0093044Y0087618D01*
X0092865Y0087684D01*
X0092685Y0087745D01*
X0092504Y0087801D01*
X0092321Y0087853D01*
X0092136Y0087901D01*
X0091951Y0087944D01*
X0091765Y0087983D01*
X0091578Y0088018D01*
X0091390Y0088047D01*
X0091201Y0088073D01*
X0091012Y0088093D01*
X0090822Y0088109D01*
X0090632Y0088121D01*
X0090442Y0088128D01*
X0090252Y0088130D01*
X0066630Y0088130D01*
X0066440Y0088132D01*
X0066250Y0088139D01*
X0066060Y0088151D01*
X0065870Y0088167D01*
X0065681Y0088187D01*
X0065492Y0088213D01*
X0065304Y0088242D01*
X0065117Y0088277D01*
X0064931Y0088316D01*
X0064746Y0088359D01*
X0064561Y0088407D01*
X0064378Y0088459D01*
X0064197Y0088515D01*
X0064017Y0088576D01*
X0063838Y0088642D01*
X0063661Y0088711D01*
X0063485Y0088785D01*
X0063312Y0088863D01*
X0063140Y0088946D01*
X0062971Y0089032D01*
X0062803Y0089122D01*
X0062638Y0089217D01*
X0062475Y0089315D01*
X0062315Y0089418D01*
X0062157Y0089524D01*
X0062002Y0089634D01*
X0061849Y0089747D01*
X0061699Y0089865D01*
X0061553Y0089986D01*
X0061409Y0090110D01*
X0061268Y0090238D01*
X0061130Y0090369D01*
X0060995Y0090504D01*
X0060864Y0090642D01*
X0060736Y0090783D01*
X0060612Y0090927D01*
X0060491Y0091073D01*
X0060373Y0091223D01*
X0060260Y0091376D01*
X0060150Y0091531D01*
X0060044Y0091689D01*
X0059941Y0091849D01*
X0059843Y0092012D01*
X0059748Y0092177D01*
X0059658Y0092345D01*
X0059572Y0092514D01*
X0059489Y0092686D01*
X0059411Y0092859D01*
X0059337Y0093035D01*
X0059268Y0093212D01*
X0059202Y0093391D01*
X0059141Y0093571D01*
X0059085Y0093752D01*
X0059033Y0093935D01*
X0058985Y0094120D01*
X0058942Y0094305D01*
X0058903Y0094491D01*
X0058868Y0094678D01*
X0058839Y0094866D01*
X0058813Y0095055D01*
X0058793Y0095244D01*
X0058777Y0095434D01*
X0058765Y0095624D01*
X0058758Y0095814D01*
X0058756Y0096004D01*
X0058756Y0206240D01*
X0058758Y0206430D01*
X0058765Y0206620D01*
X0058777Y0206810D01*
X0058793Y0207000D01*
X0058813Y0207189D01*
X0058839Y0207378D01*
X0058868Y0207566D01*
X0058903Y0207753D01*
X0058942Y0207939D01*
X0058985Y0208124D01*
X0059033Y0208309D01*
X0059085Y0208492D01*
X0059141Y0208673D01*
X0059202Y0208853D01*
X0059268Y0209032D01*
X0059337Y0209209D01*
X0059411Y0209385D01*
X0059489Y0209558D01*
X0059572Y0209730D01*
X0059658Y0209899D01*
X0059748Y0210067D01*
X0059843Y0210232D01*
X0059941Y0210395D01*
X0060044Y0210555D01*
X0060150Y0210713D01*
X0060260Y0210868D01*
X0060373Y0211021D01*
X0060491Y0211171D01*
X0060612Y0211317D01*
X0060736Y0211461D01*
X0060864Y0211602D01*
X0060995Y0211740D01*
X0061130Y0211875D01*
X0061268Y0212006D01*
X0061409Y0212134D01*
X0061553Y0212258D01*
X0061699Y0212379D01*
X0061849Y0212497D01*
X0062002Y0212610D01*
X0062157Y0212720D01*
X0062315Y0212826D01*
X0062475Y0212929D01*
X0062638Y0213027D01*
X0062803Y0213122D01*
X0062971Y0213212D01*
X0063140Y0213298D01*
X0063312Y0213381D01*
X0063485Y0213459D01*
X0063661Y0213533D01*
X0063838Y0213602D01*
X0064017Y0213668D01*
X0064197Y0213729D01*
X0064378Y0213785D01*
X0064561Y0213837D01*
X0064746Y0213885D01*
X0064931Y0213928D01*
X0065117Y0213967D01*
X0065304Y0214002D01*
X0065492Y0214031D01*
X0065681Y0214057D01*
X0065870Y0214077D01*
X0066060Y0214093D01*
X0066250Y0214105D01*
X0066440Y0214112D01*
X0066630Y0214114D01*
X0090252Y0214114D01*
X0090442Y0214116D01*
X0090632Y0214123D01*
X0090822Y0214135D01*
X0091012Y0214151D01*
X0091201Y0214171D01*
X0091390Y0214197D01*
X0091578Y0214226D01*
X0091765Y0214261D01*
X0091951Y0214300D01*
X0092136Y0214343D01*
X0092321Y0214391D01*
X0092504Y0214443D01*
X0092685Y0214499D01*
X0092865Y0214560D01*
X0093044Y0214626D01*
X0093221Y0214695D01*
X0093397Y0214769D01*
X0093570Y0214847D01*
X0093742Y0214930D01*
X0093911Y0215016D01*
X0094079Y0215106D01*
X0094244Y0215201D01*
X0094407Y0215299D01*
X0094567Y0215402D01*
X0094725Y0215508D01*
X0094880Y0215618D01*
X0095033Y0215731D01*
X0095183Y0215849D01*
X0095329Y0215970D01*
X0095473Y0216094D01*
X0095614Y0216222D01*
X0095752Y0216353D01*
X0095887Y0216488D01*
X0096018Y0216626D01*
X0096146Y0216767D01*
X0096270Y0216911D01*
X0096391Y0217057D01*
X0096509Y0217207D01*
X0096622Y0217360D01*
X0096732Y0217515D01*
X0096838Y0217673D01*
X0096941Y0217833D01*
X0097039Y0217996D01*
X0097134Y0218161D01*
X0097224Y0218329D01*
X0097310Y0218498D01*
X0097393Y0218670D01*
X0097471Y0218843D01*
X0097545Y0219019D01*
X0097614Y0219196D01*
X0097680Y0219375D01*
X0097741Y0219555D01*
X0097797Y0219736D01*
X0097849Y0219919D01*
X0097897Y0220104D01*
X0097940Y0220289D01*
X0097979Y0220475D01*
X0098014Y0220662D01*
X0098043Y0220850D01*
X0098069Y0221039D01*
X0098089Y0221228D01*
X0098105Y0221418D01*
X0098117Y0221608D01*
X0098124Y0221798D01*
X0098126Y0221988D01*
X0098126Y0233799D01*
X0098128Y0233989D01*
X0098135Y0234179D01*
X0098147Y0234369D01*
X0098163Y0234559D01*
X0098183Y0234748D01*
X0098209Y0234937D01*
X0098238Y0235125D01*
X0098273Y0235312D01*
X0098312Y0235498D01*
X0098355Y0235683D01*
X0098403Y0235868D01*
X0098455Y0236051D01*
X0098511Y0236232D01*
X0098572Y0236412D01*
X0098638Y0236591D01*
X0098707Y0236768D01*
X0098781Y0236944D01*
X0098859Y0237117D01*
X0098942Y0237289D01*
X0099028Y0237458D01*
X0099118Y0237626D01*
X0099213Y0237791D01*
X0099311Y0237954D01*
X0099414Y0238114D01*
X0099520Y0238272D01*
X0099630Y0238427D01*
X0099743Y0238580D01*
X0099861Y0238730D01*
X0099982Y0238876D01*
X0100106Y0239020D01*
X0100234Y0239161D01*
X0100365Y0239299D01*
X0100500Y0239434D01*
X0100638Y0239565D01*
X0100779Y0239693D01*
X0100923Y0239817D01*
X0101069Y0239938D01*
X0101219Y0240056D01*
X0101372Y0240169D01*
X0101527Y0240279D01*
X0101685Y0240385D01*
X0101845Y0240488D01*
X0102008Y0240586D01*
X0102173Y0240681D01*
X0102341Y0240771D01*
X0102510Y0240857D01*
X0102682Y0240940D01*
X0102855Y0241018D01*
X0103031Y0241092D01*
X0103208Y0241161D01*
X0103387Y0241227D01*
X0103567Y0241288D01*
X0103748Y0241344D01*
X0103931Y0241396D01*
X0104116Y0241444D01*
X0104301Y0241487D01*
X0104487Y0241526D01*
X0104674Y0241561D01*
X0104862Y0241590D01*
X0105051Y0241616D01*
X0105240Y0241636D01*
X0105430Y0241652D01*
X0105620Y0241664D01*
X0105810Y0241671D01*
X0106000Y0241673D01*
X0405213Y0241673D01*
X0405403Y0241671D01*
X0405593Y0241664D01*
X0405783Y0241652D01*
X0405973Y0241636D01*
X0406162Y0241616D01*
X0406351Y0241590D01*
X0406539Y0241561D01*
X0406726Y0241526D01*
X0406912Y0241487D01*
X0407097Y0241444D01*
X0407282Y0241396D01*
X0407465Y0241344D01*
X0407646Y0241288D01*
X0407826Y0241227D01*
X0408005Y0241161D01*
X0408182Y0241092D01*
X0408358Y0241018D01*
X0408531Y0240940D01*
X0408703Y0240857D01*
X0408872Y0240771D01*
X0409040Y0240681D01*
X0409205Y0240586D01*
X0409368Y0240488D01*
X0409528Y0240385D01*
X0409686Y0240279D01*
X0409841Y0240169D01*
X0409994Y0240056D01*
X0410144Y0239938D01*
X0410290Y0239817D01*
X0410434Y0239693D01*
X0410575Y0239565D01*
X0410713Y0239434D01*
X0410848Y0239299D01*
X0410979Y0239161D01*
X0411107Y0239020D01*
X0411231Y0238876D01*
X0411352Y0238730D01*
X0411470Y0238580D01*
X0411583Y0238427D01*
X0411693Y0238272D01*
X0411799Y0238114D01*
X0411902Y0237954D01*
X0412000Y0237791D01*
X0412095Y0237626D01*
X0412185Y0237458D01*
X0412271Y0237289D01*
X0412354Y0237117D01*
X0412432Y0236944D01*
X0412506Y0236768D01*
X0412575Y0236591D01*
X0412641Y0236412D01*
X0412702Y0236232D01*
X0412758Y0236051D01*
X0412810Y0235868D01*
X0412858Y0235683D01*
X0412901Y0235498D01*
X0412940Y0235312D01*
X0412975Y0235125D01*
X0413004Y0234937D01*
X0413030Y0234748D01*
X0413050Y0234559D01*
X0413066Y0234369D01*
X0413078Y0234179D01*
X0413085Y0233989D01*
X0413087Y0233799D01*
X0413087Y0221988D01*
X0413089Y0221798D01*
X0413096Y0221608D01*
X0413108Y0221418D01*
X0413124Y0221228D01*
X0413144Y0221039D01*
X0413170Y0220850D01*
X0413199Y0220662D01*
X0413234Y0220475D01*
X0413273Y0220289D01*
X0413316Y0220104D01*
X0413364Y0219919D01*
X0413416Y0219736D01*
X0413472Y0219555D01*
X0413533Y0219375D01*
X0413599Y0219196D01*
X0413668Y0219019D01*
X0413742Y0218843D01*
X0413820Y0218670D01*
X0413903Y0218498D01*
X0413989Y0218329D01*
X0414079Y0218161D01*
X0414174Y0217996D01*
X0414272Y0217833D01*
X0414375Y0217673D01*
X0414481Y0217515D01*
X0414591Y0217360D01*
X0414704Y0217207D01*
X0414822Y0217057D01*
X0414943Y0216911D01*
X0415067Y0216767D01*
X0415195Y0216626D01*
X0415326Y0216488D01*
X0415461Y0216353D01*
X0415599Y0216222D01*
X0415740Y0216094D01*
X0415884Y0215970D01*
X0416030Y0215849D01*
X0416180Y0215731D01*
X0416333Y0215618D01*
X0416488Y0215508D01*
X0416646Y0215402D01*
X0416806Y0215299D01*
X0416969Y0215201D01*
X0417134Y0215106D01*
X0417302Y0215016D01*
X0417471Y0214930D01*
X0417643Y0214847D01*
X0417816Y0214769D01*
X0417992Y0214695D01*
X0418169Y0214626D01*
X0418348Y0214560D01*
X0418528Y0214499D01*
X0418709Y0214443D01*
X0418892Y0214391D01*
X0419077Y0214343D01*
X0419262Y0214300D01*
X0419448Y0214261D01*
X0419635Y0214226D01*
X0419823Y0214197D01*
X0420012Y0214171D01*
X0420201Y0214151D01*
X0420391Y0214135D01*
X0420581Y0214123D01*
X0420771Y0214116D01*
X0420961Y0214114D01*
X0444583Y0214114D01*
X0444773Y0214112D01*
X0444963Y0214105D01*
X0445153Y0214093D01*
X0445343Y0214077D01*
X0445532Y0214057D01*
X0445721Y0214031D01*
X0445909Y0214002D01*
X0446096Y0213967D01*
X0446282Y0213928D01*
X0446467Y0213885D01*
X0446652Y0213837D01*
X0446835Y0213785D01*
X0447016Y0213729D01*
X0447196Y0213668D01*
X0447375Y0213602D01*
X0447552Y0213533D01*
X0447728Y0213459D01*
X0447901Y0213381D01*
X0448073Y0213298D01*
X0448242Y0213212D01*
X0448410Y0213122D01*
X0448575Y0213027D01*
X0448738Y0212929D01*
X0448898Y0212826D01*
X0449056Y0212720D01*
X0449211Y0212610D01*
X0449364Y0212497D01*
X0449514Y0212379D01*
X0449660Y0212258D01*
X0449804Y0212134D01*
X0449945Y0212006D01*
X0450083Y0211875D01*
X0450218Y0211740D01*
X0450349Y0211602D01*
X0450477Y0211461D01*
X0450601Y0211317D01*
X0450722Y0211171D01*
X0450840Y0211021D01*
X0450953Y0210868D01*
X0451063Y0210713D01*
X0451169Y0210555D01*
X0451272Y0210395D01*
X0451370Y0210232D01*
X0451465Y0210067D01*
X0451555Y0209899D01*
X0451641Y0209730D01*
X0451724Y0209558D01*
X0451802Y0209385D01*
X0451876Y0209209D01*
X0451945Y0209032D01*
X0452011Y0208853D01*
X0452072Y0208673D01*
X0452128Y0208492D01*
X0452180Y0208309D01*
X0452228Y0208124D01*
X0452271Y0207939D01*
X0452310Y0207753D01*
X0452345Y0207566D01*
X0452374Y0207378D01*
X0452400Y0207189D01*
X0452420Y0207000D01*
X0452436Y0206810D01*
X0452448Y0206620D01*
X0452455Y0206430D01*
X0452457Y0206240D01*
X0452457Y0096004D01*
X0452455Y0095814D01*
X0452448Y0095624D01*
X0452436Y0095434D01*
X0452420Y0095244D01*
X0452400Y0095055D01*
X0452374Y0094866D01*
X0452345Y0094678D01*
X0452310Y0094491D01*
X0452271Y0094305D01*
X0452228Y0094120D01*
X0452180Y0093935D01*
X0452128Y0093752D01*
X0452072Y0093571D01*
X0452011Y0093391D01*
X0451945Y0093212D01*
X0451876Y0093035D01*
X0451802Y0092859D01*
X0451724Y0092686D01*
X0451641Y0092514D01*
X0451555Y0092345D01*
X0451465Y0092177D01*
X0451370Y0092012D01*
X0451272Y0091849D01*
X0451169Y0091689D01*
X0451063Y0091531D01*
X0450953Y0091376D01*
X0450840Y0091223D01*
X0450722Y0091073D01*
X0450601Y0090927D01*
X0450477Y0090783D01*
X0450349Y0090642D01*
X0450218Y0090504D01*
X0450083Y0090369D01*
X0449945Y0090238D01*
X0449804Y0090110D01*
X0449660Y0089986D01*
X0449514Y0089865D01*
X0449364Y0089747D01*
X0449211Y0089634D01*
X0449056Y0089524D01*
X0448898Y0089418D01*
X0448738Y0089315D01*
X0448575Y0089217D01*
X0448410Y0089122D01*
X0448242Y0089032D01*
X0448073Y0088946D01*
X0447901Y0088863D01*
X0447728Y0088785D01*
X0447552Y0088711D01*
X0447375Y0088642D01*
X0447196Y0088576D01*
X0447016Y0088515D01*
X0446835Y0088459D01*
X0446652Y0088407D01*
X0446467Y0088359D01*
X0446282Y0088316D01*
X0446096Y0088277D01*
X0445909Y0088242D01*
X0445721Y0088213D01*
X0445532Y0088187D01*
X0445343Y0088167D01*
X0445153Y0088151D01*
X0444963Y0088139D01*
X0444773Y0088132D01*
X0444583Y0088130D01*
X0420961Y0088130D01*
X0420771Y0088128D01*
X0420581Y0088121D01*
X0420391Y0088109D01*
X0420201Y0088093D01*
X0420012Y0088073D01*
X0419823Y0088047D01*
X0419635Y0088018D01*
X0419448Y0087983D01*
X0419262Y0087944D01*
X0419077Y0087901D01*
X0418892Y0087853D01*
X0418709Y0087801D01*
X0418528Y0087745D01*
X0418348Y0087684D01*
X0418169Y0087618D01*
X0417992Y0087549D01*
X0417816Y0087475D01*
X0417643Y0087397D01*
X0417471Y0087314D01*
X0417302Y0087228D01*
X0417134Y0087138D01*
X0416969Y0087043D01*
X0416806Y0086945D01*
X0416646Y0086842D01*
X0416488Y0086736D01*
X0416333Y0086626D01*
X0416180Y0086513D01*
X0416030Y0086395D01*
X0415884Y0086274D01*
X0415740Y0086150D01*
X0415599Y0086022D01*
X0415461Y0085891D01*
X0415326Y0085756D01*
X0415195Y0085618D01*
X0415067Y0085477D01*
X0414943Y0085333D01*
X0414822Y0085187D01*
X0414704Y0085037D01*
X0414591Y0084884D01*
X0414481Y0084729D01*
X0414375Y0084571D01*
X0414272Y0084411D01*
X0414174Y0084248D01*
X0414079Y0084083D01*
X0413989Y0083915D01*
X0413903Y0083746D01*
X0413820Y0083574D01*
X0413742Y0083401D01*
X0413668Y0083225D01*
X0413599Y0083048D01*
X0413533Y0082869D01*
X0413472Y0082689D01*
X0413416Y0082508D01*
X0413364Y0082325D01*
X0413316Y0082140D01*
X0413273Y0081955D01*
X0413234Y0081769D01*
X0413199Y0081582D01*
X0413170Y0081394D01*
X0413144Y0081205D01*
X0413124Y0081016D01*
X0413108Y0080826D01*
X0413096Y0080636D01*
X0413089Y0080446D01*
X0413087Y0080256D01*
X0413087Y0068445D01*
X0413085Y0068255D01*
X0413078Y0068065D01*
X0413066Y0067875D01*
X0413050Y0067685D01*
X0413030Y0067496D01*
X0413004Y0067307D01*
X0412975Y0067119D01*
X0412940Y0066932D01*
X0412901Y0066746D01*
X0412858Y0066561D01*
X0412810Y0066376D01*
X0412758Y0066193D01*
X0412702Y0066012D01*
X0412641Y0065832D01*
X0412575Y0065653D01*
X0412506Y0065476D01*
X0412432Y0065300D01*
X0412354Y0065127D01*
X0412271Y0064955D01*
X0412185Y0064786D01*
X0412095Y0064618D01*
X0412000Y0064453D01*
X0411902Y0064290D01*
X0411799Y0064130D01*
X0411693Y0063972D01*
X0411583Y0063817D01*
X0411470Y0063664D01*
X0411352Y0063514D01*
X0411231Y0063368D01*
X0411107Y0063224D01*
X0410979Y0063083D01*
X0410848Y0062945D01*
X0410713Y0062810D01*
X0410575Y0062679D01*
X0410434Y0062551D01*
X0410290Y0062427D01*
X0410144Y0062306D01*
X0409994Y0062188D01*
X0409841Y0062075D01*
X0409686Y0061965D01*
X0409528Y0061859D01*
X0409368Y0061756D01*
X0409205Y0061658D01*
X0409040Y0061563D01*
X0408872Y0061473D01*
X0408703Y0061387D01*
X0408531Y0061304D01*
X0408358Y0061226D01*
X0408182Y0061152D01*
X0408005Y0061083D01*
X0407826Y0061017D01*
X0407646Y0060956D01*
X0407465Y0060900D01*
X0407282Y0060848D01*
X0407097Y0060800D01*
X0406912Y0060757D01*
X0406726Y0060718D01*
X0406539Y0060683D01*
X0406351Y0060654D01*
X0406162Y0060628D01*
X0405973Y0060608D01*
X0405783Y0060592D01*
X0405593Y0060580D01*
X0405403Y0060573D01*
X0405213Y0060571D01*
X0397732Y0072382D02*
X0397734Y0072530D01*
X0397740Y0072678D01*
X0397750Y0072826D01*
X0397764Y0072973D01*
X0397782Y0073120D01*
X0397803Y0073266D01*
X0397829Y0073412D01*
X0397859Y0073557D01*
X0397892Y0073701D01*
X0397930Y0073844D01*
X0397971Y0073986D01*
X0398016Y0074127D01*
X0398064Y0074267D01*
X0398117Y0074406D01*
X0398173Y0074543D01*
X0398233Y0074678D01*
X0398296Y0074812D01*
X0398363Y0074944D01*
X0398434Y0075074D01*
X0398508Y0075202D01*
X0398585Y0075328D01*
X0398666Y0075452D01*
X0398750Y0075574D01*
X0398837Y0075693D01*
X0398928Y0075810D01*
X0399022Y0075925D01*
X0399118Y0076037D01*
X0399218Y0076147D01*
X0399320Y0076253D01*
X0399426Y0076357D01*
X0399534Y0076458D01*
X0399645Y0076556D01*
X0399758Y0076652D01*
X0399874Y0076744D01*
X0399992Y0076833D01*
X0400113Y0076918D01*
X0400236Y0077001D01*
X0400361Y0077080D01*
X0400488Y0077156D01*
X0400617Y0077228D01*
X0400748Y0077297D01*
X0400881Y0077362D01*
X0401016Y0077423D01*
X0401152Y0077481D01*
X0401289Y0077536D01*
X0401428Y0077586D01*
X0401569Y0077633D01*
X0401710Y0077676D01*
X0401853Y0077716D01*
X0401997Y0077751D01*
X0402141Y0077783D01*
X0402287Y0077810D01*
X0402433Y0077834D01*
X0402580Y0077854D01*
X0402727Y0077870D01*
X0402874Y0077882D01*
X0403022Y0077890D01*
X0403170Y0077894D01*
X0403318Y0077894D01*
X0403466Y0077890D01*
X0403614Y0077882D01*
X0403761Y0077870D01*
X0403908Y0077854D01*
X0404055Y0077834D01*
X0404201Y0077810D01*
X0404347Y0077783D01*
X0404491Y0077751D01*
X0404635Y0077716D01*
X0404778Y0077676D01*
X0404919Y0077633D01*
X0405060Y0077586D01*
X0405199Y0077536D01*
X0405336Y0077481D01*
X0405472Y0077423D01*
X0405607Y0077362D01*
X0405740Y0077297D01*
X0405871Y0077228D01*
X0406000Y0077156D01*
X0406127Y0077080D01*
X0406252Y0077001D01*
X0406375Y0076918D01*
X0406496Y0076833D01*
X0406614Y0076744D01*
X0406730Y0076652D01*
X0406843Y0076556D01*
X0406954Y0076458D01*
X0407062Y0076357D01*
X0407168Y0076253D01*
X0407270Y0076147D01*
X0407370Y0076037D01*
X0407466Y0075925D01*
X0407560Y0075810D01*
X0407651Y0075693D01*
X0407738Y0075574D01*
X0407822Y0075452D01*
X0407903Y0075328D01*
X0407980Y0075202D01*
X0408054Y0075074D01*
X0408125Y0074944D01*
X0408192Y0074812D01*
X0408255Y0074678D01*
X0408315Y0074543D01*
X0408371Y0074406D01*
X0408424Y0074267D01*
X0408472Y0074127D01*
X0408517Y0073986D01*
X0408558Y0073844D01*
X0408596Y0073701D01*
X0408629Y0073557D01*
X0408659Y0073412D01*
X0408685Y0073266D01*
X0408706Y0073120D01*
X0408724Y0072973D01*
X0408738Y0072826D01*
X0408748Y0072678D01*
X0408754Y0072530D01*
X0408756Y0072382D01*
X0408754Y0072234D01*
X0408748Y0072086D01*
X0408738Y0071938D01*
X0408724Y0071791D01*
X0408706Y0071644D01*
X0408685Y0071498D01*
X0408659Y0071352D01*
X0408629Y0071207D01*
X0408596Y0071063D01*
X0408558Y0070920D01*
X0408517Y0070778D01*
X0408472Y0070637D01*
X0408424Y0070497D01*
X0408371Y0070358D01*
X0408315Y0070221D01*
X0408255Y0070086D01*
X0408192Y0069952D01*
X0408125Y0069820D01*
X0408054Y0069690D01*
X0407980Y0069562D01*
X0407903Y0069436D01*
X0407822Y0069312D01*
X0407738Y0069190D01*
X0407651Y0069071D01*
X0407560Y0068954D01*
X0407466Y0068839D01*
X0407370Y0068727D01*
X0407270Y0068617D01*
X0407168Y0068511D01*
X0407062Y0068407D01*
X0406954Y0068306D01*
X0406843Y0068208D01*
X0406730Y0068112D01*
X0406614Y0068020D01*
X0406496Y0067931D01*
X0406375Y0067846D01*
X0406252Y0067763D01*
X0406127Y0067684D01*
X0406000Y0067608D01*
X0405871Y0067536D01*
X0405740Y0067467D01*
X0405607Y0067402D01*
X0405472Y0067341D01*
X0405336Y0067283D01*
X0405199Y0067228D01*
X0405060Y0067178D01*
X0404919Y0067131D01*
X0404778Y0067088D01*
X0404635Y0067048D01*
X0404491Y0067013D01*
X0404347Y0066981D01*
X0404201Y0066954D01*
X0404055Y0066930D01*
X0403908Y0066910D01*
X0403761Y0066894D01*
X0403614Y0066882D01*
X0403466Y0066874D01*
X0403318Y0066870D01*
X0403170Y0066870D01*
X0403022Y0066874D01*
X0402874Y0066882D01*
X0402727Y0066894D01*
X0402580Y0066910D01*
X0402433Y0066930D01*
X0402287Y0066954D01*
X0402141Y0066981D01*
X0401997Y0067013D01*
X0401853Y0067048D01*
X0401710Y0067088D01*
X0401569Y0067131D01*
X0401428Y0067178D01*
X0401289Y0067228D01*
X0401152Y0067283D01*
X0401016Y0067341D01*
X0400881Y0067402D01*
X0400748Y0067467D01*
X0400617Y0067536D01*
X0400488Y0067608D01*
X0400361Y0067684D01*
X0400236Y0067763D01*
X0400113Y0067846D01*
X0399992Y0067931D01*
X0399874Y0068020D01*
X0399758Y0068112D01*
X0399645Y0068208D01*
X0399534Y0068306D01*
X0399426Y0068407D01*
X0399320Y0068511D01*
X0399218Y0068617D01*
X0399118Y0068727D01*
X0399022Y0068839D01*
X0398928Y0068954D01*
X0398837Y0069071D01*
X0398750Y0069190D01*
X0398666Y0069312D01*
X0398585Y0069436D01*
X0398508Y0069562D01*
X0398434Y0069690D01*
X0398363Y0069820D01*
X0398296Y0069952D01*
X0398233Y0070086D01*
X0398173Y0070221D01*
X0398117Y0070358D01*
X0398064Y0070497D01*
X0398016Y0070637D01*
X0397971Y0070778D01*
X0397930Y0070920D01*
X0397892Y0071063D01*
X0397859Y0071207D01*
X0397829Y0071352D01*
X0397803Y0071498D01*
X0397782Y0071644D01*
X0397764Y0071791D01*
X0397750Y0071938D01*
X0397740Y0072086D01*
X0397734Y0072234D01*
X0397732Y0072382D01*
X0434935Y0099665D02*
X0434937Y0099825D01*
X0434943Y0099984D01*
X0434953Y0100143D01*
X0434967Y0100302D01*
X0434985Y0100461D01*
X0435006Y0100619D01*
X0435032Y0100776D01*
X0435062Y0100933D01*
X0435095Y0101089D01*
X0435133Y0101244D01*
X0435174Y0101398D01*
X0435219Y0101551D01*
X0435268Y0101703D01*
X0435321Y0101854D01*
X0435377Y0102003D01*
X0435438Y0102151D01*
X0435501Y0102297D01*
X0435569Y0102442D01*
X0435640Y0102585D01*
X0435714Y0102726D01*
X0435792Y0102865D01*
X0435874Y0103002D01*
X0435959Y0103137D01*
X0436047Y0103270D01*
X0436139Y0103401D01*
X0436233Y0103529D01*
X0436331Y0103655D01*
X0436432Y0103779D01*
X0436536Y0103900D01*
X0436643Y0104018D01*
X0436753Y0104134D01*
X0436866Y0104247D01*
X0436982Y0104357D01*
X0437100Y0104464D01*
X0437221Y0104568D01*
X0437345Y0104669D01*
X0437471Y0104767D01*
X0437599Y0104861D01*
X0437730Y0104953D01*
X0437863Y0105041D01*
X0437998Y0105126D01*
X0438135Y0105208D01*
X0438274Y0105286D01*
X0438415Y0105360D01*
X0438558Y0105431D01*
X0438703Y0105499D01*
X0438849Y0105562D01*
X0438997Y0105623D01*
X0439146Y0105679D01*
X0439297Y0105732D01*
X0439449Y0105781D01*
X0439602Y0105826D01*
X0439756Y0105867D01*
X0439911Y0105905D01*
X0440067Y0105938D01*
X0440224Y0105968D01*
X0440381Y0105994D01*
X0440539Y0106015D01*
X0440698Y0106033D01*
X0440857Y0106047D01*
X0441016Y0106057D01*
X0441175Y0106063D01*
X0441335Y0106065D01*
X0441495Y0106063D01*
X0441654Y0106057D01*
X0441813Y0106047D01*
X0441972Y0106033D01*
X0442131Y0106015D01*
X0442289Y0105994D01*
X0442446Y0105968D01*
X0442603Y0105938D01*
X0442759Y0105905D01*
X0442914Y0105867D01*
X0443068Y0105826D01*
X0443221Y0105781D01*
X0443373Y0105732D01*
X0443524Y0105679D01*
X0443673Y0105623D01*
X0443821Y0105562D01*
X0443967Y0105499D01*
X0444112Y0105431D01*
X0444255Y0105360D01*
X0444396Y0105286D01*
X0444535Y0105208D01*
X0444672Y0105126D01*
X0444807Y0105041D01*
X0444940Y0104953D01*
X0445071Y0104861D01*
X0445199Y0104767D01*
X0445325Y0104669D01*
X0445449Y0104568D01*
X0445570Y0104464D01*
X0445688Y0104357D01*
X0445804Y0104247D01*
X0445917Y0104134D01*
X0446027Y0104018D01*
X0446134Y0103900D01*
X0446238Y0103779D01*
X0446339Y0103655D01*
X0446437Y0103529D01*
X0446531Y0103401D01*
X0446623Y0103270D01*
X0446711Y0103137D01*
X0446796Y0103002D01*
X0446878Y0102865D01*
X0446956Y0102726D01*
X0447030Y0102585D01*
X0447101Y0102442D01*
X0447169Y0102297D01*
X0447232Y0102151D01*
X0447293Y0102003D01*
X0447349Y0101854D01*
X0447402Y0101703D01*
X0447451Y0101551D01*
X0447496Y0101398D01*
X0447537Y0101244D01*
X0447575Y0101089D01*
X0447608Y0100933D01*
X0447638Y0100776D01*
X0447664Y0100619D01*
X0447685Y0100461D01*
X0447703Y0100302D01*
X0447717Y0100143D01*
X0447727Y0099984D01*
X0447733Y0099825D01*
X0447735Y0099665D01*
X0447733Y0099505D01*
X0447727Y0099346D01*
X0447717Y0099187D01*
X0447703Y0099028D01*
X0447685Y0098869D01*
X0447664Y0098711D01*
X0447638Y0098554D01*
X0447608Y0098397D01*
X0447575Y0098241D01*
X0447537Y0098086D01*
X0447496Y0097932D01*
X0447451Y0097779D01*
X0447402Y0097627D01*
X0447349Y0097476D01*
X0447293Y0097327D01*
X0447232Y0097179D01*
X0447169Y0097033D01*
X0447101Y0096888D01*
X0447030Y0096745D01*
X0446956Y0096604D01*
X0446878Y0096465D01*
X0446796Y0096328D01*
X0446711Y0096193D01*
X0446623Y0096060D01*
X0446531Y0095929D01*
X0446437Y0095801D01*
X0446339Y0095675D01*
X0446238Y0095551D01*
X0446134Y0095430D01*
X0446027Y0095312D01*
X0445917Y0095196D01*
X0445804Y0095083D01*
X0445688Y0094973D01*
X0445570Y0094866D01*
X0445449Y0094762D01*
X0445325Y0094661D01*
X0445199Y0094563D01*
X0445071Y0094469D01*
X0444940Y0094377D01*
X0444807Y0094289D01*
X0444672Y0094204D01*
X0444535Y0094122D01*
X0444396Y0094044D01*
X0444255Y0093970D01*
X0444112Y0093899D01*
X0443967Y0093831D01*
X0443821Y0093768D01*
X0443673Y0093707D01*
X0443524Y0093651D01*
X0443373Y0093598D01*
X0443221Y0093549D01*
X0443068Y0093504D01*
X0442914Y0093463D01*
X0442759Y0093425D01*
X0442603Y0093392D01*
X0442446Y0093362D01*
X0442289Y0093336D01*
X0442131Y0093315D01*
X0441972Y0093297D01*
X0441813Y0093283D01*
X0441654Y0093273D01*
X0441495Y0093267D01*
X0441335Y0093265D01*
X0441175Y0093267D01*
X0441016Y0093273D01*
X0440857Y0093283D01*
X0440698Y0093297D01*
X0440539Y0093315D01*
X0440381Y0093336D01*
X0440224Y0093362D01*
X0440067Y0093392D01*
X0439911Y0093425D01*
X0439756Y0093463D01*
X0439602Y0093504D01*
X0439449Y0093549D01*
X0439297Y0093598D01*
X0439146Y0093651D01*
X0438997Y0093707D01*
X0438849Y0093768D01*
X0438703Y0093831D01*
X0438558Y0093899D01*
X0438415Y0093970D01*
X0438274Y0094044D01*
X0438135Y0094122D01*
X0437998Y0094204D01*
X0437863Y0094289D01*
X0437730Y0094377D01*
X0437599Y0094469D01*
X0437471Y0094563D01*
X0437345Y0094661D01*
X0437221Y0094762D01*
X0437100Y0094866D01*
X0436982Y0094973D01*
X0436866Y0095083D01*
X0436753Y0095196D01*
X0436643Y0095312D01*
X0436536Y0095430D01*
X0436432Y0095551D01*
X0436331Y0095675D01*
X0436233Y0095801D01*
X0436139Y0095929D01*
X0436047Y0096060D01*
X0435959Y0096193D01*
X0435874Y0096328D01*
X0435792Y0096465D01*
X0435714Y0096604D01*
X0435640Y0096745D01*
X0435569Y0096888D01*
X0435501Y0097033D01*
X0435438Y0097179D01*
X0435377Y0097327D01*
X0435321Y0097476D01*
X0435268Y0097627D01*
X0435219Y0097779D01*
X0435174Y0097932D01*
X0435133Y0098086D01*
X0435095Y0098241D01*
X0435062Y0098397D01*
X0435032Y0098554D01*
X0435006Y0098711D01*
X0434985Y0098869D01*
X0434967Y0099028D01*
X0434953Y0099187D01*
X0434943Y0099346D01*
X0434937Y0099505D01*
X0434935Y0099665D01*
X0364952Y0106284D02*
X0364954Y0106415D01*
X0364960Y0106547D01*
X0364970Y0106678D01*
X0364984Y0106809D01*
X0365002Y0106939D01*
X0365024Y0107068D01*
X0365049Y0107197D01*
X0365079Y0107325D01*
X0365113Y0107452D01*
X0365150Y0107579D01*
X0365191Y0107703D01*
X0365236Y0107827D01*
X0365285Y0107949D01*
X0365337Y0108070D01*
X0365393Y0108188D01*
X0365453Y0108306D01*
X0365516Y0108421D01*
X0365583Y0108534D01*
X0365653Y0108646D01*
X0365726Y0108755D01*
X0365802Y0108861D01*
X0365882Y0108966D01*
X0365965Y0109068D01*
X0366051Y0109167D01*
X0366140Y0109264D01*
X0366232Y0109358D01*
X0366327Y0109449D01*
X0366424Y0109538D01*
X0366524Y0109623D01*
X0366627Y0109705D01*
X0366732Y0109784D01*
X0366839Y0109860D01*
X0366949Y0109932D01*
X0367061Y0110001D01*
X0367175Y0110067D01*
X0367290Y0110129D01*
X0367408Y0110188D01*
X0367527Y0110243D01*
X0367648Y0110295D01*
X0367771Y0110342D01*
X0367895Y0110386D01*
X0368020Y0110427D01*
X0368146Y0110463D01*
X0368274Y0110496D01*
X0368402Y0110524D01*
X0368531Y0110549D01*
X0368661Y0110570D01*
X0368791Y0110587D01*
X0368922Y0110600D01*
X0369053Y0110609D01*
X0369184Y0110614D01*
X0369316Y0110615D01*
X0369447Y0110612D01*
X0369579Y0110605D01*
X0369710Y0110594D01*
X0369840Y0110579D01*
X0369970Y0110560D01*
X0370100Y0110537D01*
X0370228Y0110511D01*
X0370356Y0110480D01*
X0370483Y0110445D01*
X0370609Y0110407D01*
X0370733Y0110365D01*
X0370857Y0110319D01*
X0370978Y0110269D01*
X0371098Y0110216D01*
X0371217Y0110159D01*
X0371334Y0110099D01*
X0371448Y0110035D01*
X0371561Y0109967D01*
X0371672Y0109896D01*
X0371781Y0109822D01*
X0371887Y0109745D01*
X0371991Y0109664D01*
X0372092Y0109581D01*
X0372191Y0109494D01*
X0372287Y0109404D01*
X0372380Y0109311D01*
X0372471Y0109216D01*
X0372558Y0109118D01*
X0372643Y0109017D01*
X0372724Y0108914D01*
X0372802Y0108808D01*
X0372877Y0108700D01*
X0372949Y0108590D01*
X0373017Y0108478D01*
X0373082Y0108364D01*
X0373143Y0108247D01*
X0373201Y0108129D01*
X0373255Y0108009D01*
X0373306Y0107888D01*
X0373353Y0107765D01*
X0373396Y0107641D01*
X0373435Y0107516D01*
X0373471Y0107389D01*
X0373502Y0107261D01*
X0373530Y0107133D01*
X0373554Y0107004D01*
X0373574Y0106874D01*
X0373590Y0106743D01*
X0373602Y0106612D01*
X0373610Y0106481D01*
X0373614Y0106350D01*
X0373614Y0106218D01*
X0373610Y0106087D01*
X0373602Y0105956D01*
X0373590Y0105825D01*
X0373574Y0105694D01*
X0373554Y0105564D01*
X0373530Y0105435D01*
X0373502Y0105307D01*
X0373471Y0105179D01*
X0373435Y0105052D01*
X0373396Y0104927D01*
X0373353Y0104803D01*
X0373306Y0104680D01*
X0373255Y0104559D01*
X0373201Y0104439D01*
X0373143Y0104321D01*
X0373082Y0104204D01*
X0373017Y0104090D01*
X0372949Y0103978D01*
X0372877Y0103868D01*
X0372802Y0103760D01*
X0372724Y0103654D01*
X0372643Y0103551D01*
X0372558Y0103450D01*
X0372471Y0103352D01*
X0372380Y0103257D01*
X0372287Y0103164D01*
X0372191Y0103074D01*
X0372092Y0102987D01*
X0371991Y0102904D01*
X0371887Y0102823D01*
X0371781Y0102746D01*
X0371672Y0102672D01*
X0371561Y0102601D01*
X0371449Y0102533D01*
X0371334Y0102469D01*
X0371217Y0102409D01*
X0371098Y0102352D01*
X0370978Y0102299D01*
X0370857Y0102249D01*
X0370733Y0102203D01*
X0370609Y0102161D01*
X0370483Y0102123D01*
X0370356Y0102088D01*
X0370228Y0102057D01*
X0370100Y0102031D01*
X0369970Y0102008D01*
X0369840Y0101989D01*
X0369710Y0101974D01*
X0369579Y0101963D01*
X0369447Y0101956D01*
X0369316Y0101953D01*
X0369184Y0101954D01*
X0369053Y0101959D01*
X0368922Y0101968D01*
X0368791Y0101981D01*
X0368661Y0101998D01*
X0368531Y0102019D01*
X0368402Y0102044D01*
X0368274Y0102072D01*
X0368146Y0102105D01*
X0368020Y0102141D01*
X0367895Y0102182D01*
X0367771Y0102226D01*
X0367648Y0102273D01*
X0367527Y0102325D01*
X0367408Y0102380D01*
X0367290Y0102439D01*
X0367175Y0102501D01*
X0367061Y0102567D01*
X0366949Y0102636D01*
X0366839Y0102708D01*
X0366732Y0102784D01*
X0366627Y0102863D01*
X0366524Y0102945D01*
X0366424Y0103030D01*
X0366327Y0103119D01*
X0366232Y0103210D01*
X0366140Y0103304D01*
X0366051Y0103401D01*
X0365965Y0103500D01*
X0365882Y0103602D01*
X0365802Y0103707D01*
X0365726Y0103813D01*
X0365653Y0103922D01*
X0365583Y0104034D01*
X0365516Y0104147D01*
X0365453Y0104262D01*
X0365393Y0104380D01*
X0365337Y0104498D01*
X0365285Y0104619D01*
X0365236Y0104741D01*
X0365191Y0104865D01*
X0365150Y0104989D01*
X0365113Y0105116D01*
X0365079Y0105243D01*
X0365049Y0105371D01*
X0365024Y0105500D01*
X0365002Y0105629D01*
X0364984Y0105759D01*
X0364970Y0105890D01*
X0364960Y0106021D01*
X0364954Y0106153D01*
X0364952Y0106284D01*
X0307122Y0111348D02*
X0307124Y0111482D01*
X0307130Y0111616D01*
X0307140Y0111750D01*
X0307154Y0111884D01*
X0307172Y0112017D01*
X0307193Y0112149D01*
X0307219Y0112281D01*
X0307249Y0112412D01*
X0307282Y0112542D01*
X0307319Y0112670D01*
X0307361Y0112798D01*
X0307405Y0112925D01*
X0307454Y0113050D01*
X0307506Y0113173D01*
X0307562Y0113295D01*
X0307622Y0113416D01*
X0307685Y0113534D01*
X0307751Y0113651D01*
X0307821Y0113765D01*
X0307894Y0113878D01*
X0307971Y0113988D01*
X0308051Y0114096D01*
X0308134Y0114201D01*
X0308220Y0114304D01*
X0308309Y0114404D01*
X0308401Y0114502D01*
X0308496Y0114597D01*
X0308594Y0114689D01*
X0308694Y0114778D01*
X0308797Y0114864D01*
X0308902Y0114947D01*
X0309010Y0115027D01*
X0309120Y0115104D01*
X0309233Y0115177D01*
X0309347Y0115247D01*
X0309464Y0115313D01*
X0309582Y0115376D01*
X0309703Y0115436D01*
X0309825Y0115492D01*
X0309948Y0115544D01*
X0310073Y0115593D01*
X0310200Y0115637D01*
X0310328Y0115679D01*
X0310456Y0115716D01*
X0310586Y0115749D01*
X0310717Y0115779D01*
X0310849Y0115805D01*
X0310981Y0115826D01*
X0311114Y0115844D01*
X0311248Y0115858D01*
X0311382Y0115868D01*
X0311516Y0115874D01*
X0311650Y0115876D01*
X0311784Y0115874D01*
X0311918Y0115868D01*
X0312052Y0115858D01*
X0312186Y0115844D01*
X0312319Y0115826D01*
X0312451Y0115805D01*
X0312583Y0115779D01*
X0312714Y0115749D01*
X0312844Y0115716D01*
X0312972Y0115679D01*
X0313100Y0115637D01*
X0313227Y0115593D01*
X0313352Y0115544D01*
X0313475Y0115492D01*
X0313597Y0115436D01*
X0313718Y0115376D01*
X0313836Y0115313D01*
X0313953Y0115247D01*
X0314067Y0115177D01*
X0314180Y0115104D01*
X0314290Y0115027D01*
X0314398Y0114947D01*
X0314503Y0114864D01*
X0314606Y0114778D01*
X0314706Y0114689D01*
X0314804Y0114597D01*
X0314899Y0114502D01*
X0314991Y0114404D01*
X0315080Y0114304D01*
X0315166Y0114201D01*
X0315249Y0114096D01*
X0315329Y0113988D01*
X0315406Y0113878D01*
X0315479Y0113765D01*
X0315549Y0113651D01*
X0315615Y0113534D01*
X0315678Y0113416D01*
X0315738Y0113295D01*
X0315794Y0113173D01*
X0315846Y0113050D01*
X0315895Y0112925D01*
X0315939Y0112798D01*
X0315981Y0112670D01*
X0316018Y0112542D01*
X0316051Y0112412D01*
X0316081Y0112281D01*
X0316107Y0112149D01*
X0316128Y0112017D01*
X0316146Y0111884D01*
X0316160Y0111750D01*
X0316170Y0111616D01*
X0316176Y0111482D01*
X0316178Y0111348D01*
X0316176Y0111214D01*
X0316170Y0111080D01*
X0316160Y0110946D01*
X0316146Y0110812D01*
X0316128Y0110679D01*
X0316107Y0110547D01*
X0316081Y0110415D01*
X0316051Y0110284D01*
X0316018Y0110154D01*
X0315981Y0110026D01*
X0315939Y0109898D01*
X0315895Y0109771D01*
X0315846Y0109646D01*
X0315794Y0109523D01*
X0315738Y0109401D01*
X0315678Y0109280D01*
X0315615Y0109162D01*
X0315549Y0109045D01*
X0315479Y0108931D01*
X0315406Y0108818D01*
X0315329Y0108708D01*
X0315249Y0108600D01*
X0315166Y0108495D01*
X0315080Y0108392D01*
X0314991Y0108292D01*
X0314899Y0108194D01*
X0314804Y0108099D01*
X0314706Y0108007D01*
X0314606Y0107918D01*
X0314503Y0107832D01*
X0314398Y0107749D01*
X0314290Y0107669D01*
X0314180Y0107592D01*
X0314067Y0107519D01*
X0313953Y0107449D01*
X0313836Y0107383D01*
X0313718Y0107320D01*
X0313597Y0107260D01*
X0313475Y0107204D01*
X0313352Y0107152D01*
X0313227Y0107103D01*
X0313100Y0107059D01*
X0312972Y0107017D01*
X0312844Y0106980D01*
X0312714Y0106947D01*
X0312583Y0106917D01*
X0312451Y0106891D01*
X0312319Y0106870D01*
X0312186Y0106852D01*
X0312052Y0106838D01*
X0311918Y0106828D01*
X0311784Y0106822D01*
X0311650Y0106820D01*
X0311516Y0106822D01*
X0311382Y0106828D01*
X0311248Y0106838D01*
X0311114Y0106852D01*
X0310981Y0106870D01*
X0310849Y0106891D01*
X0310717Y0106917D01*
X0310586Y0106947D01*
X0310456Y0106980D01*
X0310328Y0107017D01*
X0310200Y0107059D01*
X0310073Y0107103D01*
X0309948Y0107152D01*
X0309825Y0107204D01*
X0309703Y0107260D01*
X0309582Y0107320D01*
X0309464Y0107383D01*
X0309347Y0107449D01*
X0309233Y0107519D01*
X0309120Y0107592D01*
X0309010Y0107669D01*
X0308902Y0107749D01*
X0308797Y0107832D01*
X0308694Y0107918D01*
X0308594Y0108007D01*
X0308496Y0108099D01*
X0308401Y0108194D01*
X0308309Y0108292D01*
X0308220Y0108392D01*
X0308134Y0108495D01*
X0308051Y0108600D01*
X0307971Y0108708D01*
X0307894Y0108818D01*
X0307821Y0108931D01*
X0307751Y0109045D01*
X0307685Y0109162D01*
X0307622Y0109280D01*
X0307562Y0109401D01*
X0307506Y0109523D01*
X0307454Y0109646D01*
X0307405Y0109771D01*
X0307361Y0109898D01*
X0307319Y0110026D01*
X0307282Y0110154D01*
X0307249Y0110284D01*
X0307219Y0110415D01*
X0307193Y0110547D01*
X0307172Y0110679D01*
X0307154Y0110812D01*
X0307140Y0110946D01*
X0307130Y0111080D01*
X0307124Y0111214D01*
X0307122Y0111348D01*
X0271252Y0106284D02*
X0271254Y0106415D01*
X0271260Y0106547D01*
X0271270Y0106678D01*
X0271284Y0106809D01*
X0271302Y0106939D01*
X0271324Y0107068D01*
X0271349Y0107197D01*
X0271379Y0107325D01*
X0271413Y0107452D01*
X0271450Y0107579D01*
X0271491Y0107703D01*
X0271536Y0107827D01*
X0271585Y0107949D01*
X0271637Y0108070D01*
X0271693Y0108188D01*
X0271753Y0108306D01*
X0271816Y0108421D01*
X0271883Y0108534D01*
X0271953Y0108646D01*
X0272026Y0108755D01*
X0272102Y0108861D01*
X0272182Y0108966D01*
X0272265Y0109068D01*
X0272351Y0109167D01*
X0272440Y0109264D01*
X0272532Y0109358D01*
X0272627Y0109449D01*
X0272724Y0109538D01*
X0272824Y0109623D01*
X0272927Y0109705D01*
X0273032Y0109784D01*
X0273139Y0109860D01*
X0273249Y0109932D01*
X0273361Y0110001D01*
X0273475Y0110067D01*
X0273590Y0110129D01*
X0273708Y0110188D01*
X0273827Y0110243D01*
X0273948Y0110295D01*
X0274071Y0110342D01*
X0274195Y0110386D01*
X0274320Y0110427D01*
X0274446Y0110463D01*
X0274574Y0110496D01*
X0274702Y0110524D01*
X0274831Y0110549D01*
X0274961Y0110570D01*
X0275091Y0110587D01*
X0275222Y0110600D01*
X0275353Y0110609D01*
X0275484Y0110614D01*
X0275616Y0110615D01*
X0275747Y0110612D01*
X0275879Y0110605D01*
X0276010Y0110594D01*
X0276140Y0110579D01*
X0276270Y0110560D01*
X0276400Y0110537D01*
X0276528Y0110511D01*
X0276656Y0110480D01*
X0276783Y0110445D01*
X0276909Y0110407D01*
X0277033Y0110365D01*
X0277157Y0110319D01*
X0277278Y0110269D01*
X0277398Y0110216D01*
X0277517Y0110159D01*
X0277634Y0110099D01*
X0277748Y0110035D01*
X0277861Y0109967D01*
X0277972Y0109896D01*
X0278081Y0109822D01*
X0278187Y0109745D01*
X0278291Y0109664D01*
X0278392Y0109581D01*
X0278491Y0109494D01*
X0278587Y0109404D01*
X0278680Y0109311D01*
X0278771Y0109216D01*
X0278858Y0109118D01*
X0278943Y0109017D01*
X0279024Y0108914D01*
X0279102Y0108808D01*
X0279177Y0108700D01*
X0279249Y0108590D01*
X0279317Y0108478D01*
X0279382Y0108364D01*
X0279443Y0108247D01*
X0279501Y0108129D01*
X0279555Y0108009D01*
X0279606Y0107888D01*
X0279653Y0107765D01*
X0279696Y0107641D01*
X0279735Y0107516D01*
X0279771Y0107389D01*
X0279802Y0107261D01*
X0279830Y0107133D01*
X0279854Y0107004D01*
X0279874Y0106874D01*
X0279890Y0106743D01*
X0279902Y0106612D01*
X0279910Y0106481D01*
X0279914Y0106350D01*
X0279914Y0106218D01*
X0279910Y0106087D01*
X0279902Y0105956D01*
X0279890Y0105825D01*
X0279874Y0105694D01*
X0279854Y0105564D01*
X0279830Y0105435D01*
X0279802Y0105307D01*
X0279771Y0105179D01*
X0279735Y0105052D01*
X0279696Y0104927D01*
X0279653Y0104803D01*
X0279606Y0104680D01*
X0279555Y0104559D01*
X0279501Y0104439D01*
X0279443Y0104321D01*
X0279382Y0104204D01*
X0279317Y0104090D01*
X0279249Y0103978D01*
X0279177Y0103868D01*
X0279102Y0103760D01*
X0279024Y0103654D01*
X0278943Y0103551D01*
X0278858Y0103450D01*
X0278771Y0103352D01*
X0278680Y0103257D01*
X0278587Y0103164D01*
X0278491Y0103074D01*
X0278392Y0102987D01*
X0278291Y0102904D01*
X0278187Y0102823D01*
X0278081Y0102746D01*
X0277972Y0102672D01*
X0277861Y0102601D01*
X0277749Y0102533D01*
X0277634Y0102469D01*
X0277517Y0102409D01*
X0277398Y0102352D01*
X0277278Y0102299D01*
X0277157Y0102249D01*
X0277033Y0102203D01*
X0276909Y0102161D01*
X0276783Y0102123D01*
X0276656Y0102088D01*
X0276528Y0102057D01*
X0276400Y0102031D01*
X0276270Y0102008D01*
X0276140Y0101989D01*
X0276010Y0101974D01*
X0275879Y0101963D01*
X0275747Y0101956D01*
X0275616Y0101953D01*
X0275484Y0101954D01*
X0275353Y0101959D01*
X0275222Y0101968D01*
X0275091Y0101981D01*
X0274961Y0101998D01*
X0274831Y0102019D01*
X0274702Y0102044D01*
X0274574Y0102072D01*
X0274446Y0102105D01*
X0274320Y0102141D01*
X0274195Y0102182D01*
X0274071Y0102226D01*
X0273948Y0102273D01*
X0273827Y0102325D01*
X0273708Y0102380D01*
X0273590Y0102439D01*
X0273475Y0102501D01*
X0273361Y0102567D01*
X0273249Y0102636D01*
X0273139Y0102708D01*
X0273032Y0102784D01*
X0272927Y0102863D01*
X0272824Y0102945D01*
X0272724Y0103030D01*
X0272627Y0103119D01*
X0272532Y0103210D01*
X0272440Y0103304D01*
X0272351Y0103401D01*
X0272265Y0103500D01*
X0272182Y0103602D01*
X0272102Y0103707D01*
X0272026Y0103813D01*
X0271953Y0103922D01*
X0271883Y0104034D01*
X0271816Y0104147D01*
X0271753Y0104262D01*
X0271693Y0104380D01*
X0271637Y0104498D01*
X0271585Y0104619D01*
X0271536Y0104741D01*
X0271491Y0104865D01*
X0271450Y0104989D01*
X0271413Y0105116D01*
X0271379Y0105243D01*
X0271349Y0105371D01*
X0271324Y0105500D01*
X0271302Y0105629D01*
X0271284Y0105759D01*
X0271270Y0105890D01*
X0271260Y0106021D01*
X0271254Y0106153D01*
X0271252Y0106284D01*
X0102457Y0072382D02*
X0102459Y0072530D01*
X0102465Y0072678D01*
X0102475Y0072826D01*
X0102489Y0072973D01*
X0102507Y0073120D01*
X0102528Y0073266D01*
X0102554Y0073412D01*
X0102584Y0073557D01*
X0102617Y0073701D01*
X0102655Y0073844D01*
X0102696Y0073986D01*
X0102741Y0074127D01*
X0102789Y0074267D01*
X0102842Y0074406D01*
X0102898Y0074543D01*
X0102958Y0074678D01*
X0103021Y0074812D01*
X0103088Y0074944D01*
X0103159Y0075074D01*
X0103233Y0075202D01*
X0103310Y0075328D01*
X0103391Y0075452D01*
X0103475Y0075574D01*
X0103562Y0075693D01*
X0103653Y0075810D01*
X0103747Y0075925D01*
X0103843Y0076037D01*
X0103943Y0076147D01*
X0104045Y0076253D01*
X0104151Y0076357D01*
X0104259Y0076458D01*
X0104370Y0076556D01*
X0104483Y0076652D01*
X0104599Y0076744D01*
X0104717Y0076833D01*
X0104838Y0076918D01*
X0104961Y0077001D01*
X0105086Y0077080D01*
X0105213Y0077156D01*
X0105342Y0077228D01*
X0105473Y0077297D01*
X0105606Y0077362D01*
X0105741Y0077423D01*
X0105877Y0077481D01*
X0106014Y0077536D01*
X0106153Y0077586D01*
X0106294Y0077633D01*
X0106435Y0077676D01*
X0106578Y0077716D01*
X0106722Y0077751D01*
X0106866Y0077783D01*
X0107012Y0077810D01*
X0107158Y0077834D01*
X0107305Y0077854D01*
X0107452Y0077870D01*
X0107599Y0077882D01*
X0107747Y0077890D01*
X0107895Y0077894D01*
X0108043Y0077894D01*
X0108191Y0077890D01*
X0108339Y0077882D01*
X0108486Y0077870D01*
X0108633Y0077854D01*
X0108780Y0077834D01*
X0108926Y0077810D01*
X0109072Y0077783D01*
X0109216Y0077751D01*
X0109360Y0077716D01*
X0109503Y0077676D01*
X0109644Y0077633D01*
X0109785Y0077586D01*
X0109924Y0077536D01*
X0110061Y0077481D01*
X0110197Y0077423D01*
X0110332Y0077362D01*
X0110465Y0077297D01*
X0110596Y0077228D01*
X0110725Y0077156D01*
X0110852Y0077080D01*
X0110977Y0077001D01*
X0111100Y0076918D01*
X0111221Y0076833D01*
X0111339Y0076744D01*
X0111455Y0076652D01*
X0111568Y0076556D01*
X0111679Y0076458D01*
X0111787Y0076357D01*
X0111893Y0076253D01*
X0111995Y0076147D01*
X0112095Y0076037D01*
X0112191Y0075925D01*
X0112285Y0075810D01*
X0112376Y0075693D01*
X0112463Y0075574D01*
X0112547Y0075452D01*
X0112628Y0075328D01*
X0112705Y0075202D01*
X0112779Y0075074D01*
X0112850Y0074944D01*
X0112917Y0074812D01*
X0112980Y0074678D01*
X0113040Y0074543D01*
X0113096Y0074406D01*
X0113149Y0074267D01*
X0113197Y0074127D01*
X0113242Y0073986D01*
X0113283Y0073844D01*
X0113321Y0073701D01*
X0113354Y0073557D01*
X0113384Y0073412D01*
X0113410Y0073266D01*
X0113431Y0073120D01*
X0113449Y0072973D01*
X0113463Y0072826D01*
X0113473Y0072678D01*
X0113479Y0072530D01*
X0113481Y0072382D01*
X0113479Y0072234D01*
X0113473Y0072086D01*
X0113463Y0071938D01*
X0113449Y0071791D01*
X0113431Y0071644D01*
X0113410Y0071498D01*
X0113384Y0071352D01*
X0113354Y0071207D01*
X0113321Y0071063D01*
X0113283Y0070920D01*
X0113242Y0070778D01*
X0113197Y0070637D01*
X0113149Y0070497D01*
X0113096Y0070358D01*
X0113040Y0070221D01*
X0112980Y0070086D01*
X0112917Y0069952D01*
X0112850Y0069820D01*
X0112779Y0069690D01*
X0112705Y0069562D01*
X0112628Y0069436D01*
X0112547Y0069312D01*
X0112463Y0069190D01*
X0112376Y0069071D01*
X0112285Y0068954D01*
X0112191Y0068839D01*
X0112095Y0068727D01*
X0111995Y0068617D01*
X0111893Y0068511D01*
X0111787Y0068407D01*
X0111679Y0068306D01*
X0111568Y0068208D01*
X0111455Y0068112D01*
X0111339Y0068020D01*
X0111221Y0067931D01*
X0111100Y0067846D01*
X0110977Y0067763D01*
X0110852Y0067684D01*
X0110725Y0067608D01*
X0110596Y0067536D01*
X0110465Y0067467D01*
X0110332Y0067402D01*
X0110197Y0067341D01*
X0110061Y0067283D01*
X0109924Y0067228D01*
X0109785Y0067178D01*
X0109644Y0067131D01*
X0109503Y0067088D01*
X0109360Y0067048D01*
X0109216Y0067013D01*
X0109072Y0066981D01*
X0108926Y0066954D01*
X0108780Y0066930D01*
X0108633Y0066910D01*
X0108486Y0066894D01*
X0108339Y0066882D01*
X0108191Y0066874D01*
X0108043Y0066870D01*
X0107895Y0066870D01*
X0107747Y0066874D01*
X0107599Y0066882D01*
X0107452Y0066894D01*
X0107305Y0066910D01*
X0107158Y0066930D01*
X0107012Y0066954D01*
X0106866Y0066981D01*
X0106722Y0067013D01*
X0106578Y0067048D01*
X0106435Y0067088D01*
X0106294Y0067131D01*
X0106153Y0067178D01*
X0106014Y0067228D01*
X0105877Y0067283D01*
X0105741Y0067341D01*
X0105606Y0067402D01*
X0105473Y0067467D01*
X0105342Y0067536D01*
X0105213Y0067608D01*
X0105086Y0067684D01*
X0104961Y0067763D01*
X0104838Y0067846D01*
X0104717Y0067931D01*
X0104599Y0068020D01*
X0104483Y0068112D01*
X0104370Y0068208D01*
X0104259Y0068306D01*
X0104151Y0068407D01*
X0104045Y0068511D01*
X0103943Y0068617D01*
X0103843Y0068727D01*
X0103747Y0068839D01*
X0103653Y0068954D01*
X0103562Y0069071D01*
X0103475Y0069190D01*
X0103391Y0069312D01*
X0103310Y0069436D01*
X0103233Y0069562D01*
X0103159Y0069690D01*
X0103088Y0069820D01*
X0103021Y0069952D01*
X0102958Y0070086D01*
X0102898Y0070221D01*
X0102842Y0070358D01*
X0102789Y0070497D01*
X0102741Y0070637D01*
X0102696Y0070778D01*
X0102655Y0070920D01*
X0102617Y0071063D01*
X0102584Y0071207D01*
X0102554Y0071352D01*
X0102528Y0071498D01*
X0102507Y0071644D01*
X0102489Y0071791D01*
X0102475Y0071938D01*
X0102465Y0072086D01*
X0102459Y0072234D01*
X0102457Y0072382D01*
X0271252Y0198017D02*
X0271254Y0198148D01*
X0271260Y0198280D01*
X0271270Y0198411D01*
X0271284Y0198542D01*
X0271302Y0198672D01*
X0271324Y0198801D01*
X0271349Y0198930D01*
X0271379Y0199058D01*
X0271413Y0199185D01*
X0271450Y0199312D01*
X0271491Y0199436D01*
X0271536Y0199560D01*
X0271585Y0199682D01*
X0271637Y0199803D01*
X0271693Y0199921D01*
X0271753Y0200039D01*
X0271816Y0200154D01*
X0271883Y0200267D01*
X0271953Y0200379D01*
X0272026Y0200488D01*
X0272102Y0200594D01*
X0272182Y0200699D01*
X0272265Y0200801D01*
X0272351Y0200900D01*
X0272440Y0200997D01*
X0272532Y0201091D01*
X0272627Y0201182D01*
X0272724Y0201271D01*
X0272824Y0201356D01*
X0272927Y0201438D01*
X0273032Y0201517D01*
X0273139Y0201593D01*
X0273249Y0201665D01*
X0273361Y0201734D01*
X0273475Y0201800D01*
X0273590Y0201862D01*
X0273708Y0201921D01*
X0273827Y0201976D01*
X0273948Y0202028D01*
X0274071Y0202075D01*
X0274195Y0202119D01*
X0274320Y0202160D01*
X0274446Y0202196D01*
X0274574Y0202229D01*
X0274702Y0202257D01*
X0274831Y0202282D01*
X0274961Y0202303D01*
X0275091Y0202320D01*
X0275222Y0202333D01*
X0275353Y0202342D01*
X0275484Y0202347D01*
X0275616Y0202348D01*
X0275747Y0202345D01*
X0275879Y0202338D01*
X0276010Y0202327D01*
X0276140Y0202312D01*
X0276270Y0202293D01*
X0276400Y0202270D01*
X0276528Y0202244D01*
X0276656Y0202213D01*
X0276783Y0202178D01*
X0276909Y0202140D01*
X0277033Y0202098D01*
X0277157Y0202052D01*
X0277278Y0202002D01*
X0277398Y0201949D01*
X0277517Y0201892D01*
X0277634Y0201832D01*
X0277748Y0201768D01*
X0277861Y0201700D01*
X0277972Y0201629D01*
X0278081Y0201555D01*
X0278187Y0201478D01*
X0278291Y0201397D01*
X0278392Y0201314D01*
X0278491Y0201227D01*
X0278587Y0201137D01*
X0278680Y0201044D01*
X0278771Y0200949D01*
X0278858Y0200851D01*
X0278943Y0200750D01*
X0279024Y0200647D01*
X0279102Y0200541D01*
X0279177Y0200433D01*
X0279249Y0200323D01*
X0279317Y0200211D01*
X0279382Y0200097D01*
X0279443Y0199980D01*
X0279501Y0199862D01*
X0279555Y0199742D01*
X0279606Y0199621D01*
X0279653Y0199498D01*
X0279696Y0199374D01*
X0279735Y0199249D01*
X0279771Y0199122D01*
X0279802Y0198994D01*
X0279830Y0198866D01*
X0279854Y0198737D01*
X0279874Y0198607D01*
X0279890Y0198476D01*
X0279902Y0198345D01*
X0279910Y0198214D01*
X0279914Y0198083D01*
X0279914Y0197951D01*
X0279910Y0197820D01*
X0279902Y0197689D01*
X0279890Y0197558D01*
X0279874Y0197427D01*
X0279854Y0197297D01*
X0279830Y0197168D01*
X0279802Y0197040D01*
X0279771Y0196912D01*
X0279735Y0196785D01*
X0279696Y0196660D01*
X0279653Y0196536D01*
X0279606Y0196413D01*
X0279555Y0196292D01*
X0279501Y0196172D01*
X0279443Y0196054D01*
X0279382Y0195937D01*
X0279317Y0195823D01*
X0279249Y0195711D01*
X0279177Y0195601D01*
X0279102Y0195493D01*
X0279024Y0195387D01*
X0278943Y0195284D01*
X0278858Y0195183D01*
X0278771Y0195085D01*
X0278680Y0194990D01*
X0278587Y0194897D01*
X0278491Y0194807D01*
X0278392Y0194720D01*
X0278291Y0194637D01*
X0278187Y0194556D01*
X0278081Y0194479D01*
X0277972Y0194405D01*
X0277861Y0194334D01*
X0277749Y0194266D01*
X0277634Y0194202D01*
X0277517Y0194142D01*
X0277398Y0194085D01*
X0277278Y0194032D01*
X0277157Y0193982D01*
X0277033Y0193936D01*
X0276909Y0193894D01*
X0276783Y0193856D01*
X0276656Y0193821D01*
X0276528Y0193790D01*
X0276400Y0193764D01*
X0276270Y0193741D01*
X0276140Y0193722D01*
X0276010Y0193707D01*
X0275879Y0193696D01*
X0275747Y0193689D01*
X0275616Y0193686D01*
X0275484Y0193687D01*
X0275353Y0193692D01*
X0275222Y0193701D01*
X0275091Y0193714D01*
X0274961Y0193731D01*
X0274831Y0193752D01*
X0274702Y0193777D01*
X0274574Y0193805D01*
X0274446Y0193838D01*
X0274320Y0193874D01*
X0274195Y0193915D01*
X0274071Y0193959D01*
X0273948Y0194006D01*
X0273827Y0194058D01*
X0273708Y0194113D01*
X0273590Y0194172D01*
X0273475Y0194234D01*
X0273361Y0194300D01*
X0273249Y0194369D01*
X0273139Y0194441D01*
X0273032Y0194517D01*
X0272927Y0194596D01*
X0272824Y0194678D01*
X0272724Y0194763D01*
X0272627Y0194852D01*
X0272532Y0194943D01*
X0272440Y0195037D01*
X0272351Y0195134D01*
X0272265Y0195233D01*
X0272182Y0195335D01*
X0272102Y0195440D01*
X0272026Y0195546D01*
X0271953Y0195655D01*
X0271883Y0195767D01*
X0271816Y0195880D01*
X0271753Y0195995D01*
X0271693Y0196113D01*
X0271637Y0196231D01*
X0271585Y0196352D01*
X0271536Y0196474D01*
X0271491Y0196598D01*
X0271450Y0196722D01*
X0271413Y0196849D01*
X0271379Y0196976D01*
X0271349Y0197104D01*
X0271324Y0197233D01*
X0271302Y0197362D01*
X0271284Y0197492D01*
X0271270Y0197623D01*
X0271260Y0197754D01*
X0271254Y0197886D01*
X0271252Y0198017D01*
X0364952Y0198017D02*
X0364954Y0198148D01*
X0364960Y0198280D01*
X0364970Y0198411D01*
X0364984Y0198542D01*
X0365002Y0198672D01*
X0365024Y0198801D01*
X0365049Y0198930D01*
X0365079Y0199058D01*
X0365113Y0199185D01*
X0365150Y0199312D01*
X0365191Y0199436D01*
X0365236Y0199560D01*
X0365285Y0199682D01*
X0365337Y0199803D01*
X0365393Y0199921D01*
X0365453Y0200039D01*
X0365516Y0200154D01*
X0365583Y0200267D01*
X0365653Y0200379D01*
X0365726Y0200488D01*
X0365802Y0200594D01*
X0365882Y0200699D01*
X0365965Y0200801D01*
X0366051Y0200900D01*
X0366140Y0200997D01*
X0366232Y0201091D01*
X0366327Y0201182D01*
X0366424Y0201271D01*
X0366524Y0201356D01*
X0366627Y0201438D01*
X0366732Y0201517D01*
X0366839Y0201593D01*
X0366949Y0201665D01*
X0367061Y0201734D01*
X0367175Y0201800D01*
X0367290Y0201862D01*
X0367408Y0201921D01*
X0367527Y0201976D01*
X0367648Y0202028D01*
X0367771Y0202075D01*
X0367895Y0202119D01*
X0368020Y0202160D01*
X0368146Y0202196D01*
X0368274Y0202229D01*
X0368402Y0202257D01*
X0368531Y0202282D01*
X0368661Y0202303D01*
X0368791Y0202320D01*
X0368922Y0202333D01*
X0369053Y0202342D01*
X0369184Y0202347D01*
X0369316Y0202348D01*
X0369447Y0202345D01*
X0369579Y0202338D01*
X0369710Y0202327D01*
X0369840Y0202312D01*
X0369970Y0202293D01*
X0370100Y0202270D01*
X0370228Y0202244D01*
X0370356Y0202213D01*
X0370483Y0202178D01*
X0370609Y0202140D01*
X0370733Y0202098D01*
X0370857Y0202052D01*
X0370978Y0202002D01*
X0371098Y0201949D01*
X0371217Y0201892D01*
X0371334Y0201832D01*
X0371448Y0201768D01*
X0371561Y0201700D01*
X0371672Y0201629D01*
X0371781Y0201555D01*
X0371887Y0201478D01*
X0371991Y0201397D01*
X0372092Y0201314D01*
X0372191Y0201227D01*
X0372287Y0201137D01*
X0372380Y0201044D01*
X0372471Y0200949D01*
X0372558Y0200851D01*
X0372643Y0200750D01*
X0372724Y0200647D01*
X0372802Y0200541D01*
X0372877Y0200433D01*
X0372949Y0200323D01*
X0373017Y0200211D01*
X0373082Y0200097D01*
X0373143Y0199980D01*
X0373201Y0199862D01*
X0373255Y0199742D01*
X0373306Y0199621D01*
X0373353Y0199498D01*
X0373396Y0199374D01*
X0373435Y0199249D01*
X0373471Y0199122D01*
X0373502Y0198994D01*
X0373530Y0198866D01*
X0373554Y0198737D01*
X0373574Y0198607D01*
X0373590Y0198476D01*
X0373602Y0198345D01*
X0373610Y0198214D01*
X0373614Y0198083D01*
X0373614Y0197951D01*
X0373610Y0197820D01*
X0373602Y0197689D01*
X0373590Y0197558D01*
X0373574Y0197427D01*
X0373554Y0197297D01*
X0373530Y0197168D01*
X0373502Y0197040D01*
X0373471Y0196912D01*
X0373435Y0196785D01*
X0373396Y0196660D01*
X0373353Y0196536D01*
X0373306Y0196413D01*
X0373255Y0196292D01*
X0373201Y0196172D01*
X0373143Y0196054D01*
X0373082Y0195937D01*
X0373017Y0195823D01*
X0372949Y0195711D01*
X0372877Y0195601D01*
X0372802Y0195493D01*
X0372724Y0195387D01*
X0372643Y0195284D01*
X0372558Y0195183D01*
X0372471Y0195085D01*
X0372380Y0194990D01*
X0372287Y0194897D01*
X0372191Y0194807D01*
X0372092Y0194720D01*
X0371991Y0194637D01*
X0371887Y0194556D01*
X0371781Y0194479D01*
X0371672Y0194405D01*
X0371561Y0194334D01*
X0371449Y0194266D01*
X0371334Y0194202D01*
X0371217Y0194142D01*
X0371098Y0194085D01*
X0370978Y0194032D01*
X0370857Y0193982D01*
X0370733Y0193936D01*
X0370609Y0193894D01*
X0370483Y0193856D01*
X0370356Y0193821D01*
X0370228Y0193790D01*
X0370100Y0193764D01*
X0369970Y0193741D01*
X0369840Y0193722D01*
X0369710Y0193707D01*
X0369579Y0193696D01*
X0369447Y0193689D01*
X0369316Y0193686D01*
X0369184Y0193687D01*
X0369053Y0193692D01*
X0368922Y0193701D01*
X0368791Y0193714D01*
X0368661Y0193731D01*
X0368531Y0193752D01*
X0368402Y0193777D01*
X0368274Y0193805D01*
X0368146Y0193838D01*
X0368020Y0193874D01*
X0367895Y0193915D01*
X0367771Y0193959D01*
X0367648Y0194006D01*
X0367527Y0194058D01*
X0367408Y0194113D01*
X0367290Y0194172D01*
X0367175Y0194234D01*
X0367061Y0194300D01*
X0366949Y0194369D01*
X0366839Y0194441D01*
X0366732Y0194517D01*
X0366627Y0194596D01*
X0366524Y0194678D01*
X0366424Y0194763D01*
X0366327Y0194852D01*
X0366232Y0194943D01*
X0366140Y0195037D01*
X0366051Y0195134D01*
X0365965Y0195233D01*
X0365882Y0195335D01*
X0365802Y0195440D01*
X0365726Y0195546D01*
X0365653Y0195655D01*
X0365583Y0195767D01*
X0365516Y0195880D01*
X0365453Y0195995D01*
X0365393Y0196113D01*
X0365337Y0196231D01*
X0365285Y0196352D01*
X0365236Y0196474D01*
X0365191Y0196598D01*
X0365150Y0196722D01*
X0365113Y0196849D01*
X0365079Y0196976D01*
X0365049Y0197104D01*
X0365024Y0197233D01*
X0365002Y0197362D01*
X0364984Y0197492D01*
X0364970Y0197623D01*
X0364960Y0197754D01*
X0364954Y0197886D01*
X0364952Y0198017D01*
X0397732Y0229862D02*
X0397734Y0230010D01*
X0397740Y0230158D01*
X0397750Y0230306D01*
X0397764Y0230453D01*
X0397782Y0230600D01*
X0397803Y0230746D01*
X0397829Y0230892D01*
X0397859Y0231037D01*
X0397892Y0231181D01*
X0397930Y0231324D01*
X0397971Y0231466D01*
X0398016Y0231607D01*
X0398064Y0231747D01*
X0398117Y0231886D01*
X0398173Y0232023D01*
X0398233Y0232158D01*
X0398296Y0232292D01*
X0398363Y0232424D01*
X0398434Y0232554D01*
X0398508Y0232682D01*
X0398585Y0232808D01*
X0398666Y0232932D01*
X0398750Y0233054D01*
X0398837Y0233173D01*
X0398928Y0233290D01*
X0399022Y0233405D01*
X0399118Y0233517D01*
X0399218Y0233627D01*
X0399320Y0233733D01*
X0399426Y0233837D01*
X0399534Y0233938D01*
X0399645Y0234036D01*
X0399758Y0234132D01*
X0399874Y0234224D01*
X0399992Y0234313D01*
X0400113Y0234398D01*
X0400236Y0234481D01*
X0400361Y0234560D01*
X0400488Y0234636D01*
X0400617Y0234708D01*
X0400748Y0234777D01*
X0400881Y0234842D01*
X0401016Y0234903D01*
X0401152Y0234961D01*
X0401289Y0235016D01*
X0401428Y0235066D01*
X0401569Y0235113D01*
X0401710Y0235156D01*
X0401853Y0235196D01*
X0401997Y0235231D01*
X0402141Y0235263D01*
X0402287Y0235290D01*
X0402433Y0235314D01*
X0402580Y0235334D01*
X0402727Y0235350D01*
X0402874Y0235362D01*
X0403022Y0235370D01*
X0403170Y0235374D01*
X0403318Y0235374D01*
X0403466Y0235370D01*
X0403614Y0235362D01*
X0403761Y0235350D01*
X0403908Y0235334D01*
X0404055Y0235314D01*
X0404201Y0235290D01*
X0404347Y0235263D01*
X0404491Y0235231D01*
X0404635Y0235196D01*
X0404778Y0235156D01*
X0404919Y0235113D01*
X0405060Y0235066D01*
X0405199Y0235016D01*
X0405336Y0234961D01*
X0405472Y0234903D01*
X0405607Y0234842D01*
X0405740Y0234777D01*
X0405871Y0234708D01*
X0406000Y0234636D01*
X0406127Y0234560D01*
X0406252Y0234481D01*
X0406375Y0234398D01*
X0406496Y0234313D01*
X0406614Y0234224D01*
X0406730Y0234132D01*
X0406843Y0234036D01*
X0406954Y0233938D01*
X0407062Y0233837D01*
X0407168Y0233733D01*
X0407270Y0233627D01*
X0407370Y0233517D01*
X0407466Y0233405D01*
X0407560Y0233290D01*
X0407651Y0233173D01*
X0407738Y0233054D01*
X0407822Y0232932D01*
X0407903Y0232808D01*
X0407980Y0232682D01*
X0408054Y0232554D01*
X0408125Y0232424D01*
X0408192Y0232292D01*
X0408255Y0232158D01*
X0408315Y0232023D01*
X0408371Y0231886D01*
X0408424Y0231747D01*
X0408472Y0231607D01*
X0408517Y0231466D01*
X0408558Y0231324D01*
X0408596Y0231181D01*
X0408629Y0231037D01*
X0408659Y0230892D01*
X0408685Y0230746D01*
X0408706Y0230600D01*
X0408724Y0230453D01*
X0408738Y0230306D01*
X0408748Y0230158D01*
X0408754Y0230010D01*
X0408756Y0229862D01*
X0408754Y0229714D01*
X0408748Y0229566D01*
X0408738Y0229418D01*
X0408724Y0229271D01*
X0408706Y0229124D01*
X0408685Y0228978D01*
X0408659Y0228832D01*
X0408629Y0228687D01*
X0408596Y0228543D01*
X0408558Y0228400D01*
X0408517Y0228258D01*
X0408472Y0228117D01*
X0408424Y0227977D01*
X0408371Y0227838D01*
X0408315Y0227701D01*
X0408255Y0227566D01*
X0408192Y0227432D01*
X0408125Y0227300D01*
X0408054Y0227170D01*
X0407980Y0227042D01*
X0407903Y0226916D01*
X0407822Y0226792D01*
X0407738Y0226670D01*
X0407651Y0226551D01*
X0407560Y0226434D01*
X0407466Y0226319D01*
X0407370Y0226207D01*
X0407270Y0226097D01*
X0407168Y0225991D01*
X0407062Y0225887D01*
X0406954Y0225786D01*
X0406843Y0225688D01*
X0406730Y0225592D01*
X0406614Y0225500D01*
X0406496Y0225411D01*
X0406375Y0225326D01*
X0406252Y0225243D01*
X0406127Y0225164D01*
X0406000Y0225088D01*
X0405871Y0225016D01*
X0405740Y0224947D01*
X0405607Y0224882D01*
X0405472Y0224821D01*
X0405336Y0224763D01*
X0405199Y0224708D01*
X0405060Y0224658D01*
X0404919Y0224611D01*
X0404778Y0224568D01*
X0404635Y0224528D01*
X0404491Y0224493D01*
X0404347Y0224461D01*
X0404201Y0224434D01*
X0404055Y0224410D01*
X0403908Y0224390D01*
X0403761Y0224374D01*
X0403614Y0224362D01*
X0403466Y0224354D01*
X0403318Y0224350D01*
X0403170Y0224350D01*
X0403022Y0224354D01*
X0402874Y0224362D01*
X0402727Y0224374D01*
X0402580Y0224390D01*
X0402433Y0224410D01*
X0402287Y0224434D01*
X0402141Y0224461D01*
X0401997Y0224493D01*
X0401853Y0224528D01*
X0401710Y0224568D01*
X0401569Y0224611D01*
X0401428Y0224658D01*
X0401289Y0224708D01*
X0401152Y0224763D01*
X0401016Y0224821D01*
X0400881Y0224882D01*
X0400748Y0224947D01*
X0400617Y0225016D01*
X0400488Y0225088D01*
X0400361Y0225164D01*
X0400236Y0225243D01*
X0400113Y0225326D01*
X0399992Y0225411D01*
X0399874Y0225500D01*
X0399758Y0225592D01*
X0399645Y0225688D01*
X0399534Y0225786D01*
X0399426Y0225887D01*
X0399320Y0225991D01*
X0399218Y0226097D01*
X0399118Y0226207D01*
X0399022Y0226319D01*
X0398928Y0226434D01*
X0398837Y0226551D01*
X0398750Y0226670D01*
X0398666Y0226792D01*
X0398585Y0226916D01*
X0398508Y0227042D01*
X0398434Y0227170D01*
X0398363Y0227300D01*
X0398296Y0227432D01*
X0398233Y0227566D01*
X0398173Y0227701D01*
X0398117Y0227838D01*
X0398064Y0227977D01*
X0398016Y0228117D01*
X0397971Y0228258D01*
X0397930Y0228400D01*
X0397892Y0228543D01*
X0397859Y0228687D01*
X0397829Y0228832D01*
X0397803Y0228978D01*
X0397782Y0229124D01*
X0397764Y0229271D01*
X0397750Y0229418D01*
X0397740Y0229566D01*
X0397734Y0229714D01*
X0397732Y0229862D01*
X0434935Y0202657D02*
X0434937Y0202817D01*
X0434943Y0202976D01*
X0434953Y0203135D01*
X0434967Y0203294D01*
X0434985Y0203453D01*
X0435006Y0203611D01*
X0435032Y0203768D01*
X0435062Y0203925D01*
X0435095Y0204081D01*
X0435133Y0204236D01*
X0435174Y0204390D01*
X0435219Y0204543D01*
X0435268Y0204695D01*
X0435321Y0204846D01*
X0435377Y0204995D01*
X0435438Y0205143D01*
X0435501Y0205289D01*
X0435569Y0205434D01*
X0435640Y0205577D01*
X0435714Y0205718D01*
X0435792Y0205857D01*
X0435874Y0205994D01*
X0435959Y0206129D01*
X0436047Y0206262D01*
X0436139Y0206393D01*
X0436233Y0206521D01*
X0436331Y0206647D01*
X0436432Y0206771D01*
X0436536Y0206892D01*
X0436643Y0207010D01*
X0436753Y0207126D01*
X0436866Y0207239D01*
X0436982Y0207349D01*
X0437100Y0207456D01*
X0437221Y0207560D01*
X0437345Y0207661D01*
X0437471Y0207759D01*
X0437599Y0207853D01*
X0437730Y0207945D01*
X0437863Y0208033D01*
X0437998Y0208118D01*
X0438135Y0208200D01*
X0438274Y0208278D01*
X0438415Y0208352D01*
X0438558Y0208423D01*
X0438703Y0208491D01*
X0438849Y0208554D01*
X0438997Y0208615D01*
X0439146Y0208671D01*
X0439297Y0208724D01*
X0439449Y0208773D01*
X0439602Y0208818D01*
X0439756Y0208859D01*
X0439911Y0208897D01*
X0440067Y0208930D01*
X0440224Y0208960D01*
X0440381Y0208986D01*
X0440539Y0209007D01*
X0440698Y0209025D01*
X0440857Y0209039D01*
X0441016Y0209049D01*
X0441175Y0209055D01*
X0441335Y0209057D01*
X0441495Y0209055D01*
X0441654Y0209049D01*
X0441813Y0209039D01*
X0441972Y0209025D01*
X0442131Y0209007D01*
X0442289Y0208986D01*
X0442446Y0208960D01*
X0442603Y0208930D01*
X0442759Y0208897D01*
X0442914Y0208859D01*
X0443068Y0208818D01*
X0443221Y0208773D01*
X0443373Y0208724D01*
X0443524Y0208671D01*
X0443673Y0208615D01*
X0443821Y0208554D01*
X0443967Y0208491D01*
X0444112Y0208423D01*
X0444255Y0208352D01*
X0444396Y0208278D01*
X0444535Y0208200D01*
X0444672Y0208118D01*
X0444807Y0208033D01*
X0444940Y0207945D01*
X0445071Y0207853D01*
X0445199Y0207759D01*
X0445325Y0207661D01*
X0445449Y0207560D01*
X0445570Y0207456D01*
X0445688Y0207349D01*
X0445804Y0207239D01*
X0445917Y0207126D01*
X0446027Y0207010D01*
X0446134Y0206892D01*
X0446238Y0206771D01*
X0446339Y0206647D01*
X0446437Y0206521D01*
X0446531Y0206393D01*
X0446623Y0206262D01*
X0446711Y0206129D01*
X0446796Y0205994D01*
X0446878Y0205857D01*
X0446956Y0205718D01*
X0447030Y0205577D01*
X0447101Y0205434D01*
X0447169Y0205289D01*
X0447232Y0205143D01*
X0447293Y0204995D01*
X0447349Y0204846D01*
X0447402Y0204695D01*
X0447451Y0204543D01*
X0447496Y0204390D01*
X0447537Y0204236D01*
X0447575Y0204081D01*
X0447608Y0203925D01*
X0447638Y0203768D01*
X0447664Y0203611D01*
X0447685Y0203453D01*
X0447703Y0203294D01*
X0447717Y0203135D01*
X0447727Y0202976D01*
X0447733Y0202817D01*
X0447735Y0202657D01*
X0447733Y0202497D01*
X0447727Y0202338D01*
X0447717Y0202179D01*
X0447703Y0202020D01*
X0447685Y0201861D01*
X0447664Y0201703D01*
X0447638Y0201546D01*
X0447608Y0201389D01*
X0447575Y0201233D01*
X0447537Y0201078D01*
X0447496Y0200924D01*
X0447451Y0200771D01*
X0447402Y0200619D01*
X0447349Y0200468D01*
X0447293Y0200319D01*
X0447232Y0200171D01*
X0447169Y0200025D01*
X0447101Y0199880D01*
X0447030Y0199737D01*
X0446956Y0199596D01*
X0446878Y0199457D01*
X0446796Y0199320D01*
X0446711Y0199185D01*
X0446623Y0199052D01*
X0446531Y0198921D01*
X0446437Y0198793D01*
X0446339Y0198667D01*
X0446238Y0198543D01*
X0446134Y0198422D01*
X0446027Y0198304D01*
X0445917Y0198188D01*
X0445804Y0198075D01*
X0445688Y0197965D01*
X0445570Y0197858D01*
X0445449Y0197754D01*
X0445325Y0197653D01*
X0445199Y0197555D01*
X0445071Y0197461D01*
X0444940Y0197369D01*
X0444807Y0197281D01*
X0444672Y0197196D01*
X0444535Y0197114D01*
X0444396Y0197036D01*
X0444255Y0196962D01*
X0444112Y0196891D01*
X0443967Y0196823D01*
X0443821Y0196760D01*
X0443673Y0196699D01*
X0443524Y0196643D01*
X0443373Y0196590D01*
X0443221Y0196541D01*
X0443068Y0196496D01*
X0442914Y0196455D01*
X0442759Y0196417D01*
X0442603Y0196384D01*
X0442446Y0196354D01*
X0442289Y0196328D01*
X0442131Y0196307D01*
X0441972Y0196289D01*
X0441813Y0196275D01*
X0441654Y0196265D01*
X0441495Y0196259D01*
X0441335Y0196257D01*
X0441175Y0196259D01*
X0441016Y0196265D01*
X0440857Y0196275D01*
X0440698Y0196289D01*
X0440539Y0196307D01*
X0440381Y0196328D01*
X0440224Y0196354D01*
X0440067Y0196384D01*
X0439911Y0196417D01*
X0439756Y0196455D01*
X0439602Y0196496D01*
X0439449Y0196541D01*
X0439297Y0196590D01*
X0439146Y0196643D01*
X0438997Y0196699D01*
X0438849Y0196760D01*
X0438703Y0196823D01*
X0438558Y0196891D01*
X0438415Y0196962D01*
X0438274Y0197036D01*
X0438135Y0197114D01*
X0437998Y0197196D01*
X0437863Y0197281D01*
X0437730Y0197369D01*
X0437599Y0197461D01*
X0437471Y0197555D01*
X0437345Y0197653D01*
X0437221Y0197754D01*
X0437100Y0197858D01*
X0436982Y0197965D01*
X0436866Y0198075D01*
X0436753Y0198188D01*
X0436643Y0198304D01*
X0436536Y0198422D01*
X0436432Y0198543D01*
X0436331Y0198667D01*
X0436233Y0198793D01*
X0436139Y0198921D01*
X0436047Y0199052D01*
X0435959Y0199185D01*
X0435874Y0199320D01*
X0435792Y0199457D01*
X0435714Y0199596D01*
X0435640Y0199737D01*
X0435569Y0199880D01*
X0435501Y0200025D01*
X0435438Y0200171D01*
X0435377Y0200319D01*
X0435321Y0200468D01*
X0435268Y0200619D01*
X0435219Y0200771D01*
X0435174Y0200924D01*
X0435133Y0201078D01*
X0435095Y0201233D01*
X0435062Y0201389D01*
X0435032Y0201546D01*
X0435006Y0201703D01*
X0434985Y0201861D01*
X0434967Y0202020D01*
X0434953Y0202179D01*
X0434943Y0202338D01*
X0434937Y0202497D01*
X0434935Y0202657D01*
X0434935Y0162657D02*
X0434937Y0162817D01*
X0434943Y0162976D01*
X0434953Y0163135D01*
X0434967Y0163294D01*
X0434985Y0163453D01*
X0435006Y0163611D01*
X0435032Y0163768D01*
X0435062Y0163925D01*
X0435095Y0164081D01*
X0435133Y0164236D01*
X0435174Y0164390D01*
X0435219Y0164543D01*
X0435268Y0164695D01*
X0435321Y0164846D01*
X0435377Y0164995D01*
X0435438Y0165143D01*
X0435501Y0165289D01*
X0435569Y0165434D01*
X0435640Y0165577D01*
X0435714Y0165718D01*
X0435792Y0165857D01*
X0435874Y0165994D01*
X0435959Y0166129D01*
X0436047Y0166262D01*
X0436139Y0166393D01*
X0436233Y0166521D01*
X0436331Y0166647D01*
X0436432Y0166771D01*
X0436536Y0166892D01*
X0436643Y0167010D01*
X0436753Y0167126D01*
X0436866Y0167239D01*
X0436982Y0167349D01*
X0437100Y0167456D01*
X0437221Y0167560D01*
X0437345Y0167661D01*
X0437471Y0167759D01*
X0437599Y0167853D01*
X0437730Y0167945D01*
X0437863Y0168033D01*
X0437998Y0168118D01*
X0438135Y0168200D01*
X0438274Y0168278D01*
X0438415Y0168352D01*
X0438558Y0168423D01*
X0438703Y0168491D01*
X0438849Y0168554D01*
X0438997Y0168615D01*
X0439146Y0168671D01*
X0439297Y0168724D01*
X0439449Y0168773D01*
X0439602Y0168818D01*
X0439756Y0168859D01*
X0439911Y0168897D01*
X0440067Y0168930D01*
X0440224Y0168960D01*
X0440381Y0168986D01*
X0440539Y0169007D01*
X0440698Y0169025D01*
X0440857Y0169039D01*
X0441016Y0169049D01*
X0441175Y0169055D01*
X0441335Y0169057D01*
X0441495Y0169055D01*
X0441654Y0169049D01*
X0441813Y0169039D01*
X0441972Y0169025D01*
X0442131Y0169007D01*
X0442289Y0168986D01*
X0442446Y0168960D01*
X0442603Y0168930D01*
X0442759Y0168897D01*
X0442914Y0168859D01*
X0443068Y0168818D01*
X0443221Y0168773D01*
X0443373Y0168724D01*
X0443524Y0168671D01*
X0443673Y0168615D01*
X0443821Y0168554D01*
X0443967Y0168491D01*
X0444112Y0168423D01*
X0444255Y0168352D01*
X0444396Y0168278D01*
X0444535Y0168200D01*
X0444672Y0168118D01*
X0444807Y0168033D01*
X0444940Y0167945D01*
X0445071Y0167853D01*
X0445199Y0167759D01*
X0445325Y0167661D01*
X0445449Y0167560D01*
X0445570Y0167456D01*
X0445688Y0167349D01*
X0445804Y0167239D01*
X0445917Y0167126D01*
X0446027Y0167010D01*
X0446134Y0166892D01*
X0446238Y0166771D01*
X0446339Y0166647D01*
X0446437Y0166521D01*
X0446531Y0166393D01*
X0446623Y0166262D01*
X0446711Y0166129D01*
X0446796Y0165994D01*
X0446878Y0165857D01*
X0446956Y0165718D01*
X0447030Y0165577D01*
X0447101Y0165434D01*
X0447169Y0165289D01*
X0447232Y0165143D01*
X0447293Y0164995D01*
X0447349Y0164846D01*
X0447402Y0164695D01*
X0447451Y0164543D01*
X0447496Y0164390D01*
X0447537Y0164236D01*
X0447575Y0164081D01*
X0447608Y0163925D01*
X0447638Y0163768D01*
X0447664Y0163611D01*
X0447685Y0163453D01*
X0447703Y0163294D01*
X0447717Y0163135D01*
X0447727Y0162976D01*
X0447733Y0162817D01*
X0447735Y0162657D01*
X0447733Y0162497D01*
X0447727Y0162338D01*
X0447717Y0162179D01*
X0447703Y0162020D01*
X0447685Y0161861D01*
X0447664Y0161703D01*
X0447638Y0161546D01*
X0447608Y0161389D01*
X0447575Y0161233D01*
X0447537Y0161078D01*
X0447496Y0160924D01*
X0447451Y0160771D01*
X0447402Y0160619D01*
X0447349Y0160468D01*
X0447293Y0160319D01*
X0447232Y0160171D01*
X0447169Y0160025D01*
X0447101Y0159880D01*
X0447030Y0159737D01*
X0446956Y0159596D01*
X0446878Y0159457D01*
X0446796Y0159320D01*
X0446711Y0159185D01*
X0446623Y0159052D01*
X0446531Y0158921D01*
X0446437Y0158793D01*
X0446339Y0158667D01*
X0446238Y0158543D01*
X0446134Y0158422D01*
X0446027Y0158304D01*
X0445917Y0158188D01*
X0445804Y0158075D01*
X0445688Y0157965D01*
X0445570Y0157858D01*
X0445449Y0157754D01*
X0445325Y0157653D01*
X0445199Y0157555D01*
X0445071Y0157461D01*
X0444940Y0157369D01*
X0444807Y0157281D01*
X0444672Y0157196D01*
X0444535Y0157114D01*
X0444396Y0157036D01*
X0444255Y0156962D01*
X0444112Y0156891D01*
X0443967Y0156823D01*
X0443821Y0156760D01*
X0443673Y0156699D01*
X0443524Y0156643D01*
X0443373Y0156590D01*
X0443221Y0156541D01*
X0443068Y0156496D01*
X0442914Y0156455D01*
X0442759Y0156417D01*
X0442603Y0156384D01*
X0442446Y0156354D01*
X0442289Y0156328D01*
X0442131Y0156307D01*
X0441972Y0156289D01*
X0441813Y0156275D01*
X0441654Y0156265D01*
X0441495Y0156259D01*
X0441335Y0156257D01*
X0441175Y0156259D01*
X0441016Y0156265D01*
X0440857Y0156275D01*
X0440698Y0156289D01*
X0440539Y0156307D01*
X0440381Y0156328D01*
X0440224Y0156354D01*
X0440067Y0156384D01*
X0439911Y0156417D01*
X0439756Y0156455D01*
X0439602Y0156496D01*
X0439449Y0156541D01*
X0439297Y0156590D01*
X0439146Y0156643D01*
X0438997Y0156699D01*
X0438849Y0156760D01*
X0438703Y0156823D01*
X0438558Y0156891D01*
X0438415Y0156962D01*
X0438274Y0157036D01*
X0438135Y0157114D01*
X0437998Y0157196D01*
X0437863Y0157281D01*
X0437730Y0157369D01*
X0437599Y0157461D01*
X0437471Y0157555D01*
X0437345Y0157653D01*
X0437221Y0157754D01*
X0437100Y0157858D01*
X0436982Y0157965D01*
X0436866Y0158075D01*
X0436753Y0158188D01*
X0436643Y0158304D01*
X0436536Y0158422D01*
X0436432Y0158543D01*
X0436331Y0158667D01*
X0436233Y0158793D01*
X0436139Y0158921D01*
X0436047Y0159052D01*
X0435959Y0159185D01*
X0435874Y0159320D01*
X0435792Y0159457D01*
X0435714Y0159596D01*
X0435640Y0159737D01*
X0435569Y0159880D01*
X0435501Y0160025D01*
X0435438Y0160171D01*
X0435377Y0160319D01*
X0435321Y0160468D01*
X0435268Y0160619D01*
X0435219Y0160771D01*
X0435174Y0160924D01*
X0435133Y0161078D01*
X0435095Y0161233D01*
X0435062Y0161389D01*
X0435032Y0161546D01*
X0435006Y0161703D01*
X0434985Y0161861D01*
X0434967Y0162020D01*
X0434953Y0162179D01*
X0434943Y0162338D01*
X0434937Y0162497D01*
X0434935Y0162657D01*
X0434935Y0139665D02*
X0434937Y0139825D01*
X0434943Y0139984D01*
X0434953Y0140143D01*
X0434967Y0140302D01*
X0434985Y0140461D01*
X0435006Y0140619D01*
X0435032Y0140776D01*
X0435062Y0140933D01*
X0435095Y0141089D01*
X0435133Y0141244D01*
X0435174Y0141398D01*
X0435219Y0141551D01*
X0435268Y0141703D01*
X0435321Y0141854D01*
X0435377Y0142003D01*
X0435438Y0142151D01*
X0435501Y0142297D01*
X0435569Y0142442D01*
X0435640Y0142585D01*
X0435714Y0142726D01*
X0435792Y0142865D01*
X0435874Y0143002D01*
X0435959Y0143137D01*
X0436047Y0143270D01*
X0436139Y0143401D01*
X0436233Y0143529D01*
X0436331Y0143655D01*
X0436432Y0143779D01*
X0436536Y0143900D01*
X0436643Y0144018D01*
X0436753Y0144134D01*
X0436866Y0144247D01*
X0436982Y0144357D01*
X0437100Y0144464D01*
X0437221Y0144568D01*
X0437345Y0144669D01*
X0437471Y0144767D01*
X0437599Y0144861D01*
X0437730Y0144953D01*
X0437863Y0145041D01*
X0437998Y0145126D01*
X0438135Y0145208D01*
X0438274Y0145286D01*
X0438415Y0145360D01*
X0438558Y0145431D01*
X0438703Y0145499D01*
X0438849Y0145562D01*
X0438997Y0145623D01*
X0439146Y0145679D01*
X0439297Y0145732D01*
X0439449Y0145781D01*
X0439602Y0145826D01*
X0439756Y0145867D01*
X0439911Y0145905D01*
X0440067Y0145938D01*
X0440224Y0145968D01*
X0440381Y0145994D01*
X0440539Y0146015D01*
X0440698Y0146033D01*
X0440857Y0146047D01*
X0441016Y0146057D01*
X0441175Y0146063D01*
X0441335Y0146065D01*
X0441495Y0146063D01*
X0441654Y0146057D01*
X0441813Y0146047D01*
X0441972Y0146033D01*
X0442131Y0146015D01*
X0442289Y0145994D01*
X0442446Y0145968D01*
X0442603Y0145938D01*
X0442759Y0145905D01*
X0442914Y0145867D01*
X0443068Y0145826D01*
X0443221Y0145781D01*
X0443373Y0145732D01*
X0443524Y0145679D01*
X0443673Y0145623D01*
X0443821Y0145562D01*
X0443967Y0145499D01*
X0444112Y0145431D01*
X0444255Y0145360D01*
X0444396Y0145286D01*
X0444535Y0145208D01*
X0444672Y0145126D01*
X0444807Y0145041D01*
X0444940Y0144953D01*
X0445071Y0144861D01*
X0445199Y0144767D01*
X0445325Y0144669D01*
X0445449Y0144568D01*
X0445570Y0144464D01*
X0445688Y0144357D01*
X0445804Y0144247D01*
X0445917Y0144134D01*
X0446027Y0144018D01*
X0446134Y0143900D01*
X0446238Y0143779D01*
X0446339Y0143655D01*
X0446437Y0143529D01*
X0446531Y0143401D01*
X0446623Y0143270D01*
X0446711Y0143137D01*
X0446796Y0143002D01*
X0446878Y0142865D01*
X0446956Y0142726D01*
X0447030Y0142585D01*
X0447101Y0142442D01*
X0447169Y0142297D01*
X0447232Y0142151D01*
X0447293Y0142003D01*
X0447349Y0141854D01*
X0447402Y0141703D01*
X0447451Y0141551D01*
X0447496Y0141398D01*
X0447537Y0141244D01*
X0447575Y0141089D01*
X0447608Y0140933D01*
X0447638Y0140776D01*
X0447664Y0140619D01*
X0447685Y0140461D01*
X0447703Y0140302D01*
X0447717Y0140143D01*
X0447727Y0139984D01*
X0447733Y0139825D01*
X0447735Y0139665D01*
X0447733Y0139505D01*
X0447727Y0139346D01*
X0447717Y0139187D01*
X0447703Y0139028D01*
X0447685Y0138869D01*
X0447664Y0138711D01*
X0447638Y0138554D01*
X0447608Y0138397D01*
X0447575Y0138241D01*
X0447537Y0138086D01*
X0447496Y0137932D01*
X0447451Y0137779D01*
X0447402Y0137627D01*
X0447349Y0137476D01*
X0447293Y0137327D01*
X0447232Y0137179D01*
X0447169Y0137033D01*
X0447101Y0136888D01*
X0447030Y0136745D01*
X0446956Y0136604D01*
X0446878Y0136465D01*
X0446796Y0136328D01*
X0446711Y0136193D01*
X0446623Y0136060D01*
X0446531Y0135929D01*
X0446437Y0135801D01*
X0446339Y0135675D01*
X0446238Y0135551D01*
X0446134Y0135430D01*
X0446027Y0135312D01*
X0445917Y0135196D01*
X0445804Y0135083D01*
X0445688Y0134973D01*
X0445570Y0134866D01*
X0445449Y0134762D01*
X0445325Y0134661D01*
X0445199Y0134563D01*
X0445071Y0134469D01*
X0444940Y0134377D01*
X0444807Y0134289D01*
X0444672Y0134204D01*
X0444535Y0134122D01*
X0444396Y0134044D01*
X0444255Y0133970D01*
X0444112Y0133899D01*
X0443967Y0133831D01*
X0443821Y0133768D01*
X0443673Y0133707D01*
X0443524Y0133651D01*
X0443373Y0133598D01*
X0443221Y0133549D01*
X0443068Y0133504D01*
X0442914Y0133463D01*
X0442759Y0133425D01*
X0442603Y0133392D01*
X0442446Y0133362D01*
X0442289Y0133336D01*
X0442131Y0133315D01*
X0441972Y0133297D01*
X0441813Y0133283D01*
X0441654Y0133273D01*
X0441495Y0133267D01*
X0441335Y0133265D01*
X0441175Y0133267D01*
X0441016Y0133273D01*
X0440857Y0133283D01*
X0440698Y0133297D01*
X0440539Y0133315D01*
X0440381Y0133336D01*
X0440224Y0133362D01*
X0440067Y0133392D01*
X0439911Y0133425D01*
X0439756Y0133463D01*
X0439602Y0133504D01*
X0439449Y0133549D01*
X0439297Y0133598D01*
X0439146Y0133651D01*
X0438997Y0133707D01*
X0438849Y0133768D01*
X0438703Y0133831D01*
X0438558Y0133899D01*
X0438415Y0133970D01*
X0438274Y0134044D01*
X0438135Y0134122D01*
X0437998Y0134204D01*
X0437863Y0134289D01*
X0437730Y0134377D01*
X0437599Y0134469D01*
X0437471Y0134563D01*
X0437345Y0134661D01*
X0437221Y0134762D01*
X0437100Y0134866D01*
X0436982Y0134973D01*
X0436866Y0135083D01*
X0436753Y0135196D01*
X0436643Y0135312D01*
X0436536Y0135430D01*
X0436432Y0135551D01*
X0436331Y0135675D01*
X0436233Y0135801D01*
X0436139Y0135929D01*
X0436047Y0136060D01*
X0435959Y0136193D01*
X0435874Y0136328D01*
X0435792Y0136465D01*
X0435714Y0136604D01*
X0435640Y0136745D01*
X0435569Y0136888D01*
X0435501Y0137033D01*
X0435438Y0137179D01*
X0435377Y0137327D01*
X0435321Y0137476D01*
X0435268Y0137627D01*
X0435219Y0137779D01*
X0435174Y0137932D01*
X0435133Y0138086D01*
X0435095Y0138241D01*
X0435062Y0138397D01*
X0435032Y0138554D01*
X0435006Y0138711D01*
X0434985Y0138869D01*
X0434967Y0139028D01*
X0434953Y0139187D01*
X0434943Y0139346D01*
X0434937Y0139505D01*
X0434935Y0139665D01*
X0102457Y0229862D02*
X0102459Y0230010D01*
X0102465Y0230158D01*
X0102475Y0230306D01*
X0102489Y0230453D01*
X0102507Y0230600D01*
X0102528Y0230746D01*
X0102554Y0230892D01*
X0102584Y0231037D01*
X0102617Y0231181D01*
X0102655Y0231324D01*
X0102696Y0231466D01*
X0102741Y0231607D01*
X0102789Y0231747D01*
X0102842Y0231886D01*
X0102898Y0232023D01*
X0102958Y0232158D01*
X0103021Y0232292D01*
X0103088Y0232424D01*
X0103159Y0232554D01*
X0103233Y0232682D01*
X0103310Y0232808D01*
X0103391Y0232932D01*
X0103475Y0233054D01*
X0103562Y0233173D01*
X0103653Y0233290D01*
X0103747Y0233405D01*
X0103843Y0233517D01*
X0103943Y0233627D01*
X0104045Y0233733D01*
X0104151Y0233837D01*
X0104259Y0233938D01*
X0104370Y0234036D01*
X0104483Y0234132D01*
X0104599Y0234224D01*
X0104717Y0234313D01*
X0104838Y0234398D01*
X0104961Y0234481D01*
X0105086Y0234560D01*
X0105213Y0234636D01*
X0105342Y0234708D01*
X0105473Y0234777D01*
X0105606Y0234842D01*
X0105741Y0234903D01*
X0105877Y0234961D01*
X0106014Y0235016D01*
X0106153Y0235066D01*
X0106294Y0235113D01*
X0106435Y0235156D01*
X0106578Y0235196D01*
X0106722Y0235231D01*
X0106866Y0235263D01*
X0107012Y0235290D01*
X0107158Y0235314D01*
X0107305Y0235334D01*
X0107452Y0235350D01*
X0107599Y0235362D01*
X0107747Y0235370D01*
X0107895Y0235374D01*
X0108043Y0235374D01*
X0108191Y0235370D01*
X0108339Y0235362D01*
X0108486Y0235350D01*
X0108633Y0235334D01*
X0108780Y0235314D01*
X0108926Y0235290D01*
X0109072Y0235263D01*
X0109216Y0235231D01*
X0109360Y0235196D01*
X0109503Y0235156D01*
X0109644Y0235113D01*
X0109785Y0235066D01*
X0109924Y0235016D01*
X0110061Y0234961D01*
X0110197Y0234903D01*
X0110332Y0234842D01*
X0110465Y0234777D01*
X0110596Y0234708D01*
X0110725Y0234636D01*
X0110852Y0234560D01*
X0110977Y0234481D01*
X0111100Y0234398D01*
X0111221Y0234313D01*
X0111339Y0234224D01*
X0111455Y0234132D01*
X0111568Y0234036D01*
X0111679Y0233938D01*
X0111787Y0233837D01*
X0111893Y0233733D01*
X0111995Y0233627D01*
X0112095Y0233517D01*
X0112191Y0233405D01*
X0112285Y0233290D01*
X0112376Y0233173D01*
X0112463Y0233054D01*
X0112547Y0232932D01*
X0112628Y0232808D01*
X0112705Y0232682D01*
X0112779Y0232554D01*
X0112850Y0232424D01*
X0112917Y0232292D01*
X0112980Y0232158D01*
X0113040Y0232023D01*
X0113096Y0231886D01*
X0113149Y0231747D01*
X0113197Y0231607D01*
X0113242Y0231466D01*
X0113283Y0231324D01*
X0113321Y0231181D01*
X0113354Y0231037D01*
X0113384Y0230892D01*
X0113410Y0230746D01*
X0113431Y0230600D01*
X0113449Y0230453D01*
X0113463Y0230306D01*
X0113473Y0230158D01*
X0113479Y0230010D01*
X0113481Y0229862D01*
X0113479Y0229714D01*
X0113473Y0229566D01*
X0113463Y0229418D01*
X0113449Y0229271D01*
X0113431Y0229124D01*
X0113410Y0228978D01*
X0113384Y0228832D01*
X0113354Y0228687D01*
X0113321Y0228543D01*
X0113283Y0228400D01*
X0113242Y0228258D01*
X0113197Y0228117D01*
X0113149Y0227977D01*
X0113096Y0227838D01*
X0113040Y0227701D01*
X0112980Y0227566D01*
X0112917Y0227432D01*
X0112850Y0227300D01*
X0112779Y0227170D01*
X0112705Y0227042D01*
X0112628Y0226916D01*
X0112547Y0226792D01*
X0112463Y0226670D01*
X0112376Y0226551D01*
X0112285Y0226434D01*
X0112191Y0226319D01*
X0112095Y0226207D01*
X0111995Y0226097D01*
X0111893Y0225991D01*
X0111787Y0225887D01*
X0111679Y0225786D01*
X0111568Y0225688D01*
X0111455Y0225592D01*
X0111339Y0225500D01*
X0111221Y0225411D01*
X0111100Y0225326D01*
X0110977Y0225243D01*
X0110852Y0225164D01*
X0110725Y0225088D01*
X0110596Y0225016D01*
X0110465Y0224947D01*
X0110332Y0224882D01*
X0110197Y0224821D01*
X0110061Y0224763D01*
X0109924Y0224708D01*
X0109785Y0224658D01*
X0109644Y0224611D01*
X0109503Y0224568D01*
X0109360Y0224528D01*
X0109216Y0224493D01*
X0109072Y0224461D01*
X0108926Y0224434D01*
X0108780Y0224410D01*
X0108633Y0224390D01*
X0108486Y0224374D01*
X0108339Y0224362D01*
X0108191Y0224354D01*
X0108043Y0224350D01*
X0107895Y0224350D01*
X0107747Y0224354D01*
X0107599Y0224362D01*
X0107452Y0224374D01*
X0107305Y0224390D01*
X0107158Y0224410D01*
X0107012Y0224434D01*
X0106866Y0224461D01*
X0106722Y0224493D01*
X0106578Y0224528D01*
X0106435Y0224568D01*
X0106294Y0224611D01*
X0106153Y0224658D01*
X0106014Y0224708D01*
X0105877Y0224763D01*
X0105741Y0224821D01*
X0105606Y0224882D01*
X0105473Y0224947D01*
X0105342Y0225016D01*
X0105213Y0225088D01*
X0105086Y0225164D01*
X0104961Y0225243D01*
X0104838Y0225326D01*
X0104717Y0225411D01*
X0104599Y0225500D01*
X0104483Y0225592D01*
X0104370Y0225688D01*
X0104259Y0225786D01*
X0104151Y0225887D01*
X0104045Y0225991D01*
X0103943Y0226097D01*
X0103843Y0226207D01*
X0103747Y0226319D01*
X0103653Y0226434D01*
X0103562Y0226551D01*
X0103475Y0226670D01*
X0103391Y0226792D01*
X0103310Y0226916D01*
X0103233Y0227042D01*
X0103159Y0227170D01*
X0103088Y0227300D01*
X0103021Y0227432D01*
X0102958Y0227566D01*
X0102898Y0227701D01*
X0102842Y0227838D01*
X0102789Y0227977D01*
X0102741Y0228117D01*
X0102696Y0228258D01*
X0102655Y0228400D01*
X0102617Y0228543D01*
X0102584Y0228687D01*
X0102554Y0228832D01*
X0102528Y0228978D01*
X0102507Y0229124D01*
X0102489Y0229271D01*
X0102475Y0229418D01*
X0102465Y0229566D01*
X0102459Y0229714D01*
X0102457Y0229862D01*
D17*
X0095907Y0148838D02*
X0095907Y0147570D01*
X0095907Y0148204D02*
X0097809Y0148204D01*
X0097175Y0147570D01*
X0097809Y0146628D02*
X0097809Y0145994D01*
X0097809Y0146311D02*
X0096224Y0146311D01*
X0095907Y0145994D01*
X0095907Y0145677D01*
X0096224Y0145360D01*
X0310132Y0104198D02*
X0311400Y0104198D01*
X0310766Y0104198D02*
X0310766Y0106100D01*
X0311400Y0105466D01*
X0312342Y0105783D02*
X0312342Y0104515D01*
X0312659Y0104198D01*
X0313609Y0104198D01*
X0313609Y0106100D01*
X0312659Y0106100D01*
X0312342Y0105783D01*
X0322550Y0107348D02*
X0322550Y0115348D01*
D18*
X0234869Y0118650D02*
X0230265Y0118650D01*
X0231800Y0120185D01*
X0230265Y0121719D01*
X0234869Y0121719D01*
X0233334Y0124021D02*
X0233334Y0125556D01*
X0232567Y0126323D01*
X0230265Y0126323D01*
X0230265Y0124021D01*
X0231032Y0123254D01*
X0231800Y0124021D01*
X0231800Y0126323D01*
X0231800Y0127858D02*
X0233334Y0130160D01*
X0232567Y0131694D02*
X0233334Y0132462D01*
X0233334Y0133996D01*
X0232567Y0134764D01*
X0231800Y0134764D01*
X0231800Y0131694D01*
X0232567Y0131694D02*
X0231032Y0131694D01*
X0230265Y0132462D01*
X0230265Y0133996D01*
X0230265Y0130160D02*
X0231800Y0127858D01*
X0230265Y0127858D02*
X0234869Y0127858D01*
X0224869Y0126323D02*
X0220265Y0123254D01*
X0220265Y0126323D02*
X0224869Y0123254D01*
X0224869Y0121719D02*
X0224869Y0118650D01*
X0224869Y0120185D02*
X0220265Y0120185D01*
X0214869Y0120952D02*
X0214869Y0118650D01*
X0210265Y0118650D01*
X0211800Y0118650D02*
X0211800Y0120952D01*
X0212567Y0121719D01*
X0214102Y0121719D01*
X0214869Y0120952D01*
X0214869Y0123254D02*
X0210265Y0126323D01*
X0210265Y0123254D02*
X0214869Y0126323D01*
X0210265Y0121719D02*
X0211800Y0120185D01*
X0204869Y0121719D02*
X0203334Y0120185D01*
X0204869Y0118650D01*
X0200265Y0118650D01*
X0194869Y0118650D02*
X0193334Y0120185D01*
X0194869Y0121719D01*
X0190265Y0121719D01*
X0191032Y0123254D02*
X0190265Y0124021D01*
X0190265Y0125556D01*
X0191032Y0126323D01*
X0194102Y0126323D01*
X0194869Y0125556D01*
X0194869Y0124021D01*
X0194102Y0123254D01*
X0191032Y0123254D01*
X0184869Y0124021D02*
X0184869Y0125556D01*
X0184102Y0126323D01*
X0184869Y0127858D02*
X0180265Y0127858D01*
X0181800Y0127858D02*
X0184869Y0130927D01*
X0182567Y0128625D02*
X0180265Y0130927D01*
X0181032Y0126323D02*
X0180265Y0125556D01*
X0180265Y0124021D01*
X0181032Y0123254D01*
X0184102Y0123254D01*
X0184869Y0124021D01*
X0184102Y0121719D02*
X0184869Y0120952D01*
X0184869Y0119417D01*
X0184102Y0118650D01*
X0183334Y0118650D01*
X0182567Y0119417D01*
X0182567Y0120952D01*
X0181800Y0121719D01*
X0181032Y0121719D01*
X0180265Y0120952D01*
X0180265Y0119417D01*
X0181032Y0118650D01*
X0174869Y0120185D02*
X0173334Y0121719D01*
X0170265Y0121719D01*
X0171032Y0123254D02*
X0170265Y0124021D01*
X0170265Y0125556D01*
X0171032Y0126323D01*
X0172567Y0126323D01*
X0173334Y0125556D01*
X0173334Y0124789D01*
X0172567Y0123254D01*
X0174869Y0123254D01*
X0174869Y0126323D01*
X0172567Y0121719D02*
X0172567Y0118650D01*
X0173334Y0118650D02*
X0170265Y0118650D01*
X0173334Y0118650D02*
X0174869Y0120185D01*
X0164869Y0120185D02*
X0163334Y0118650D01*
X0160265Y0118650D01*
X0162567Y0118650D02*
X0162567Y0121719D01*
X0163334Y0121719D02*
X0160265Y0121719D01*
X0162567Y0123254D02*
X0162567Y0126323D01*
X0164869Y0125556D02*
X0162567Y0123254D01*
X0163334Y0121719D02*
X0164869Y0120185D01*
X0164869Y0125556D02*
X0160265Y0125556D01*
X0154869Y0125556D02*
X0154869Y0124021D01*
X0154102Y0123254D01*
X0153334Y0121719D02*
X0150265Y0121719D01*
X0151032Y0123254D02*
X0150265Y0124021D01*
X0150265Y0125556D01*
X0151032Y0126323D01*
X0151800Y0126323D01*
X0152567Y0125556D01*
X0152567Y0124789D01*
X0152567Y0125556D02*
X0153334Y0126323D01*
X0154102Y0126323D01*
X0154869Y0125556D01*
X0153334Y0121719D02*
X0154869Y0120185D01*
X0153334Y0118650D01*
X0150265Y0118650D01*
X0152567Y0118650D02*
X0152567Y0121719D01*
X0144869Y0120185D02*
X0143334Y0121719D01*
X0140265Y0121719D01*
X0140265Y0123254D02*
X0143334Y0126323D01*
X0144102Y0126323D01*
X0144869Y0125556D01*
X0144869Y0124021D01*
X0144102Y0123254D01*
X0142567Y0121719D02*
X0142567Y0118650D01*
X0143334Y0118650D02*
X0144869Y0120185D01*
X0143334Y0118650D02*
X0140265Y0118650D01*
X0134869Y0120185D02*
X0133334Y0121719D01*
X0130265Y0121719D01*
X0130265Y0123254D02*
X0130265Y0126323D01*
X0130265Y0124789D02*
X0134869Y0124789D01*
X0133334Y0123254D01*
X0132567Y0121719D02*
X0132567Y0118650D01*
X0133334Y0118650D02*
X0134869Y0120185D01*
X0133334Y0118650D02*
X0130265Y0118650D01*
X0124869Y0120185D02*
X0123334Y0121719D01*
X0120265Y0121719D01*
X0121032Y0123254D02*
X0124102Y0126323D01*
X0121032Y0126323D01*
X0120265Y0125556D01*
X0120265Y0124021D01*
X0121032Y0123254D01*
X0124102Y0123254D01*
X0124869Y0124021D01*
X0124869Y0125556D01*
X0124102Y0126323D01*
X0122567Y0121719D02*
X0122567Y0118650D01*
X0123334Y0118650D02*
X0124869Y0120185D01*
X0123334Y0118650D02*
X0120265Y0118650D01*
X0114869Y0119417D02*
X0114102Y0118650D01*
X0111032Y0118650D01*
X0110265Y0119417D01*
X0110265Y0120952D01*
X0111032Y0121719D01*
X0112567Y0121719D01*
X0112567Y0120185D01*
X0114102Y0121719D02*
X0114869Y0120952D01*
X0114869Y0119417D01*
X0114869Y0123254D02*
X0110265Y0123254D01*
X0110265Y0126323D02*
X0114869Y0126323D01*
X0114869Y0127858D02*
X0110265Y0127858D01*
X0110265Y0130160D01*
X0111032Y0130927D01*
X0114102Y0130927D01*
X0114869Y0130160D01*
X0114869Y0127858D01*
X0114869Y0123254D02*
X0110265Y0126323D01*
X0104869Y0125556D02*
X0104869Y0123254D01*
X0100265Y0123254D01*
X0101800Y0123254D02*
X0101800Y0125556D01*
X0102567Y0126323D01*
X0104102Y0126323D01*
X0104869Y0125556D01*
X0104102Y0128625D02*
X0104869Y0129392D01*
X0104102Y0128625D02*
X0100265Y0128625D01*
X0100265Y0126323D02*
X0101800Y0124789D01*
X0102567Y0127858D02*
X0102567Y0129392D01*
X0094869Y0128625D02*
X0094869Y0130160D01*
X0094102Y0130927D01*
X0093334Y0130927D01*
X0092567Y0130160D01*
X0091800Y0130927D01*
X0091032Y0130927D01*
X0090265Y0130160D01*
X0090265Y0128625D01*
X0091032Y0127858D01*
X0092567Y0129392D02*
X0092567Y0130160D01*
X0094102Y0127858D02*
X0094869Y0128625D01*
X0093334Y0126323D02*
X0090265Y0124789D01*
X0093334Y0123254D01*
X0093334Y0121719D02*
X0092567Y0120952D01*
X0091800Y0121719D01*
X0091032Y0121719D01*
X0090265Y0120952D01*
X0090265Y0119417D01*
X0091032Y0118650D01*
X0092567Y0120185D02*
X0092567Y0120952D01*
X0093334Y0121719D02*
X0094102Y0121719D01*
X0094869Y0120952D01*
X0094869Y0119417D01*
X0094102Y0118650D01*
X0084869Y0118650D02*
X0084869Y0120952D01*
X0084102Y0121719D01*
X0082567Y0121719D01*
X0081800Y0120952D01*
X0081800Y0118650D01*
X0081800Y0120185D02*
X0080265Y0121719D01*
X0081032Y0123254D02*
X0080265Y0124021D01*
X0080265Y0125556D01*
X0081032Y0126323D01*
X0081800Y0126323D01*
X0082567Y0125556D01*
X0082567Y0124021D01*
X0083334Y0123254D01*
X0084102Y0123254D01*
X0084869Y0124021D01*
X0084869Y0125556D01*
X0084102Y0126323D01*
X0084869Y0127858D02*
X0084869Y0130927D01*
X0084869Y0129392D02*
X0080265Y0129392D01*
X0080265Y0118650D02*
X0084869Y0118650D01*
X0100265Y0118650D02*
X0103334Y0118650D01*
X0104869Y0120185D01*
X0103334Y0121719D01*
X0100265Y0121719D01*
X0102567Y0121719D02*
X0102567Y0118650D01*
X0140265Y0123254D02*
X0140265Y0126323D01*
X0190265Y0128625D02*
X0191032Y0127858D01*
X0190265Y0128625D02*
X0190265Y0130160D01*
X0191032Y0130927D01*
X0191800Y0130927D01*
X0192567Y0130160D01*
X0192567Y0128625D01*
X0193334Y0127858D01*
X0194102Y0127858D01*
X0194869Y0128625D01*
X0194869Y0130160D01*
X0194102Y0130927D01*
X0194869Y0132462D02*
X0194869Y0133996D01*
X0194869Y0133229D02*
X0190265Y0133229D01*
X0190265Y0132462D02*
X0190265Y0133996D01*
X0200265Y0133229D02*
X0200265Y0131694D01*
X0201032Y0130927D01*
X0204102Y0130927D01*
X0204869Y0131694D01*
X0204869Y0133229D01*
X0204102Y0133996D01*
X0201032Y0133996D01*
X0200265Y0133229D01*
X0201032Y0129392D02*
X0200265Y0128625D01*
X0200265Y0127091D01*
X0201032Y0126323D01*
X0200265Y0124789D02*
X0200265Y0123254D01*
X0200265Y0124021D02*
X0204869Y0124021D01*
X0204869Y0123254D02*
X0204869Y0124789D01*
X0204102Y0126323D02*
X0203334Y0126323D01*
X0202567Y0127091D01*
X0202567Y0128625D01*
X0201800Y0129392D01*
X0201032Y0129392D01*
X0204102Y0129392D02*
X0204869Y0128625D01*
X0204869Y0127091D01*
X0204102Y0126323D01*
X0204869Y0121719D02*
X0200265Y0121719D01*
X0194869Y0118650D02*
X0190265Y0118650D01*
X0220432Y0162430D02*
X0219665Y0163198D01*
X0219665Y0164732D01*
X0220432Y0165500D01*
X0221200Y0165500D01*
X0221967Y0164732D01*
X0221967Y0163965D01*
X0221967Y0164732D02*
X0222734Y0165500D01*
X0223502Y0165500D01*
X0224269Y0164732D01*
X0224269Y0163198D01*
X0223502Y0162430D01*
X0219665Y0167034D02*
X0224269Y0170104D01*
X0223502Y0171638D02*
X0222734Y0171638D01*
X0221967Y0172405D01*
X0221967Y0173940D01*
X0221200Y0174707D01*
X0220432Y0174707D01*
X0219665Y0173940D01*
X0219665Y0172405D01*
X0220432Y0171638D01*
X0223502Y0171638D02*
X0224269Y0172405D01*
X0224269Y0173940D01*
X0223502Y0174707D01*
X0223502Y0176242D02*
X0220432Y0176242D01*
X0219665Y0177009D01*
X0219665Y0178544D01*
X0220432Y0179311D01*
X0219665Y0180846D02*
X0219665Y0183915D01*
X0214269Y0183915D02*
X0214269Y0180846D01*
X0211967Y0180846D01*
X0212734Y0182381D01*
X0212734Y0183148D01*
X0211967Y0183915D01*
X0210432Y0183915D01*
X0209665Y0183148D01*
X0209665Y0181613D01*
X0210432Y0180846D01*
X0204269Y0183915D02*
X0203502Y0182381D01*
X0201967Y0180846D01*
X0201967Y0183148D01*
X0201200Y0183915D01*
X0200432Y0183915D01*
X0199665Y0183148D01*
X0199665Y0181613D01*
X0200432Y0180846D01*
X0201967Y0180846D01*
X0195036Y0177009D02*
X0193502Y0178544D01*
X0194269Y0179311D01*
X0193502Y0180846D02*
X0192734Y0180846D01*
X0191967Y0181613D01*
X0191967Y0183915D01*
X0193502Y0183915D02*
X0194269Y0183148D01*
X0194269Y0181613D01*
X0193502Y0180846D01*
X0190432Y0180846D02*
X0189665Y0181613D01*
X0189665Y0183148D01*
X0190432Y0183915D01*
X0193502Y0183915D01*
X0184269Y0183148D02*
X0183502Y0183915D01*
X0180432Y0180846D01*
X0179665Y0181613D01*
X0179665Y0183148D01*
X0180432Y0183915D01*
X0183502Y0183915D01*
X0184269Y0183148D02*
X0184269Y0181613D01*
X0183502Y0180846D01*
X0180432Y0180846D01*
X0179665Y0179311D02*
X0179665Y0176242D01*
X0179665Y0177777D02*
X0184269Y0177777D01*
X0182734Y0176242D01*
X0184269Y0174707D02*
X0183502Y0173940D01*
X0185036Y0172406D01*
X0184269Y0171638D01*
X0175036Y0172406D02*
X0173502Y0173940D01*
X0174269Y0174707D01*
X0172734Y0176242D02*
X0174269Y0177777D01*
X0169665Y0177777D01*
X0169665Y0179311D02*
X0169665Y0176242D01*
X0169665Y0180846D02*
X0169665Y0183915D01*
X0169665Y0182381D02*
X0174269Y0182381D01*
X0172734Y0180846D01*
X0164269Y0181613D02*
X0163502Y0180846D01*
X0164269Y0181613D02*
X0164269Y0183148D01*
X0163502Y0183915D01*
X0162734Y0183915D01*
X0159665Y0180846D01*
X0159665Y0183915D01*
X0154269Y0183148D02*
X0153502Y0183915D01*
X0152734Y0183915D01*
X0151967Y0183148D01*
X0151200Y0183915D01*
X0150432Y0183915D01*
X0149665Y0183148D01*
X0149665Y0181613D01*
X0150432Y0180846D01*
X0149665Y0179311D02*
X0149665Y0176242D01*
X0149665Y0177777D02*
X0154269Y0177777D01*
X0152734Y0176242D01*
X0153502Y0180846D02*
X0154269Y0181613D01*
X0154269Y0183148D01*
X0151967Y0183148D02*
X0151967Y0182381D01*
X0159665Y0179311D02*
X0159665Y0176242D01*
X0159665Y0177777D02*
X0164269Y0177777D01*
X0162734Y0176242D01*
X0174269Y0171638D02*
X0175036Y0172406D01*
X0194269Y0176242D02*
X0195036Y0177009D01*
X0219665Y0180846D02*
X0224269Y0180846D01*
X0223502Y0179311D02*
X0224269Y0178544D01*
X0224269Y0177009D01*
X0223502Y0176242D01*
X0229665Y0176242D02*
X0229665Y0178544D01*
X0230432Y0179311D01*
X0233502Y0179311D01*
X0234269Y0178544D01*
X0234269Y0176242D01*
X0229665Y0176242D01*
X0230432Y0174707D02*
X0229665Y0173940D01*
X0229665Y0172405D01*
X0230432Y0171638D01*
X0231967Y0172405D02*
X0231967Y0173940D01*
X0231200Y0174707D01*
X0230432Y0174707D01*
X0231967Y0172405D02*
X0232734Y0171638D01*
X0233502Y0171638D01*
X0234269Y0172405D01*
X0234269Y0173940D01*
X0233502Y0174707D01*
X0234269Y0170104D02*
X0229665Y0167034D01*
X0229665Y0165500D02*
X0229665Y0162430D01*
X0232734Y0165500D01*
X0233502Y0165500D01*
X0234269Y0164732D01*
X0234269Y0163198D01*
X0233502Y0162430D01*
X0232734Y0180846D02*
X0234269Y0182381D01*
X0232734Y0183915D01*
X0229665Y0183915D01*
X0231967Y0183915D02*
X0231967Y0180846D01*
X0232734Y0180846D02*
X0229665Y0180846D01*
X0144269Y0180846D02*
X0144269Y0183148D01*
X0143502Y0183915D01*
X0142734Y0183915D01*
X0141967Y0183148D01*
X0141967Y0180846D01*
X0141200Y0179311D02*
X0140432Y0179311D01*
X0139665Y0178544D01*
X0139665Y0177009D01*
X0140432Y0176242D01*
X0140432Y0174707D02*
X0144269Y0174707D01*
X0143502Y0176242D02*
X0142734Y0176242D01*
X0141967Y0177009D01*
X0141967Y0178544D01*
X0141200Y0179311D01*
X0139665Y0180846D02*
X0139665Y0183148D01*
X0140432Y0183915D01*
X0141200Y0183915D01*
X0141967Y0183148D01*
X0139665Y0180846D02*
X0144269Y0180846D01*
X0143502Y0179311D02*
X0144269Y0178544D01*
X0144269Y0177009D01*
X0143502Y0176242D01*
X0140432Y0174707D02*
X0139665Y0173940D01*
X0139665Y0172406D01*
X0140432Y0171638D01*
X0144269Y0171638D01*
X0134269Y0176242D02*
X0129665Y0176242D01*
X0129665Y0179311D01*
X0129665Y0180846D02*
X0134269Y0180846D01*
X0129665Y0183915D01*
X0134269Y0183915D01*
X0134269Y0179311D02*
X0134269Y0176242D01*
X0131967Y0176242D02*
X0131967Y0177777D01*
X0124269Y0177777D02*
X0122734Y0179311D01*
X0119665Y0179311D01*
X0121967Y0179311D02*
X0121967Y0176242D01*
X0122734Y0176242D02*
X0119665Y0176242D01*
X0120432Y0174707D02*
X0119665Y0173940D01*
X0119665Y0171638D01*
X0124269Y0171638D01*
X0124269Y0173940D01*
X0123502Y0174707D01*
X0122734Y0174707D01*
X0121967Y0173940D01*
X0121967Y0171638D01*
X0121967Y0173940D02*
X0121200Y0174707D01*
X0120432Y0174707D01*
X0122734Y0176242D02*
X0124269Y0177777D01*
X0124269Y0180846D02*
X0124269Y0183915D01*
X0124269Y0182381D02*
X0119665Y0182381D01*
M02*
