G75*
%MOIN*%
%OFA0B0*%
%FSLAX25Y25*%
%IPPOS*%
%LPD*%
%AMOC8*
5,1,8,0,0,1.08239X$1,22.5*
%
%ADD10R,0.06306X0.06699*%
%ADD11C,0.09455*%
%ADD12C,0.07400*%
%ADD13R,0.07800X0.07800*%
%ADD14C,0.07800*%
%ADD15C,0.11424*%
%ADD16C,0.13200*%
%ADD17C,0.09061*%
%ADD18R,0.18510X0.04337*%
%ADD19R,0.13786X0.06699*%
D10*
X0304563Y0111348D03*
X0318736Y0111348D03*
D11*
X0311650Y0111348D03*
D12*
X0232565Y0111250D03*
X0222565Y0111250D03*
X0212565Y0111250D03*
X0202565Y0111250D03*
X0192565Y0111250D03*
X0182565Y0111250D03*
X0172565Y0111250D03*
X0162565Y0111250D03*
X0152565Y0111250D03*
X0142565Y0111250D03*
X0132565Y0111250D03*
X0122565Y0111250D03*
X0112565Y0111250D03*
X0102565Y0111250D03*
X0092565Y0111250D03*
X0082565Y0111250D03*
X0122565Y0191250D03*
X0132565Y0191250D03*
X0142565Y0191250D03*
X0152565Y0191250D03*
X0162565Y0191250D03*
X0172565Y0191250D03*
X0182565Y0191250D03*
X0192565Y0191250D03*
X0202565Y0191250D03*
X0212565Y0191250D03*
X0222565Y0191250D03*
X0232565Y0191250D03*
X0293815Y0229528D03*
X0303657Y0229528D03*
X0313500Y0229528D03*
X0350902Y0229350D03*
X0360744Y0229350D03*
X0370587Y0229350D03*
D13*
X0331157Y0080610D03*
X0284907Y0080610D03*
D14*
X0274907Y0080610D03*
X0262957Y0081010D03*
X0237357Y0081010D03*
X0237357Y0098810D03*
X0262957Y0098810D03*
X0321157Y0080610D03*
X0406335Y0107165D03*
X0416335Y0112165D03*
X0406335Y0117165D03*
X0416335Y0122165D03*
X0406335Y0127165D03*
X0416335Y0132165D03*
X0406335Y0170157D03*
X0416335Y0175157D03*
X0406335Y0180157D03*
X0416335Y0185157D03*
X0406335Y0190157D03*
X0416335Y0195157D03*
X0273614Y0167150D03*
X0273614Y0157150D03*
X0273614Y0147150D03*
X0273614Y0137150D03*
D15*
X0107969Y0072382D03*
X0403244Y0072382D03*
X0403244Y0229862D03*
X0107969Y0229862D03*
D16*
X0441335Y0202657D03*
X0441335Y0162657D03*
X0441335Y0139665D03*
X0441335Y0099665D03*
D17*
X0369283Y0106284D03*
X0275583Y0106284D03*
X0275583Y0198017D03*
X0369283Y0198017D03*
D18*
X0074091Y0154547D03*
X0074091Y0146673D03*
D19*
X0094563Y0137224D03*
X0094563Y0163996D03*
M02*
