%
M48
M72
T01C0.02362
T02C0.03543
T03C0.03937
T04C0.04000
T05C0.08661
T06C0.09055
T07C0.11024
T08C0.12800
%
T01
X119015Y65200
X106515Y87700
X99015Y95200
X69015Y105200
X68815Y112500
X68315Y126800
X74015Y132700
X64015Y137700
X81157Y155610
X73815Y167500
X63815Y165000
X66315Y177500
X71315Y187500
X71315Y197500
X76315Y202500
X91315Y207500
X121315Y227500
X128815Y232500
X166315Y220000
X202257Y213010
X212257Y217210
X261315Y217500
X295315Y197100
X256265Y174100
X241265Y176600
X241265Y189100
X288657Y172510
X253765Y161600
X253765Y151600
X238765Y161600
X233765Y151600
X212165Y151100
X190715Y151000
X161315Y151400
X152815Y164600
X197457Y127010
X207965Y121900
X200315Y99600
X157815Y99600
X147815Y99600
X134015Y97700
X262815Y107100
X297457Y111610
X330315Y104600
X335315Y119600
X366157Y120610
X418815Y97500
X423815Y102500
X436315Y110000
X446315Y127500
X436315Y130000
X416315Y162500
X433815Y172500
X443815Y177500
X446315Y190000
X433815Y195000
X398057Y213210
X378057Y218210
X342815Y169600
X343957Y153410
X366157Y153110
X390015Y165000
X394015Y90200
X391515Y80200
X389015Y67700
X369015Y80200
T02
X370587Y229350
X360744Y229350
X350902Y229350
X313500Y229528
X303657Y229528
X293815Y229528
T03
X232565Y191250
X222565Y191250
X212565Y191250
X202565Y191250
X192565Y191250
X182565Y191250
X172565Y191250
X162565Y191250
X152565Y191250
X142565Y191250
X132565Y191250
X122565Y191250
X122565Y111250
X132565Y111250
X142565Y111250
X152565Y111250
X162565Y111250
X172565Y111250
X182565Y111250
X192565Y111250
X202565Y111250
X212565Y111250
X222565Y111250
X232565Y111250
X112565Y111250
X102565Y111250
X92565Y111250
X82565Y111250
T04
X237357Y98810
X262957Y98810
X262957Y81010
X274907Y80610
X284907Y80610
X321157Y80610
X331157Y80610
X406335Y107165
X416335Y112165
X406335Y117165
X416335Y122165
X406335Y127165
X416335Y132165
X406335Y170157
X416335Y175157
X406335Y180157
X416335Y185157
X406335Y190157
X416335Y195157
X273614Y167150
X273614Y157150
X273614Y147150
X273614Y137150
X237357Y81010
T05
X275583Y106284
X369283Y106284
X369283Y198017
X275583Y198017
T06
X311650Y111348
T07
X403244Y72382
X107969Y72382
X107969Y229862
X403244Y229862
T08
X441335Y202657
X441335Y162657
X441335Y139665
X441335Y99665
M30
