G75*
%MOIN*%
%OFA0B0*%
%FSLAX25Y25*%
%IPPOS*%
%LPD*%
%AMOC8*
5,1,8,0,0,1.08239X$1,22.5*
%
%ADD10C,0.01700*%
%ADD11C,0.01100*%
%ADD12C,0.00600*%
%ADD13C,0.00800*%
%ADD14C,0.04000*%
%ADD15C,0.03000*%
%ADD16C,0.01400*%
%ADD17C,0.00300*%
%ADD18C,0.00000*%
%ADD19C,0.00500*%
%ADD20C,0.00400*%
%ADD21C,0.00197*%
D10*
X0151199Y0079680D02*
X0152350Y0079680D01*
X0153501Y0080831D01*
X0153501Y0086586D01*
X0150048Y0086586D01*
X0148897Y0085435D01*
X0148897Y0083133D01*
X0150048Y0081982D01*
X0153501Y0081982D01*
X0156816Y0083133D02*
X0157967Y0081982D01*
X0161420Y0081982D01*
X0161420Y0080831D02*
X0160269Y0079680D01*
X0159118Y0079680D01*
X0161420Y0080831D02*
X0161420Y0086586D01*
X0164735Y0086586D02*
X0165886Y0085435D01*
X0168188Y0085435D01*
X0169339Y0084284D01*
X0169339Y0083133D01*
X0168188Y0081982D01*
X0165886Y0081982D01*
X0164735Y0083133D01*
X0156816Y0083133D02*
X0156816Y0086586D01*
X0164735Y0086586D02*
X0164735Y0087737D01*
X0165886Y0088888D01*
X0168188Y0088888D01*
X0169339Y0087737D01*
X0172654Y0086586D02*
X0174956Y0086586D01*
X0173805Y0087737D02*
X0173805Y0083133D01*
X0174956Y0081982D01*
X0177933Y0081982D02*
X0180235Y0081982D01*
X0179084Y0081982D02*
X0179084Y0086586D01*
X0177933Y0086586D01*
X0179084Y0088888D02*
X0179084Y0090039D01*
X0183212Y0085435D02*
X0184363Y0086586D01*
X0187816Y0086586D01*
X0191131Y0088888D02*
X0191131Y0081982D01*
X0191131Y0084284D02*
X0194584Y0081982D01*
X0197730Y0081982D02*
X0201183Y0081982D01*
X0202334Y0083133D01*
X0201183Y0084284D01*
X0198881Y0084284D01*
X0197730Y0085435D01*
X0198881Y0086586D01*
X0202334Y0086586D01*
X0209608Y0085435D02*
X0209608Y0083133D01*
X0210759Y0081982D01*
X0214212Y0081982D01*
X0217527Y0083133D02*
X0217527Y0085435D01*
X0218677Y0086586D01*
X0220979Y0086586D01*
X0222130Y0085435D01*
X0222130Y0083133D01*
X0220979Y0081982D01*
X0218677Y0081982D01*
X0217527Y0083133D01*
X0225445Y0081982D02*
X0225445Y0086586D01*
X0226596Y0086586D01*
X0227747Y0085435D01*
X0228898Y0086586D01*
X0230049Y0085435D01*
X0230049Y0081982D01*
X0227747Y0081982D02*
X0227747Y0085435D01*
X0214212Y0086586D02*
X0210759Y0086586D01*
X0209608Y0085435D01*
X0206799Y0083133D02*
X0205648Y0083133D01*
X0205648Y0081982D01*
X0206799Y0081982D01*
X0206799Y0083133D01*
X0194584Y0086586D02*
X0191131Y0084284D01*
X0187816Y0081982D02*
X0184363Y0081982D01*
X0183212Y0083133D01*
X0183212Y0085435D01*
X0145582Y0085435D02*
X0145582Y0081982D01*
X0145582Y0085435D02*
X0144431Y0086586D01*
X0140979Y0086586D01*
X0140979Y0081982D01*
X0138001Y0081982D02*
X0135699Y0081982D01*
X0136850Y0081982D02*
X0136850Y0086586D01*
X0135699Y0086586D01*
X0136850Y0088888D02*
X0136850Y0090039D01*
X0132384Y0085435D02*
X0131234Y0086586D01*
X0128932Y0086586D01*
X0127781Y0085435D01*
X0127781Y0088888D02*
X0127781Y0081982D01*
X0132384Y0081982D02*
X0132384Y0085435D01*
X0124466Y0088888D02*
X0119862Y0088888D01*
X0122164Y0088888D02*
X0122164Y0081982D01*
X0317114Y0206167D02*
X0317114Y0213072D01*
X0321718Y0213072D01*
X0325033Y0213072D02*
X0325033Y0206167D01*
X0329637Y0206167D01*
X0332951Y0207318D02*
X0334102Y0206167D01*
X0336404Y0206167D01*
X0337555Y0207318D01*
X0337555Y0211921D01*
X0336404Y0213072D01*
X0334102Y0213072D01*
X0332951Y0211921D01*
X0332951Y0207318D01*
X0340870Y0206167D02*
X0340870Y0213072D01*
X0345474Y0213072D02*
X0345474Y0206167D01*
X0343172Y0208468D01*
X0340870Y0206167D01*
X0319416Y0209619D02*
X0317114Y0209619D01*
D11*
X0265576Y0172989D02*
X0265576Y0172005D01*
X0265576Y0172989D02*
X0264592Y0173973D01*
X0259671Y0173973D01*
X0263607Y0173973D02*
X0263607Y0171020D01*
X0262623Y0170036D01*
X0259671Y0170036D01*
X0260655Y0167527D02*
X0263607Y0167527D01*
X0263607Y0164575D01*
X0262623Y0163591D01*
X0261639Y0164575D01*
X0261639Y0167527D01*
X0260655Y0167527D02*
X0259671Y0166543D01*
X0259671Y0164575D01*
X0257702Y0160278D02*
X0263607Y0160278D01*
X0263607Y0159294D02*
X0263607Y0161262D01*
X0262623Y0156785D02*
X0260655Y0156785D01*
X0259671Y0155801D01*
X0259671Y0152848D01*
X0265576Y0152848D01*
X0263607Y0152848D02*
X0263607Y0155801D01*
X0262623Y0156785D01*
X0257702Y0159294D02*
X0257702Y0160278D01*
X0259671Y0150339D02*
X0259671Y0147387D01*
X0260655Y0146403D01*
X0261639Y0147387D01*
X0261639Y0149355D01*
X0262623Y0150339D01*
X0263607Y0149355D01*
X0263607Y0146403D01*
X0263607Y0144074D02*
X0263607Y0142106D01*
X0263607Y0143090D02*
X0259671Y0143090D01*
X0259671Y0142106D01*
X0257702Y0143090D02*
X0256718Y0143090D01*
X0258687Y0139597D02*
X0257702Y0138613D01*
X0257702Y0135660D01*
X0263607Y0135660D01*
X0263607Y0138613D01*
X0262623Y0139597D01*
X0258687Y0139597D01*
X0214251Y0076749D02*
X0214251Y0075765D01*
X0214251Y0073797D02*
X0214251Y0069860D01*
X0213267Y0069860D02*
X0215236Y0069860D01*
X0218548Y0070844D02*
X0219533Y0069860D01*
X0218548Y0070844D02*
X0218548Y0074781D01*
X0217564Y0073797D02*
X0219533Y0073797D01*
X0221861Y0072813D02*
X0221861Y0070844D01*
X0222845Y0069860D01*
X0224814Y0069860D01*
X0225798Y0070844D01*
X0225798Y0072813D01*
X0224814Y0073797D01*
X0222845Y0073797D01*
X0221861Y0072813D01*
X0214251Y0073797D02*
X0213267Y0073797D01*
X0210758Y0072813D02*
X0210758Y0069860D01*
X0210758Y0072813D02*
X0209774Y0073797D01*
X0206822Y0073797D01*
X0206822Y0069860D01*
X0204313Y0070844D02*
X0204313Y0072813D01*
X0203329Y0073797D01*
X0201360Y0073797D01*
X0200376Y0072813D01*
X0200376Y0070844D01*
X0201360Y0069860D01*
X0203329Y0069860D01*
X0204313Y0070844D01*
X0197867Y0069860D02*
X0197867Y0075765D01*
X0195899Y0073797D01*
X0193931Y0075765D01*
X0193931Y0069860D01*
X0184976Y0071829D02*
X0181040Y0071829D01*
X0181040Y0072813D02*
X0182024Y0073797D01*
X0183992Y0073797D01*
X0184976Y0072813D01*
X0184976Y0071829D01*
X0183992Y0069860D02*
X0182024Y0069860D01*
X0181040Y0070844D01*
X0181040Y0072813D01*
X0178531Y0073797D02*
X0175578Y0073797D01*
X0174594Y0072813D01*
X0174594Y0070844D01*
X0175578Y0069860D01*
X0178531Y0069860D01*
X0178531Y0068876D02*
X0178531Y0073797D01*
X0178531Y0068876D02*
X0177547Y0067892D01*
X0176563Y0067892D01*
X0172085Y0069860D02*
X0172085Y0072813D01*
X0171101Y0073797D01*
X0169133Y0073797D01*
X0169133Y0071829D02*
X0172085Y0071829D01*
X0172085Y0069860D02*
X0169133Y0069860D01*
X0168149Y0070844D01*
X0169133Y0071829D01*
X0165640Y0070844D02*
X0164656Y0069860D01*
X0161703Y0069860D01*
X0162687Y0071829D02*
X0161703Y0072813D01*
X0162687Y0073797D01*
X0165640Y0073797D01*
X0164656Y0071829D02*
X0162687Y0071829D01*
X0164656Y0071829D02*
X0165640Y0070844D01*
X0159194Y0070844D02*
X0158210Y0069860D01*
X0156242Y0069860D01*
X0155258Y0070844D01*
X0155258Y0075765D01*
X0159194Y0075765D02*
X0159194Y0070844D01*
X0146393Y0073797D02*
X0145409Y0073797D01*
X0143441Y0071829D01*
X0143441Y0073797D02*
X0143441Y0069860D01*
X0140932Y0071829D02*
X0136995Y0071829D01*
X0136995Y0072813D02*
X0137980Y0073797D01*
X0139948Y0073797D01*
X0140932Y0072813D01*
X0140932Y0071829D01*
X0139948Y0069860D02*
X0137980Y0069860D01*
X0136995Y0070844D01*
X0136995Y0072813D01*
X0134667Y0073797D02*
X0132698Y0073797D01*
X0133683Y0074781D02*
X0133683Y0070844D01*
X0134667Y0069860D01*
X0130190Y0069860D02*
X0130190Y0072813D01*
X0129205Y0073797D01*
X0127237Y0073797D01*
X0127237Y0071829D02*
X0130190Y0071829D01*
X0130190Y0069860D02*
X0127237Y0069860D01*
X0126253Y0070844D01*
X0127237Y0071829D01*
X0123744Y0069860D02*
X0123744Y0075765D01*
X0119807Y0075765D02*
X0119807Y0069860D01*
X0121776Y0071829D01*
X0123744Y0069860D01*
X0228307Y0069860D02*
X0228307Y0073797D01*
X0230275Y0073797D02*
X0231259Y0073797D01*
X0230275Y0073797D02*
X0228307Y0071829D01*
X0122132Y0213639D02*
X0118195Y0213639D01*
X0120163Y0213639D02*
X0120163Y0219544D01*
X0118195Y0217575D01*
X0115956Y0214623D02*
X0115956Y0213639D01*
X0114972Y0213639D01*
X0114972Y0214623D01*
X0115956Y0214623D01*
X0112463Y0218559D02*
X0108527Y0214623D01*
X0108527Y0213639D01*
X0106018Y0215607D02*
X0106018Y0219544D01*
X0108527Y0219544D02*
X0112463Y0219544D01*
X0112463Y0218559D01*
X0106018Y0215607D02*
X0104050Y0213639D01*
X0102081Y0215607D01*
X0102081Y0219544D01*
D12*
X0145362Y0177569D02*
X0145362Y0175300D01*
X0147064Y0175300D01*
X0146496Y0176434D01*
X0146496Y0177001D01*
X0147064Y0177569D01*
X0148198Y0177569D01*
X0148765Y0177001D01*
X0148765Y0175867D01*
X0148198Y0175300D01*
X0148765Y0173885D02*
X0147631Y0172751D01*
X0147631Y0173318D02*
X0147631Y0171617D01*
X0148765Y0171617D02*
X0145362Y0171617D01*
X0145362Y0173318D01*
X0145929Y0173885D01*
X0147064Y0173885D01*
X0147631Y0173318D01*
X0161255Y0167753D02*
X0161822Y0168320D01*
X0164090Y0166052D01*
X0164657Y0166619D01*
X0164657Y0167753D01*
X0164090Y0168320D01*
X0161822Y0168320D01*
X0161255Y0167753D02*
X0161255Y0166619D01*
X0161822Y0166052D01*
X0164090Y0166052D01*
X0164657Y0164637D02*
X0164657Y0162369D01*
X0162389Y0164637D01*
X0161822Y0164637D01*
X0161255Y0164070D01*
X0161255Y0162936D01*
X0161822Y0162369D01*
X0161822Y0160954D02*
X0161255Y0160387D01*
X0161255Y0158686D01*
X0164657Y0158686D01*
X0163523Y0158686D02*
X0163523Y0160387D01*
X0162956Y0160954D01*
X0161822Y0160954D01*
X0163523Y0159820D02*
X0164657Y0160954D01*
X0170362Y0160527D02*
X0170362Y0158825D01*
X0173765Y0158825D01*
X0172631Y0158825D02*
X0172631Y0160527D01*
X0172064Y0161094D01*
X0170929Y0161094D01*
X0170362Y0160527D01*
X0171496Y0162508D02*
X0170362Y0163643D01*
X0173765Y0163643D01*
X0173765Y0164777D02*
X0173765Y0162508D01*
X0173765Y0161094D02*
X0172631Y0159960D01*
X0181562Y0160727D02*
X0181562Y0159025D01*
X0184965Y0159025D01*
X0183831Y0159025D02*
X0183831Y0160727D01*
X0183264Y0161294D01*
X0182129Y0161294D01*
X0181562Y0160727D01*
X0182696Y0162708D02*
X0181562Y0163843D01*
X0184965Y0163843D01*
X0184965Y0164977D02*
X0184965Y0162708D01*
X0184965Y0161294D02*
X0183831Y0160160D01*
X0184398Y0166392D02*
X0182129Y0166392D01*
X0181562Y0166959D01*
X0181562Y0168093D01*
X0182129Y0168660D01*
X0184398Y0166392D01*
X0184965Y0166959D01*
X0184965Y0168093D01*
X0184398Y0168660D01*
X0182129Y0168660D01*
X0173765Y0167893D02*
X0173765Y0166759D01*
X0173198Y0166192D01*
X0172064Y0166192D01*
X0172064Y0167893D01*
X0172631Y0168460D01*
X0173198Y0168460D01*
X0173765Y0167893D01*
X0172064Y0166192D02*
X0170929Y0167326D01*
X0170362Y0168460D01*
X0146171Y0156246D02*
X0145604Y0156813D01*
X0144470Y0156813D01*
X0143903Y0156246D01*
X0143903Y0155679D01*
X0144470Y0155112D01*
X0146171Y0155112D01*
X0146171Y0156246D02*
X0146171Y0153977D01*
X0145604Y0153410D01*
X0144470Y0153410D01*
X0143903Y0153977D01*
X0142488Y0153410D02*
X0140220Y0153410D01*
X0141354Y0153410D02*
X0141354Y0156813D01*
X0140220Y0155679D01*
X0138805Y0156246D02*
X0136536Y0153977D01*
X0137104Y0153410D01*
X0138238Y0153410D01*
X0138805Y0153977D01*
X0138805Y0156246D01*
X0138238Y0156813D01*
X0137104Y0156813D01*
X0136536Y0156246D01*
X0136536Y0153977D01*
X0135122Y0153410D02*
X0132853Y0153410D01*
X0135122Y0155679D01*
X0135122Y0156246D01*
X0134555Y0156813D01*
X0133420Y0156813D01*
X0132853Y0156246D01*
X0127282Y0156813D02*
X0127282Y0153410D01*
X0126715Y0153410D02*
X0127849Y0153410D01*
X0125394Y0153410D02*
X0124259Y0153410D01*
X0124826Y0153410D02*
X0124826Y0155679D01*
X0124259Y0155679D01*
X0124826Y0156813D02*
X0124826Y0157380D01*
X0126715Y0156813D02*
X0127282Y0156813D01*
X0127942Y0160910D02*
X0129644Y0160910D01*
X0130211Y0161477D01*
X0129644Y0162045D01*
X0128510Y0162045D01*
X0127942Y0162612D01*
X0128510Y0163179D01*
X0130211Y0163179D01*
X0131626Y0162612D02*
X0131626Y0161477D01*
X0132193Y0160910D01*
X0133327Y0160910D01*
X0133894Y0161477D01*
X0133894Y0162612D01*
X0133327Y0163179D01*
X0132193Y0163179D01*
X0131626Y0162612D01*
X0135309Y0163179D02*
X0135309Y0160910D01*
X0137577Y0160910D02*
X0137577Y0162612D01*
X0137010Y0163179D01*
X0135309Y0163179D01*
X0126621Y0160910D02*
X0125487Y0160910D01*
X0126054Y0160910D02*
X0126054Y0163179D01*
X0125487Y0163179D01*
X0126054Y0164313D02*
X0126054Y0164880D01*
X0124119Y0163179D02*
X0123552Y0163179D01*
X0122418Y0162045D01*
X0122418Y0163179D02*
X0122418Y0160910D01*
X0121050Y0163179D02*
X0120483Y0163179D01*
X0119348Y0162045D01*
X0119348Y0163179D02*
X0119348Y0160910D01*
X0117934Y0160910D02*
X0116232Y0160910D01*
X0115665Y0161477D01*
X0116232Y0162045D01*
X0117934Y0162045D01*
X0117934Y0162612D02*
X0117934Y0160910D01*
X0117934Y0162612D02*
X0117367Y0163179D01*
X0116232Y0163179D01*
X0114251Y0162612D02*
X0111982Y0162612D01*
X0111982Y0164313D02*
X0111982Y0160910D01*
X0110708Y0160910D02*
X0110141Y0160910D01*
X0110141Y0161477D01*
X0110708Y0161477D01*
X0110708Y0160910D01*
X0108726Y0161477D02*
X0108159Y0160910D01*
X0107025Y0160910D01*
X0106457Y0161477D01*
X0107025Y0162612D02*
X0108159Y0162612D01*
X0108726Y0162045D01*
X0108726Y0161477D01*
X0107025Y0162612D02*
X0106457Y0163179D01*
X0106457Y0163746D01*
X0107025Y0164313D01*
X0108159Y0164313D01*
X0108726Y0163746D01*
X0114251Y0164313D02*
X0114251Y0160910D01*
X0114958Y0156813D02*
X0116092Y0155679D01*
X0116092Y0153410D01*
X0117507Y0153410D02*
X0119208Y0153410D01*
X0119776Y0153977D01*
X0119776Y0155112D01*
X0119208Y0155679D01*
X0117507Y0155679D01*
X0117507Y0152276D01*
X0116092Y0155112D02*
X0113824Y0155112D01*
X0113824Y0155679D02*
X0114958Y0156813D01*
X0113824Y0155679D02*
X0113824Y0153410D01*
X0108726Y0153977D02*
X0108726Y0154545D01*
X0108159Y0155112D01*
X0107592Y0155112D01*
X0108159Y0155112D02*
X0108726Y0155679D01*
X0108726Y0156246D01*
X0108159Y0156813D01*
X0107025Y0156813D01*
X0106457Y0156246D01*
X0106457Y0153977D02*
X0107025Y0153410D01*
X0108159Y0153410D01*
X0108726Y0153977D01*
X0121190Y0153410D02*
X0121190Y0155679D01*
X0122324Y0155679D02*
X0122892Y0155679D01*
X0122324Y0155679D02*
X0121190Y0154545D01*
X0140355Y0146486D02*
X0141489Y0145352D01*
X0140355Y0146486D02*
X0143757Y0146486D01*
X0143757Y0145352D02*
X0143757Y0147620D01*
X0143757Y0143937D02*
X0143757Y0141669D01*
X0143757Y0142803D02*
X0140355Y0142803D01*
X0141489Y0141669D01*
X0142056Y0140254D02*
X0142623Y0139687D01*
X0142623Y0137986D01*
X0142623Y0139120D02*
X0143757Y0140254D01*
X0142056Y0140254D02*
X0140922Y0140254D01*
X0140355Y0139687D01*
X0140355Y0137986D01*
X0143757Y0137986D01*
X0150305Y0137927D02*
X0150305Y0139629D01*
X0150872Y0140196D01*
X0152006Y0140196D01*
X0152573Y0139629D01*
X0152573Y0137927D01*
X0152573Y0139061D02*
X0153707Y0140196D01*
X0153140Y0141610D02*
X0153707Y0142177D01*
X0153707Y0143312D01*
X0153140Y0143879D01*
X0152573Y0143879D01*
X0152006Y0143312D01*
X0152006Y0141610D01*
X0153140Y0141610D01*
X0152006Y0141610D02*
X0150872Y0142745D01*
X0150305Y0143879D01*
X0150305Y0137927D02*
X0153707Y0137927D01*
X0161855Y0138227D02*
X0161855Y0139929D01*
X0162422Y0140496D01*
X0163556Y0140496D01*
X0164123Y0139929D01*
X0164123Y0138227D01*
X0164123Y0139361D02*
X0165257Y0140496D01*
X0164690Y0141910D02*
X0164123Y0141910D01*
X0163556Y0142477D01*
X0163556Y0143612D01*
X0164123Y0144179D01*
X0164690Y0144179D01*
X0165257Y0143612D01*
X0165257Y0142477D01*
X0164690Y0141910D01*
X0163556Y0142477D02*
X0162989Y0141910D01*
X0162422Y0141910D01*
X0161855Y0142477D01*
X0161855Y0143612D01*
X0162422Y0144179D01*
X0162989Y0144179D01*
X0163556Y0143612D01*
X0171555Y0143312D02*
X0171555Y0142177D01*
X0172122Y0141610D01*
X0172122Y0140196D02*
X0173256Y0140196D01*
X0173823Y0139629D01*
X0173823Y0137927D01*
X0173823Y0139061D02*
X0174957Y0140196D01*
X0174957Y0141610D02*
X0172689Y0143879D01*
X0172122Y0143879D01*
X0171555Y0143312D01*
X0174957Y0143879D02*
X0174957Y0141610D01*
X0172122Y0140196D02*
X0171555Y0139629D01*
X0171555Y0137927D01*
X0174957Y0137927D01*
X0182155Y0139019D02*
X0182722Y0138452D01*
X0183289Y0138452D01*
X0183856Y0139019D01*
X0183856Y0140720D01*
X0184990Y0140720D02*
X0182722Y0140720D01*
X0182155Y0140153D01*
X0182155Y0139019D01*
X0184990Y0138452D02*
X0185557Y0139019D01*
X0185557Y0140153D01*
X0184990Y0140720D01*
X0185557Y0137037D02*
X0185557Y0134769D01*
X0185557Y0135903D02*
X0182155Y0135903D01*
X0183289Y0134769D01*
X0182722Y0133354D02*
X0183856Y0133354D01*
X0184423Y0132787D01*
X0184423Y0131086D01*
X0184423Y0132220D02*
X0185557Y0133354D01*
X0185557Y0131086D02*
X0182155Y0131086D01*
X0182155Y0132787D01*
X0182722Y0133354D01*
X0165257Y0138227D02*
X0161855Y0138227D01*
X0200555Y0158486D02*
X0200555Y0160187D01*
X0201122Y0160754D01*
X0202256Y0160754D01*
X0202823Y0160187D01*
X0202823Y0158486D01*
X0202823Y0159620D02*
X0203957Y0160754D01*
X0203957Y0162169D02*
X0203957Y0164437D01*
X0203957Y0163303D02*
X0200555Y0163303D01*
X0201689Y0162169D01*
X0201122Y0165852D02*
X0200555Y0166419D01*
X0200555Y0167553D01*
X0201122Y0168120D01*
X0201689Y0168120D01*
X0202256Y0167553D01*
X0202823Y0168120D01*
X0203390Y0168120D01*
X0203957Y0167553D01*
X0203957Y0166419D01*
X0203390Y0165852D01*
X0202256Y0166986D02*
X0202256Y0167553D01*
X0210355Y0167879D02*
X0210355Y0165610D01*
X0210922Y0164196D02*
X0212056Y0164196D01*
X0212623Y0163629D01*
X0212623Y0161927D01*
X0212623Y0163061D02*
X0213757Y0164196D01*
X0213757Y0165610D02*
X0213190Y0165610D01*
X0210922Y0167879D01*
X0210355Y0167879D01*
X0210922Y0164196D02*
X0210355Y0163629D01*
X0210355Y0161927D01*
X0213757Y0161927D01*
X0203957Y0158486D02*
X0200555Y0158486D01*
X0209005Y0142569D02*
X0208438Y0142002D01*
X0208438Y0140868D01*
X0209005Y0140301D01*
X0209005Y0138886D02*
X0208438Y0138319D01*
X0208438Y0137185D01*
X0209005Y0136618D01*
X0211274Y0136618D01*
X0211841Y0137185D01*
X0211841Y0138319D01*
X0211274Y0138886D01*
X0211841Y0140301D02*
X0209572Y0142569D01*
X0209005Y0142569D01*
X0211841Y0142569D02*
X0211841Y0140301D01*
X0220897Y0138655D02*
X0222031Y0137520D01*
X0221464Y0136106D02*
X0222599Y0136106D01*
X0223166Y0135539D01*
X0223166Y0133837D01*
X0224300Y0133837D02*
X0220897Y0133837D01*
X0220897Y0135539D01*
X0221464Y0136106D01*
X0223166Y0134972D02*
X0224300Y0136106D01*
X0224300Y0137520D02*
X0224300Y0139789D01*
X0224300Y0138655D02*
X0220897Y0138655D01*
X0212953Y0131499D02*
X0212953Y0129137D01*
X0208229Y0129137D02*
X0208229Y0131499D01*
X0279657Y0136177D02*
X0280225Y0135610D01*
X0281359Y0135610D01*
X0281926Y0136177D01*
X0281926Y0137312D01*
X0280792Y0137312D01*
X0281926Y0138446D02*
X0281359Y0139013D01*
X0280225Y0139013D01*
X0279657Y0138446D01*
X0279657Y0136177D01*
X0283341Y0135610D02*
X0283341Y0139013D01*
X0285609Y0135610D01*
X0285609Y0139013D01*
X0287024Y0139013D02*
X0288725Y0139013D01*
X0289292Y0138446D01*
X0289292Y0136177D01*
X0288725Y0135610D01*
X0287024Y0135610D01*
X0287024Y0139013D01*
X0287591Y0145610D02*
X0287024Y0146177D01*
X0287591Y0145610D02*
X0288725Y0145610D01*
X0289292Y0146177D01*
X0289292Y0146745D01*
X0288725Y0147312D01*
X0288158Y0147312D01*
X0288725Y0147312D02*
X0289292Y0147879D01*
X0289292Y0148446D01*
X0288725Y0149013D01*
X0287591Y0149013D01*
X0287024Y0148446D01*
X0285609Y0147879D02*
X0284475Y0145610D01*
X0283341Y0147879D01*
X0281926Y0147879D02*
X0281359Y0147312D01*
X0281926Y0146745D01*
X0281926Y0146177D01*
X0281359Y0145610D01*
X0280225Y0145610D01*
X0279657Y0146177D01*
X0280792Y0147312D02*
X0281359Y0147312D01*
X0281926Y0147879D02*
X0281926Y0148446D01*
X0281359Y0149013D01*
X0280225Y0149013D01*
X0279657Y0148446D01*
X0280225Y0155610D02*
X0279657Y0156177D01*
X0280225Y0155610D02*
X0281359Y0155610D01*
X0281926Y0156177D01*
X0281926Y0156745D01*
X0281359Y0157312D01*
X0280225Y0157312D01*
X0279657Y0157879D01*
X0279657Y0158446D01*
X0280225Y0159013D01*
X0281359Y0159013D01*
X0281926Y0158446D01*
X0283341Y0158446D02*
X0283341Y0156177D01*
X0283908Y0155610D01*
X0285042Y0155610D01*
X0285609Y0156177D01*
X0287024Y0155610D02*
X0289292Y0155610D01*
X0287024Y0155610D02*
X0287024Y0159013D01*
X0285609Y0158446D02*
X0285042Y0159013D01*
X0283908Y0159013D01*
X0283341Y0158446D01*
X0283341Y0165610D02*
X0285042Y0165610D01*
X0285609Y0166177D01*
X0285609Y0168446D01*
X0285042Y0169013D01*
X0283341Y0169013D01*
X0283341Y0165610D01*
X0281926Y0166177D02*
X0281359Y0165610D01*
X0280225Y0165610D01*
X0279657Y0166177D01*
X0280225Y0167312D02*
X0281359Y0167312D01*
X0281926Y0166745D01*
X0281926Y0166177D01*
X0280225Y0167312D02*
X0279657Y0167879D01*
X0279657Y0168446D01*
X0280225Y0169013D01*
X0281359Y0169013D01*
X0281926Y0168446D01*
X0287024Y0167879D02*
X0287024Y0165610D01*
X0287024Y0167312D02*
X0289292Y0167312D01*
X0289292Y0167879D02*
X0289292Y0165610D01*
X0289292Y0167879D02*
X0288158Y0169013D01*
X0287024Y0167879D01*
X0308223Y0188303D02*
X0308223Y0191706D01*
X0309924Y0191706D01*
X0310491Y0191139D01*
X0310491Y0190004D01*
X0309924Y0189437D01*
X0308223Y0189437D01*
X0309357Y0189437D02*
X0310491Y0188303D01*
X0311906Y0188303D02*
X0314174Y0188303D01*
X0313040Y0188303D02*
X0313040Y0191706D01*
X0311906Y0190571D01*
X0315589Y0191139D02*
X0316156Y0191706D01*
X0317290Y0191706D01*
X0317857Y0191139D01*
X0317857Y0190571D01*
X0315589Y0188303D01*
X0317857Y0188303D01*
X0324743Y0186071D02*
X0326444Y0186071D01*
X0327012Y0185503D01*
X0327012Y0184369D01*
X0326444Y0183802D01*
X0324743Y0183802D01*
X0324743Y0182668D02*
X0324743Y0186071D01*
X0325877Y0183802D02*
X0327012Y0182668D01*
X0328426Y0182668D02*
X0330695Y0182668D01*
X0329560Y0182668D02*
X0329560Y0186071D01*
X0328426Y0184936D01*
X0332109Y0184369D02*
X0334378Y0184369D01*
X0333811Y0182668D02*
X0333811Y0186071D01*
X0332109Y0184369D01*
X0312600Y0210737D02*
X0309197Y0210737D01*
X0309197Y0212439D01*
X0309764Y0213006D01*
X0310899Y0213006D01*
X0311466Y0212439D01*
X0311466Y0210737D01*
X0275049Y0211271D02*
X0274482Y0210704D01*
X0275049Y0210137D01*
X0275049Y0209570D01*
X0274482Y0209003D01*
X0273348Y0209003D01*
X0272780Y0209570D01*
X0271366Y0209570D02*
X0270799Y0209003D01*
X0269664Y0209003D01*
X0269097Y0209570D01*
X0269097Y0211839D01*
X0269664Y0212406D01*
X0270799Y0212406D01*
X0271366Y0211839D01*
X0272780Y0211839D02*
X0273348Y0212406D01*
X0274482Y0212406D01*
X0275049Y0211839D01*
X0275049Y0211271D01*
X0274482Y0210704D02*
X0273915Y0210704D01*
X0273431Y0213858D02*
X0271069Y0213858D01*
X0271069Y0218583D02*
X0273431Y0218583D01*
X0273564Y0221328D02*
X0275832Y0221328D01*
X0274698Y0221328D02*
X0274698Y0224730D01*
X0273564Y0223596D01*
X0272149Y0224163D02*
X0271582Y0224730D01*
X0270448Y0224730D01*
X0269881Y0224163D01*
X0269881Y0221895D01*
X0270448Y0221328D01*
X0271582Y0221328D01*
X0272149Y0221895D01*
X0272149Y0224163D01*
X0271015Y0222462D02*
X0272149Y0221328D01*
X0249081Y0234446D02*
X0248514Y0233879D01*
X0247380Y0233879D01*
X0246813Y0234446D01*
X0246813Y0235580D02*
X0247947Y0236147D01*
X0248514Y0236147D01*
X0249081Y0235580D01*
X0249081Y0234446D01*
X0246813Y0235580D02*
X0246813Y0237282D01*
X0249081Y0237282D01*
X0244264Y0237282D02*
X0244264Y0233879D01*
X0243130Y0233879D02*
X0245398Y0233879D01*
X0243130Y0236147D02*
X0244264Y0237282D01*
X0241715Y0236714D02*
X0241715Y0235580D01*
X0241148Y0235013D01*
X0239447Y0235013D01*
X0240581Y0235013D02*
X0241715Y0233879D01*
X0239447Y0233879D02*
X0239447Y0237282D01*
X0241148Y0237282D01*
X0241715Y0236714D01*
X0334691Y0232018D02*
X0334691Y0229656D01*
X0339415Y0229656D02*
X0339415Y0232018D01*
X0369897Y0212539D02*
X0370464Y0213106D01*
X0371599Y0213106D01*
X0372166Y0212539D01*
X0372166Y0210837D01*
X0373300Y0210837D02*
X0369897Y0210837D01*
X0369897Y0212539D01*
X0387634Y0210838D02*
X0389996Y0210838D01*
X0389996Y0215562D02*
X0387634Y0215562D01*
X0387410Y0204043D02*
X0389111Y0204043D01*
X0389678Y0203476D01*
X0389678Y0202342D01*
X0389111Y0201775D01*
X0387410Y0201775D01*
X0388544Y0201775D02*
X0389678Y0200641D01*
X0391093Y0201208D02*
X0391660Y0200641D01*
X0392794Y0200641D01*
X0393362Y0201208D01*
X0393362Y0203476D01*
X0392794Y0204043D01*
X0391660Y0204043D01*
X0391093Y0203476D01*
X0391093Y0202909D01*
X0391660Y0202342D01*
X0393362Y0202342D01*
X0387410Y0200641D02*
X0387410Y0204043D01*
X0387294Y0171270D02*
X0387861Y0170703D01*
X0387861Y0169568D01*
X0387294Y0169001D01*
X0385592Y0169001D01*
X0385592Y0167867D02*
X0385592Y0171270D01*
X0387294Y0171270D01*
X0389275Y0170136D02*
X0390410Y0171270D01*
X0390410Y0167867D01*
X0391544Y0167867D02*
X0389275Y0167867D01*
X0387861Y0167867D02*
X0386727Y0169001D01*
X0392959Y0168434D02*
X0395227Y0170703D01*
X0395227Y0171270D01*
X0392959Y0171270D01*
X0392959Y0168434D02*
X0392959Y0167867D01*
X0354359Y0155213D02*
X0352657Y0153512D01*
X0354926Y0153512D01*
X0354359Y0151810D02*
X0354359Y0155213D01*
X0351243Y0154646D02*
X0351243Y0153512D01*
X0350676Y0152945D01*
X0348974Y0152945D01*
X0350109Y0152945D02*
X0351243Y0151810D01*
X0348974Y0151810D02*
X0348974Y0155213D01*
X0350676Y0155213D01*
X0351243Y0154646D01*
X0322920Y0138691D02*
X0322920Y0136329D01*
X0318195Y0136329D02*
X0318195Y0138691D01*
X0318059Y0127963D02*
X0316925Y0127963D01*
X0316357Y0127396D01*
X0316357Y0125127D01*
X0316925Y0124560D01*
X0318059Y0124560D01*
X0318626Y0125127D01*
X0320041Y0124560D02*
X0322309Y0124560D01*
X0321175Y0124560D02*
X0321175Y0127963D01*
X0320041Y0126829D01*
X0318626Y0127396D02*
X0318059Y0127963D01*
X0384174Y0137410D02*
X0384174Y0140813D01*
X0385876Y0140813D01*
X0386443Y0140246D01*
X0386443Y0139112D01*
X0385876Y0138545D01*
X0384174Y0138545D01*
X0385309Y0138545D02*
X0386443Y0137410D01*
X0387857Y0137977D02*
X0388425Y0137410D01*
X0389559Y0137410D01*
X0390126Y0137977D01*
X0390126Y0138545D01*
X0389559Y0139112D01*
X0388992Y0139112D01*
X0389559Y0139112D02*
X0390126Y0139679D01*
X0390126Y0140246D01*
X0389559Y0140813D01*
X0388425Y0140813D01*
X0387857Y0140246D01*
D13*
X0400335Y0146665D02*
X0400335Y0092665D01*
X0461835Y0092665D01*
X0461835Y0146665D01*
X0400335Y0146665D01*
X0403402Y0148130D02*
X0403402Y0153504D01*
X0400335Y0155657D02*
X0461835Y0155657D01*
X0461835Y0209657D01*
X0400335Y0209657D01*
X0400335Y0155657D01*
X0423598Y0154305D02*
X0423598Y0153237D01*
X0424132Y0152704D01*
X0424666Y0152704D01*
X0425200Y0153237D01*
X0425200Y0154305D01*
X0425734Y0154839D01*
X0426267Y0154839D01*
X0426801Y0154305D01*
X0426801Y0153237D01*
X0426267Y0152704D01*
X0425734Y0152704D01*
X0425200Y0153237D01*
X0425200Y0154305D02*
X0424666Y0154839D01*
X0424132Y0154839D01*
X0423598Y0154305D01*
X0424132Y0151156D02*
X0423598Y0150622D01*
X0423598Y0149020D01*
X0426801Y0149020D01*
X0426801Y0150622D01*
X0426267Y0151156D01*
X0424132Y0151156D01*
X0369934Y0184544D02*
X0369400Y0184010D01*
X0368333Y0184010D01*
X0367799Y0184544D01*
X0367799Y0185078D01*
X0368333Y0185612D01*
X0369400Y0185612D01*
X0369934Y0185078D01*
X0369934Y0184544D01*
X0369400Y0185612D02*
X0369934Y0186145D01*
X0369934Y0186679D01*
X0369400Y0187213D01*
X0368333Y0187213D01*
X0367799Y0186679D01*
X0367799Y0186145D01*
X0368333Y0185612D01*
X0366251Y0184010D02*
X0364116Y0184010D01*
X0365183Y0184010D02*
X0365183Y0187213D01*
X0364116Y0186145D01*
X0362568Y0185612D02*
X0362034Y0185078D01*
X0360433Y0185078D01*
X0361500Y0185078D02*
X0362568Y0184010D01*
X0362568Y0185612D02*
X0362568Y0186679D01*
X0362034Y0187213D01*
X0360433Y0187213D01*
X0360433Y0184010D01*
X0354449Y0205113D02*
X0355150Y0205813D01*
X0355150Y0207214D01*
X0354449Y0207915D01*
X0353048Y0207915D01*
X0352348Y0207214D01*
X0352348Y0206514D01*
X0353048Y0205113D01*
X0350946Y0205113D01*
X0350946Y0207915D01*
X0350946Y0209717D02*
X0353749Y0209717D01*
X0355150Y0211118D01*
X0353749Y0212519D01*
X0350946Y0212519D01*
X0358624Y0212110D02*
X0358624Y0210709D01*
X0359325Y0210009D01*
X0362127Y0210009D01*
X0362828Y0210709D01*
X0362828Y0212110D01*
X0362127Y0212811D01*
X0360726Y0212811D01*
X0360726Y0211410D01*
X0359325Y0212811D02*
X0358624Y0212110D01*
X0341098Y0214783D02*
X0341098Y0238406D01*
X0348146Y0238406D01*
X0348126Y0236102D01*
X0352929Y0236102D01*
X0352929Y0238602D01*
X0367929Y0238602D01*
X0367929Y0236102D01*
X0372929Y0236102D01*
X0372929Y0238406D01*
X0380075Y0238406D01*
X0380075Y0214783D01*
X0341098Y0214783D01*
X0322988Y0214961D02*
X0284012Y0214961D01*
X0284012Y0238583D01*
X0291059Y0238583D01*
X0291039Y0236280D01*
X0295843Y0236280D01*
X0295843Y0238780D01*
X0310843Y0238780D01*
X0310843Y0236280D01*
X0315843Y0236280D01*
X0315843Y0238583D01*
X0322988Y0238583D01*
X0322988Y0214961D01*
X0303428Y0212110D02*
X0303428Y0210709D01*
X0302727Y0210009D01*
X0299925Y0210009D01*
X0299224Y0210709D01*
X0299224Y0212110D01*
X0299925Y0212811D01*
X0301326Y0212811D02*
X0301326Y0211410D01*
X0301326Y0212811D02*
X0302727Y0212811D01*
X0303428Y0212110D01*
X0295850Y0211218D02*
X0294449Y0212619D01*
X0291646Y0212619D01*
X0291646Y0209817D02*
X0294449Y0209817D01*
X0295850Y0211218D01*
X0295149Y0208015D02*
X0293748Y0208015D01*
X0293048Y0207314D01*
X0293048Y0206614D01*
X0293748Y0205213D01*
X0291646Y0205213D01*
X0291646Y0208015D01*
X0295149Y0208015D02*
X0295850Y0207314D01*
X0295850Y0205913D01*
X0295149Y0205213D01*
X0276020Y0226516D02*
X0272870Y0226516D01*
X0276020Y0226516D02*
X0276020Y0228878D01*
X0276020Y0235177D02*
X0276020Y0237539D01*
X0272870Y0237539D01*
X0161827Y0225256D02*
X0161827Y0222106D01*
X0159450Y0222068D02*
X0159450Y0221534D01*
X0158916Y0221000D01*
X0157849Y0221000D01*
X0157315Y0221534D01*
X0158383Y0222601D02*
X0158916Y0222601D01*
X0159450Y0222068D01*
X0158916Y0222601D02*
X0159450Y0223135D01*
X0159450Y0223669D01*
X0158916Y0224203D01*
X0157849Y0224203D01*
X0157315Y0223669D01*
X0155767Y0223669D02*
X0155767Y0221534D01*
X0155233Y0221000D01*
X0154166Y0221000D01*
X0153632Y0221534D01*
X0153632Y0223669D01*
X0154166Y0224203D01*
X0155233Y0224203D01*
X0155767Y0223669D01*
X0154699Y0222068D02*
X0155767Y0221000D01*
X0150803Y0222106D02*
X0150803Y0225256D01*
X0153165Y0225256D01*
X0159465Y0225256D02*
X0161827Y0225256D01*
X0135165Y0225035D02*
X0135165Y0222900D01*
X0135165Y0223968D02*
X0131962Y0223968D01*
X0133030Y0222900D01*
X0131962Y0221352D02*
X0131962Y0219217D01*
X0135165Y0219217D01*
X0133564Y0219217D02*
X0133564Y0220284D01*
X0241657Y0101910D02*
X0258657Y0101910D01*
X0271262Y0097035D02*
X0274065Y0097035D01*
X0272663Y0097035D02*
X0272663Y0092831D01*
X0275866Y0093532D02*
X0275866Y0094933D01*
X0276567Y0095633D01*
X0277968Y0095633D01*
X0278669Y0094933D01*
X0278669Y0094232D01*
X0275866Y0094232D01*
X0275866Y0093532D02*
X0276567Y0092831D01*
X0277968Y0092831D01*
X0280470Y0092831D02*
X0280470Y0095633D01*
X0281171Y0095633D01*
X0281871Y0094933D01*
X0282572Y0095633D01*
X0283272Y0094933D01*
X0283272Y0092831D01*
X0281871Y0092831D02*
X0281871Y0094933D01*
X0285074Y0095633D02*
X0287176Y0095633D01*
X0287876Y0094933D01*
X0287876Y0093532D01*
X0287176Y0092831D01*
X0285074Y0092831D01*
X0285074Y0091430D02*
X0285074Y0095633D01*
X0289678Y0094933D02*
X0289678Y0093532D01*
X0290378Y0092831D01*
X0291780Y0092831D01*
X0292480Y0094232D02*
X0289678Y0094232D01*
X0289678Y0094933D02*
X0290378Y0095633D01*
X0291780Y0095633D01*
X0292480Y0094933D01*
X0292480Y0094232D01*
X0294282Y0094232D02*
X0295683Y0095633D01*
X0296384Y0095633D01*
X0294282Y0095633D02*
X0294282Y0092831D01*
X0298118Y0093532D02*
X0298819Y0094232D01*
X0300921Y0094232D01*
X0300921Y0094933D02*
X0300921Y0092831D01*
X0298819Y0092831D01*
X0298118Y0093532D01*
X0298819Y0095633D02*
X0300220Y0095633D01*
X0300921Y0094933D01*
X0302722Y0095633D02*
X0304124Y0095633D01*
X0303423Y0096334D02*
X0303423Y0093532D01*
X0304124Y0092831D01*
X0305792Y0093532D02*
X0306492Y0092831D01*
X0308594Y0092831D01*
X0308594Y0095633D01*
X0310396Y0095633D02*
X0310396Y0092831D01*
X0310396Y0094232D02*
X0311797Y0095633D01*
X0312497Y0095633D01*
X0314232Y0094933D02*
X0314933Y0095633D01*
X0316334Y0095633D01*
X0317035Y0094933D01*
X0317035Y0094232D01*
X0314232Y0094232D01*
X0314232Y0093532D02*
X0314232Y0094933D01*
X0314232Y0093532D02*
X0314933Y0092831D01*
X0316334Y0092831D01*
X0323440Y0094232D02*
X0323440Y0095633D01*
X0324841Y0097035D01*
X0326509Y0097035D02*
X0326509Y0094933D01*
X0327910Y0095633D01*
X0328611Y0095633D01*
X0329312Y0094933D01*
X0329312Y0093532D01*
X0328611Y0092831D01*
X0327210Y0092831D01*
X0326509Y0093532D01*
X0324841Y0092831D02*
X0323440Y0094232D01*
X0326509Y0097035D02*
X0329312Y0097035D01*
X0331113Y0096334D02*
X0331814Y0097035D01*
X0333215Y0097035D01*
X0333916Y0096334D01*
X0331113Y0093532D01*
X0331814Y0092831D01*
X0333215Y0092831D01*
X0333916Y0093532D01*
X0333916Y0096334D01*
X0335717Y0097035D02*
X0335717Y0092831D01*
X0335717Y0094232D02*
X0337819Y0095633D01*
X0335717Y0094232D02*
X0337819Y0092831D01*
X0344158Y0092831D02*
X0344158Y0097035D01*
X0346960Y0092831D01*
X0346960Y0097035D01*
X0348762Y0097035D02*
X0351564Y0097035D01*
X0350163Y0097035D02*
X0350163Y0092831D01*
X0353366Y0093532D02*
X0353366Y0096334D01*
X0354066Y0097035D01*
X0355467Y0097035D01*
X0356168Y0096334D01*
X0357969Y0097035D02*
X0359371Y0095633D01*
X0359371Y0094232D01*
X0357969Y0092831D01*
X0356168Y0093532D02*
X0355467Y0092831D01*
X0354066Y0092831D01*
X0353366Y0093532D01*
X0331113Y0093532D02*
X0331113Y0096334D01*
X0305792Y0095633D02*
X0305792Y0093532D01*
X0262157Y0093839D02*
X0262157Y0085910D01*
X0258657Y0077910D02*
X0241657Y0077910D01*
X0238157Y0085910D02*
X0238157Y0093957D01*
X0243157Y0089910D02*
X0243159Y0090082D01*
X0243165Y0090253D01*
X0243176Y0090425D01*
X0243191Y0090596D01*
X0243210Y0090767D01*
X0243233Y0090937D01*
X0243260Y0091107D01*
X0243292Y0091276D01*
X0243327Y0091444D01*
X0243367Y0091611D01*
X0243411Y0091777D01*
X0243458Y0091942D01*
X0243510Y0092106D01*
X0243566Y0092268D01*
X0243626Y0092429D01*
X0243690Y0092589D01*
X0243758Y0092747D01*
X0243829Y0092903D01*
X0243904Y0093057D01*
X0243984Y0093210D01*
X0244066Y0093360D01*
X0244153Y0093509D01*
X0244243Y0093655D01*
X0244337Y0093799D01*
X0244434Y0093941D01*
X0244535Y0094080D01*
X0244639Y0094217D01*
X0244746Y0094351D01*
X0244857Y0094482D01*
X0244970Y0094611D01*
X0245087Y0094737D01*
X0245207Y0094860D01*
X0245330Y0094980D01*
X0245456Y0095097D01*
X0245585Y0095210D01*
X0245716Y0095321D01*
X0245850Y0095428D01*
X0245987Y0095532D01*
X0246126Y0095633D01*
X0246268Y0095730D01*
X0246412Y0095824D01*
X0246558Y0095914D01*
X0246707Y0096001D01*
X0246857Y0096083D01*
X0247010Y0096163D01*
X0247164Y0096238D01*
X0247320Y0096309D01*
X0247478Y0096377D01*
X0247638Y0096441D01*
X0247799Y0096501D01*
X0247961Y0096557D01*
X0248125Y0096609D01*
X0248290Y0096656D01*
X0248456Y0096700D01*
X0248623Y0096740D01*
X0248791Y0096775D01*
X0248960Y0096807D01*
X0249130Y0096834D01*
X0249300Y0096857D01*
X0249471Y0096876D01*
X0249642Y0096891D01*
X0249814Y0096902D01*
X0249985Y0096908D01*
X0250157Y0096910D01*
X0250329Y0096908D01*
X0250500Y0096902D01*
X0250672Y0096891D01*
X0250843Y0096876D01*
X0251014Y0096857D01*
X0251184Y0096834D01*
X0251354Y0096807D01*
X0251523Y0096775D01*
X0251691Y0096740D01*
X0251858Y0096700D01*
X0252024Y0096656D01*
X0252189Y0096609D01*
X0252353Y0096557D01*
X0252515Y0096501D01*
X0252676Y0096441D01*
X0252836Y0096377D01*
X0252994Y0096309D01*
X0253150Y0096238D01*
X0253304Y0096163D01*
X0253457Y0096083D01*
X0253607Y0096001D01*
X0253756Y0095914D01*
X0253902Y0095824D01*
X0254046Y0095730D01*
X0254188Y0095633D01*
X0254327Y0095532D01*
X0254464Y0095428D01*
X0254598Y0095321D01*
X0254729Y0095210D01*
X0254858Y0095097D01*
X0254984Y0094980D01*
X0255107Y0094860D01*
X0255227Y0094737D01*
X0255344Y0094611D01*
X0255457Y0094482D01*
X0255568Y0094351D01*
X0255675Y0094217D01*
X0255779Y0094080D01*
X0255880Y0093941D01*
X0255977Y0093799D01*
X0256071Y0093655D01*
X0256161Y0093509D01*
X0256248Y0093360D01*
X0256330Y0093210D01*
X0256410Y0093057D01*
X0256485Y0092903D01*
X0256556Y0092747D01*
X0256624Y0092589D01*
X0256688Y0092429D01*
X0256748Y0092268D01*
X0256804Y0092106D01*
X0256856Y0091942D01*
X0256903Y0091777D01*
X0256947Y0091611D01*
X0256987Y0091444D01*
X0257022Y0091276D01*
X0257054Y0091107D01*
X0257081Y0090937D01*
X0257104Y0090767D01*
X0257123Y0090596D01*
X0257138Y0090425D01*
X0257149Y0090253D01*
X0257155Y0090082D01*
X0257157Y0089910D01*
X0257155Y0089738D01*
X0257149Y0089567D01*
X0257138Y0089395D01*
X0257123Y0089224D01*
X0257104Y0089053D01*
X0257081Y0088883D01*
X0257054Y0088713D01*
X0257022Y0088544D01*
X0256987Y0088376D01*
X0256947Y0088209D01*
X0256903Y0088043D01*
X0256856Y0087878D01*
X0256804Y0087714D01*
X0256748Y0087552D01*
X0256688Y0087391D01*
X0256624Y0087231D01*
X0256556Y0087073D01*
X0256485Y0086917D01*
X0256410Y0086763D01*
X0256330Y0086610D01*
X0256248Y0086460D01*
X0256161Y0086311D01*
X0256071Y0086165D01*
X0255977Y0086021D01*
X0255880Y0085879D01*
X0255779Y0085740D01*
X0255675Y0085603D01*
X0255568Y0085469D01*
X0255457Y0085338D01*
X0255344Y0085209D01*
X0255227Y0085083D01*
X0255107Y0084960D01*
X0254984Y0084840D01*
X0254858Y0084723D01*
X0254729Y0084610D01*
X0254598Y0084499D01*
X0254464Y0084392D01*
X0254327Y0084288D01*
X0254188Y0084187D01*
X0254046Y0084090D01*
X0253902Y0083996D01*
X0253756Y0083906D01*
X0253607Y0083819D01*
X0253457Y0083737D01*
X0253304Y0083657D01*
X0253150Y0083582D01*
X0252994Y0083511D01*
X0252836Y0083443D01*
X0252676Y0083379D01*
X0252515Y0083319D01*
X0252353Y0083263D01*
X0252189Y0083211D01*
X0252024Y0083164D01*
X0251858Y0083120D01*
X0251691Y0083080D01*
X0251523Y0083045D01*
X0251354Y0083013D01*
X0251184Y0082986D01*
X0251014Y0082963D01*
X0250843Y0082944D01*
X0250672Y0082929D01*
X0250500Y0082918D01*
X0250329Y0082912D01*
X0250157Y0082910D01*
X0249985Y0082912D01*
X0249814Y0082918D01*
X0249642Y0082929D01*
X0249471Y0082944D01*
X0249300Y0082963D01*
X0249130Y0082986D01*
X0248960Y0083013D01*
X0248791Y0083045D01*
X0248623Y0083080D01*
X0248456Y0083120D01*
X0248290Y0083164D01*
X0248125Y0083211D01*
X0247961Y0083263D01*
X0247799Y0083319D01*
X0247638Y0083379D01*
X0247478Y0083443D01*
X0247320Y0083511D01*
X0247164Y0083582D01*
X0247010Y0083657D01*
X0246857Y0083737D01*
X0246707Y0083819D01*
X0246558Y0083906D01*
X0246412Y0083996D01*
X0246268Y0084090D01*
X0246126Y0084187D01*
X0245987Y0084288D01*
X0245850Y0084392D01*
X0245716Y0084499D01*
X0245585Y0084610D01*
X0245456Y0084723D01*
X0245330Y0084840D01*
X0245207Y0084960D01*
X0245087Y0085083D01*
X0244970Y0085209D01*
X0244857Y0085338D01*
X0244746Y0085469D01*
X0244639Y0085603D01*
X0244535Y0085740D01*
X0244434Y0085879D01*
X0244337Y0086021D01*
X0244243Y0086165D01*
X0244153Y0086311D01*
X0244066Y0086460D01*
X0243984Y0086610D01*
X0243904Y0086763D01*
X0243829Y0086917D01*
X0243758Y0087073D01*
X0243690Y0087231D01*
X0243626Y0087391D01*
X0243566Y0087552D01*
X0243510Y0087714D01*
X0243458Y0087878D01*
X0243411Y0088043D01*
X0243367Y0088209D01*
X0243327Y0088376D01*
X0243292Y0088544D01*
X0243260Y0088713D01*
X0243233Y0088883D01*
X0243210Y0089053D01*
X0243191Y0089224D01*
X0243176Y0089395D01*
X0243165Y0089567D01*
X0243159Y0089738D01*
X0243157Y0089910D01*
D14*
X0294772Y0082282D02*
X0300110Y0087620D01*
X0300110Y0071606D01*
X0305447Y0071606D02*
X0294772Y0071606D01*
X0340047Y0071291D02*
X0350723Y0081967D01*
X0350723Y0084636D01*
X0348054Y0087305D01*
X0342716Y0087305D01*
X0340047Y0084636D01*
X0340047Y0071291D02*
X0350723Y0071291D01*
X0337613Y0219835D02*
X0326937Y0219835D01*
X0332275Y0219835D02*
X0332275Y0235848D01*
X0326937Y0230510D01*
X0383630Y0232963D02*
X0386299Y0235632D01*
X0391637Y0235632D01*
X0394306Y0232963D01*
X0394306Y0230294D01*
X0383630Y0219618D01*
X0394306Y0219618D01*
D15*
X0391310Y0184407D02*
X0391310Y0176400D01*
X0385305Y0182405D01*
X0397315Y0182405D01*
X0395313Y0122007D02*
X0393312Y0122007D01*
X0391310Y0120005D01*
X0391310Y0118003D01*
X0391310Y0120005D02*
X0389308Y0122007D01*
X0387306Y0122007D01*
X0385305Y0120005D01*
X0385305Y0116002D01*
X0387306Y0114000D01*
X0395313Y0114000D02*
X0397315Y0116002D01*
X0397315Y0120005D01*
X0395313Y0122007D01*
D16*
X0413287Y0140678D02*
X0415155Y0138810D01*
X0415155Y0141613D01*
X0416089Y0142547D01*
X0417023Y0142547D01*
X0417957Y0141613D01*
X0417957Y0139744D01*
X0417023Y0138810D01*
X0415155Y0138810D01*
X0413287Y0140678D02*
X0412353Y0142547D01*
X0407957Y0158810D02*
X0407957Y0162547D01*
X0407957Y0160678D02*
X0402353Y0160678D01*
X0404221Y0158810D01*
X0415155Y0201310D02*
X0415155Y0204113D01*
X0416089Y0205047D01*
X0417023Y0205047D01*
X0417957Y0204113D01*
X0417957Y0202244D01*
X0417023Y0201310D01*
X0415155Y0201310D01*
X0413287Y0203178D01*
X0412353Y0205047D01*
X0407957Y0100047D02*
X0407957Y0096310D01*
X0407957Y0098178D02*
X0402353Y0098178D01*
X0404221Y0096310D01*
D17*
X0319375Y0105243D02*
X0317358Y0107717D01*
X0317871Y0108713D01*
X0314461Y0110125D01*
X0314177Y0109593D01*
X0313794Y0109127D01*
X0313328Y0108745D01*
X0312796Y0108460D01*
X0312219Y0108285D01*
X0311619Y0108226D01*
X0310991Y0108291D01*
X0310389Y0108483D01*
X0309839Y0108794D01*
X0309364Y0109210D01*
X0308985Y0109715D01*
X0308716Y0110286D01*
X0308570Y0110901D01*
X0308552Y0111532D01*
X0308664Y0112154D01*
X0308900Y0112740D01*
X0309251Y0113265D01*
X0309701Y0113707D01*
X0310233Y0114048D01*
X0310823Y0114273D01*
X0311447Y0114373D01*
X0312078Y0114344D01*
X0312689Y0114186D01*
X0313256Y0113907D01*
X0313753Y0113518D01*
X0314161Y0113035D01*
X0314461Y0112480D01*
X0317871Y0113892D01*
X0317358Y0114888D01*
X0319375Y0117362D01*
X0317679Y0119058D01*
X0315205Y0117041D01*
X0314209Y0117554D01*
X0313141Y0117896D01*
X0312819Y0121072D01*
X0310420Y0121072D01*
X0310097Y0117896D01*
X0309030Y0117554D01*
X0308033Y0117041D01*
X0305559Y0119058D01*
X0303863Y0117362D01*
X0305881Y0114888D01*
X0305368Y0113892D01*
X0305026Y0112824D01*
X0301850Y0112502D01*
X0301850Y0110103D01*
X0305026Y0109780D01*
X0305368Y0108713D01*
X0305881Y0107717D01*
X0303863Y0105243D01*
X0305559Y0103546D01*
X0308033Y0105564D01*
X0309030Y0105051D01*
X0310097Y0104709D01*
X0310420Y0101533D01*
X0312819Y0101533D01*
X0313141Y0104709D01*
X0314209Y0105051D01*
X0315205Y0105564D01*
X0317679Y0103546D01*
X0319375Y0105243D01*
X0319257Y0105387D02*
X0315422Y0105387D01*
X0315788Y0105088D02*
X0319221Y0105088D01*
X0318923Y0104790D02*
X0316154Y0104790D01*
X0316520Y0104491D02*
X0318624Y0104491D01*
X0318326Y0104193D02*
X0316886Y0104193D01*
X0317252Y0103894D02*
X0318027Y0103894D01*
X0317729Y0103596D02*
X0317619Y0103596D01*
X0319014Y0105685D02*
X0304225Y0105685D01*
X0303981Y0105387D02*
X0307817Y0105387D01*
X0307450Y0105088D02*
X0304017Y0105088D01*
X0304316Y0104790D02*
X0307084Y0104790D01*
X0306718Y0104491D02*
X0304615Y0104491D01*
X0304913Y0104193D02*
X0306352Y0104193D01*
X0305986Y0103894D02*
X0305212Y0103894D01*
X0305510Y0103596D02*
X0305620Y0103596D01*
X0304468Y0105984D02*
X0318771Y0105984D01*
X0318527Y0106282D02*
X0304711Y0106282D01*
X0304955Y0106581D02*
X0318284Y0106581D01*
X0318040Y0106879D02*
X0305198Y0106879D01*
X0305442Y0107178D02*
X0317797Y0107178D01*
X0317554Y0107477D02*
X0305685Y0107477D01*
X0305851Y0107775D02*
X0317388Y0107775D01*
X0317542Y0108074D02*
X0305697Y0108074D01*
X0305543Y0108372D02*
X0310737Y0108372D01*
X0310057Y0108671D02*
X0305389Y0108671D01*
X0305286Y0108969D02*
X0309639Y0108969D01*
X0309321Y0109268D02*
X0305190Y0109268D01*
X0305095Y0109566D02*
X0309097Y0109566D01*
X0308914Y0109865D02*
X0304196Y0109865D01*
X0301850Y0110163D02*
X0308774Y0110163D01*
X0308674Y0110462D02*
X0301850Y0110462D01*
X0301850Y0110760D02*
X0308603Y0110760D01*
X0308565Y0111059D02*
X0301850Y0111059D01*
X0301850Y0111357D02*
X0308557Y0111357D01*
X0308574Y0111656D02*
X0301850Y0111656D01*
X0301850Y0111954D02*
X0308628Y0111954D01*
X0308703Y0112253D02*
X0301850Y0112253D01*
X0302335Y0112551D02*
X0308824Y0112551D01*
X0308973Y0112850D02*
X0305034Y0112850D01*
X0305130Y0113148D02*
X0309173Y0113148D01*
X0309436Y0113447D02*
X0305225Y0113447D01*
X0305321Y0113745D02*
X0309761Y0113745D01*
X0310226Y0114044D02*
X0305446Y0114044D01*
X0305600Y0114342D02*
X0311253Y0114342D01*
X0312084Y0114342D02*
X0317639Y0114342D01*
X0317793Y0114044D02*
X0312978Y0114044D01*
X0313462Y0113745D02*
X0317517Y0113745D01*
X0316796Y0113447D02*
X0313813Y0113447D01*
X0314065Y0113148D02*
X0316075Y0113148D01*
X0315355Y0112850D02*
X0314261Y0112850D01*
X0314422Y0112551D02*
X0314634Y0112551D01*
X0314322Y0109865D02*
X0315090Y0109865D01*
X0315811Y0109566D02*
X0314154Y0109566D01*
X0313909Y0109268D02*
X0316531Y0109268D01*
X0317252Y0108969D02*
X0313602Y0108969D01*
X0313189Y0108671D02*
X0317850Y0108671D01*
X0317696Y0108372D02*
X0312505Y0108372D01*
X0313394Y0104790D02*
X0309845Y0104790D01*
X0310119Y0104491D02*
X0313119Y0104491D01*
X0313089Y0104193D02*
X0310150Y0104193D01*
X0310180Y0103894D02*
X0313059Y0103894D01*
X0313028Y0103596D02*
X0310210Y0103596D01*
X0310241Y0103297D02*
X0312998Y0103297D01*
X0312968Y0102999D02*
X0310271Y0102999D01*
X0310301Y0102700D02*
X0312937Y0102700D01*
X0312907Y0102402D02*
X0310331Y0102402D01*
X0310362Y0102103D02*
X0312877Y0102103D01*
X0312846Y0101805D02*
X0310392Y0101805D01*
X0308957Y0105088D02*
X0314282Y0105088D01*
X0314862Y0105387D02*
X0308377Y0105387D01*
X0305753Y0114641D02*
X0317485Y0114641D01*
X0317400Y0114939D02*
X0305839Y0114939D01*
X0305596Y0115238D02*
X0317643Y0115238D01*
X0317886Y0115536D02*
X0305352Y0115536D01*
X0305109Y0115835D02*
X0318130Y0115835D01*
X0318373Y0116133D02*
X0304865Y0116133D01*
X0304622Y0116432D02*
X0318617Y0116432D01*
X0318860Y0116730D02*
X0304379Y0116730D01*
X0304135Y0117029D02*
X0319103Y0117029D01*
X0319347Y0117327D02*
X0315556Y0117327D01*
X0315923Y0117626D02*
X0319112Y0117626D01*
X0318813Y0117924D02*
X0316289Y0117924D01*
X0316655Y0118223D02*
X0318514Y0118223D01*
X0318216Y0118521D02*
X0317021Y0118521D01*
X0317387Y0118820D02*
X0317917Y0118820D01*
X0314649Y0117327D02*
X0308590Y0117327D01*
X0309254Y0117626D02*
X0313984Y0117626D01*
X0313138Y0117924D02*
X0310100Y0117924D01*
X0310130Y0118223D02*
X0313108Y0118223D01*
X0313078Y0118521D02*
X0310161Y0118521D01*
X0310191Y0118820D02*
X0313048Y0118820D01*
X0313017Y0119118D02*
X0310221Y0119118D01*
X0310252Y0119417D02*
X0312987Y0119417D01*
X0312957Y0119715D02*
X0310282Y0119715D01*
X0310312Y0120014D02*
X0312926Y0120014D01*
X0312896Y0120312D02*
X0310343Y0120312D01*
X0310373Y0120611D02*
X0312866Y0120611D01*
X0312835Y0120910D02*
X0310403Y0120910D01*
X0307682Y0117327D02*
X0303892Y0117327D01*
X0304127Y0117626D02*
X0307316Y0117626D01*
X0306950Y0117924D02*
X0304426Y0117924D01*
X0304724Y0118223D02*
X0306584Y0118223D01*
X0306218Y0118521D02*
X0305023Y0118521D01*
X0305321Y0118820D02*
X0305852Y0118820D01*
D18*
X0405213Y0060571D02*
X0106000Y0060571D01*
X0105810Y0060573D01*
X0105620Y0060580D01*
X0105430Y0060592D01*
X0105240Y0060608D01*
X0105051Y0060628D01*
X0104862Y0060654D01*
X0104674Y0060683D01*
X0104487Y0060718D01*
X0104301Y0060757D01*
X0104116Y0060800D01*
X0103931Y0060848D01*
X0103748Y0060900D01*
X0103567Y0060956D01*
X0103387Y0061017D01*
X0103208Y0061083D01*
X0103031Y0061152D01*
X0102855Y0061226D01*
X0102682Y0061304D01*
X0102510Y0061387D01*
X0102341Y0061473D01*
X0102173Y0061563D01*
X0102008Y0061658D01*
X0101845Y0061756D01*
X0101685Y0061859D01*
X0101527Y0061965D01*
X0101372Y0062075D01*
X0101219Y0062188D01*
X0101069Y0062306D01*
X0100923Y0062427D01*
X0100779Y0062551D01*
X0100638Y0062679D01*
X0100500Y0062810D01*
X0100365Y0062945D01*
X0100234Y0063083D01*
X0100106Y0063224D01*
X0099982Y0063368D01*
X0099861Y0063514D01*
X0099743Y0063664D01*
X0099630Y0063817D01*
X0099520Y0063972D01*
X0099414Y0064130D01*
X0099311Y0064290D01*
X0099213Y0064453D01*
X0099118Y0064618D01*
X0099028Y0064786D01*
X0098942Y0064955D01*
X0098859Y0065127D01*
X0098781Y0065300D01*
X0098707Y0065476D01*
X0098638Y0065653D01*
X0098572Y0065832D01*
X0098511Y0066012D01*
X0098455Y0066193D01*
X0098403Y0066376D01*
X0098355Y0066561D01*
X0098312Y0066746D01*
X0098273Y0066932D01*
X0098238Y0067119D01*
X0098209Y0067307D01*
X0098183Y0067496D01*
X0098163Y0067685D01*
X0098147Y0067875D01*
X0098135Y0068065D01*
X0098128Y0068255D01*
X0098126Y0068445D01*
X0098126Y0080256D01*
X0098124Y0080446D01*
X0098117Y0080636D01*
X0098105Y0080826D01*
X0098089Y0081016D01*
X0098069Y0081205D01*
X0098043Y0081394D01*
X0098014Y0081582D01*
X0097979Y0081769D01*
X0097940Y0081955D01*
X0097897Y0082140D01*
X0097849Y0082325D01*
X0097797Y0082508D01*
X0097741Y0082689D01*
X0097680Y0082869D01*
X0097614Y0083048D01*
X0097545Y0083225D01*
X0097471Y0083401D01*
X0097393Y0083574D01*
X0097310Y0083746D01*
X0097224Y0083915D01*
X0097134Y0084083D01*
X0097039Y0084248D01*
X0096941Y0084411D01*
X0096838Y0084571D01*
X0096732Y0084729D01*
X0096622Y0084884D01*
X0096509Y0085037D01*
X0096391Y0085187D01*
X0096270Y0085333D01*
X0096146Y0085477D01*
X0096018Y0085618D01*
X0095887Y0085756D01*
X0095752Y0085891D01*
X0095614Y0086022D01*
X0095473Y0086150D01*
X0095329Y0086274D01*
X0095183Y0086395D01*
X0095033Y0086513D01*
X0094880Y0086626D01*
X0094725Y0086736D01*
X0094567Y0086842D01*
X0094407Y0086945D01*
X0094244Y0087043D01*
X0094079Y0087138D01*
X0093911Y0087228D01*
X0093742Y0087314D01*
X0093570Y0087397D01*
X0093397Y0087475D01*
X0093221Y0087549D01*
X0093044Y0087618D01*
X0092865Y0087684D01*
X0092685Y0087745D01*
X0092504Y0087801D01*
X0092321Y0087853D01*
X0092136Y0087901D01*
X0091951Y0087944D01*
X0091765Y0087983D01*
X0091578Y0088018D01*
X0091390Y0088047D01*
X0091201Y0088073D01*
X0091012Y0088093D01*
X0090822Y0088109D01*
X0090632Y0088121D01*
X0090442Y0088128D01*
X0090252Y0088130D01*
X0066630Y0088130D01*
X0066440Y0088132D01*
X0066250Y0088139D01*
X0066060Y0088151D01*
X0065870Y0088167D01*
X0065681Y0088187D01*
X0065492Y0088213D01*
X0065304Y0088242D01*
X0065117Y0088277D01*
X0064931Y0088316D01*
X0064746Y0088359D01*
X0064561Y0088407D01*
X0064378Y0088459D01*
X0064197Y0088515D01*
X0064017Y0088576D01*
X0063838Y0088642D01*
X0063661Y0088711D01*
X0063485Y0088785D01*
X0063312Y0088863D01*
X0063140Y0088946D01*
X0062971Y0089032D01*
X0062803Y0089122D01*
X0062638Y0089217D01*
X0062475Y0089315D01*
X0062315Y0089418D01*
X0062157Y0089524D01*
X0062002Y0089634D01*
X0061849Y0089747D01*
X0061699Y0089865D01*
X0061553Y0089986D01*
X0061409Y0090110D01*
X0061268Y0090238D01*
X0061130Y0090369D01*
X0060995Y0090504D01*
X0060864Y0090642D01*
X0060736Y0090783D01*
X0060612Y0090927D01*
X0060491Y0091073D01*
X0060373Y0091223D01*
X0060260Y0091376D01*
X0060150Y0091531D01*
X0060044Y0091689D01*
X0059941Y0091849D01*
X0059843Y0092012D01*
X0059748Y0092177D01*
X0059658Y0092345D01*
X0059572Y0092514D01*
X0059489Y0092686D01*
X0059411Y0092859D01*
X0059337Y0093035D01*
X0059268Y0093212D01*
X0059202Y0093391D01*
X0059141Y0093571D01*
X0059085Y0093752D01*
X0059033Y0093935D01*
X0058985Y0094120D01*
X0058942Y0094305D01*
X0058903Y0094491D01*
X0058868Y0094678D01*
X0058839Y0094866D01*
X0058813Y0095055D01*
X0058793Y0095244D01*
X0058777Y0095434D01*
X0058765Y0095624D01*
X0058758Y0095814D01*
X0058756Y0096004D01*
X0058756Y0206240D01*
X0058758Y0206430D01*
X0058765Y0206620D01*
X0058777Y0206810D01*
X0058793Y0207000D01*
X0058813Y0207189D01*
X0058839Y0207378D01*
X0058868Y0207566D01*
X0058903Y0207753D01*
X0058942Y0207939D01*
X0058985Y0208124D01*
X0059033Y0208309D01*
X0059085Y0208492D01*
X0059141Y0208673D01*
X0059202Y0208853D01*
X0059268Y0209032D01*
X0059337Y0209209D01*
X0059411Y0209385D01*
X0059489Y0209558D01*
X0059572Y0209730D01*
X0059658Y0209899D01*
X0059748Y0210067D01*
X0059843Y0210232D01*
X0059941Y0210395D01*
X0060044Y0210555D01*
X0060150Y0210713D01*
X0060260Y0210868D01*
X0060373Y0211021D01*
X0060491Y0211171D01*
X0060612Y0211317D01*
X0060736Y0211461D01*
X0060864Y0211602D01*
X0060995Y0211740D01*
X0061130Y0211875D01*
X0061268Y0212006D01*
X0061409Y0212134D01*
X0061553Y0212258D01*
X0061699Y0212379D01*
X0061849Y0212497D01*
X0062002Y0212610D01*
X0062157Y0212720D01*
X0062315Y0212826D01*
X0062475Y0212929D01*
X0062638Y0213027D01*
X0062803Y0213122D01*
X0062971Y0213212D01*
X0063140Y0213298D01*
X0063312Y0213381D01*
X0063485Y0213459D01*
X0063661Y0213533D01*
X0063838Y0213602D01*
X0064017Y0213668D01*
X0064197Y0213729D01*
X0064378Y0213785D01*
X0064561Y0213837D01*
X0064746Y0213885D01*
X0064931Y0213928D01*
X0065117Y0213967D01*
X0065304Y0214002D01*
X0065492Y0214031D01*
X0065681Y0214057D01*
X0065870Y0214077D01*
X0066060Y0214093D01*
X0066250Y0214105D01*
X0066440Y0214112D01*
X0066630Y0214114D01*
X0090252Y0214114D01*
X0090442Y0214116D01*
X0090632Y0214123D01*
X0090822Y0214135D01*
X0091012Y0214151D01*
X0091201Y0214171D01*
X0091390Y0214197D01*
X0091578Y0214226D01*
X0091765Y0214261D01*
X0091951Y0214300D01*
X0092136Y0214343D01*
X0092321Y0214391D01*
X0092504Y0214443D01*
X0092685Y0214499D01*
X0092865Y0214560D01*
X0093044Y0214626D01*
X0093221Y0214695D01*
X0093397Y0214769D01*
X0093570Y0214847D01*
X0093742Y0214930D01*
X0093911Y0215016D01*
X0094079Y0215106D01*
X0094244Y0215201D01*
X0094407Y0215299D01*
X0094567Y0215402D01*
X0094725Y0215508D01*
X0094880Y0215618D01*
X0095033Y0215731D01*
X0095183Y0215849D01*
X0095329Y0215970D01*
X0095473Y0216094D01*
X0095614Y0216222D01*
X0095752Y0216353D01*
X0095887Y0216488D01*
X0096018Y0216626D01*
X0096146Y0216767D01*
X0096270Y0216911D01*
X0096391Y0217057D01*
X0096509Y0217207D01*
X0096622Y0217360D01*
X0096732Y0217515D01*
X0096838Y0217673D01*
X0096941Y0217833D01*
X0097039Y0217996D01*
X0097134Y0218161D01*
X0097224Y0218329D01*
X0097310Y0218498D01*
X0097393Y0218670D01*
X0097471Y0218843D01*
X0097545Y0219019D01*
X0097614Y0219196D01*
X0097680Y0219375D01*
X0097741Y0219555D01*
X0097797Y0219736D01*
X0097849Y0219919D01*
X0097897Y0220104D01*
X0097940Y0220289D01*
X0097979Y0220475D01*
X0098014Y0220662D01*
X0098043Y0220850D01*
X0098069Y0221039D01*
X0098089Y0221228D01*
X0098105Y0221418D01*
X0098117Y0221608D01*
X0098124Y0221798D01*
X0098126Y0221988D01*
X0098126Y0233799D01*
X0098128Y0233989D01*
X0098135Y0234179D01*
X0098147Y0234369D01*
X0098163Y0234559D01*
X0098183Y0234748D01*
X0098209Y0234937D01*
X0098238Y0235125D01*
X0098273Y0235312D01*
X0098312Y0235498D01*
X0098355Y0235683D01*
X0098403Y0235868D01*
X0098455Y0236051D01*
X0098511Y0236232D01*
X0098572Y0236412D01*
X0098638Y0236591D01*
X0098707Y0236768D01*
X0098781Y0236944D01*
X0098859Y0237117D01*
X0098942Y0237289D01*
X0099028Y0237458D01*
X0099118Y0237626D01*
X0099213Y0237791D01*
X0099311Y0237954D01*
X0099414Y0238114D01*
X0099520Y0238272D01*
X0099630Y0238427D01*
X0099743Y0238580D01*
X0099861Y0238730D01*
X0099982Y0238876D01*
X0100106Y0239020D01*
X0100234Y0239161D01*
X0100365Y0239299D01*
X0100500Y0239434D01*
X0100638Y0239565D01*
X0100779Y0239693D01*
X0100923Y0239817D01*
X0101069Y0239938D01*
X0101219Y0240056D01*
X0101372Y0240169D01*
X0101527Y0240279D01*
X0101685Y0240385D01*
X0101845Y0240488D01*
X0102008Y0240586D01*
X0102173Y0240681D01*
X0102341Y0240771D01*
X0102510Y0240857D01*
X0102682Y0240940D01*
X0102855Y0241018D01*
X0103031Y0241092D01*
X0103208Y0241161D01*
X0103387Y0241227D01*
X0103567Y0241288D01*
X0103748Y0241344D01*
X0103931Y0241396D01*
X0104116Y0241444D01*
X0104301Y0241487D01*
X0104487Y0241526D01*
X0104674Y0241561D01*
X0104862Y0241590D01*
X0105051Y0241616D01*
X0105240Y0241636D01*
X0105430Y0241652D01*
X0105620Y0241664D01*
X0105810Y0241671D01*
X0106000Y0241673D01*
X0405213Y0241673D01*
X0405403Y0241671D01*
X0405593Y0241664D01*
X0405783Y0241652D01*
X0405973Y0241636D01*
X0406162Y0241616D01*
X0406351Y0241590D01*
X0406539Y0241561D01*
X0406726Y0241526D01*
X0406912Y0241487D01*
X0407097Y0241444D01*
X0407282Y0241396D01*
X0407465Y0241344D01*
X0407646Y0241288D01*
X0407826Y0241227D01*
X0408005Y0241161D01*
X0408182Y0241092D01*
X0408358Y0241018D01*
X0408531Y0240940D01*
X0408703Y0240857D01*
X0408872Y0240771D01*
X0409040Y0240681D01*
X0409205Y0240586D01*
X0409368Y0240488D01*
X0409528Y0240385D01*
X0409686Y0240279D01*
X0409841Y0240169D01*
X0409994Y0240056D01*
X0410144Y0239938D01*
X0410290Y0239817D01*
X0410434Y0239693D01*
X0410575Y0239565D01*
X0410713Y0239434D01*
X0410848Y0239299D01*
X0410979Y0239161D01*
X0411107Y0239020D01*
X0411231Y0238876D01*
X0411352Y0238730D01*
X0411470Y0238580D01*
X0411583Y0238427D01*
X0411693Y0238272D01*
X0411799Y0238114D01*
X0411902Y0237954D01*
X0412000Y0237791D01*
X0412095Y0237626D01*
X0412185Y0237458D01*
X0412271Y0237289D01*
X0412354Y0237117D01*
X0412432Y0236944D01*
X0412506Y0236768D01*
X0412575Y0236591D01*
X0412641Y0236412D01*
X0412702Y0236232D01*
X0412758Y0236051D01*
X0412810Y0235868D01*
X0412858Y0235683D01*
X0412901Y0235498D01*
X0412940Y0235312D01*
X0412975Y0235125D01*
X0413004Y0234937D01*
X0413030Y0234748D01*
X0413050Y0234559D01*
X0413066Y0234369D01*
X0413078Y0234179D01*
X0413085Y0233989D01*
X0413087Y0233799D01*
X0413087Y0221988D01*
X0413089Y0221798D01*
X0413096Y0221608D01*
X0413108Y0221418D01*
X0413124Y0221228D01*
X0413144Y0221039D01*
X0413170Y0220850D01*
X0413199Y0220662D01*
X0413234Y0220475D01*
X0413273Y0220289D01*
X0413316Y0220104D01*
X0413364Y0219919D01*
X0413416Y0219736D01*
X0413472Y0219555D01*
X0413533Y0219375D01*
X0413599Y0219196D01*
X0413668Y0219019D01*
X0413742Y0218843D01*
X0413820Y0218670D01*
X0413903Y0218498D01*
X0413989Y0218329D01*
X0414079Y0218161D01*
X0414174Y0217996D01*
X0414272Y0217833D01*
X0414375Y0217673D01*
X0414481Y0217515D01*
X0414591Y0217360D01*
X0414704Y0217207D01*
X0414822Y0217057D01*
X0414943Y0216911D01*
X0415067Y0216767D01*
X0415195Y0216626D01*
X0415326Y0216488D01*
X0415461Y0216353D01*
X0415599Y0216222D01*
X0415740Y0216094D01*
X0415884Y0215970D01*
X0416030Y0215849D01*
X0416180Y0215731D01*
X0416333Y0215618D01*
X0416488Y0215508D01*
X0416646Y0215402D01*
X0416806Y0215299D01*
X0416969Y0215201D01*
X0417134Y0215106D01*
X0417302Y0215016D01*
X0417471Y0214930D01*
X0417643Y0214847D01*
X0417816Y0214769D01*
X0417992Y0214695D01*
X0418169Y0214626D01*
X0418348Y0214560D01*
X0418528Y0214499D01*
X0418709Y0214443D01*
X0418892Y0214391D01*
X0419077Y0214343D01*
X0419262Y0214300D01*
X0419448Y0214261D01*
X0419635Y0214226D01*
X0419823Y0214197D01*
X0420012Y0214171D01*
X0420201Y0214151D01*
X0420391Y0214135D01*
X0420581Y0214123D01*
X0420771Y0214116D01*
X0420961Y0214114D01*
X0444583Y0214114D01*
X0444773Y0214112D01*
X0444963Y0214105D01*
X0445153Y0214093D01*
X0445343Y0214077D01*
X0445532Y0214057D01*
X0445721Y0214031D01*
X0445909Y0214002D01*
X0446096Y0213967D01*
X0446282Y0213928D01*
X0446467Y0213885D01*
X0446652Y0213837D01*
X0446835Y0213785D01*
X0447016Y0213729D01*
X0447196Y0213668D01*
X0447375Y0213602D01*
X0447552Y0213533D01*
X0447728Y0213459D01*
X0447901Y0213381D01*
X0448073Y0213298D01*
X0448242Y0213212D01*
X0448410Y0213122D01*
X0448575Y0213027D01*
X0448738Y0212929D01*
X0448898Y0212826D01*
X0449056Y0212720D01*
X0449211Y0212610D01*
X0449364Y0212497D01*
X0449514Y0212379D01*
X0449660Y0212258D01*
X0449804Y0212134D01*
X0449945Y0212006D01*
X0450083Y0211875D01*
X0450218Y0211740D01*
X0450349Y0211602D01*
X0450477Y0211461D01*
X0450601Y0211317D01*
X0450722Y0211171D01*
X0450840Y0211021D01*
X0450953Y0210868D01*
X0451063Y0210713D01*
X0451169Y0210555D01*
X0451272Y0210395D01*
X0451370Y0210232D01*
X0451465Y0210067D01*
X0451555Y0209899D01*
X0451641Y0209730D01*
X0451724Y0209558D01*
X0451802Y0209385D01*
X0451876Y0209209D01*
X0451945Y0209032D01*
X0452011Y0208853D01*
X0452072Y0208673D01*
X0452128Y0208492D01*
X0452180Y0208309D01*
X0452228Y0208124D01*
X0452271Y0207939D01*
X0452310Y0207753D01*
X0452345Y0207566D01*
X0452374Y0207378D01*
X0452400Y0207189D01*
X0452420Y0207000D01*
X0452436Y0206810D01*
X0452448Y0206620D01*
X0452455Y0206430D01*
X0452457Y0206240D01*
X0452457Y0096004D01*
X0452455Y0095814D01*
X0452448Y0095624D01*
X0452436Y0095434D01*
X0452420Y0095244D01*
X0452400Y0095055D01*
X0452374Y0094866D01*
X0452345Y0094678D01*
X0452310Y0094491D01*
X0452271Y0094305D01*
X0452228Y0094120D01*
X0452180Y0093935D01*
X0452128Y0093752D01*
X0452072Y0093571D01*
X0452011Y0093391D01*
X0451945Y0093212D01*
X0451876Y0093035D01*
X0451802Y0092859D01*
X0451724Y0092686D01*
X0451641Y0092514D01*
X0451555Y0092345D01*
X0451465Y0092177D01*
X0451370Y0092012D01*
X0451272Y0091849D01*
X0451169Y0091689D01*
X0451063Y0091531D01*
X0450953Y0091376D01*
X0450840Y0091223D01*
X0450722Y0091073D01*
X0450601Y0090927D01*
X0450477Y0090783D01*
X0450349Y0090642D01*
X0450218Y0090504D01*
X0450083Y0090369D01*
X0449945Y0090238D01*
X0449804Y0090110D01*
X0449660Y0089986D01*
X0449514Y0089865D01*
X0449364Y0089747D01*
X0449211Y0089634D01*
X0449056Y0089524D01*
X0448898Y0089418D01*
X0448738Y0089315D01*
X0448575Y0089217D01*
X0448410Y0089122D01*
X0448242Y0089032D01*
X0448073Y0088946D01*
X0447901Y0088863D01*
X0447728Y0088785D01*
X0447552Y0088711D01*
X0447375Y0088642D01*
X0447196Y0088576D01*
X0447016Y0088515D01*
X0446835Y0088459D01*
X0446652Y0088407D01*
X0446467Y0088359D01*
X0446282Y0088316D01*
X0446096Y0088277D01*
X0445909Y0088242D01*
X0445721Y0088213D01*
X0445532Y0088187D01*
X0445343Y0088167D01*
X0445153Y0088151D01*
X0444963Y0088139D01*
X0444773Y0088132D01*
X0444583Y0088130D01*
X0420961Y0088130D01*
X0420771Y0088128D01*
X0420581Y0088121D01*
X0420391Y0088109D01*
X0420201Y0088093D01*
X0420012Y0088073D01*
X0419823Y0088047D01*
X0419635Y0088018D01*
X0419448Y0087983D01*
X0419262Y0087944D01*
X0419077Y0087901D01*
X0418892Y0087853D01*
X0418709Y0087801D01*
X0418528Y0087745D01*
X0418348Y0087684D01*
X0418169Y0087618D01*
X0417992Y0087549D01*
X0417816Y0087475D01*
X0417643Y0087397D01*
X0417471Y0087314D01*
X0417302Y0087228D01*
X0417134Y0087138D01*
X0416969Y0087043D01*
X0416806Y0086945D01*
X0416646Y0086842D01*
X0416488Y0086736D01*
X0416333Y0086626D01*
X0416180Y0086513D01*
X0416030Y0086395D01*
X0415884Y0086274D01*
X0415740Y0086150D01*
X0415599Y0086022D01*
X0415461Y0085891D01*
X0415326Y0085756D01*
X0415195Y0085618D01*
X0415067Y0085477D01*
X0414943Y0085333D01*
X0414822Y0085187D01*
X0414704Y0085037D01*
X0414591Y0084884D01*
X0414481Y0084729D01*
X0414375Y0084571D01*
X0414272Y0084411D01*
X0414174Y0084248D01*
X0414079Y0084083D01*
X0413989Y0083915D01*
X0413903Y0083746D01*
X0413820Y0083574D01*
X0413742Y0083401D01*
X0413668Y0083225D01*
X0413599Y0083048D01*
X0413533Y0082869D01*
X0413472Y0082689D01*
X0413416Y0082508D01*
X0413364Y0082325D01*
X0413316Y0082140D01*
X0413273Y0081955D01*
X0413234Y0081769D01*
X0413199Y0081582D01*
X0413170Y0081394D01*
X0413144Y0081205D01*
X0413124Y0081016D01*
X0413108Y0080826D01*
X0413096Y0080636D01*
X0413089Y0080446D01*
X0413087Y0080256D01*
X0413087Y0068445D01*
X0413085Y0068255D01*
X0413078Y0068065D01*
X0413066Y0067875D01*
X0413050Y0067685D01*
X0413030Y0067496D01*
X0413004Y0067307D01*
X0412975Y0067119D01*
X0412940Y0066932D01*
X0412901Y0066746D01*
X0412858Y0066561D01*
X0412810Y0066376D01*
X0412758Y0066193D01*
X0412702Y0066012D01*
X0412641Y0065832D01*
X0412575Y0065653D01*
X0412506Y0065476D01*
X0412432Y0065300D01*
X0412354Y0065127D01*
X0412271Y0064955D01*
X0412185Y0064786D01*
X0412095Y0064618D01*
X0412000Y0064453D01*
X0411902Y0064290D01*
X0411799Y0064130D01*
X0411693Y0063972D01*
X0411583Y0063817D01*
X0411470Y0063664D01*
X0411352Y0063514D01*
X0411231Y0063368D01*
X0411107Y0063224D01*
X0410979Y0063083D01*
X0410848Y0062945D01*
X0410713Y0062810D01*
X0410575Y0062679D01*
X0410434Y0062551D01*
X0410290Y0062427D01*
X0410144Y0062306D01*
X0409994Y0062188D01*
X0409841Y0062075D01*
X0409686Y0061965D01*
X0409528Y0061859D01*
X0409368Y0061756D01*
X0409205Y0061658D01*
X0409040Y0061563D01*
X0408872Y0061473D01*
X0408703Y0061387D01*
X0408531Y0061304D01*
X0408358Y0061226D01*
X0408182Y0061152D01*
X0408005Y0061083D01*
X0407826Y0061017D01*
X0407646Y0060956D01*
X0407465Y0060900D01*
X0407282Y0060848D01*
X0407097Y0060800D01*
X0406912Y0060757D01*
X0406726Y0060718D01*
X0406539Y0060683D01*
X0406351Y0060654D01*
X0406162Y0060628D01*
X0405973Y0060608D01*
X0405783Y0060592D01*
X0405593Y0060580D01*
X0405403Y0060573D01*
X0405213Y0060571D01*
X0397732Y0072382D02*
X0397734Y0072530D01*
X0397740Y0072678D01*
X0397750Y0072826D01*
X0397764Y0072973D01*
X0397782Y0073120D01*
X0397803Y0073266D01*
X0397829Y0073412D01*
X0397859Y0073557D01*
X0397892Y0073701D01*
X0397930Y0073844D01*
X0397971Y0073986D01*
X0398016Y0074127D01*
X0398064Y0074267D01*
X0398117Y0074406D01*
X0398173Y0074543D01*
X0398233Y0074678D01*
X0398296Y0074812D01*
X0398363Y0074944D01*
X0398434Y0075074D01*
X0398508Y0075202D01*
X0398585Y0075328D01*
X0398666Y0075452D01*
X0398750Y0075574D01*
X0398837Y0075693D01*
X0398928Y0075810D01*
X0399022Y0075925D01*
X0399118Y0076037D01*
X0399218Y0076147D01*
X0399320Y0076253D01*
X0399426Y0076357D01*
X0399534Y0076458D01*
X0399645Y0076556D01*
X0399758Y0076652D01*
X0399874Y0076744D01*
X0399992Y0076833D01*
X0400113Y0076918D01*
X0400236Y0077001D01*
X0400361Y0077080D01*
X0400488Y0077156D01*
X0400617Y0077228D01*
X0400748Y0077297D01*
X0400881Y0077362D01*
X0401016Y0077423D01*
X0401152Y0077481D01*
X0401289Y0077536D01*
X0401428Y0077586D01*
X0401569Y0077633D01*
X0401710Y0077676D01*
X0401853Y0077716D01*
X0401997Y0077751D01*
X0402141Y0077783D01*
X0402287Y0077810D01*
X0402433Y0077834D01*
X0402580Y0077854D01*
X0402727Y0077870D01*
X0402874Y0077882D01*
X0403022Y0077890D01*
X0403170Y0077894D01*
X0403318Y0077894D01*
X0403466Y0077890D01*
X0403614Y0077882D01*
X0403761Y0077870D01*
X0403908Y0077854D01*
X0404055Y0077834D01*
X0404201Y0077810D01*
X0404347Y0077783D01*
X0404491Y0077751D01*
X0404635Y0077716D01*
X0404778Y0077676D01*
X0404919Y0077633D01*
X0405060Y0077586D01*
X0405199Y0077536D01*
X0405336Y0077481D01*
X0405472Y0077423D01*
X0405607Y0077362D01*
X0405740Y0077297D01*
X0405871Y0077228D01*
X0406000Y0077156D01*
X0406127Y0077080D01*
X0406252Y0077001D01*
X0406375Y0076918D01*
X0406496Y0076833D01*
X0406614Y0076744D01*
X0406730Y0076652D01*
X0406843Y0076556D01*
X0406954Y0076458D01*
X0407062Y0076357D01*
X0407168Y0076253D01*
X0407270Y0076147D01*
X0407370Y0076037D01*
X0407466Y0075925D01*
X0407560Y0075810D01*
X0407651Y0075693D01*
X0407738Y0075574D01*
X0407822Y0075452D01*
X0407903Y0075328D01*
X0407980Y0075202D01*
X0408054Y0075074D01*
X0408125Y0074944D01*
X0408192Y0074812D01*
X0408255Y0074678D01*
X0408315Y0074543D01*
X0408371Y0074406D01*
X0408424Y0074267D01*
X0408472Y0074127D01*
X0408517Y0073986D01*
X0408558Y0073844D01*
X0408596Y0073701D01*
X0408629Y0073557D01*
X0408659Y0073412D01*
X0408685Y0073266D01*
X0408706Y0073120D01*
X0408724Y0072973D01*
X0408738Y0072826D01*
X0408748Y0072678D01*
X0408754Y0072530D01*
X0408756Y0072382D01*
X0408754Y0072234D01*
X0408748Y0072086D01*
X0408738Y0071938D01*
X0408724Y0071791D01*
X0408706Y0071644D01*
X0408685Y0071498D01*
X0408659Y0071352D01*
X0408629Y0071207D01*
X0408596Y0071063D01*
X0408558Y0070920D01*
X0408517Y0070778D01*
X0408472Y0070637D01*
X0408424Y0070497D01*
X0408371Y0070358D01*
X0408315Y0070221D01*
X0408255Y0070086D01*
X0408192Y0069952D01*
X0408125Y0069820D01*
X0408054Y0069690D01*
X0407980Y0069562D01*
X0407903Y0069436D01*
X0407822Y0069312D01*
X0407738Y0069190D01*
X0407651Y0069071D01*
X0407560Y0068954D01*
X0407466Y0068839D01*
X0407370Y0068727D01*
X0407270Y0068617D01*
X0407168Y0068511D01*
X0407062Y0068407D01*
X0406954Y0068306D01*
X0406843Y0068208D01*
X0406730Y0068112D01*
X0406614Y0068020D01*
X0406496Y0067931D01*
X0406375Y0067846D01*
X0406252Y0067763D01*
X0406127Y0067684D01*
X0406000Y0067608D01*
X0405871Y0067536D01*
X0405740Y0067467D01*
X0405607Y0067402D01*
X0405472Y0067341D01*
X0405336Y0067283D01*
X0405199Y0067228D01*
X0405060Y0067178D01*
X0404919Y0067131D01*
X0404778Y0067088D01*
X0404635Y0067048D01*
X0404491Y0067013D01*
X0404347Y0066981D01*
X0404201Y0066954D01*
X0404055Y0066930D01*
X0403908Y0066910D01*
X0403761Y0066894D01*
X0403614Y0066882D01*
X0403466Y0066874D01*
X0403318Y0066870D01*
X0403170Y0066870D01*
X0403022Y0066874D01*
X0402874Y0066882D01*
X0402727Y0066894D01*
X0402580Y0066910D01*
X0402433Y0066930D01*
X0402287Y0066954D01*
X0402141Y0066981D01*
X0401997Y0067013D01*
X0401853Y0067048D01*
X0401710Y0067088D01*
X0401569Y0067131D01*
X0401428Y0067178D01*
X0401289Y0067228D01*
X0401152Y0067283D01*
X0401016Y0067341D01*
X0400881Y0067402D01*
X0400748Y0067467D01*
X0400617Y0067536D01*
X0400488Y0067608D01*
X0400361Y0067684D01*
X0400236Y0067763D01*
X0400113Y0067846D01*
X0399992Y0067931D01*
X0399874Y0068020D01*
X0399758Y0068112D01*
X0399645Y0068208D01*
X0399534Y0068306D01*
X0399426Y0068407D01*
X0399320Y0068511D01*
X0399218Y0068617D01*
X0399118Y0068727D01*
X0399022Y0068839D01*
X0398928Y0068954D01*
X0398837Y0069071D01*
X0398750Y0069190D01*
X0398666Y0069312D01*
X0398585Y0069436D01*
X0398508Y0069562D01*
X0398434Y0069690D01*
X0398363Y0069820D01*
X0398296Y0069952D01*
X0398233Y0070086D01*
X0398173Y0070221D01*
X0398117Y0070358D01*
X0398064Y0070497D01*
X0398016Y0070637D01*
X0397971Y0070778D01*
X0397930Y0070920D01*
X0397892Y0071063D01*
X0397859Y0071207D01*
X0397829Y0071352D01*
X0397803Y0071498D01*
X0397782Y0071644D01*
X0397764Y0071791D01*
X0397750Y0071938D01*
X0397740Y0072086D01*
X0397734Y0072234D01*
X0397732Y0072382D01*
X0434935Y0099665D02*
X0434937Y0099825D01*
X0434943Y0099984D01*
X0434953Y0100143D01*
X0434967Y0100302D01*
X0434985Y0100461D01*
X0435006Y0100619D01*
X0435032Y0100776D01*
X0435062Y0100933D01*
X0435095Y0101089D01*
X0435133Y0101244D01*
X0435174Y0101398D01*
X0435219Y0101551D01*
X0435268Y0101703D01*
X0435321Y0101854D01*
X0435377Y0102003D01*
X0435438Y0102151D01*
X0435501Y0102297D01*
X0435569Y0102442D01*
X0435640Y0102585D01*
X0435714Y0102726D01*
X0435792Y0102865D01*
X0435874Y0103002D01*
X0435959Y0103137D01*
X0436047Y0103270D01*
X0436139Y0103401D01*
X0436233Y0103529D01*
X0436331Y0103655D01*
X0436432Y0103779D01*
X0436536Y0103900D01*
X0436643Y0104018D01*
X0436753Y0104134D01*
X0436866Y0104247D01*
X0436982Y0104357D01*
X0437100Y0104464D01*
X0437221Y0104568D01*
X0437345Y0104669D01*
X0437471Y0104767D01*
X0437599Y0104861D01*
X0437730Y0104953D01*
X0437863Y0105041D01*
X0437998Y0105126D01*
X0438135Y0105208D01*
X0438274Y0105286D01*
X0438415Y0105360D01*
X0438558Y0105431D01*
X0438703Y0105499D01*
X0438849Y0105562D01*
X0438997Y0105623D01*
X0439146Y0105679D01*
X0439297Y0105732D01*
X0439449Y0105781D01*
X0439602Y0105826D01*
X0439756Y0105867D01*
X0439911Y0105905D01*
X0440067Y0105938D01*
X0440224Y0105968D01*
X0440381Y0105994D01*
X0440539Y0106015D01*
X0440698Y0106033D01*
X0440857Y0106047D01*
X0441016Y0106057D01*
X0441175Y0106063D01*
X0441335Y0106065D01*
X0441495Y0106063D01*
X0441654Y0106057D01*
X0441813Y0106047D01*
X0441972Y0106033D01*
X0442131Y0106015D01*
X0442289Y0105994D01*
X0442446Y0105968D01*
X0442603Y0105938D01*
X0442759Y0105905D01*
X0442914Y0105867D01*
X0443068Y0105826D01*
X0443221Y0105781D01*
X0443373Y0105732D01*
X0443524Y0105679D01*
X0443673Y0105623D01*
X0443821Y0105562D01*
X0443967Y0105499D01*
X0444112Y0105431D01*
X0444255Y0105360D01*
X0444396Y0105286D01*
X0444535Y0105208D01*
X0444672Y0105126D01*
X0444807Y0105041D01*
X0444940Y0104953D01*
X0445071Y0104861D01*
X0445199Y0104767D01*
X0445325Y0104669D01*
X0445449Y0104568D01*
X0445570Y0104464D01*
X0445688Y0104357D01*
X0445804Y0104247D01*
X0445917Y0104134D01*
X0446027Y0104018D01*
X0446134Y0103900D01*
X0446238Y0103779D01*
X0446339Y0103655D01*
X0446437Y0103529D01*
X0446531Y0103401D01*
X0446623Y0103270D01*
X0446711Y0103137D01*
X0446796Y0103002D01*
X0446878Y0102865D01*
X0446956Y0102726D01*
X0447030Y0102585D01*
X0447101Y0102442D01*
X0447169Y0102297D01*
X0447232Y0102151D01*
X0447293Y0102003D01*
X0447349Y0101854D01*
X0447402Y0101703D01*
X0447451Y0101551D01*
X0447496Y0101398D01*
X0447537Y0101244D01*
X0447575Y0101089D01*
X0447608Y0100933D01*
X0447638Y0100776D01*
X0447664Y0100619D01*
X0447685Y0100461D01*
X0447703Y0100302D01*
X0447717Y0100143D01*
X0447727Y0099984D01*
X0447733Y0099825D01*
X0447735Y0099665D01*
X0447733Y0099505D01*
X0447727Y0099346D01*
X0447717Y0099187D01*
X0447703Y0099028D01*
X0447685Y0098869D01*
X0447664Y0098711D01*
X0447638Y0098554D01*
X0447608Y0098397D01*
X0447575Y0098241D01*
X0447537Y0098086D01*
X0447496Y0097932D01*
X0447451Y0097779D01*
X0447402Y0097627D01*
X0447349Y0097476D01*
X0447293Y0097327D01*
X0447232Y0097179D01*
X0447169Y0097033D01*
X0447101Y0096888D01*
X0447030Y0096745D01*
X0446956Y0096604D01*
X0446878Y0096465D01*
X0446796Y0096328D01*
X0446711Y0096193D01*
X0446623Y0096060D01*
X0446531Y0095929D01*
X0446437Y0095801D01*
X0446339Y0095675D01*
X0446238Y0095551D01*
X0446134Y0095430D01*
X0446027Y0095312D01*
X0445917Y0095196D01*
X0445804Y0095083D01*
X0445688Y0094973D01*
X0445570Y0094866D01*
X0445449Y0094762D01*
X0445325Y0094661D01*
X0445199Y0094563D01*
X0445071Y0094469D01*
X0444940Y0094377D01*
X0444807Y0094289D01*
X0444672Y0094204D01*
X0444535Y0094122D01*
X0444396Y0094044D01*
X0444255Y0093970D01*
X0444112Y0093899D01*
X0443967Y0093831D01*
X0443821Y0093768D01*
X0443673Y0093707D01*
X0443524Y0093651D01*
X0443373Y0093598D01*
X0443221Y0093549D01*
X0443068Y0093504D01*
X0442914Y0093463D01*
X0442759Y0093425D01*
X0442603Y0093392D01*
X0442446Y0093362D01*
X0442289Y0093336D01*
X0442131Y0093315D01*
X0441972Y0093297D01*
X0441813Y0093283D01*
X0441654Y0093273D01*
X0441495Y0093267D01*
X0441335Y0093265D01*
X0441175Y0093267D01*
X0441016Y0093273D01*
X0440857Y0093283D01*
X0440698Y0093297D01*
X0440539Y0093315D01*
X0440381Y0093336D01*
X0440224Y0093362D01*
X0440067Y0093392D01*
X0439911Y0093425D01*
X0439756Y0093463D01*
X0439602Y0093504D01*
X0439449Y0093549D01*
X0439297Y0093598D01*
X0439146Y0093651D01*
X0438997Y0093707D01*
X0438849Y0093768D01*
X0438703Y0093831D01*
X0438558Y0093899D01*
X0438415Y0093970D01*
X0438274Y0094044D01*
X0438135Y0094122D01*
X0437998Y0094204D01*
X0437863Y0094289D01*
X0437730Y0094377D01*
X0437599Y0094469D01*
X0437471Y0094563D01*
X0437345Y0094661D01*
X0437221Y0094762D01*
X0437100Y0094866D01*
X0436982Y0094973D01*
X0436866Y0095083D01*
X0436753Y0095196D01*
X0436643Y0095312D01*
X0436536Y0095430D01*
X0436432Y0095551D01*
X0436331Y0095675D01*
X0436233Y0095801D01*
X0436139Y0095929D01*
X0436047Y0096060D01*
X0435959Y0096193D01*
X0435874Y0096328D01*
X0435792Y0096465D01*
X0435714Y0096604D01*
X0435640Y0096745D01*
X0435569Y0096888D01*
X0435501Y0097033D01*
X0435438Y0097179D01*
X0435377Y0097327D01*
X0435321Y0097476D01*
X0435268Y0097627D01*
X0435219Y0097779D01*
X0435174Y0097932D01*
X0435133Y0098086D01*
X0435095Y0098241D01*
X0435062Y0098397D01*
X0435032Y0098554D01*
X0435006Y0098711D01*
X0434985Y0098869D01*
X0434967Y0099028D01*
X0434953Y0099187D01*
X0434943Y0099346D01*
X0434937Y0099505D01*
X0434935Y0099665D01*
X0364952Y0106284D02*
X0364954Y0106415D01*
X0364960Y0106547D01*
X0364970Y0106678D01*
X0364984Y0106809D01*
X0365002Y0106939D01*
X0365024Y0107068D01*
X0365049Y0107197D01*
X0365079Y0107325D01*
X0365113Y0107452D01*
X0365150Y0107579D01*
X0365191Y0107703D01*
X0365236Y0107827D01*
X0365285Y0107949D01*
X0365337Y0108070D01*
X0365393Y0108188D01*
X0365453Y0108306D01*
X0365516Y0108421D01*
X0365583Y0108534D01*
X0365653Y0108646D01*
X0365726Y0108755D01*
X0365802Y0108861D01*
X0365882Y0108966D01*
X0365965Y0109068D01*
X0366051Y0109167D01*
X0366140Y0109264D01*
X0366232Y0109358D01*
X0366327Y0109449D01*
X0366424Y0109538D01*
X0366524Y0109623D01*
X0366627Y0109705D01*
X0366732Y0109784D01*
X0366839Y0109860D01*
X0366949Y0109932D01*
X0367061Y0110001D01*
X0367175Y0110067D01*
X0367290Y0110129D01*
X0367408Y0110188D01*
X0367527Y0110243D01*
X0367648Y0110295D01*
X0367771Y0110342D01*
X0367895Y0110386D01*
X0368020Y0110427D01*
X0368146Y0110463D01*
X0368274Y0110496D01*
X0368402Y0110524D01*
X0368531Y0110549D01*
X0368661Y0110570D01*
X0368791Y0110587D01*
X0368922Y0110600D01*
X0369053Y0110609D01*
X0369184Y0110614D01*
X0369316Y0110615D01*
X0369447Y0110612D01*
X0369579Y0110605D01*
X0369710Y0110594D01*
X0369840Y0110579D01*
X0369970Y0110560D01*
X0370100Y0110537D01*
X0370228Y0110511D01*
X0370356Y0110480D01*
X0370483Y0110445D01*
X0370609Y0110407D01*
X0370733Y0110365D01*
X0370857Y0110319D01*
X0370978Y0110269D01*
X0371098Y0110216D01*
X0371217Y0110159D01*
X0371334Y0110099D01*
X0371448Y0110035D01*
X0371561Y0109967D01*
X0371672Y0109896D01*
X0371781Y0109822D01*
X0371887Y0109745D01*
X0371991Y0109664D01*
X0372092Y0109581D01*
X0372191Y0109494D01*
X0372287Y0109404D01*
X0372380Y0109311D01*
X0372471Y0109216D01*
X0372558Y0109118D01*
X0372643Y0109017D01*
X0372724Y0108914D01*
X0372802Y0108808D01*
X0372877Y0108700D01*
X0372949Y0108590D01*
X0373017Y0108478D01*
X0373082Y0108364D01*
X0373143Y0108247D01*
X0373201Y0108129D01*
X0373255Y0108009D01*
X0373306Y0107888D01*
X0373353Y0107765D01*
X0373396Y0107641D01*
X0373435Y0107516D01*
X0373471Y0107389D01*
X0373502Y0107261D01*
X0373530Y0107133D01*
X0373554Y0107004D01*
X0373574Y0106874D01*
X0373590Y0106743D01*
X0373602Y0106612D01*
X0373610Y0106481D01*
X0373614Y0106350D01*
X0373614Y0106218D01*
X0373610Y0106087D01*
X0373602Y0105956D01*
X0373590Y0105825D01*
X0373574Y0105694D01*
X0373554Y0105564D01*
X0373530Y0105435D01*
X0373502Y0105307D01*
X0373471Y0105179D01*
X0373435Y0105052D01*
X0373396Y0104927D01*
X0373353Y0104803D01*
X0373306Y0104680D01*
X0373255Y0104559D01*
X0373201Y0104439D01*
X0373143Y0104321D01*
X0373082Y0104204D01*
X0373017Y0104090D01*
X0372949Y0103978D01*
X0372877Y0103868D01*
X0372802Y0103760D01*
X0372724Y0103654D01*
X0372643Y0103551D01*
X0372558Y0103450D01*
X0372471Y0103352D01*
X0372380Y0103257D01*
X0372287Y0103164D01*
X0372191Y0103074D01*
X0372092Y0102987D01*
X0371991Y0102904D01*
X0371887Y0102823D01*
X0371781Y0102746D01*
X0371672Y0102672D01*
X0371561Y0102601D01*
X0371449Y0102533D01*
X0371334Y0102469D01*
X0371217Y0102409D01*
X0371098Y0102352D01*
X0370978Y0102299D01*
X0370857Y0102249D01*
X0370733Y0102203D01*
X0370609Y0102161D01*
X0370483Y0102123D01*
X0370356Y0102088D01*
X0370228Y0102057D01*
X0370100Y0102031D01*
X0369970Y0102008D01*
X0369840Y0101989D01*
X0369710Y0101974D01*
X0369579Y0101963D01*
X0369447Y0101956D01*
X0369316Y0101953D01*
X0369184Y0101954D01*
X0369053Y0101959D01*
X0368922Y0101968D01*
X0368791Y0101981D01*
X0368661Y0101998D01*
X0368531Y0102019D01*
X0368402Y0102044D01*
X0368274Y0102072D01*
X0368146Y0102105D01*
X0368020Y0102141D01*
X0367895Y0102182D01*
X0367771Y0102226D01*
X0367648Y0102273D01*
X0367527Y0102325D01*
X0367408Y0102380D01*
X0367290Y0102439D01*
X0367175Y0102501D01*
X0367061Y0102567D01*
X0366949Y0102636D01*
X0366839Y0102708D01*
X0366732Y0102784D01*
X0366627Y0102863D01*
X0366524Y0102945D01*
X0366424Y0103030D01*
X0366327Y0103119D01*
X0366232Y0103210D01*
X0366140Y0103304D01*
X0366051Y0103401D01*
X0365965Y0103500D01*
X0365882Y0103602D01*
X0365802Y0103707D01*
X0365726Y0103813D01*
X0365653Y0103922D01*
X0365583Y0104034D01*
X0365516Y0104147D01*
X0365453Y0104262D01*
X0365393Y0104380D01*
X0365337Y0104498D01*
X0365285Y0104619D01*
X0365236Y0104741D01*
X0365191Y0104865D01*
X0365150Y0104989D01*
X0365113Y0105116D01*
X0365079Y0105243D01*
X0365049Y0105371D01*
X0365024Y0105500D01*
X0365002Y0105629D01*
X0364984Y0105759D01*
X0364970Y0105890D01*
X0364960Y0106021D01*
X0364954Y0106153D01*
X0364952Y0106284D01*
X0307122Y0111348D02*
X0307124Y0111482D01*
X0307130Y0111616D01*
X0307140Y0111750D01*
X0307154Y0111884D01*
X0307172Y0112017D01*
X0307193Y0112149D01*
X0307219Y0112281D01*
X0307249Y0112412D01*
X0307282Y0112542D01*
X0307319Y0112670D01*
X0307361Y0112798D01*
X0307405Y0112925D01*
X0307454Y0113050D01*
X0307506Y0113173D01*
X0307562Y0113295D01*
X0307622Y0113416D01*
X0307685Y0113534D01*
X0307751Y0113651D01*
X0307821Y0113765D01*
X0307894Y0113878D01*
X0307971Y0113988D01*
X0308051Y0114096D01*
X0308134Y0114201D01*
X0308220Y0114304D01*
X0308309Y0114404D01*
X0308401Y0114502D01*
X0308496Y0114597D01*
X0308594Y0114689D01*
X0308694Y0114778D01*
X0308797Y0114864D01*
X0308902Y0114947D01*
X0309010Y0115027D01*
X0309120Y0115104D01*
X0309233Y0115177D01*
X0309347Y0115247D01*
X0309464Y0115313D01*
X0309582Y0115376D01*
X0309703Y0115436D01*
X0309825Y0115492D01*
X0309948Y0115544D01*
X0310073Y0115593D01*
X0310200Y0115637D01*
X0310328Y0115679D01*
X0310456Y0115716D01*
X0310586Y0115749D01*
X0310717Y0115779D01*
X0310849Y0115805D01*
X0310981Y0115826D01*
X0311114Y0115844D01*
X0311248Y0115858D01*
X0311382Y0115868D01*
X0311516Y0115874D01*
X0311650Y0115876D01*
X0311784Y0115874D01*
X0311918Y0115868D01*
X0312052Y0115858D01*
X0312186Y0115844D01*
X0312319Y0115826D01*
X0312451Y0115805D01*
X0312583Y0115779D01*
X0312714Y0115749D01*
X0312844Y0115716D01*
X0312972Y0115679D01*
X0313100Y0115637D01*
X0313227Y0115593D01*
X0313352Y0115544D01*
X0313475Y0115492D01*
X0313597Y0115436D01*
X0313718Y0115376D01*
X0313836Y0115313D01*
X0313953Y0115247D01*
X0314067Y0115177D01*
X0314180Y0115104D01*
X0314290Y0115027D01*
X0314398Y0114947D01*
X0314503Y0114864D01*
X0314606Y0114778D01*
X0314706Y0114689D01*
X0314804Y0114597D01*
X0314899Y0114502D01*
X0314991Y0114404D01*
X0315080Y0114304D01*
X0315166Y0114201D01*
X0315249Y0114096D01*
X0315329Y0113988D01*
X0315406Y0113878D01*
X0315479Y0113765D01*
X0315549Y0113651D01*
X0315615Y0113534D01*
X0315678Y0113416D01*
X0315738Y0113295D01*
X0315794Y0113173D01*
X0315846Y0113050D01*
X0315895Y0112925D01*
X0315939Y0112798D01*
X0315981Y0112670D01*
X0316018Y0112542D01*
X0316051Y0112412D01*
X0316081Y0112281D01*
X0316107Y0112149D01*
X0316128Y0112017D01*
X0316146Y0111884D01*
X0316160Y0111750D01*
X0316170Y0111616D01*
X0316176Y0111482D01*
X0316178Y0111348D01*
X0316176Y0111214D01*
X0316170Y0111080D01*
X0316160Y0110946D01*
X0316146Y0110812D01*
X0316128Y0110679D01*
X0316107Y0110547D01*
X0316081Y0110415D01*
X0316051Y0110284D01*
X0316018Y0110154D01*
X0315981Y0110026D01*
X0315939Y0109898D01*
X0315895Y0109771D01*
X0315846Y0109646D01*
X0315794Y0109523D01*
X0315738Y0109401D01*
X0315678Y0109280D01*
X0315615Y0109162D01*
X0315549Y0109045D01*
X0315479Y0108931D01*
X0315406Y0108818D01*
X0315329Y0108708D01*
X0315249Y0108600D01*
X0315166Y0108495D01*
X0315080Y0108392D01*
X0314991Y0108292D01*
X0314899Y0108194D01*
X0314804Y0108099D01*
X0314706Y0108007D01*
X0314606Y0107918D01*
X0314503Y0107832D01*
X0314398Y0107749D01*
X0314290Y0107669D01*
X0314180Y0107592D01*
X0314067Y0107519D01*
X0313953Y0107449D01*
X0313836Y0107383D01*
X0313718Y0107320D01*
X0313597Y0107260D01*
X0313475Y0107204D01*
X0313352Y0107152D01*
X0313227Y0107103D01*
X0313100Y0107059D01*
X0312972Y0107017D01*
X0312844Y0106980D01*
X0312714Y0106947D01*
X0312583Y0106917D01*
X0312451Y0106891D01*
X0312319Y0106870D01*
X0312186Y0106852D01*
X0312052Y0106838D01*
X0311918Y0106828D01*
X0311784Y0106822D01*
X0311650Y0106820D01*
X0311516Y0106822D01*
X0311382Y0106828D01*
X0311248Y0106838D01*
X0311114Y0106852D01*
X0310981Y0106870D01*
X0310849Y0106891D01*
X0310717Y0106917D01*
X0310586Y0106947D01*
X0310456Y0106980D01*
X0310328Y0107017D01*
X0310200Y0107059D01*
X0310073Y0107103D01*
X0309948Y0107152D01*
X0309825Y0107204D01*
X0309703Y0107260D01*
X0309582Y0107320D01*
X0309464Y0107383D01*
X0309347Y0107449D01*
X0309233Y0107519D01*
X0309120Y0107592D01*
X0309010Y0107669D01*
X0308902Y0107749D01*
X0308797Y0107832D01*
X0308694Y0107918D01*
X0308594Y0108007D01*
X0308496Y0108099D01*
X0308401Y0108194D01*
X0308309Y0108292D01*
X0308220Y0108392D01*
X0308134Y0108495D01*
X0308051Y0108600D01*
X0307971Y0108708D01*
X0307894Y0108818D01*
X0307821Y0108931D01*
X0307751Y0109045D01*
X0307685Y0109162D01*
X0307622Y0109280D01*
X0307562Y0109401D01*
X0307506Y0109523D01*
X0307454Y0109646D01*
X0307405Y0109771D01*
X0307361Y0109898D01*
X0307319Y0110026D01*
X0307282Y0110154D01*
X0307249Y0110284D01*
X0307219Y0110415D01*
X0307193Y0110547D01*
X0307172Y0110679D01*
X0307154Y0110812D01*
X0307140Y0110946D01*
X0307130Y0111080D01*
X0307124Y0111214D01*
X0307122Y0111348D01*
X0271252Y0106284D02*
X0271254Y0106415D01*
X0271260Y0106547D01*
X0271270Y0106678D01*
X0271284Y0106809D01*
X0271302Y0106939D01*
X0271324Y0107068D01*
X0271349Y0107197D01*
X0271379Y0107325D01*
X0271413Y0107452D01*
X0271450Y0107579D01*
X0271491Y0107703D01*
X0271536Y0107827D01*
X0271585Y0107949D01*
X0271637Y0108070D01*
X0271693Y0108188D01*
X0271753Y0108306D01*
X0271816Y0108421D01*
X0271883Y0108534D01*
X0271953Y0108646D01*
X0272026Y0108755D01*
X0272102Y0108861D01*
X0272182Y0108966D01*
X0272265Y0109068D01*
X0272351Y0109167D01*
X0272440Y0109264D01*
X0272532Y0109358D01*
X0272627Y0109449D01*
X0272724Y0109538D01*
X0272824Y0109623D01*
X0272927Y0109705D01*
X0273032Y0109784D01*
X0273139Y0109860D01*
X0273249Y0109932D01*
X0273361Y0110001D01*
X0273475Y0110067D01*
X0273590Y0110129D01*
X0273708Y0110188D01*
X0273827Y0110243D01*
X0273948Y0110295D01*
X0274071Y0110342D01*
X0274195Y0110386D01*
X0274320Y0110427D01*
X0274446Y0110463D01*
X0274574Y0110496D01*
X0274702Y0110524D01*
X0274831Y0110549D01*
X0274961Y0110570D01*
X0275091Y0110587D01*
X0275222Y0110600D01*
X0275353Y0110609D01*
X0275484Y0110614D01*
X0275616Y0110615D01*
X0275747Y0110612D01*
X0275879Y0110605D01*
X0276010Y0110594D01*
X0276140Y0110579D01*
X0276270Y0110560D01*
X0276400Y0110537D01*
X0276528Y0110511D01*
X0276656Y0110480D01*
X0276783Y0110445D01*
X0276909Y0110407D01*
X0277033Y0110365D01*
X0277157Y0110319D01*
X0277278Y0110269D01*
X0277398Y0110216D01*
X0277517Y0110159D01*
X0277634Y0110099D01*
X0277748Y0110035D01*
X0277861Y0109967D01*
X0277972Y0109896D01*
X0278081Y0109822D01*
X0278187Y0109745D01*
X0278291Y0109664D01*
X0278392Y0109581D01*
X0278491Y0109494D01*
X0278587Y0109404D01*
X0278680Y0109311D01*
X0278771Y0109216D01*
X0278858Y0109118D01*
X0278943Y0109017D01*
X0279024Y0108914D01*
X0279102Y0108808D01*
X0279177Y0108700D01*
X0279249Y0108590D01*
X0279317Y0108478D01*
X0279382Y0108364D01*
X0279443Y0108247D01*
X0279501Y0108129D01*
X0279555Y0108009D01*
X0279606Y0107888D01*
X0279653Y0107765D01*
X0279696Y0107641D01*
X0279735Y0107516D01*
X0279771Y0107389D01*
X0279802Y0107261D01*
X0279830Y0107133D01*
X0279854Y0107004D01*
X0279874Y0106874D01*
X0279890Y0106743D01*
X0279902Y0106612D01*
X0279910Y0106481D01*
X0279914Y0106350D01*
X0279914Y0106218D01*
X0279910Y0106087D01*
X0279902Y0105956D01*
X0279890Y0105825D01*
X0279874Y0105694D01*
X0279854Y0105564D01*
X0279830Y0105435D01*
X0279802Y0105307D01*
X0279771Y0105179D01*
X0279735Y0105052D01*
X0279696Y0104927D01*
X0279653Y0104803D01*
X0279606Y0104680D01*
X0279555Y0104559D01*
X0279501Y0104439D01*
X0279443Y0104321D01*
X0279382Y0104204D01*
X0279317Y0104090D01*
X0279249Y0103978D01*
X0279177Y0103868D01*
X0279102Y0103760D01*
X0279024Y0103654D01*
X0278943Y0103551D01*
X0278858Y0103450D01*
X0278771Y0103352D01*
X0278680Y0103257D01*
X0278587Y0103164D01*
X0278491Y0103074D01*
X0278392Y0102987D01*
X0278291Y0102904D01*
X0278187Y0102823D01*
X0278081Y0102746D01*
X0277972Y0102672D01*
X0277861Y0102601D01*
X0277749Y0102533D01*
X0277634Y0102469D01*
X0277517Y0102409D01*
X0277398Y0102352D01*
X0277278Y0102299D01*
X0277157Y0102249D01*
X0277033Y0102203D01*
X0276909Y0102161D01*
X0276783Y0102123D01*
X0276656Y0102088D01*
X0276528Y0102057D01*
X0276400Y0102031D01*
X0276270Y0102008D01*
X0276140Y0101989D01*
X0276010Y0101974D01*
X0275879Y0101963D01*
X0275747Y0101956D01*
X0275616Y0101953D01*
X0275484Y0101954D01*
X0275353Y0101959D01*
X0275222Y0101968D01*
X0275091Y0101981D01*
X0274961Y0101998D01*
X0274831Y0102019D01*
X0274702Y0102044D01*
X0274574Y0102072D01*
X0274446Y0102105D01*
X0274320Y0102141D01*
X0274195Y0102182D01*
X0274071Y0102226D01*
X0273948Y0102273D01*
X0273827Y0102325D01*
X0273708Y0102380D01*
X0273590Y0102439D01*
X0273475Y0102501D01*
X0273361Y0102567D01*
X0273249Y0102636D01*
X0273139Y0102708D01*
X0273032Y0102784D01*
X0272927Y0102863D01*
X0272824Y0102945D01*
X0272724Y0103030D01*
X0272627Y0103119D01*
X0272532Y0103210D01*
X0272440Y0103304D01*
X0272351Y0103401D01*
X0272265Y0103500D01*
X0272182Y0103602D01*
X0272102Y0103707D01*
X0272026Y0103813D01*
X0271953Y0103922D01*
X0271883Y0104034D01*
X0271816Y0104147D01*
X0271753Y0104262D01*
X0271693Y0104380D01*
X0271637Y0104498D01*
X0271585Y0104619D01*
X0271536Y0104741D01*
X0271491Y0104865D01*
X0271450Y0104989D01*
X0271413Y0105116D01*
X0271379Y0105243D01*
X0271349Y0105371D01*
X0271324Y0105500D01*
X0271302Y0105629D01*
X0271284Y0105759D01*
X0271270Y0105890D01*
X0271260Y0106021D01*
X0271254Y0106153D01*
X0271252Y0106284D01*
X0257565Y0116250D02*
X0257565Y0186250D01*
X0257562Y0186492D01*
X0257553Y0186733D01*
X0257539Y0186974D01*
X0257518Y0187215D01*
X0257492Y0187455D01*
X0257460Y0187695D01*
X0257422Y0187934D01*
X0257379Y0188171D01*
X0257329Y0188408D01*
X0257274Y0188643D01*
X0257214Y0188877D01*
X0257147Y0189109D01*
X0257076Y0189340D01*
X0256998Y0189569D01*
X0256915Y0189796D01*
X0256827Y0190021D01*
X0256733Y0190244D01*
X0256634Y0190464D01*
X0256529Y0190682D01*
X0256420Y0190897D01*
X0256305Y0191110D01*
X0256185Y0191320D01*
X0256060Y0191526D01*
X0255930Y0191730D01*
X0255795Y0191931D01*
X0255655Y0192128D01*
X0255511Y0192322D01*
X0255362Y0192512D01*
X0255208Y0192698D01*
X0255050Y0192881D01*
X0254888Y0193060D01*
X0254721Y0193235D01*
X0254550Y0193406D01*
X0254375Y0193573D01*
X0254196Y0193735D01*
X0254013Y0193893D01*
X0253827Y0194047D01*
X0253637Y0194196D01*
X0253443Y0194340D01*
X0253246Y0194480D01*
X0253045Y0194615D01*
X0252841Y0194745D01*
X0252635Y0194870D01*
X0252425Y0194990D01*
X0252212Y0195105D01*
X0251997Y0195214D01*
X0251779Y0195319D01*
X0251559Y0195418D01*
X0251336Y0195512D01*
X0251111Y0195600D01*
X0250884Y0195683D01*
X0250655Y0195761D01*
X0250424Y0195832D01*
X0250192Y0195899D01*
X0249958Y0195959D01*
X0249723Y0196014D01*
X0249486Y0196064D01*
X0249249Y0196107D01*
X0249010Y0196145D01*
X0248770Y0196177D01*
X0248530Y0196203D01*
X0248289Y0196224D01*
X0248048Y0196238D01*
X0247807Y0196247D01*
X0247565Y0196250D01*
X0067565Y0196250D01*
X0067323Y0196247D01*
X0067082Y0196238D01*
X0066841Y0196224D01*
X0066600Y0196203D01*
X0066360Y0196177D01*
X0066120Y0196145D01*
X0065881Y0196107D01*
X0065644Y0196064D01*
X0065407Y0196014D01*
X0065172Y0195959D01*
X0064938Y0195899D01*
X0064706Y0195832D01*
X0064475Y0195761D01*
X0064246Y0195683D01*
X0064019Y0195600D01*
X0063794Y0195512D01*
X0063571Y0195418D01*
X0063351Y0195319D01*
X0063133Y0195214D01*
X0062918Y0195105D01*
X0062705Y0194990D01*
X0062495Y0194870D01*
X0062289Y0194745D01*
X0062085Y0194615D01*
X0061884Y0194480D01*
X0061687Y0194340D01*
X0061493Y0194196D01*
X0061303Y0194047D01*
X0061117Y0193893D01*
X0060934Y0193735D01*
X0060755Y0193573D01*
X0060580Y0193406D01*
X0060409Y0193235D01*
X0060242Y0193060D01*
X0060080Y0192881D01*
X0059922Y0192698D01*
X0059768Y0192512D01*
X0059619Y0192322D01*
X0059475Y0192128D01*
X0059335Y0191931D01*
X0059200Y0191730D01*
X0059070Y0191526D01*
X0058945Y0191320D01*
X0058825Y0191110D01*
X0058710Y0190897D01*
X0058601Y0190682D01*
X0058496Y0190464D01*
X0058397Y0190244D01*
X0058303Y0190021D01*
X0058215Y0189796D01*
X0058132Y0189569D01*
X0058054Y0189340D01*
X0057983Y0189109D01*
X0057916Y0188877D01*
X0057856Y0188643D01*
X0057801Y0188408D01*
X0057751Y0188171D01*
X0057708Y0187934D01*
X0057670Y0187695D01*
X0057638Y0187455D01*
X0057612Y0187215D01*
X0057591Y0186974D01*
X0057577Y0186733D01*
X0057568Y0186492D01*
X0057565Y0186250D01*
X0057565Y0116250D01*
X0057568Y0116008D01*
X0057577Y0115767D01*
X0057591Y0115526D01*
X0057612Y0115285D01*
X0057638Y0115045D01*
X0057670Y0114805D01*
X0057708Y0114566D01*
X0057751Y0114329D01*
X0057801Y0114092D01*
X0057856Y0113857D01*
X0057916Y0113623D01*
X0057983Y0113391D01*
X0058054Y0113160D01*
X0058132Y0112931D01*
X0058215Y0112704D01*
X0058303Y0112479D01*
X0058397Y0112256D01*
X0058496Y0112036D01*
X0058601Y0111818D01*
X0058710Y0111603D01*
X0058825Y0111390D01*
X0058945Y0111180D01*
X0059070Y0110974D01*
X0059200Y0110770D01*
X0059335Y0110569D01*
X0059475Y0110372D01*
X0059619Y0110178D01*
X0059768Y0109988D01*
X0059922Y0109802D01*
X0060080Y0109619D01*
X0060242Y0109440D01*
X0060409Y0109265D01*
X0060580Y0109094D01*
X0060755Y0108927D01*
X0060934Y0108765D01*
X0061117Y0108607D01*
X0061303Y0108453D01*
X0061493Y0108304D01*
X0061687Y0108160D01*
X0061884Y0108020D01*
X0062085Y0107885D01*
X0062289Y0107755D01*
X0062495Y0107630D01*
X0062705Y0107510D01*
X0062918Y0107395D01*
X0063133Y0107286D01*
X0063351Y0107181D01*
X0063571Y0107082D01*
X0063794Y0106988D01*
X0064019Y0106900D01*
X0064246Y0106817D01*
X0064475Y0106739D01*
X0064706Y0106668D01*
X0064938Y0106601D01*
X0065172Y0106541D01*
X0065407Y0106486D01*
X0065644Y0106436D01*
X0065881Y0106393D01*
X0066120Y0106355D01*
X0066360Y0106323D01*
X0066600Y0106297D01*
X0066841Y0106276D01*
X0067082Y0106262D01*
X0067323Y0106253D01*
X0067565Y0106250D01*
X0247565Y0106250D01*
X0247807Y0106253D01*
X0248048Y0106262D01*
X0248289Y0106276D01*
X0248530Y0106297D01*
X0248770Y0106323D01*
X0249010Y0106355D01*
X0249249Y0106393D01*
X0249486Y0106436D01*
X0249723Y0106486D01*
X0249958Y0106541D01*
X0250192Y0106601D01*
X0250424Y0106668D01*
X0250655Y0106739D01*
X0250884Y0106817D01*
X0251111Y0106900D01*
X0251336Y0106988D01*
X0251559Y0107082D01*
X0251779Y0107181D01*
X0251997Y0107286D01*
X0252212Y0107395D01*
X0252425Y0107510D01*
X0252635Y0107630D01*
X0252841Y0107755D01*
X0253045Y0107885D01*
X0253246Y0108020D01*
X0253443Y0108160D01*
X0253637Y0108304D01*
X0253827Y0108453D01*
X0254013Y0108607D01*
X0254196Y0108765D01*
X0254375Y0108927D01*
X0254550Y0109094D01*
X0254721Y0109265D01*
X0254888Y0109440D01*
X0255050Y0109619D01*
X0255208Y0109802D01*
X0255362Y0109988D01*
X0255511Y0110178D01*
X0255655Y0110372D01*
X0255795Y0110569D01*
X0255930Y0110770D01*
X0256060Y0110974D01*
X0256185Y0111180D01*
X0256305Y0111390D01*
X0256420Y0111603D01*
X0256529Y0111818D01*
X0256634Y0112036D01*
X0256733Y0112256D01*
X0256827Y0112479D01*
X0256915Y0112704D01*
X0256998Y0112931D01*
X0257076Y0113160D01*
X0257147Y0113391D01*
X0257214Y0113623D01*
X0257274Y0113857D01*
X0257329Y0114092D01*
X0257379Y0114329D01*
X0257422Y0114566D01*
X0257460Y0114805D01*
X0257492Y0115045D01*
X0257518Y0115285D01*
X0257539Y0115526D01*
X0257553Y0115767D01*
X0257562Y0116008D01*
X0257565Y0116250D01*
X0102457Y0072382D02*
X0102459Y0072530D01*
X0102465Y0072678D01*
X0102475Y0072826D01*
X0102489Y0072973D01*
X0102507Y0073120D01*
X0102528Y0073266D01*
X0102554Y0073412D01*
X0102584Y0073557D01*
X0102617Y0073701D01*
X0102655Y0073844D01*
X0102696Y0073986D01*
X0102741Y0074127D01*
X0102789Y0074267D01*
X0102842Y0074406D01*
X0102898Y0074543D01*
X0102958Y0074678D01*
X0103021Y0074812D01*
X0103088Y0074944D01*
X0103159Y0075074D01*
X0103233Y0075202D01*
X0103310Y0075328D01*
X0103391Y0075452D01*
X0103475Y0075574D01*
X0103562Y0075693D01*
X0103653Y0075810D01*
X0103747Y0075925D01*
X0103843Y0076037D01*
X0103943Y0076147D01*
X0104045Y0076253D01*
X0104151Y0076357D01*
X0104259Y0076458D01*
X0104370Y0076556D01*
X0104483Y0076652D01*
X0104599Y0076744D01*
X0104717Y0076833D01*
X0104838Y0076918D01*
X0104961Y0077001D01*
X0105086Y0077080D01*
X0105213Y0077156D01*
X0105342Y0077228D01*
X0105473Y0077297D01*
X0105606Y0077362D01*
X0105741Y0077423D01*
X0105877Y0077481D01*
X0106014Y0077536D01*
X0106153Y0077586D01*
X0106294Y0077633D01*
X0106435Y0077676D01*
X0106578Y0077716D01*
X0106722Y0077751D01*
X0106866Y0077783D01*
X0107012Y0077810D01*
X0107158Y0077834D01*
X0107305Y0077854D01*
X0107452Y0077870D01*
X0107599Y0077882D01*
X0107747Y0077890D01*
X0107895Y0077894D01*
X0108043Y0077894D01*
X0108191Y0077890D01*
X0108339Y0077882D01*
X0108486Y0077870D01*
X0108633Y0077854D01*
X0108780Y0077834D01*
X0108926Y0077810D01*
X0109072Y0077783D01*
X0109216Y0077751D01*
X0109360Y0077716D01*
X0109503Y0077676D01*
X0109644Y0077633D01*
X0109785Y0077586D01*
X0109924Y0077536D01*
X0110061Y0077481D01*
X0110197Y0077423D01*
X0110332Y0077362D01*
X0110465Y0077297D01*
X0110596Y0077228D01*
X0110725Y0077156D01*
X0110852Y0077080D01*
X0110977Y0077001D01*
X0111100Y0076918D01*
X0111221Y0076833D01*
X0111339Y0076744D01*
X0111455Y0076652D01*
X0111568Y0076556D01*
X0111679Y0076458D01*
X0111787Y0076357D01*
X0111893Y0076253D01*
X0111995Y0076147D01*
X0112095Y0076037D01*
X0112191Y0075925D01*
X0112285Y0075810D01*
X0112376Y0075693D01*
X0112463Y0075574D01*
X0112547Y0075452D01*
X0112628Y0075328D01*
X0112705Y0075202D01*
X0112779Y0075074D01*
X0112850Y0074944D01*
X0112917Y0074812D01*
X0112980Y0074678D01*
X0113040Y0074543D01*
X0113096Y0074406D01*
X0113149Y0074267D01*
X0113197Y0074127D01*
X0113242Y0073986D01*
X0113283Y0073844D01*
X0113321Y0073701D01*
X0113354Y0073557D01*
X0113384Y0073412D01*
X0113410Y0073266D01*
X0113431Y0073120D01*
X0113449Y0072973D01*
X0113463Y0072826D01*
X0113473Y0072678D01*
X0113479Y0072530D01*
X0113481Y0072382D01*
X0113479Y0072234D01*
X0113473Y0072086D01*
X0113463Y0071938D01*
X0113449Y0071791D01*
X0113431Y0071644D01*
X0113410Y0071498D01*
X0113384Y0071352D01*
X0113354Y0071207D01*
X0113321Y0071063D01*
X0113283Y0070920D01*
X0113242Y0070778D01*
X0113197Y0070637D01*
X0113149Y0070497D01*
X0113096Y0070358D01*
X0113040Y0070221D01*
X0112980Y0070086D01*
X0112917Y0069952D01*
X0112850Y0069820D01*
X0112779Y0069690D01*
X0112705Y0069562D01*
X0112628Y0069436D01*
X0112547Y0069312D01*
X0112463Y0069190D01*
X0112376Y0069071D01*
X0112285Y0068954D01*
X0112191Y0068839D01*
X0112095Y0068727D01*
X0111995Y0068617D01*
X0111893Y0068511D01*
X0111787Y0068407D01*
X0111679Y0068306D01*
X0111568Y0068208D01*
X0111455Y0068112D01*
X0111339Y0068020D01*
X0111221Y0067931D01*
X0111100Y0067846D01*
X0110977Y0067763D01*
X0110852Y0067684D01*
X0110725Y0067608D01*
X0110596Y0067536D01*
X0110465Y0067467D01*
X0110332Y0067402D01*
X0110197Y0067341D01*
X0110061Y0067283D01*
X0109924Y0067228D01*
X0109785Y0067178D01*
X0109644Y0067131D01*
X0109503Y0067088D01*
X0109360Y0067048D01*
X0109216Y0067013D01*
X0109072Y0066981D01*
X0108926Y0066954D01*
X0108780Y0066930D01*
X0108633Y0066910D01*
X0108486Y0066894D01*
X0108339Y0066882D01*
X0108191Y0066874D01*
X0108043Y0066870D01*
X0107895Y0066870D01*
X0107747Y0066874D01*
X0107599Y0066882D01*
X0107452Y0066894D01*
X0107305Y0066910D01*
X0107158Y0066930D01*
X0107012Y0066954D01*
X0106866Y0066981D01*
X0106722Y0067013D01*
X0106578Y0067048D01*
X0106435Y0067088D01*
X0106294Y0067131D01*
X0106153Y0067178D01*
X0106014Y0067228D01*
X0105877Y0067283D01*
X0105741Y0067341D01*
X0105606Y0067402D01*
X0105473Y0067467D01*
X0105342Y0067536D01*
X0105213Y0067608D01*
X0105086Y0067684D01*
X0104961Y0067763D01*
X0104838Y0067846D01*
X0104717Y0067931D01*
X0104599Y0068020D01*
X0104483Y0068112D01*
X0104370Y0068208D01*
X0104259Y0068306D01*
X0104151Y0068407D01*
X0104045Y0068511D01*
X0103943Y0068617D01*
X0103843Y0068727D01*
X0103747Y0068839D01*
X0103653Y0068954D01*
X0103562Y0069071D01*
X0103475Y0069190D01*
X0103391Y0069312D01*
X0103310Y0069436D01*
X0103233Y0069562D01*
X0103159Y0069690D01*
X0103088Y0069820D01*
X0103021Y0069952D01*
X0102958Y0070086D01*
X0102898Y0070221D01*
X0102842Y0070358D01*
X0102789Y0070497D01*
X0102741Y0070637D01*
X0102696Y0070778D01*
X0102655Y0070920D01*
X0102617Y0071063D01*
X0102584Y0071207D01*
X0102554Y0071352D01*
X0102528Y0071498D01*
X0102507Y0071644D01*
X0102489Y0071791D01*
X0102475Y0071938D01*
X0102465Y0072086D01*
X0102459Y0072234D01*
X0102457Y0072382D01*
X0271252Y0198017D02*
X0271254Y0198148D01*
X0271260Y0198280D01*
X0271270Y0198411D01*
X0271284Y0198542D01*
X0271302Y0198672D01*
X0271324Y0198801D01*
X0271349Y0198930D01*
X0271379Y0199058D01*
X0271413Y0199185D01*
X0271450Y0199312D01*
X0271491Y0199436D01*
X0271536Y0199560D01*
X0271585Y0199682D01*
X0271637Y0199803D01*
X0271693Y0199921D01*
X0271753Y0200039D01*
X0271816Y0200154D01*
X0271883Y0200267D01*
X0271953Y0200379D01*
X0272026Y0200488D01*
X0272102Y0200594D01*
X0272182Y0200699D01*
X0272265Y0200801D01*
X0272351Y0200900D01*
X0272440Y0200997D01*
X0272532Y0201091D01*
X0272627Y0201182D01*
X0272724Y0201271D01*
X0272824Y0201356D01*
X0272927Y0201438D01*
X0273032Y0201517D01*
X0273139Y0201593D01*
X0273249Y0201665D01*
X0273361Y0201734D01*
X0273475Y0201800D01*
X0273590Y0201862D01*
X0273708Y0201921D01*
X0273827Y0201976D01*
X0273948Y0202028D01*
X0274071Y0202075D01*
X0274195Y0202119D01*
X0274320Y0202160D01*
X0274446Y0202196D01*
X0274574Y0202229D01*
X0274702Y0202257D01*
X0274831Y0202282D01*
X0274961Y0202303D01*
X0275091Y0202320D01*
X0275222Y0202333D01*
X0275353Y0202342D01*
X0275484Y0202347D01*
X0275616Y0202348D01*
X0275747Y0202345D01*
X0275879Y0202338D01*
X0276010Y0202327D01*
X0276140Y0202312D01*
X0276270Y0202293D01*
X0276400Y0202270D01*
X0276528Y0202244D01*
X0276656Y0202213D01*
X0276783Y0202178D01*
X0276909Y0202140D01*
X0277033Y0202098D01*
X0277157Y0202052D01*
X0277278Y0202002D01*
X0277398Y0201949D01*
X0277517Y0201892D01*
X0277634Y0201832D01*
X0277748Y0201768D01*
X0277861Y0201700D01*
X0277972Y0201629D01*
X0278081Y0201555D01*
X0278187Y0201478D01*
X0278291Y0201397D01*
X0278392Y0201314D01*
X0278491Y0201227D01*
X0278587Y0201137D01*
X0278680Y0201044D01*
X0278771Y0200949D01*
X0278858Y0200851D01*
X0278943Y0200750D01*
X0279024Y0200647D01*
X0279102Y0200541D01*
X0279177Y0200433D01*
X0279249Y0200323D01*
X0279317Y0200211D01*
X0279382Y0200097D01*
X0279443Y0199980D01*
X0279501Y0199862D01*
X0279555Y0199742D01*
X0279606Y0199621D01*
X0279653Y0199498D01*
X0279696Y0199374D01*
X0279735Y0199249D01*
X0279771Y0199122D01*
X0279802Y0198994D01*
X0279830Y0198866D01*
X0279854Y0198737D01*
X0279874Y0198607D01*
X0279890Y0198476D01*
X0279902Y0198345D01*
X0279910Y0198214D01*
X0279914Y0198083D01*
X0279914Y0197951D01*
X0279910Y0197820D01*
X0279902Y0197689D01*
X0279890Y0197558D01*
X0279874Y0197427D01*
X0279854Y0197297D01*
X0279830Y0197168D01*
X0279802Y0197040D01*
X0279771Y0196912D01*
X0279735Y0196785D01*
X0279696Y0196660D01*
X0279653Y0196536D01*
X0279606Y0196413D01*
X0279555Y0196292D01*
X0279501Y0196172D01*
X0279443Y0196054D01*
X0279382Y0195937D01*
X0279317Y0195823D01*
X0279249Y0195711D01*
X0279177Y0195601D01*
X0279102Y0195493D01*
X0279024Y0195387D01*
X0278943Y0195284D01*
X0278858Y0195183D01*
X0278771Y0195085D01*
X0278680Y0194990D01*
X0278587Y0194897D01*
X0278491Y0194807D01*
X0278392Y0194720D01*
X0278291Y0194637D01*
X0278187Y0194556D01*
X0278081Y0194479D01*
X0277972Y0194405D01*
X0277861Y0194334D01*
X0277749Y0194266D01*
X0277634Y0194202D01*
X0277517Y0194142D01*
X0277398Y0194085D01*
X0277278Y0194032D01*
X0277157Y0193982D01*
X0277033Y0193936D01*
X0276909Y0193894D01*
X0276783Y0193856D01*
X0276656Y0193821D01*
X0276528Y0193790D01*
X0276400Y0193764D01*
X0276270Y0193741D01*
X0276140Y0193722D01*
X0276010Y0193707D01*
X0275879Y0193696D01*
X0275747Y0193689D01*
X0275616Y0193686D01*
X0275484Y0193687D01*
X0275353Y0193692D01*
X0275222Y0193701D01*
X0275091Y0193714D01*
X0274961Y0193731D01*
X0274831Y0193752D01*
X0274702Y0193777D01*
X0274574Y0193805D01*
X0274446Y0193838D01*
X0274320Y0193874D01*
X0274195Y0193915D01*
X0274071Y0193959D01*
X0273948Y0194006D01*
X0273827Y0194058D01*
X0273708Y0194113D01*
X0273590Y0194172D01*
X0273475Y0194234D01*
X0273361Y0194300D01*
X0273249Y0194369D01*
X0273139Y0194441D01*
X0273032Y0194517D01*
X0272927Y0194596D01*
X0272824Y0194678D01*
X0272724Y0194763D01*
X0272627Y0194852D01*
X0272532Y0194943D01*
X0272440Y0195037D01*
X0272351Y0195134D01*
X0272265Y0195233D01*
X0272182Y0195335D01*
X0272102Y0195440D01*
X0272026Y0195546D01*
X0271953Y0195655D01*
X0271883Y0195767D01*
X0271816Y0195880D01*
X0271753Y0195995D01*
X0271693Y0196113D01*
X0271637Y0196231D01*
X0271585Y0196352D01*
X0271536Y0196474D01*
X0271491Y0196598D01*
X0271450Y0196722D01*
X0271413Y0196849D01*
X0271379Y0196976D01*
X0271349Y0197104D01*
X0271324Y0197233D01*
X0271302Y0197362D01*
X0271284Y0197492D01*
X0271270Y0197623D01*
X0271260Y0197754D01*
X0271254Y0197886D01*
X0271252Y0198017D01*
X0364952Y0198017D02*
X0364954Y0198148D01*
X0364960Y0198280D01*
X0364970Y0198411D01*
X0364984Y0198542D01*
X0365002Y0198672D01*
X0365024Y0198801D01*
X0365049Y0198930D01*
X0365079Y0199058D01*
X0365113Y0199185D01*
X0365150Y0199312D01*
X0365191Y0199436D01*
X0365236Y0199560D01*
X0365285Y0199682D01*
X0365337Y0199803D01*
X0365393Y0199921D01*
X0365453Y0200039D01*
X0365516Y0200154D01*
X0365583Y0200267D01*
X0365653Y0200379D01*
X0365726Y0200488D01*
X0365802Y0200594D01*
X0365882Y0200699D01*
X0365965Y0200801D01*
X0366051Y0200900D01*
X0366140Y0200997D01*
X0366232Y0201091D01*
X0366327Y0201182D01*
X0366424Y0201271D01*
X0366524Y0201356D01*
X0366627Y0201438D01*
X0366732Y0201517D01*
X0366839Y0201593D01*
X0366949Y0201665D01*
X0367061Y0201734D01*
X0367175Y0201800D01*
X0367290Y0201862D01*
X0367408Y0201921D01*
X0367527Y0201976D01*
X0367648Y0202028D01*
X0367771Y0202075D01*
X0367895Y0202119D01*
X0368020Y0202160D01*
X0368146Y0202196D01*
X0368274Y0202229D01*
X0368402Y0202257D01*
X0368531Y0202282D01*
X0368661Y0202303D01*
X0368791Y0202320D01*
X0368922Y0202333D01*
X0369053Y0202342D01*
X0369184Y0202347D01*
X0369316Y0202348D01*
X0369447Y0202345D01*
X0369579Y0202338D01*
X0369710Y0202327D01*
X0369840Y0202312D01*
X0369970Y0202293D01*
X0370100Y0202270D01*
X0370228Y0202244D01*
X0370356Y0202213D01*
X0370483Y0202178D01*
X0370609Y0202140D01*
X0370733Y0202098D01*
X0370857Y0202052D01*
X0370978Y0202002D01*
X0371098Y0201949D01*
X0371217Y0201892D01*
X0371334Y0201832D01*
X0371448Y0201768D01*
X0371561Y0201700D01*
X0371672Y0201629D01*
X0371781Y0201555D01*
X0371887Y0201478D01*
X0371991Y0201397D01*
X0372092Y0201314D01*
X0372191Y0201227D01*
X0372287Y0201137D01*
X0372380Y0201044D01*
X0372471Y0200949D01*
X0372558Y0200851D01*
X0372643Y0200750D01*
X0372724Y0200647D01*
X0372802Y0200541D01*
X0372877Y0200433D01*
X0372949Y0200323D01*
X0373017Y0200211D01*
X0373082Y0200097D01*
X0373143Y0199980D01*
X0373201Y0199862D01*
X0373255Y0199742D01*
X0373306Y0199621D01*
X0373353Y0199498D01*
X0373396Y0199374D01*
X0373435Y0199249D01*
X0373471Y0199122D01*
X0373502Y0198994D01*
X0373530Y0198866D01*
X0373554Y0198737D01*
X0373574Y0198607D01*
X0373590Y0198476D01*
X0373602Y0198345D01*
X0373610Y0198214D01*
X0373614Y0198083D01*
X0373614Y0197951D01*
X0373610Y0197820D01*
X0373602Y0197689D01*
X0373590Y0197558D01*
X0373574Y0197427D01*
X0373554Y0197297D01*
X0373530Y0197168D01*
X0373502Y0197040D01*
X0373471Y0196912D01*
X0373435Y0196785D01*
X0373396Y0196660D01*
X0373353Y0196536D01*
X0373306Y0196413D01*
X0373255Y0196292D01*
X0373201Y0196172D01*
X0373143Y0196054D01*
X0373082Y0195937D01*
X0373017Y0195823D01*
X0372949Y0195711D01*
X0372877Y0195601D01*
X0372802Y0195493D01*
X0372724Y0195387D01*
X0372643Y0195284D01*
X0372558Y0195183D01*
X0372471Y0195085D01*
X0372380Y0194990D01*
X0372287Y0194897D01*
X0372191Y0194807D01*
X0372092Y0194720D01*
X0371991Y0194637D01*
X0371887Y0194556D01*
X0371781Y0194479D01*
X0371672Y0194405D01*
X0371561Y0194334D01*
X0371449Y0194266D01*
X0371334Y0194202D01*
X0371217Y0194142D01*
X0371098Y0194085D01*
X0370978Y0194032D01*
X0370857Y0193982D01*
X0370733Y0193936D01*
X0370609Y0193894D01*
X0370483Y0193856D01*
X0370356Y0193821D01*
X0370228Y0193790D01*
X0370100Y0193764D01*
X0369970Y0193741D01*
X0369840Y0193722D01*
X0369710Y0193707D01*
X0369579Y0193696D01*
X0369447Y0193689D01*
X0369316Y0193686D01*
X0369184Y0193687D01*
X0369053Y0193692D01*
X0368922Y0193701D01*
X0368791Y0193714D01*
X0368661Y0193731D01*
X0368531Y0193752D01*
X0368402Y0193777D01*
X0368274Y0193805D01*
X0368146Y0193838D01*
X0368020Y0193874D01*
X0367895Y0193915D01*
X0367771Y0193959D01*
X0367648Y0194006D01*
X0367527Y0194058D01*
X0367408Y0194113D01*
X0367290Y0194172D01*
X0367175Y0194234D01*
X0367061Y0194300D01*
X0366949Y0194369D01*
X0366839Y0194441D01*
X0366732Y0194517D01*
X0366627Y0194596D01*
X0366524Y0194678D01*
X0366424Y0194763D01*
X0366327Y0194852D01*
X0366232Y0194943D01*
X0366140Y0195037D01*
X0366051Y0195134D01*
X0365965Y0195233D01*
X0365882Y0195335D01*
X0365802Y0195440D01*
X0365726Y0195546D01*
X0365653Y0195655D01*
X0365583Y0195767D01*
X0365516Y0195880D01*
X0365453Y0195995D01*
X0365393Y0196113D01*
X0365337Y0196231D01*
X0365285Y0196352D01*
X0365236Y0196474D01*
X0365191Y0196598D01*
X0365150Y0196722D01*
X0365113Y0196849D01*
X0365079Y0196976D01*
X0365049Y0197104D01*
X0365024Y0197233D01*
X0365002Y0197362D01*
X0364984Y0197492D01*
X0364970Y0197623D01*
X0364960Y0197754D01*
X0364954Y0197886D01*
X0364952Y0198017D01*
X0397732Y0229862D02*
X0397734Y0230010D01*
X0397740Y0230158D01*
X0397750Y0230306D01*
X0397764Y0230453D01*
X0397782Y0230600D01*
X0397803Y0230746D01*
X0397829Y0230892D01*
X0397859Y0231037D01*
X0397892Y0231181D01*
X0397930Y0231324D01*
X0397971Y0231466D01*
X0398016Y0231607D01*
X0398064Y0231747D01*
X0398117Y0231886D01*
X0398173Y0232023D01*
X0398233Y0232158D01*
X0398296Y0232292D01*
X0398363Y0232424D01*
X0398434Y0232554D01*
X0398508Y0232682D01*
X0398585Y0232808D01*
X0398666Y0232932D01*
X0398750Y0233054D01*
X0398837Y0233173D01*
X0398928Y0233290D01*
X0399022Y0233405D01*
X0399118Y0233517D01*
X0399218Y0233627D01*
X0399320Y0233733D01*
X0399426Y0233837D01*
X0399534Y0233938D01*
X0399645Y0234036D01*
X0399758Y0234132D01*
X0399874Y0234224D01*
X0399992Y0234313D01*
X0400113Y0234398D01*
X0400236Y0234481D01*
X0400361Y0234560D01*
X0400488Y0234636D01*
X0400617Y0234708D01*
X0400748Y0234777D01*
X0400881Y0234842D01*
X0401016Y0234903D01*
X0401152Y0234961D01*
X0401289Y0235016D01*
X0401428Y0235066D01*
X0401569Y0235113D01*
X0401710Y0235156D01*
X0401853Y0235196D01*
X0401997Y0235231D01*
X0402141Y0235263D01*
X0402287Y0235290D01*
X0402433Y0235314D01*
X0402580Y0235334D01*
X0402727Y0235350D01*
X0402874Y0235362D01*
X0403022Y0235370D01*
X0403170Y0235374D01*
X0403318Y0235374D01*
X0403466Y0235370D01*
X0403614Y0235362D01*
X0403761Y0235350D01*
X0403908Y0235334D01*
X0404055Y0235314D01*
X0404201Y0235290D01*
X0404347Y0235263D01*
X0404491Y0235231D01*
X0404635Y0235196D01*
X0404778Y0235156D01*
X0404919Y0235113D01*
X0405060Y0235066D01*
X0405199Y0235016D01*
X0405336Y0234961D01*
X0405472Y0234903D01*
X0405607Y0234842D01*
X0405740Y0234777D01*
X0405871Y0234708D01*
X0406000Y0234636D01*
X0406127Y0234560D01*
X0406252Y0234481D01*
X0406375Y0234398D01*
X0406496Y0234313D01*
X0406614Y0234224D01*
X0406730Y0234132D01*
X0406843Y0234036D01*
X0406954Y0233938D01*
X0407062Y0233837D01*
X0407168Y0233733D01*
X0407270Y0233627D01*
X0407370Y0233517D01*
X0407466Y0233405D01*
X0407560Y0233290D01*
X0407651Y0233173D01*
X0407738Y0233054D01*
X0407822Y0232932D01*
X0407903Y0232808D01*
X0407980Y0232682D01*
X0408054Y0232554D01*
X0408125Y0232424D01*
X0408192Y0232292D01*
X0408255Y0232158D01*
X0408315Y0232023D01*
X0408371Y0231886D01*
X0408424Y0231747D01*
X0408472Y0231607D01*
X0408517Y0231466D01*
X0408558Y0231324D01*
X0408596Y0231181D01*
X0408629Y0231037D01*
X0408659Y0230892D01*
X0408685Y0230746D01*
X0408706Y0230600D01*
X0408724Y0230453D01*
X0408738Y0230306D01*
X0408748Y0230158D01*
X0408754Y0230010D01*
X0408756Y0229862D01*
X0408754Y0229714D01*
X0408748Y0229566D01*
X0408738Y0229418D01*
X0408724Y0229271D01*
X0408706Y0229124D01*
X0408685Y0228978D01*
X0408659Y0228832D01*
X0408629Y0228687D01*
X0408596Y0228543D01*
X0408558Y0228400D01*
X0408517Y0228258D01*
X0408472Y0228117D01*
X0408424Y0227977D01*
X0408371Y0227838D01*
X0408315Y0227701D01*
X0408255Y0227566D01*
X0408192Y0227432D01*
X0408125Y0227300D01*
X0408054Y0227170D01*
X0407980Y0227042D01*
X0407903Y0226916D01*
X0407822Y0226792D01*
X0407738Y0226670D01*
X0407651Y0226551D01*
X0407560Y0226434D01*
X0407466Y0226319D01*
X0407370Y0226207D01*
X0407270Y0226097D01*
X0407168Y0225991D01*
X0407062Y0225887D01*
X0406954Y0225786D01*
X0406843Y0225688D01*
X0406730Y0225592D01*
X0406614Y0225500D01*
X0406496Y0225411D01*
X0406375Y0225326D01*
X0406252Y0225243D01*
X0406127Y0225164D01*
X0406000Y0225088D01*
X0405871Y0225016D01*
X0405740Y0224947D01*
X0405607Y0224882D01*
X0405472Y0224821D01*
X0405336Y0224763D01*
X0405199Y0224708D01*
X0405060Y0224658D01*
X0404919Y0224611D01*
X0404778Y0224568D01*
X0404635Y0224528D01*
X0404491Y0224493D01*
X0404347Y0224461D01*
X0404201Y0224434D01*
X0404055Y0224410D01*
X0403908Y0224390D01*
X0403761Y0224374D01*
X0403614Y0224362D01*
X0403466Y0224354D01*
X0403318Y0224350D01*
X0403170Y0224350D01*
X0403022Y0224354D01*
X0402874Y0224362D01*
X0402727Y0224374D01*
X0402580Y0224390D01*
X0402433Y0224410D01*
X0402287Y0224434D01*
X0402141Y0224461D01*
X0401997Y0224493D01*
X0401853Y0224528D01*
X0401710Y0224568D01*
X0401569Y0224611D01*
X0401428Y0224658D01*
X0401289Y0224708D01*
X0401152Y0224763D01*
X0401016Y0224821D01*
X0400881Y0224882D01*
X0400748Y0224947D01*
X0400617Y0225016D01*
X0400488Y0225088D01*
X0400361Y0225164D01*
X0400236Y0225243D01*
X0400113Y0225326D01*
X0399992Y0225411D01*
X0399874Y0225500D01*
X0399758Y0225592D01*
X0399645Y0225688D01*
X0399534Y0225786D01*
X0399426Y0225887D01*
X0399320Y0225991D01*
X0399218Y0226097D01*
X0399118Y0226207D01*
X0399022Y0226319D01*
X0398928Y0226434D01*
X0398837Y0226551D01*
X0398750Y0226670D01*
X0398666Y0226792D01*
X0398585Y0226916D01*
X0398508Y0227042D01*
X0398434Y0227170D01*
X0398363Y0227300D01*
X0398296Y0227432D01*
X0398233Y0227566D01*
X0398173Y0227701D01*
X0398117Y0227838D01*
X0398064Y0227977D01*
X0398016Y0228117D01*
X0397971Y0228258D01*
X0397930Y0228400D01*
X0397892Y0228543D01*
X0397859Y0228687D01*
X0397829Y0228832D01*
X0397803Y0228978D01*
X0397782Y0229124D01*
X0397764Y0229271D01*
X0397750Y0229418D01*
X0397740Y0229566D01*
X0397734Y0229714D01*
X0397732Y0229862D01*
X0434935Y0202657D02*
X0434937Y0202817D01*
X0434943Y0202976D01*
X0434953Y0203135D01*
X0434967Y0203294D01*
X0434985Y0203453D01*
X0435006Y0203611D01*
X0435032Y0203768D01*
X0435062Y0203925D01*
X0435095Y0204081D01*
X0435133Y0204236D01*
X0435174Y0204390D01*
X0435219Y0204543D01*
X0435268Y0204695D01*
X0435321Y0204846D01*
X0435377Y0204995D01*
X0435438Y0205143D01*
X0435501Y0205289D01*
X0435569Y0205434D01*
X0435640Y0205577D01*
X0435714Y0205718D01*
X0435792Y0205857D01*
X0435874Y0205994D01*
X0435959Y0206129D01*
X0436047Y0206262D01*
X0436139Y0206393D01*
X0436233Y0206521D01*
X0436331Y0206647D01*
X0436432Y0206771D01*
X0436536Y0206892D01*
X0436643Y0207010D01*
X0436753Y0207126D01*
X0436866Y0207239D01*
X0436982Y0207349D01*
X0437100Y0207456D01*
X0437221Y0207560D01*
X0437345Y0207661D01*
X0437471Y0207759D01*
X0437599Y0207853D01*
X0437730Y0207945D01*
X0437863Y0208033D01*
X0437998Y0208118D01*
X0438135Y0208200D01*
X0438274Y0208278D01*
X0438415Y0208352D01*
X0438558Y0208423D01*
X0438703Y0208491D01*
X0438849Y0208554D01*
X0438997Y0208615D01*
X0439146Y0208671D01*
X0439297Y0208724D01*
X0439449Y0208773D01*
X0439602Y0208818D01*
X0439756Y0208859D01*
X0439911Y0208897D01*
X0440067Y0208930D01*
X0440224Y0208960D01*
X0440381Y0208986D01*
X0440539Y0209007D01*
X0440698Y0209025D01*
X0440857Y0209039D01*
X0441016Y0209049D01*
X0441175Y0209055D01*
X0441335Y0209057D01*
X0441495Y0209055D01*
X0441654Y0209049D01*
X0441813Y0209039D01*
X0441972Y0209025D01*
X0442131Y0209007D01*
X0442289Y0208986D01*
X0442446Y0208960D01*
X0442603Y0208930D01*
X0442759Y0208897D01*
X0442914Y0208859D01*
X0443068Y0208818D01*
X0443221Y0208773D01*
X0443373Y0208724D01*
X0443524Y0208671D01*
X0443673Y0208615D01*
X0443821Y0208554D01*
X0443967Y0208491D01*
X0444112Y0208423D01*
X0444255Y0208352D01*
X0444396Y0208278D01*
X0444535Y0208200D01*
X0444672Y0208118D01*
X0444807Y0208033D01*
X0444940Y0207945D01*
X0445071Y0207853D01*
X0445199Y0207759D01*
X0445325Y0207661D01*
X0445449Y0207560D01*
X0445570Y0207456D01*
X0445688Y0207349D01*
X0445804Y0207239D01*
X0445917Y0207126D01*
X0446027Y0207010D01*
X0446134Y0206892D01*
X0446238Y0206771D01*
X0446339Y0206647D01*
X0446437Y0206521D01*
X0446531Y0206393D01*
X0446623Y0206262D01*
X0446711Y0206129D01*
X0446796Y0205994D01*
X0446878Y0205857D01*
X0446956Y0205718D01*
X0447030Y0205577D01*
X0447101Y0205434D01*
X0447169Y0205289D01*
X0447232Y0205143D01*
X0447293Y0204995D01*
X0447349Y0204846D01*
X0447402Y0204695D01*
X0447451Y0204543D01*
X0447496Y0204390D01*
X0447537Y0204236D01*
X0447575Y0204081D01*
X0447608Y0203925D01*
X0447638Y0203768D01*
X0447664Y0203611D01*
X0447685Y0203453D01*
X0447703Y0203294D01*
X0447717Y0203135D01*
X0447727Y0202976D01*
X0447733Y0202817D01*
X0447735Y0202657D01*
X0447733Y0202497D01*
X0447727Y0202338D01*
X0447717Y0202179D01*
X0447703Y0202020D01*
X0447685Y0201861D01*
X0447664Y0201703D01*
X0447638Y0201546D01*
X0447608Y0201389D01*
X0447575Y0201233D01*
X0447537Y0201078D01*
X0447496Y0200924D01*
X0447451Y0200771D01*
X0447402Y0200619D01*
X0447349Y0200468D01*
X0447293Y0200319D01*
X0447232Y0200171D01*
X0447169Y0200025D01*
X0447101Y0199880D01*
X0447030Y0199737D01*
X0446956Y0199596D01*
X0446878Y0199457D01*
X0446796Y0199320D01*
X0446711Y0199185D01*
X0446623Y0199052D01*
X0446531Y0198921D01*
X0446437Y0198793D01*
X0446339Y0198667D01*
X0446238Y0198543D01*
X0446134Y0198422D01*
X0446027Y0198304D01*
X0445917Y0198188D01*
X0445804Y0198075D01*
X0445688Y0197965D01*
X0445570Y0197858D01*
X0445449Y0197754D01*
X0445325Y0197653D01*
X0445199Y0197555D01*
X0445071Y0197461D01*
X0444940Y0197369D01*
X0444807Y0197281D01*
X0444672Y0197196D01*
X0444535Y0197114D01*
X0444396Y0197036D01*
X0444255Y0196962D01*
X0444112Y0196891D01*
X0443967Y0196823D01*
X0443821Y0196760D01*
X0443673Y0196699D01*
X0443524Y0196643D01*
X0443373Y0196590D01*
X0443221Y0196541D01*
X0443068Y0196496D01*
X0442914Y0196455D01*
X0442759Y0196417D01*
X0442603Y0196384D01*
X0442446Y0196354D01*
X0442289Y0196328D01*
X0442131Y0196307D01*
X0441972Y0196289D01*
X0441813Y0196275D01*
X0441654Y0196265D01*
X0441495Y0196259D01*
X0441335Y0196257D01*
X0441175Y0196259D01*
X0441016Y0196265D01*
X0440857Y0196275D01*
X0440698Y0196289D01*
X0440539Y0196307D01*
X0440381Y0196328D01*
X0440224Y0196354D01*
X0440067Y0196384D01*
X0439911Y0196417D01*
X0439756Y0196455D01*
X0439602Y0196496D01*
X0439449Y0196541D01*
X0439297Y0196590D01*
X0439146Y0196643D01*
X0438997Y0196699D01*
X0438849Y0196760D01*
X0438703Y0196823D01*
X0438558Y0196891D01*
X0438415Y0196962D01*
X0438274Y0197036D01*
X0438135Y0197114D01*
X0437998Y0197196D01*
X0437863Y0197281D01*
X0437730Y0197369D01*
X0437599Y0197461D01*
X0437471Y0197555D01*
X0437345Y0197653D01*
X0437221Y0197754D01*
X0437100Y0197858D01*
X0436982Y0197965D01*
X0436866Y0198075D01*
X0436753Y0198188D01*
X0436643Y0198304D01*
X0436536Y0198422D01*
X0436432Y0198543D01*
X0436331Y0198667D01*
X0436233Y0198793D01*
X0436139Y0198921D01*
X0436047Y0199052D01*
X0435959Y0199185D01*
X0435874Y0199320D01*
X0435792Y0199457D01*
X0435714Y0199596D01*
X0435640Y0199737D01*
X0435569Y0199880D01*
X0435501Y0200025D01*
X0435438Y0200171D01*
X0435377Y0200319D01*
X0435321Y0200468D01*
X0435268Y0200619D01*
X0435219Y0200771D01*
X0435174Y0200924D01*
X0435133Y0201078D01*
X0435095Y0201233D01*
X0435062Y0201389D01*
X0435032Y0201546D01*
X0435006Y0201703D01*
X0434985Y0201861D01*
X0434967Y0202020D01*
X0434953Y0202179D01*
X0434943Y0202338D01*
X0434937Y0202497D01*
X0434935Y0202657D01*
X0434935Y0162657D02*
X0434937Y0162817D01*
X0434943Y0162976D01*
X0434953Y0163135D01*
X0434967Y0163294D01*
X0434985Y0163453D01*
X0435006Y0163611D01*
X0435032Y0163768D01*
X0435062Y0163925D01*
X0435095Y0164081D01*
X0435133Y0164236D01*
X0435174Y0164390D01*
X0435219Y0164543D01*
X0435268Y0164695D01*
X0435321Y0164846D01*
X0435377Y0164995D01*
X0435438Y0165143D01*
X0435501Y0165289D01*
X0435569Y0165434D01*
X0435640Y0165577D01*
X0435714Y0165718D01*
X0435792Y0165857D01*
X0435874Y0165994D01*
X0435959Y0166129D01*
X0436047Y0166262D01*
X0436139Y0166393D01*
X0436233Y0166521D01*
X0436331Y0166647D01*
X0436432Y0166771D01*
X0436536Y0166892D01*
X0436643Y0167010D01*
X0436753Y0167126D01*
X0436866Y0167239D01*
X0436982Y0167349D01*
X0437100Y0167456D01*
X0437221Y0167560D01*
X0437345Y0167661D01*
X0437471Y0167759D01*
X0437599Y0167853D01*
X0437730Y0167945D01*
X0437863Y0168033D01*
X0437998Y0168118D01*
X0438135Y0168200D01*
X0438274Y0168278D01*
X0438415Y0168352D01*
X0438558Y0168423D01*
X0438703Y0168491D01*
X0438849Y0168554D01*
X0438997Y0168615D01*
X0439146Y0168671D01*
X0439297Y0168724D01*
X0439449Y0168773D01*
X0439602Y0168818D01*
X0439756Y0168859D01*
X0439911Y0168897D01*
X0440067Y0168930D01*
X0440224Y0168960D01*
X0440381Y0168986D01*
X0440539Y0169007D01*
X0440698Y0169025D01*
X0440857Y0169039D01*
X0441016Y0169049D01*
X0441175Y0169055D01*
X0441335Y0169057D01*
X0441495Y0169055D01*
X0441654Y0169049D01*
X0441813Y0169039D01*
X0441972Y0169025D01*
X0442131Y0169007D01*
X0442289Y0168986D01*
X0442446Y0168960D01*
X0442603Y0168930D01*
X0442759Y0168897D01*
X0442914Y0168859D01*
X0443068Y0168818D01*
X0443221Y0168773D01*
X0443373Y0168724D01*
X0443524Y0168671D01*
X0443673Y0168615D01*
X0443821Y0168554D01*
X0443967Y0168491D01*
X0444112Y0168423D01*
X0444255Y0168352D01*
X0444396Y0168278D01*
X0444535Y0168200D01*
X0444672Y0168118D01*
X0444807Y0168033D01*
X0444940Y0167945D01*
X0445071Y0167853D01*
X0445199Y0167759D01*
X0445325Y0167661D01*
X0445449Y0167560D01*
X0445570Y0167456D01*
X0445688Y0167349D01*
X0445804Y0167239D01*
X0445917Y0167126D01*
X0446027Y0167010D01*
X0446134Y0166892D01*
X0446238Y0166771D01*
X0446339Y0166647D01*
X0446437Y0166521D01*
X0446531Y0166393D01*
X0446623Y0166262D01*
X0446711Y0166129D01*
X0446796Y0165994D01*
X0446878Y0165857D01*
X0446956Y0165718D01*
X0447030Y0165577D01*
X0447101Y0165434D01*
X0447169Y0165289D01*
X0447232Y0165143D01*
X0447293Y0164995D01*
X0447349Y0164846D01*
X0447402Y0164695D01*
X0447451Y0164543D01*
X0447496Y0164390D01*
X0447537Y0164236D01*
X0447575Y0164081D01*
X0447608Y0163925D01*
X0447638Y0163768D01*
X0447664Y0163611D01*
X0447685Y0163453D01*
X0447703Y0163294D01*
X0447717Y0163135D01*
X0447727Y0162976D01*
X0447733Y0162817D01*
X0447735Y0162657D01*
X0447733Y0162497D01*
X0447727Y0162338D01*
X0447717Y0162179D01*
X0447703Y0162020D01*
X0447685Y0161861D01*
X0447664Y0161703D01*
X0447638Y0161546D01*
X0447608Y0161389D01*
X0447575Y0161233D01*
X0447537Y0161078D01*
X0447496Y0160924D01*
X0447451Y0160771D01*
X0447402Y0160619D01*
X0447349Y0160468D01*
X0447293Y0160319D01*
X0447232Y0160171D01*
X0447169Y0160025D01*
X0447101Y0159880D01*
X0447030Y0159737D01*
X0446956Y0159596D01*
X0446878Y0159457D01*
X0446796Y0159320D01*
X0446711Y0159185D01*
X0446623Y0159052D01*
X0446531Y0158921D01*
X0446437Y0158793D01*
X0446339Y0158667D01*
X0446238Y0158543D01*
X0446134Y0158422D01*
X0446027Y0158304D01*
X0445917Y0158188D01*
X0445804Y0158075D01*
X0445688Y0157965D01*
X0445570Y0157858D01*
X0445449Y0157754D01*
X0445325Y0157653D01*
X0445199Y0157555D01*
X0445071Y0157461D01*
X0444940Y0157369D01*
X0444807Y0157281D01*
X0444672Y0157196D01*
X0444535Y0157114D01*
X0444396Y0157036D01*
X0444255Y0156962D01*
X0444112Y0156891D01*
X0443967Y0156823D01*
X0443821Y0156760D01*
X0443673Y0156699D01*
X0443524Y0156643D01*
X0443373Y0156590D01*
X0443221Y0156541D01*
X0443068Y0156496D01*
X0442914Y0156455D01*
X0442759Y0156417D01*
X0442603Y0156384D01*
X0442446Y0156354D01*
X0442289Y0156328D01*
X0442131Y0156307D01*
X0441972Y0156289D01*
X0441813Y0156275D01*
X0441654Y0156265D01*
X0441495Y0156259D01*
X0441335Y0156257D01*
X0441175Y0156259D01*
X0441016Y0156265D01*
X0440857Y0156275D01*
X0440698Y0156289D01*
X0440539Y0156307D01*
X0440381Y0156328D01*
X0440224Y0156354D01*
X0440067Y0156384D01*
X0439911Y0156417D01*
X0439756Y0156455D01*
X0439602Y0156496D01*
X0439449Y0156541D01*
X0439297Y0156590D01*
X0439146Y0156643D01*
X0438997Y0156699D01*
X0438849Y0156760D01*
X0438703Y0156823D01*
X0438558Y0156891D01*
X0438415Y0156962D01*
X0438274Y0157036D01*
X0438135Y0157114D01*
X0437998Y0157196D01*
X0437863Y0157281D01*
X0437730Y0157369D01*
X0437599Y0157461D01*
X0437471Y0157555D01*
X0437345Y0157653D01*
X0437221Y0157754D01*
X0437100Y0157858D01*
X0436982Y0157965D01*
X0436866Y0158075D01*
X0436753Y0158188D01*
X0436643Y0158304D01*
X0436536Y0158422D01*
X0436432Y0158543D01*
X0436331Y0158667D01*
X0436233Y0158793D01*
X0436139Y0158921D01*
X0436047Y0159052D01*
X0435959Y0159185D01*
X0435874Y0159320D01*
X0435792Y0159457D01*
X0435714Y0159596D01*
X0435640Y0159737D01*
X0435569Y0159880D01*
X0435501Y0160025D01*
X0435438Y0160171D01*
X0435377Y0160319D01*
X0435321Y0160468D01*
X0435268Y0160619D01*
X0435219Y0160771D01*
X0435174Y0160924D01*
X0435133Y0161078D01*
X0435095Y0161233D01*
X0435062Y0161389D01*
X0435032Y0161546D01*
X0435006Y0161703D01*
X0434985Y0161861D01*
X0434967Y0162020D01*
X0434953Y0162179D01*
X0434943Y0162338D01*
X0434937Y0162497D01*
X0434935Y0162657D01*
X0434935Y0139665D02*
X0434937Y0139825D01*
X0434943Y0139984D01*
X0434953Y0140143D01*
X0434967Y0140302D01*
X0434985Y0140461D01*
X0435006Y0140619D01*
X0435032Y0140776D01*
X0435062Y0140933D01*
X0435095Y0141089D01*
X0435133Y0141244D01*
X0435174Y0141398D01*
X0435219Y0141551D01*
X0435268Y0141703D01*
X0435321Y0141854D01*
X0435377Y0142003D01*
X0435438Y0142151D01*
X0435501Y0142297D01*
X0435569Y0142442D01*
X0435640Y0142585D01*
X0435714Y0142726D01*
X0435792Y0142865D01*
X0435874Y0143002D01*
X0435959Y0143137D01*
X0436047Y0143270D01*
X0436139Y0143401D01*
X0436233Y0143529D01*
X0436331Y0143655D01*
X0436432Y0143779D01*
X0436536Y0143900D01*
X0436643Y0144018D01*
X0436753Y0144134D01*
X0436866Y0144247D01*
X0436982Y0144357D01*
X0437100Y0144464D01*
X0437221Y0144568D01*
X0437345Y0144669D01*
X0437471Y0144767D01*
X0437599Y0144861D01*
X0437730Y0144953D01*
X0437863Y0145041D01*
X0437998Y0145126D01*
X0438135Y0145208D01*
X0438274Y0145286D01*
X0438415Y0145360D01*
X0438558Y0145431D01*
X0438703Y0145499D01*
X0438849Y0145562D01*
X0438997Y0145623D01*
X0439146Y0145679D01*
X0439297Y0145732D01*
X0439449Y0145781D01*
X0439602Y0145826D01*
X0439756Y0145867D01*
X0439911Y0145905D01*
X0440067Y0145938D01*
X0440224Y0145968D01*
X0440381Y0145994D01*
X0440539Y0146015D01*
X0440698Y0146033D01*
X0440857Y0146047D01*
X0441016Y0146057D01*
X0441175Y0146063D01*
X0441335Y0146065D01*
X0441495Y0146063D01*
X0441654Y0146057D01*
X0441813Y0146047D01*
X0441972Y0146033D01*
X0442131Y0146015D01*
X0442289Y0145994D01*
X0442446Y0145968D01*
X0442603Y0145938D01*
X0442759Y0145905D01*
X0442914Y0145867D01*
X0443068Y0145826D01*
X0443221Y0145781D01*
X0443373Y0145732D01*
X0443524Y0145679D01*
X0443673Y0145623D01*
X0443821Y0145562D01*
X0443967Y0145499D01*
X0444112Y0145431D01*
X0444255Y0145360D01*
X0444396Y0145286D01*
X0444535Y0145208D01*
X0444672Y0145126D01*
X0444807Y0145041D01*
X0444940Y0144953D01*
X0445071Y0144861D01*
X0445199Y0144767D01*
X0445325Y0144669D01*
X0445449Y0144568D01*
X0445570Y0144464D01*
X0445688Y0144357D01*
X0445804Y0144247D01*
X0445917Y0144134D01*
X0446027Y0144018D01*
X0446134Y0143900D01*
X0446238Y0143779D01*
X0446339Y0143655D01*
X0446437Y0143529D01*
X0446531Y0143401D01*
X0446623Y0143270D01*
X0446711Y0143137D01*
X0446796Y0143002D01*
X0446878Y0142865D01*
X0446956Y0142726D01*
X0447030Y0142585D01*
X0447101Y0142442D01*
X0447169Y0142297D01*
X0447232Y0142151D01*
X0447293Y0142003D01*
X0447349Y0141854D01*
X0447402Y0141703D01*
X0447451Y0141551D01*
X0447496Y0141398D01*
X0447537Y0141244D01*
X0447575Y0141089D01*
X0447608Y0140933D01*
X0447638Y0140776D01*
X0447664Y0140619D01*
X0447685Y0140461D01*
X0447703Y0140302D01*
X0447717Y0140143D01*
X0447727Y0139984D01*
X0447733Y0139825D01*
X0447735Y0139665D01*
X0447733Y0139505D01*
X0447727Y0139346D01*
X0447717Y0139187D01*
X0447703Y0139028D01*
X0447685Y0138869D01*
X0447664Y0138711D01*
X0447638Y0138554D01*
X0447608Y0138397D01*
X0447575Y0138241D01*
X0447537Y0138086D01*
X0447496Y0137932D01*
X0447451Y0137779D01*
X0447402Y0137627D01*
X0447349Y0137476D01*
X0447293Y0137327D01*
X0447232Y0137179D01*
X0447169Y0137033D01*
X0447101Y0136888D01*
X0447030Y0136745D01*
X0446956Y0136604D01*
X0446878Y0136465D01*
X0446796Y0136328D01*
X0446711Y0136193D01*
X0446623Y0136060D01*
X0446531Y0135929D01*
X0446437Y0135801D01*
X0446339Y0135675D01*
X0446238Y0135551D01*
X0446134Y0135430D01*
X0446027Y0135312D01*
X0445917Y0135196D01*
X0445804Y0135083D01*
X0445688Y0134973D01*
X0445570Y0134866D01*
X0445449Y0134762D01*
X0445325Y0134661D01*
X0445199Y0134563D01*
X0445071Y0134469D01*
X0444940Y0134377D01*
X0444807Y0134289D01*
X0444672Y0134204D01*
X0444535Y0134122D01*
X0444396Y0134044D01*
X0444255Y0133970D01*
X0444112Y0133899D01*
X0443967Y0133831D01*
X0443821Y0133768D01*
X0443673Y0133707D01*
X0443524Y0133651D01*
X0443373Y0133598D01*
X0443221Y0133549D01*
X0443068Y0133504D01*
X0442914Y0133463D01*
X0442759Y0133425D01*
X0442603Y0133392D01*
X0442446Y0133362D01*
X0442289Y0133336D01*
X0442131Y0133315D01*
X0441972Y0133297D01*
X0441813Y0133283D01*
X0441654Y0133273D01*
X0441495Y0133267D01*
X0441335Y0133265D01*
X0441175Y0133267D01*
X0441016Y0133273D01*
X0440857Y0133283D01*
X0440698Y0133297D01*
X0440539Y0133315D01*
X0440381Y0133336D01*
X0440224Y0133362D01*
X0440067Y0133392D01*
X0439911Y0133425D01*
X0439756Y0133463D01*
X0439602Y0133504D01*
X0439449Y0133549D01*
X0439297Y0133598D01*
X0439146Y0133651D01*
X0438997Y0133707D01*
X0438849Y0133768D01*
X0438703Y0133831D01*
X0438558Y0133899D01*
X0438415Y0133970D01*
X0438274Y0134044D01*
X0438135Y0134122D01*
X0437998Y0134204D01*
X0437863Y0134289D01*
X0437730Y0134377D01*
X0437599Y0134469D01*
X0437471Y0134563D01*
X0437345Y0134661D01*
X0437221Y0134762D01*
X0437100Y0134866D01*
X0436982Y0134973D01*
X0436866Y0135083D01*
X0436753Y0135196D01*
X0436643Y0135312D01*
X0436536Y0135430D01*
X0436432Y0135551D01*
X0436331Y0135675D01*
X0436233Y0135801D01*
X0436139Y0135929D01*
X0436047Y0136060D01*
X0435959Y0136193D01*
X0435874Y0136328D01*
X0435792Y0136465D01*
X0435714Y0136604D01*
X0435640Y0136745D01*
X0435569Y0136888D01*
X0435501Y0137033D01*
X0435438Y0137179D01*
X0435377Y0137327D01*
X0435321Y0137476D01*
X0435268Y0137627D01*
X0435219Y0137779D01*
X0435174Y0137932D01*
X0435133Y0138086D01*
X0435095Y0138241D01*
X0435062Y0138397D01*
X0435032Y0138554D01*
X0435006Y0138711D01*
X0434985Y0138869D01*
X0434967Y0139028D01*
X0434953Y0139187D01*
X0434943Y0139346D01*
X0434937Y0139505D01*
X0434935Y0139665D01*
X0102457Y0229862D02*
X0102459Y0230010D01*
X0102465Y0230158D01*
X0102475Y0230306D01*
X0102489Y0230453D01*
X0102507Y0230600D01*
X0102528Y0230746D01*
X0102554Y0230892D01*
X0102584Y0231037D01*
X0102617Y0231181D01*
X0102655Y0231324D01*
X0102696Y0231466D01*
X0102741Y0231607D01*
X0102789Y0231747D01*
X0102842Y0231886D01*
X0102898Y0232023D01*
X0102958Y0232158D01*
X0103021Y0232292D01*
X0103088Y0232424D01*
X0103159Y0232554D01*
X0103233Y0232682D01*
X0103310Y0232808D01*
X0103391Y0232932D01*
X0103475Y0233054D01*
X0103562Y0233173D01*
X0103653Y0233290D01*
X0103747Y0233405D01*
X0103843Y0233517D01*
X0103943Y0233627D01*
X0104045Y0233733D01*
X0104151Y0233837D01*
X0104259Y0233938D01*
X0104370Y0234036D01*
X0104483Y0234132D01*
X0104599Y0234224D01*
X0104717Y0234313D01*
X0104838Y0234398D01*
X0104961Y0234481D01*
X0105086Y0234560D01*
X0105213Y0234636D01*
X0105342Y0234708D01*
X0105473Y0234777D01*
X0105606Y0234842D01*
X0105741Y0234903D01*
X0105877Y0234961D01*
X0106014Y0235016D01*
X0106153Y0235066D01*
X0106294Y0235113D01*
X0106435Y0235156D01*
X0106578Y0235196D01*
X0106722Y0235231D01*
X0106866Y0235263D01*
X0107012Y0235290D01*
X0107158Y0235314D01*
X0107305Y0235334D01*
X0107452Y0235350D01*
X0107599Y0235362D01*
X0107747Y0235370D01*
X0107895Y0235374D01*
X0108043Y0235374D01*
X0108191Y0235370D01*
X0108339Y0235362D01*
X0108486Y0235350D01*
X0108633Y0235334D01*
X0108780Y0235314D01*
X0108926Y0235290D01*
X0109072Y0235263D01*
X0109216Y0235231D01*
X0109360Y0235196D01*
X0109503Y0235156D01*
X0109644Y0235113D01*
X0109785Y0235066D01*
X0109924Y0235016D01*
X0110061Y0234961D01*
X0110197Y0234903D01*
X0110332Y0234842D01*
X0110465Y0234777D01*
X0110596Y0234708D01*
X0110725Y0234636D01*
X0110852Y0234560D01*
X0110977Y0234481D01*
X0111100Y0234398D01*
X0111221Y0234313D01*
X0111339Y0234224D01*
X0111455Y0234132D01*
X0111568Y0234036D01*
X0111679Y0233938D01*
X0111787Y0233837D01*
X0111893Y0233733D01*
X0111995Y0233627D01*
X0112095Y0233517D01*
X0112191Y0233405D01*
X0112285Y0233290D01*
X0112376Y0233173D01*
X0112463Y0233054D01*
X0112547Y0232932D01*
X0112628Y0232808D01*
X0112705Y0232682D01*
X0112779Y0232554D01*
X0112850Y0232424D01*
X0112917Y0232292D01*
X0112980Y0232158D01*
X0113040Y0232023D01*
X0113096Y0231886D01*
X0113149Y0231747D01*
X0113197Y0231607D01*
X0113242Y0231466D01*
X0113283Y0231324D01*
X0113321Y0231181D01*
X0113354Y0231037D01*
X0113384Y0230892D01*
X0113410Y0230746D01*
X0113431Y0230600D01*
X0113449Y0230453D01*
X0113463Y0230306D01*
X0113473Y0230158D01*
X0113479Y0230010D01*
X0113481Y0229862D01*
X0113479Y0229714D01*
X0113473Y0229566D01*
X0113463Y0229418D01*
X0113449Y0229271D01*
X0113431Y0229124D01*
X0113410Y0228978D01*
X0113384Y0228832D01*
X0113354Y0228687D01*
X0113321Y0228543D01*
X0113283Y0228400D01*
X0113242Y0228258D01*
X0113197Y0228117D01*
X0113149Y0227977D01*
X0113096Y0227838D01*
X0113040Y0227701D01*
X0112980Y0227566D01*
X0112917Y0227432D01*
X0112850Y0227300D01*
X0112779Y0227170D01*
X0112705Y0227042D01*
X0112628Y0226916D01*
X0112547Y0226792D01*
X0112463Y0226670D01*
X0112376Y0226551D01*
X0112285Y0226434D01*
X0112191Y0226319D01*
X0112095Y0226207D01*
X0111995Y0226097D01*
X0111893Y0225991D01*
X0111787Y0225887D01*
X0111679Y0225786D01*
X0111568Y0225688D01*
X0111455Y0225592D01*
X0111339Y0225500D01*
X0111221Y0225411D01*
X0111100Y0225326D01*
X0110977Y0225243D01*
X0110852Y0225164D01*
X0110725Y0225088D01*
X0110596Y0225016D01*
X0110465Y0224947D01*
X0110332Y0224882D01*
X0110197Y0224821D01*
X0110061Y0224763D01*
X0109924Y0224708D01*
X0109785Y0224658D01*
X0109644Y0224611D01*
X0109503Y0224568D01*
X0109360Y0224528D01*
X0109216Y0224493D01*
X0109072Y0224461D01*
X0108926Y0224434D01*
X0108780Y0224410D01*
X0108633Y0224390D01*
X0108486Y0224374D01*
X0108339Y0224362D01*
X0108191Y0224354D01*
X0108043Y0224350D01*
X0107895Y0224350D01*
X0107747Y0224354D01*
X0107599Y0224362D01*
X0107452Y0224374D01*
X0107305Y0224390D01*
X0107158Y0224410D01*
X0107012Y0224434D01*
X0106866Y0224461D01*
X0106722Y0224493D01*
X0106578Y0224528D01*
X0106435Y0224568D01*
X0106294Y0224611D01*
X0106153Y0224658D01*
X0106014Y0224708D01*
X0105877Y0224763D01*
X0105741Y0224821D01*
X0105606Y0224882D01*
X0105473Y0224947D01*
X0105342Y0225016D01*
X0105213Y0225088D01*
X0105086Y0225164D01*
X0104961Y0225243D01*
X0104838Y0225326D01*
X0104717Y0225411D01*
X0104599Y0225500D01*
X0104483Y0225592D01*
X0104370Y0225688D01*
X0104259Y0225786D01*
X0104151Y0225887D01*
X0104045Y0225991D01*
X0103943Y0226097D01*
X0103843Y0226207D01*
X0103747Y0226319D01*
X0103653Y0226434D01*
X0103562Y0226551D01*
X0103475Y0226670D01*
X0103391Y0226792D01*
X0103310Y0226916D01*
X0103233Y0227042D01*
X0103159Y0227170D01*
X0103088Y0227300D01*
X0103021Y0227432D01*
X0102958Y0227566D01*
X0102898Y0227701D01*
X0102842Y0227838D01*
X0102789Y0227977D01*
X0102741Y0228117D01*
X0102696Y0228258D01*
X0102655Y0228400D01*
X0102617Y0228543D01*
X0102584Y0228687D01*
X0102554Y0228832D01*
X0102528Y0228978D01*
X0102507Y0229124D01*
X0102489Y0229271D01*
X0102475Y0229418D01*
X0102465Y0229566D01*
X0102459Y0229714D01*
X0102457Y0229862D01*
D19*
X0267709Y0205891D02*
X0377157Y0205891D01*
X0377157Y0179906D01*
X0369283Y0179906D01*
X0369283Y0124394D01*
X0377157Y0124394D01*
X0377157Y0098410D01*
X0267709Y0098410D01*
X0267709Y0205891D01*
X0294393Y0160362D02*
X0295343Y0160362D01*
X0295660Y0160045D01*
X0295660Y0159411D01*
X0295343Y0159094D01*
X0294393Y0159094D01*
X0295027Y0159094D02*
X0295660Y0158460D01*
X0296603Y0158460D02*
X0297870Y0159728D01*
X0297870Y0160045D01*
X0297553Y0160362D01*
X0296919Y0160362D01*
X0296603Y0160045D01*
X0296603Y0158460D02*
X0297870Y0158460D01*
X0298812Y0158460D02*
X0300080Y0159728D01*
X0300080Y0160045D01*
X0299763Y0160362D01*
X0299129Y0160362D01*
X0298812Y0160045D01*
X0298812Y0158460D02*
X0300080Y0158460D01*
X0294393Y0158460D02*
X0294393Y0160362D01*
X0306393Y0160362D02*
X0306393Y0158460D01*
X0306393Y0159094D02*
X0307343Y0159094D01*
X0307660Y0159411D01*
X0307660Y0160045D01*
X0307343Y0160362D01*
X0306393Y0160362D01*
X0307027Y0159094D02*
X0307660Y0158460D01*
X0308603Y0158460D02*
X0309870Y0159728D01*
X0309870Y0160045D01*
X0309553Y0160362D01*
X0308919Y0160362D01*
X0308603Y0160045D01*
X0308603Y0158460D02*
X0309870Y0158460D01*
X0310812Y0158460D02*
X0312080Y0158460D01*
X0311446Y0158460D02*
X0311446Y0160362D01*
X0310812Y0159728D01*
X0377157Y0179906D02*
X0377157Y0124394D01*
X0322550Y0115348D02*
X0322550Y0107348D01*
X0321157Y0090610D02*
X0316157Y0090610D01*
X0316157Y0068610D01*
X0336157Y0068610D01*
X0336157Y0090610D01*
X0331157Y0090610D01*
X0331157Y0085610D01*
X0321157Y0085610D01*
X0321157Y0090610D01*
X0331157Y0090610D01*
X0289907Y0090610D02*
X0284907Y0090610D01*
X0284907Y0085610D01*
X0274907Y0085610D01*
X0274907Y0090610D01*
X0284907Y0090610D01*
X0289907Y0090610D02*
X0289907Y0068610D01*
X0269907Y0068610D01*
X0269907Y0090610D01*
X0274907Y0090610D01*
D20*
X0114865Y0093006D02*
X0114865Y0094540D01*
X0114098Y0095307D01*
X0112563Y0095307D01*
X0112563Y0093773D01*
X0111028Y0095307D02*
X0110261Y0094540D01*
X0110261Y0093006D01*
X0111028Y0092238D01*
X0114098Y0092238D01*
X0114865Y0093006D01*
X0114865Y0096842D02*
X0110261Y0096842D01*
X0114865Y0099911D01*
X0110261Y0099911D01*
X0110261Y0101446D02*
X0110261Y0103748D01*
X0111028Y0104515D01*
X0114098Y0104515D01*
X0114865Y0103748D01*
X0114865Y0101446D01*
X0110261Y0101446D01*
X0094865Y0102213D02*
X0094098Y0101446D01*
X0094865Y0102213D02*
X0094865Y0103748D01*
X0094098Y0104515D01*
X0093330Y0104515D01*
X0092563Y0103748D01*
X0092563Y0102981D01*
X0092563Y0103748D02*
X0091796Y0104515D01*
X0091028Y0104515D01*
X0090261Y0103748D01*
X0090261Y0102213D01*
X0091028Y0101446D01*
X0091796Y0099911D02*
X0094865Y0098377D01*
X0091796Y0096842D01*
X0091796Y0095307D02*
X0092563Y0094540D01*
X0093330Y0095307D01*
X0094098Y0095307D01*
X0094865Y0094540D01*
X0094865Y0093006D01*
X0094098Y0092238D01*
X0092563Y0093773D02*
X0092563Y0094540D01*
X0091796Y0095307D02*
X0091028Y0095307D01*
X0090261Y0094540D01*
X0090261Y0093006D01*
X0091028Y0092238D01*
X0091028Y0116850D02*
X0090261Y0117617D01*
X0090261Y0119152D01*
X0091028Y0119919D01*
X0091796Y0119919D01*
X0092563Y0119152D01*
X0093330Y0119919D01*
X0094098Y0119919D01*
X0094865Y0119152D01*
X0094865Y0117617D01*
X0094098Y0116850D01*
X0092563Y0118385D02*
X0092563Y0119152D01*
X0091796Y0121454D02*
X0094865Y0122989D01*
X0091796Y0124523D01*
X0091028Y0126058D02*
X0090261Y0126825D01*
X0090261Y0128360D01*
X0091028Y0129127D01*
X0091796Y0129127D01*
X0092563Y0128360D01*
X0093330Y0129127D01*
X0094098Y0129127D01*
X0094865Y0128360D01*
X0094865Y0126825D01*
X0094098Y0126058D01*
X0092563Y0127592D02*
X0092563Y0128360D01*
X0110261Y0128360D02*
X0110261Y0126058D01*
X0114865Y0126058D01*
X0114865Y0128360D01*
X0114098Y0129127D01*
X0111028Y0129127D01*
X0110261Y0128360D01*
X0110261Y0124523D02*
X0114865Y0124523D01*
X0110261Y0121454D01*
X0114865Y0121454D01*
X0114098Y0119919D02*
X0112563Y0119919D01*
X0112563Y0118385D01*
X0111028Y0119919D02*
X0110261Y0119152D01*
X0110261Y0117617D01*
X0111028Y0116850D01*
X0114098Y0116850D01*
X0114865Y0117617D01*
X0114865Y0119152D01*
X0114098Y0119919D01*
X0120261Y0198050D02*
X0120261Y0200352D01*
X0121028Y0201119D01*
X0121796Y0201119D01*
X0122563Y0200352D01*
X0122563Y0198050D01*
X0124865Y0198050D02*
X0124865Y0200352D01*
X0124098Y0201119D01*
X0123330Y0201119D01*
X0122563Y0200352D01*
X0122563Y0202654D02*
X0122563Y0205723D01*
X0121796Y0205723D02*
X0124865Y0205723D01*
X0121796Y0205723D02*
X0120261Y0204189D01*
X0121796Y0202654D01*
X0124865Y0202654D01*
X0124865Y0198050D02*
X0120261Y0198050D01*
X0130261Y0198650D02*
X0134865Y0198650D01*
X0134865Y0201719D01*
X0134865Y0203254D02*
X0130261Y0203254D01*
X0134865Y0206323D01*
X0130261Y0206323D01*
X0124865Y0208792D02*
X0120261Y0208792D01*
X0120261Y0207258D02*
X0120261Y0210327D01*
X0130261Y0201719D02*
X0130261Y0198650D01*
X0132563Y0198650D02*
X0132563Y0200185D01*
X0140261Y0201719D02*
X0144098Y0201719D01*
X0144865Y0200952D01*
X0144865Y0199417D01*
X0144098Y0198650D01*
X0140261Y0198650D01*
X0141028Y0203254D02*
X0141796Y0203254D01*
X0142563Y0204021D01*
X0142563Y0205556D01*
X0143330Y0206323D01*
X0144098Y0206323D01*
X0144865Y0205556D01*
X0144865Y0204021D01*
X0144098Y0203254D01*
X0141028Y0203254D02*
X0140261Y0204021D01*
X0140261Y0205556D01*
X0141028Y0206323D01*
X0140261Y0207858D02*
X0140261Y0210160D01*
X0141028Y0210927D01*
X0141796Y0210927D01*
X0142563Y0210160D01*
X0142563Y0207858D01*
X0142563Y0210160D02*
X0143330Y0210927D01*
X0144098Y0210927D01*
X0144865Y0210160D01*
X0144865Y0207858D01*
X0140261Y0207858D01*
D21*
X0318952Y0157716D02*
X0318952Y0145905D01*
X0330763Y0145905D01*
X0330763Y0157716D01*
X0318952Y0157716D01*
X0319739Y0154172D02*
X0319741Y0154211D01*
X0319747Y0154250D01*
X0319757Y0154288D01*
X0319770Y0154325D01*
X0319787Y0154360D01*
X0319807Y0154394D01*
X0319831Y0154425D01*
X0319858Y0154454D01*
X0319887Y0154480D01*
X0319919Y0154503D01*
X0319953Y0154523D01*
X0319989Y0154539D01*
X0320026Y0154551D01*
X0320065Y0154560D01*
X0320104Y0154565D01*
X0320143Y0154566D01*
X0320182Y0154563D01*
X0320221Y0154556D01*
X0320258Y0154545D01*
X0320295Y0154531D01*
X0320330Y0154513D01*
X0320363Y0154492D01*
X0320394Y0154467D01*
X0320422Y0154440D01*
X0320447Y0154410D01*
X0320469Y0154377D01*
X0320488Y0154343D01*
X0320503Y0154307D01*
X0320515Y0154269D01*
X0320523Y0154231D01*
X0320527Y0154192D01*
X0320527Y0154152D01*
X0320523Y0154113D01*
X0320515Y0154075D01*
X0320503Y0154037D01*
X0320488Y0154001D01*
X0320469Y0153967D01*
X0320447Y0153934D01*
X0320422Y0153904D01*
X0320394Y0153877D01*
X0320363Y0153852D01*
X0320330Y0153831D01*
X0320295Y0153813D01*
X0320258Y0153799D01*
X0320221Y0153788D01*
X0320182Y0153781D01*
X0320143Y0153778D01*
X0320104Y0153779D01*
X0320065Y0153784D01*
X0320026Y0153793D01*
X0319989Y0153805D01*
X0319953Y0153821D01*
X0319919Y0153841D01*
X0319887Y0153864D01*
X0319858Y0153890D01*
X0319831Y0153919D01*
X0319807Y0153950D01*
X0319787Y0153984D01*
X0319770Y0154019D01*
X0319757Y0154056D01*
X0319747Y0154094D01*
X0319741Y0154133D01*
X0319739Y0154172D01*
M02*
